<svg id="Calque_1" data-name="Calque 1" xmlns="http://www.w3.org/2000/svg" viewBox="0 0 841.89 595.28"><title>facebook</title><path d="M667.93,125V470.35a11.57,11.57,0,0,0-.84,2.2c-5,29.34-21.3,50.48-47.6,63.65-8,4-17.2,5.69-25.85,8.44H498.13c-.08-.8-.24-1.59-.24-2.39q0-90.18,0-180.35a33.84,33.84,0,0,1,.47-4h81.37V275.41H497.88c0-9.85,0-19.16,0-28.47,0-2.57,0-5.15.24-7.71,1.06-11.8,8.44-18.5,20.28-18.5h56.42c1.69,0,3.37-.15,4.92-.22V138.77c-24.14,0-47.91-.17-71.69.13A55.87,55.87,0,0,0,492,141.7c-36.27,11.67-56.84,37.93-67.21,73.37-4.11,14.07-4,28.57-3.84,43.05.06,5.73,0,11.46,0,17.58H361a31,31,0,0,0-.45,3.63c0,24.91,0,49.83-.08,74.74,0,3.25,1.14,4.08,4.2,4.05,14.31-.13,28.62-.06,42.92-.06H421V544.64H248.26a11.83,11.83,0,0,0-2.2-.84c-42.2-7.12-72.08-42.27-72.09-84.87q0-161.55,0-323.1a84.92,84.92,0,0,1,85.13-85.14q161.79,0,323.59.06c35,0,60.19,17.12,76.32,47.48C663.36,106.41,665,116,667.93,125Z"/></svg>