<svg id="Calque_1" data-name="Calque 1" xmlns="http://www.w3.org/2000/svg" viewBox="0 0 841.89 595.28"><defs><style>.cls-1{fill:#fff;}</style></defs><title>instagram</title><path d="M196.1,255.16H322.56c-14.74,54.91-.93,99.8,49.84,128.21,37.59,21,76.3,17.56,110.6-8.57,40-30.47,49.85-71.54,35.92-119.5H645.78c.1,1.95.29,3.9.29,5.85,0,48.56.34,97.12-.08,145.68S623.5,491.05,579.74,512.6c-15.11,7.44-31.55,10.13-48.29,10.15q-110.48.18-221,0c-50.95-.14-93.4-30-108.58-77a120.61,120.61,0,0,1-5.85-35.08c-.64-50.37-.29-100.76-.28-151.14C195.79,258.17,196,256.81,196.1,255.16Z"/><path d="M646.07,218H630.7c-43.29,0-86.59-.05-129.89.09A14.91,14.91,0,0,1,490,214.07a104.22,104.22,0,0,0-138.61.12c-2.2,1.94-5.53,3.67-8.35,3.68-47.74.22-95.49.16-143.24.15-1,0-2-.11-2.87-.16-.38-.44-.85-.73-.86-1-.55-27.1-2.05-54.27,10.5-79.7,7.92-16,18.47-29.79,33.68-41.08v93.53H265v-6.39c0-32.17.09-64.34-.11-96.5,0-4.16,1.07-6.15,5.12-7.14,6.22-1.53,12.32-3.56,19.51-5.69V189.73H314.1V72.5h6.55c70,0,140-.27,210,.1,48.22.24,83.33,22.49,104.92,65.56,7.35,14.68,10,30.69,10.44,47C646.28,195.85,646.07,206.55,646.07,218Zm-94-26.54c6.06,0,12.12.11,18.17,0,8.22-.2,13.09-4.5,13.3-12.54q.48-19.06,0-38.14c-.21-7.79-5-12.21-12.84-12.33q-18.48-.28-36.94,0c-8.25.13-13,5.13-13.07,13.43q-.14,17.87,0,35.73c.06,9,4.82,13.71,13.87,13.87C540.36,191.58,546.22,191.49,552.07,191.49Z"/><path d="M421,354.32a62.53,62.53,0,1,1,62.48-62.57A62.27,62.27,0,0,1,421,354.32Z"/><path class="cls-1" d="M552.07,191.49c-5.85,0-11.71.09-17.56,0-9-.16-13.81-4.91-13.87-13.87q-.1-17.86,0-35.73c.07-8.3,4.82-13.3,13.07-13.43q18.46-.27,36.94,0c7.82.12,12.63,4.54,12.84,12.33q.53,19,0,38.14c-.21,8-5.08,12.34-13.3,12.54C564.19,191.6,558.13,191.49,552.07,191.49Z"/></svg>