<?xml version="1.0" encoding="utf-8"?>
<!-- Generator: Adobe Illustrator 24.0.3, SVG Export Plug-In . SVG Version: 6.00 Build 0)  -->
<svg version="1.1" id="Layer_1" xmlns="http://www.w3.org/2000/svg" xmlns:xlink="http://www.w3.org/1999/xlink" x="0px" y="0px"
	 viewBox="0 0 226.7 199" style="enable-background:new 0 0 226.7 199;" xml:space="preserve">
<style type="text/css">
	.st0{fill:#903373;}
</style>
<path class="st0" d="M24.3,27.7c0.1-1.5-0.1-3-0.7-4.4C23,22.4,22,21.9,21,22c-1,0-1.9,0.3-2.8,0.8c-0.7,0.3-1.4,0.5-2.1,0.7
	c-0.3,0-0.7-0.1-1-0.3c-0.2-0.2-0.3-0.4-0.4-0.7c0-0.9,1.6-1.9,4.7-3.2c0.7-0.2,1.4-0.5,2-0.8c0.5-0.2,1-0.4,1.4-0.6
	c2.2-0.9,4.3-2.2,6.1-3.6c0.9-0.8,1.9-1.6,2.9-2.2c0.3,0,0.6,0.1,0.8,0.4c0.2,0.3,0.3,0.7,0.3,1.1l-0.3,3.9V20
	c-0.1,2.7-0.2,4.1-0.2,4.3V64c0,3,0.2,5.1,0.7,6.1c0.6,1.1,1.5,2,2.7,2.5c1.2,0.5,2.4,0.8,3.7,1c1.9,0.3,2.8,0.8,2.8,1.6
	c0,0.4-0.3,0.8-0.7,1c-0.6,0.2-1.2,0.3-1.8,0.3h-1.4c-1.2,0-2.6-0.1-4.2-0.2c-3.7-0.2-6.1-0.4-6.9-0.4c-0.9,0-1.6,0-2,0
	c-2.4,0.1-3.8,0.2-4,0.2l-3.8,0.3c-0.5,0-1.1-0.1-1.6-0.3c-0.3-0.2-0.5-0.5-0.5-0.8c0-0.9,1-1.5,2.8-1.9l2-0.5
	c1.4-0.3,2.5-1.3,3.1-2.5c0.4-0.9,0.6-1.8,0.7-2.7c0.2-1.6,0.2-3.1,0.2-4.7V27.7z"/>
<path class="st0" d="M69.4,12.5c5.8,0,10.6,2.9,14.4,8.7c3.8,5.8,5.7,13.2,5.7,22.1c0,4.2-0.5,8.3-1.5,12.3
	c-0.9,3.7-2.3,7.3-4.3,10.6c-1.8,3.3-4.3,6.2-7.4,8.4c-2.6,1.8-5.7,2.8-8.9,2.7c-5.9,0-10.8-2.8-14.7-8.3
	c-3.9-5.5-5.8-12.7-5.8-21.4c0-3.6,0.4-7.2,1.1-10.8c0.3-1.7,0.8-3.5,1.3-5.2c0.6-1.7,1.2-3.4,2-5c1.7-4.1,4.4-7.6,7.8-10.4
	C62,13.9,65.6,12.5,69.4,12.5z M65.2,18.6c-3.5-0.1-6.8,1.8-8.5,4.9c-2,3.3-3,7.9-3,13.8c0,3.8,0.4,7.5,1.1,11.2
	c0.6,3.6,1.7,7,3.1,10.4c1.4,3.4,3.4,6.6,6,9.2c1.9,2,4.6,3.1,7.4,3.1c3.6,0.1,6.9-1.9,8.7-5c2.1-3.3,3.2-8,3.2-13.9
	c0-2-0.1-4-0.3-6c-0.2-2-0.5-4-1-6c-0.8-3.7-2-7.4-3.7-10.8c-1.4-3.1-3.5-5.8-6-8.1C70.2,19.7,67.8,18.7,65.2,18.6z"/>
<path class="st0" d="M117.4,12.5c5.8,0,10.6,2.9,14.4,8.7c3.8,5.8,5.7,13.2,5.7,22.1c0,4.2-0.5,8.3-1.5,12.3
	c-0.9,3.7-2.3,7.3-4.3,10.6c-1.8,3.3-4.3,6.2-7.4,8.4c-2.6,1.8-5.7,2.8-8.9,2.7c-5.9,0-10.8-2.8-14.7-8.3C97,63.5,95,56.3,95,47.6
	c0-3.6,0.4-7.2,1.1-10.8c0.3-1.7,0.8-3.5,1.3-5.2c0.6-1.7,1.2-3.4,2-5c1.7-4.1,4.4-7.6,7.8-10.4C110.1,13.9,113.7,12.5,117.4,12.5z
	 M113.2,18.6c-3.5-0.1-6.8,1.8-8.4,4.9c-2,3.3-3,7.9-3,13.8c0,3.8,0.4,7.5,1.1,11.2c0.6,3.6,1.7,7,3.1,10.4c1.4,3.4,3.4,6.6,6,9.2
	c1.9,2,4.6,3.1,7.4,3.1c3.6,0.1,6.9-1.9,8.7-5c2.1-3.3,3.1-8,3.1-13.9c0-2-0.1-4-0.3-6c-0.2-2-0.5-4-1-6c-0.8-3.7-2-7.4-3.7-10.8
	c-1.4-3.1-3.5-5.8-6-8.1C118.3,19.7,115.8,18.7,113.2,18.6z"/>
<path class="st0" d="M21.2,172.9v-38.3c0-3.2-0.3-5.3-0.8-6.4c-0.6-1.1-1.7-2-2.9-2.3c-1-0.3-1.9-0.5-2.9-0.7
	c-2.1-0.3-3.1-0.9-3.1-1.8c0-0.4,0.2-0.8,0.6-1.1c0.5-0.3,1.1-0.4,1.7-0.4l1.6,0.1c1.1,0,2.3,0,3.7,0.1c3.3,0.2,5.3,0.3,6,0.3
	c2.7,0,4.8,0,6.3,0c7.4-0.2,11.4-0.2,12-0.2l12.4-0.3c0.4-0.1,0.8,0.1,1.1,0.3c0.3,0.6,0.4,1.2,0.3,1.8v0.8l0,1c0,1,0,1.7,0.1,2.2
	s0.1,1.2,0.3,2.3c0.2,1.2,0.3,2.4,0.4,3.6c0,0.6-0.1,1.2-0.3,1.8c-0.2,0.4-0.6,0.6-1,0.6c-0.7,0-1.2-0.8-1.6-2.3
	c-0.1-0.6-0.2-1.1-0.4-1.5s-0.3-0.8-0.4-1.2c-0.8-1.9-2.2-3.5-4.1-4.3c-1.9-0.8-5.5-1.3-10.8-1.3c-3.7,0-6.1,0.3-7.1,1
	c-1,0.7-1.5,1.9-1.5,3.6v16.2c0,1.6,0.2,2.6,0.6,3c0.4,0.4,1.4,0.6,3,0.6h4.9c2,0.1,4-0.2,5.9-0.7c1.3-0.5,2.3-1.4,3-2.6
	c0.4-0.9,0.7-1.8,1-2.7c0.5-1.5,1.1-2.3,1.8-2.3c0.3,0,0.6,0.2,0.8,0.7c0.2,0.5,0.3,1.1,0.3,1.7l-0.2,3.1l-0.2,4.8v2.8
	c0,0,0.1,1.9,0.2,2.9l0.3,3c0,0.6-0.1,1.2-0.3,1.7c-0.2,0.4-0.7,0.7-1.1,0.7c-0.7,0-1.1-0.6-1.4-1.9c-0.2-1-0.5-2-0.8-3
	c-0.3-1.4-1.2-2.5-2.3-3.3c-0.7-0.4-1.6-0.6-2.4-0.7c-1.4-0.2-2.7-0.2-4.1-0.2h-5.7c-1-0.1-1.9,0.2-2.6,0.8
	c-0.5,0.5-0.7,1.7-0.7,3.4v14.7c0,3.6,0.5,6,1.5,7.1s3.1,1.6,6.3,1.6c4.1,0.1,8.2-0.6,12-2c3.1-1.1,5.7-3,7.7-5.6
	c0.6-0.9,1.2-1.9,1.7-2.9c0.7-1.3,1.2-1.9,1.8-1.9c0.2,0,0.4,0.1,0.6,0.4c0.2,0.3,0.3,0.6,0.3,1c-0.1,1.6-0.4,3.1-0.9,4.6
	c-0.6,1.8-1.4,3.4-2.4,5c-1.5,2.9-4.3,4.9-7.6,5.3c-1.4,0.2-2.8,0.3-4.2,0.3l-2.9-0.1c-1.7-0.1-3.1-0.1-4.2-0.1l-10.3-0.2
	c-1.8,0-3.5,0-4.9,0.1c-5.1,0.2-7.8,0.3-8,0.4h-1.1c-0.5,0-0.9-0.1-1.3-0.4c-0.3-0.3-0.4-0.8-0.4-1.2c0-0.7,0.7-1.3,2-1.8
	c1.1-0.3,2.2-0.8,3.1-1.4c0.8-0.8,1.4-1.7,1.7-2.7C21.2,176.5,21.3,174.7,21.2,172.9L21.2,172.9z"/>
<path class="st0" d="M71.4,131.1c0-2.6-0.3-4.3-0.9-5.1s-1.7-1.2-3.3-1.2c-0.6,0-1.3,0-1.8-0.3c-0.4-0.2-0.6-0.6-0.5-1
	c0-0.7,0.9-1.2,2.6-1.5l3.6-0.8c0.8-0.2,1.7-0.5,2.5-0.8c0.9-0.3,1.7-0.7,2.5-1.2l2.6-1.2c0.2,0,0.4,0.1,0.6,0.4
	c0.1,0.3,0.2,0.7,0.2,1v0.7v2.4c-0.2,2.8-0.2,4.2-0.2,4.4v48.4c-0.1,1.7,0.1,3.5,0.7,5.1c0.5,1,1.3,1.9,2.4,2.2
	c0.9,0.2,1.9,0.4,2.8,0.5c1.4,0.2,2.1,0.6,2.2,1.4c0,0.4-0.2,0.9-0.5,1.1c-0.8,0.2-1.7,0.3-2.6,0.3l-3.9-0.1l-5.4-0.1l-4,0.2l-3,0.1
	c-0.3,0-0.7-0.1-1-0.2c-0.2-0.2-0.4-0.5-0.4-0.9c0-0.4,0.5-0.9,1.5-1.4l1.3-0.7c0.7-0.5,1.3-1.2,1.5-2c0.4-1.7,0.5-3.4,0.4-5.1
	L71.4,131.1z"/>
<path class="st0" d="M94.8,131.1c0-2.6-0.3-4.3-0.9-5.1s-1.7-1.2-3.3-1.2c-0.6,0-1.3,0-1.8-0.3c-0.4-0.2-0.6-0.6-0.5-1
	c0-0.7,0.9-1.2,2.6-1.5l3.6-0.8c0.8-0.2,1.7-0.5,2.5-0.8c0.9-0.3,1.7-0.7,2.6-1.2l2.6-1.2c0.2,0,0.4,0.1,0.6,0.4
	c0.1,0.3,0.2,0.7,0.2,1v0.7v2.4c-0.2,2.8-0.2,4.2-0.2,4.4v48.4c-0.1,1.7,0.1,3.5,0.7,5.1c0.5,1,1.3,1.9,2.4,2.2
	c0.9,0.2,1.9,0.4,2.8,0.5c1.4,0.2,2.1,0.6,2.2,1.4c0,0.4-0.2,0.9-0.5,1.1c-0.8,0.2-1.7,0.3-2.6,0.3l-3.9-0.1l-5.3-0.2l-4,0.2l-3,0.1
	c-0.3,0-0.7-0.1-1-0.2c-0.2-0.2-0.4-0.5-0.4-0.9c0-0.4,0.5-0.9,1.5-1.4l1.3-0.7c0.7-0.5,1.3-1.2,1.5-2c0.4-1.7,0.5-3.4,0.4-5.1
	L94.8,131.1z"/>
<path class="st0" d="M121.1,163.1v0.3c0,5.5,1.3,9.9,3.9,13.2c2.4,3.2,6.1,5.1,10.1,5c3.2,0,6.6-1.2,10.1-3.5
	c0.6-0.5,1.2-0.9,1.9-1.1c0.3,0,0.5,0.1,0.7,0.3c0.1,0.1,0.2,0.4,0.2,0.8c-0.2,0.7-0.6,1.4-1.1,1.9c-0.9,1-1.9,1.9-2.9,2.7
	c-3.5,2.8-7.9,4.3-12.4,4.3c-5.5,0-10-1.8-13.4-5.4s-5.1-8.4-5.1-14.4c-0.2-5.4,1.7-10.7,5.2-14.9c3.2-3.9,8-6.1,13.1-6
	c5.3-0.1,10.2,2.5,13.3,6.8c1,1.3,1.7,2.7,2.3,4.2c0.6,1.2,0.9,2.5,1,3.9c0.1,0.6-0.2,1.2-0.7,1.6c-0.9,0.4-1.9,0.6-2.9,0.5
	L121.1,163.1z M121.1,160.5h12.7c1.4,0.1,2.8-0.1,4.1-0.5c0.8-0.3,1.2-1.1,1.2-1.9c0-2.5-1-4.9-2.7-6.6c-1.7-1.8-4-2.9-6.5-2.9
	c-2.5,0-4.8,1.1-6.2,3.1c-0.8,1.2-1.5,2.5-1.9,3.8C121.3,157.1,121.1,158.8,121.1,160.5z"/>
<path class="st0" d="M169.6,146.2c2,0,4,0.2,6,0.7c1.8,0.5,2.8,0.9,3.1,1.4c0.3,0.9,0.4,1.9,0.5,2.9c0.1,0.7,0.2,1.5,0.3,2.4
	s0.1,1.5,0.1,2c0,0.3-0.1,0.5-0.3,0.8c-0.2,0.2-0.4,0.3-0.7,0.4c-0.5,0-1.1-0.6-1.8-1.8c-0.5-1-1.1-1.9-1.8-2.8
	c-1-1.1-2.2-2-3.5-2.7c-1.2-0.6-2.5-0.9-3.9-0.9c-1.6-0.1-3.1,0.5-4.3,1.5c-1.1,1-1.7,2.4-1.6,3.9c0,2.9,3,5.4,9.1,7.6l2.8,1
	c2.4,0.8,4.5,2.3,6.1,4.2c1.4,2,2.1,4.4,2.1,6.8c0.1,3.5-1.3,6.9-3.9,9.3c-2.8,2.5-6.4,3.8-10.1,3.6c-2.5-0.1-5-0.6-7.4-1.3
	l-2.9-0.8c-0.4-0.1-0.7-0.4-0.8-0.8c-0.2-0.9-0.3-1.8-0.2-2.7v-1.1c0-1.2-0.2-2.3-0.4-3.5l-0.4-2.9c0-0.4,0.1-0.7,0.3-1
	c0.2-0.3,0.4-0.4,0.8-0.4c0.6,0,1.2,0.8,1.8,2.4c0.1,0.4,0.3,0.9,0.5,1.4c0.2,0.6,0.5,1.1,0.8,1.6c0.9,1.9,2.3,3.7,4,5
	c1.5,1.1,3.3,1.7,5.1,1.7c1.9,0.1,3.8-0.6,5.2-1.9c1.3-1.3,2.1-3.1,2-5c0-3.1-3-5.8-9.1-8.2l-2.5-1c-2.3-0.9-4.4-2.4-6-4.3
	c-1.4-1.8-2.1-4-2.1-6.2c-0.1-3.2,1.2-6.2,3.6-8.3C162.7,147.1,166.1,146,169.6,146.2L169.6,146.2z"/>
<path class="st0" d="M201.7,124.5c-0.5,0-0.9,0-1.4,0v71.7H2.8V2.8h197.5v71.7c0.5,0,0.9,0,1.4,0c0.5,0,0.9,0,1.4,0V0H0v199h203.2
	v-74.6C202.7,124.5,202.2,124.5,201.7,124.5z"/>
<path class="st0" d="M213.7,85.6l-9.3,12.3v0.2l14.9-2v6.7l-14.9-1.8v0.2l9.4,11.8l-6.2,3.5l-5.9-13.8h-0.2l-6.4,13.9l-5.6-3.5
	l9.4-12V101l-14.6,1.9v-6.7l14.5,1.9v-0.2l-9.2-12l6-3.4l6.1,13.6h0.2l6-13.8L213.7,85.6z"/>
</svg>
