<svg xmlns="http://www.w3.org/2000/svg" viewBox="0 0 419.46 200.15"><defs><style>.cls-1{fill:#fff;}</style></defs><title>Asset 2</title><g id="Layer_2" data-name="Layer 2"><g id="Layer_1-2" data-name="Layer 1"><path class="cls-1" d="M24.85,28.25a9.37,9.37,0,0,0-.73-4.43,2.75,2.75,0,0,0-2.56-1.22,6.45,6.45,0,0,0-2.8.76,13.86,13.86,0,0,1-2.09.71,2,2,0,0,1-1-.27,1.15,1.15,0,0,1-.36-.71q0-1.29,4.71-3.16c.69-.24,1.37-.5,2.05-.78a11.86,11.86,0,0,0,1.42-.65,25,25,0,0,0,6.14-3.67,29.41,29.41,0,0,1,2.89-2.25.87.87,0,0,1,.78.36,2.61,2.61,0,0,1,.33,1.11l-.26,3.87c0,1.1,0,2-.05,2.67q-.18,4-.18,4.32V64.53q0,4.55.71,6.1a6.38,6.38,0,0,0,2.67,2.53,16.69,16.69,0,0,0,3.69,1c1.87.27,2.81.79,2.81,1.56a1.16,1.16,0,0,1-.72,1,4.35,4.35,0,0,1-1.77.31H39.13c-1.22,0-2.63,0-4.23-.16-3.73-.25-6-.37-6.94-.37s-1.57,0-2,0c-2.43.15-3.75.22-4,.22L18.14,77a3.52,3.52,0,0,1-1.52-.22,1.21,1.21,0,0,1-.53-.85c0-.89.95-1.51,2.85-1.87l1.91-.44A4.57,4.57,0,0,0,24,71.07a9.08,9.08,0,0,0,.67-2.71,38.83,38.83,0,0,0,.22-4.67Z"/><path class="cls-1" d="M69.94,13q8.69,0,14.41,8.67t5.74,22.15A50.45,50.45,0,0,1,88.62,56.2a40,40,0,0,1-4.27,10.61A25.65,25.65,0,0,1,77,75.19a15.46,15.46,0,0,1-8.87,2.73q-8.85,0-14.72-8.31T47.53,48.22a51.92,51.92,0,0,1,1.11-10.77A46.79,46.79,0,0,1,50,32.3a45.59,45.59,0,0,1,2-5,26.86,26.86,0,0,1,7.76-10.43A16.34,16.34,0,0,1,69.94,13Zm-4.18,6.14a9.43,9.43,0,0,0-8.44,4.89q-3,4.89-3,13.74a61,61,0,0,0,1.07,11.25,47.61,47.61,0,0,0,3.11,10.36,27.63,27.63,0,0,0,6,9.23,10.58,10.58,0,0,0,7.36,3.14,9.78,9.78,0,0,0,8.67-5q3.15-5,3.16-13.92a57,57,0,0,0-.32-6,51.35,51.35,0,0,0-1-6,44.73,44.73,0,0,0-3.69-10.81,24.89,24.89,0,0,0-6-8.07A10.7,10.7,0,0,0,65.76,19.18Z"/><path class="cls-1" d="M118,13q8.67,0,14.41,8.67t5.73,22.15A50.94,50.94,0,0,1,136.7,56.2a40.36,40.36,0,0,1-4.27,10.61,25.88,25.88,0,0,1-7.36,8.38,15.49,15.49,0,0,1-8.88,2.73q-8.85,0-14.72-8.31T95.6,48.22a51.26,51.26,0,0,1,1.12-10.77,46.77,46.77,0,0,1,1.33-5.15,45.69,45.69,0,0,1,2-5,26.66,26.66,0,0,1,7.76-10.43A16.29,16.29,0,0,1,118,13Zm-4.18,6.14a9.44,9.44,0,0,0-8.45,4.89q-3,4.89-3,13.74a61,61,0,0,0,1.07,11.25,47.61,47.61,0,0,0,3.11,10.36,27.63,27.63,0,0,0,6,9.23,10.58,10.58,0,0,0,7.36,3.14,9.76,9.76,0,0,0,8.67-5q3.17-5,3.16-13.92a57,57,0,0,0-.31-6,53.62,53.62,0,0,0-1-6,44.73,44.73,0,0,0-3.69-10.81,24.88,24.88,0,0,0-6-8.07A10.74,10.74,0,0,0,113.84,19.18Z"/><path class="cls-1" d="M21.83,173.43V135.1q0-4.8-.85-6.36a4.91,4.91,0,0,0-2.93-2.36,16.83,16.83,0,0,0-2.94-.67c-2.07-.32-3.11-.93-3.11-1.82a1.27,1.27,0,0,1,.56-1.07,3,3,0,0,1,1.71-.4l1.55.14c1.07,0,2.3,0,3.7.13q4.93.32,6,.31,4.1,0,6.32,0,11.07-.22,12-.23l12.4-.31a1.6,1.6,0,0,1,1.14.31,3.38,3.38,0,0,1,.29,1.83l0,.84,0,1c0,1,0,1.74.06,2.2s.14,1.24.29,2.34a29.49,29.49,0,0,1,.4,3.55,3.73,3.73,0,0,1-.33,1.81,1.13,1.13,0,0,1-1,.55c-.65,0-1.17-.77-1.55-2.31a15,15,0,0,0-.38-1.51c-.13-.42-.27-.83-.42-1.25a7.86,7.86,0,0,0-4.14-4.33q-2.85-1.28-10.81-1.27c-3.73,0-6.11.32-7.13,1S31,129,31,130.74v16.19c0,1.6.2,2.61.6,3s1.39.62,3,.62h4.94a17.37,17.37,0,0,0,5.93-.73,6,6,0,0,0,3-2.6,19.24,19.24,0,0,0,1.2-2.63c.54-1.54,1.14-2.31,1.83-2.31.32,0,.59.22.8.67a4.11,4.11,0,0,1,.31,1.69l-.23,3.11-.17,4.8c0,.92,0,1.86,0,2.81s.09,1.91.18,2.89l.27,3a3.22,3.22,0,0,1-.36,1.66,1.42,1.42,0,0,1-1.11.69c-.65,0-1.12-.63-1.4-1.91a30.14,30.14,0,0,0-.78-3,5.64,5.64,0,0,0-2.45-3.33,7,7,0,0,0-2.38-.67,30.32,30.32,0,0,0-4.11-.22H34.41a3.47,3.47,0,0,0-2.64.8c-.49.53-.74,1.67-.74,3.42v14.72q0,5.43,1.47,7.12t6.27,1.55a33.26,33.26,0,0,0,12-1.95,16.82,16.82,0,0,0,7.71-5.61,23.19,23.19,0,0,0,1.71-2.87c.67-1.26,1.26-1.89,1.76-1.89.21,0,.41.15.6.43a1.82,1.82,0,0,1,.29,1,15.61,15.61,0,0,1-.91,4.6,20.47,20.47,0,0,1-2.38,5.05A11.22,11.22,0,0,1,55,185.3a11.57,11.57,0,0,1-3,.94,24.57,24.57,0,0,1-4.25.31l-2.91-.11c-1.71-.08-3.12-.11-4.25-.11l-10.32-.23c-1.84,0-3.48,0-4.93.11-5.1.22-7.79.34-8,.34H16.18a2.09,2.09,0,0,1-1.29-.4,1.69,1.69,0,0,1-.4-1.25c0-.71.67-1.29,2-1.75a9.24,9.24,0,0,0,3-1.58,6.64,6.64,0,0,0,1.73-2.74A18.66,18.66,0,0,0,21.83,173.43Z"/><path class="cls-1" d="M72,131.64c0-2.61-.3-4.33-.89-5.14s-1.69-1.23-3.29-1.23a4.59,4.59,0,0,1-1.85-.26,1.05,1.05,0,0,1-.51-1c0-.68.86-1.17,2.58-1.46l3.6-.8a22.75,22.75,0,0,0,2.47-.78,23.68,23.68,0,0,0,2.56-1.18l2.62-1.25c.21,0,.4.15.58.44a4.18,4.18,0,0,1,.22,1v.66c0,1.08,0,1.89,0,2.45-.15,2.79-.23,4.25-.23,4.37v48.41a13.63,13.63,0,0,0,.69,5.09,4.1,4.1,0,0,0,2.38,2.25,19.56,19.56,0,0,0,2.85.47c1.39.16,2.13.62,2.22,1.36a1.26,1.26,0,0,1-.53,1.11,7.35,7.35,0,0,1-2.58.27l-3.87-.16-5.34-.16-4,.16-3,.16a1.8,1.8,0,0,1-1-.23,1.17,1.17,0,0,1-.4-.84c0-.45.49-.92,1.47-1.42l1.33-.72a3.29,3.29,0,0,0,1.49-2,20.26,20.26,0,0,0,.43-5.14Z"/><path class="cls-1" d="M95.34,131.64c0-2.61-.3-4.33-.89-5.14s-1.69-1.23-3.29-1.23a4.59,4.59,0,0,1-1.85-.26,1.05,1.05,0,0,1-.51-1c0-.68.86-1.17,2.58-1.46l3.6-.8a21.47,21.47,0,0,0,5-2l2.62-1.25c.21,0,.4.15.58.44a4.18,4.18,0,0,1,.22,1v.66c0,1.08,0,1.89,0,2.45-.15,2.79-.23,4.25-.23,4.37v48.41a13.63,13.63,0,0,0,.69,5.09,4.12,4.12,0,0,0,2.38,2.25,19.82,19.82,0,0,0,2.85.47c1.39.16,2.13.62,2.22,1.36a1.26,1.26,0,0,1-.53,1.11,7.35,7.35,0,0,1-2.58.27l-3.87-.16L99,186.1l-4,.16-3,.16a1.8,1.8,0,0,1-1-.23,1.21,1.21,0,0,1-.4-.84c0-.45.49-.92,1.47-1.42l1.34-.72a3.31,3.31,0,0,0,1.48-2,20.26,20.26,0,0,0,.43-5.14Z"/><path class="cls-1" d="M121.66,163.69V164q0,8.21,3.87,13.2a12.24,12.24,0,0,0,10.14,5q4.8,0,10.1-3.55a5,5,0,0,1,1.91-1.08.86.86,0,0,1,.71.27c.12.09.19.34.22.76a3.75,3.75,0,0,1-1.09,1.86,20.73,20.73,0,0,1-2.91,2.7,19.86,19.86,0,0,1-12.41,4.33q-8.26,0-13.36-5.46t-5.09-14.35a21.87,21.87,0,0,1,5.2-14.89,16.61,16.61,0,0,1,13.08-6,16.41,16.41,0,0,1,7.47,1.73,16.24,16.24,0,0,1,5.82,5,18,18,0,0,1,2.34,4.2,11.16,11.16,0,0,1,1,3.89,1.85,1.85,0,0,1-.66,1.62,5.68,5.68,0,0,1-2.89.47Zm0-2.62h12.72a10.9,10.9,0,0,0,4.14-.54,1.91,1.91,0,0,0,1.15-1.91A9.31,9.31,0,0,0,137,152a8.63,8.63,0,0,0-6.49-2.87,7.53,7.53,0,0,0-6.23,3.11,13.17,13.17,0,0,0-1.89,3.83A16.47,16.47,0,0,0,121.66,161.07Z"/><path class="cls-1" d="M170.14,146.84a24,24,0,0,1,6,.69c1.78.46,2.82.92,3.11,1.4a16,16,0,0,1,.54,2.89c.12.74.22,1.53.31,2.38a19.78,19.78,0,0,1,.13,2,1,1,0,0,1-.27.76,1.36,1.36,0,0,1-.71.35c-.5,0-1.09-.61-1.78-1.82a13.76,13.76,0,0,0-1.77-2.76,12.05,12.05,0,0,0-3.54-2.69,8.73,8.73,0,0,0-3.85-.91,6.1,6.1,0,0,0-4.29,1.49,5.08,5.08,0,0,0-1.62,3.94q0,4.3,9.07,7.64l2.76,1a13.17,13.17,0,0,1,6.05,4.22,11,11,0,0,1,2,6.81,12.16,12.16,0,0,1-3.89,9.31,14.24,14.24,0,0,1-10.12,3.63,28.74,28.74,0,0,1-7.38-1.34l-2.93-.8a1.19,1.19,0,0,1-.85-.8,11,11,0,0,1-.22-2.71v-1.11a19.36,19.36,0,0,0-.4-3.47l-.36-2.89a1.71,1.71,0,0,1,.27-1,.85.85,0,0,1,.76-.4c.59,0,1.2.8,1.82,2.4.15.45.32.92.51,1.42a12,12,0,0,0,.78,1.65,14.34,14.34,0,0,0,4,5,8.43,8.43,0,0,0,5.14,1.69A7.27,7.27,0,0,0,174.7,183a6.61,6.61,0,0,0,2-5q0-4.57-9.11-8.23l-2.54-1a14,14,0,0,1-6-4.3,9.88,9.88,0,0,1-2.07-6.2,10.52,10.52,0,0,1,3.62-8.29Q164.18,146.84,170.14,146.84Z"/><path class="cls-1" d="M402,125.08c-.67,0-1.34,0-2-.09v71.16H4V4H400V75.16c.66,0,1.33-.08,2-.08s1.34,0,2,.08V0H0V200.15H404V125C403.34,125,402.67,125.08,402,125.08Z"/><path class="cls-1" d="M414,86.21,404.61,98.5v.19l14.85-2v6.69l-14.85-1.77v.2l9.44,11.8-6.2,3.54L402,103.42h-.2l-6.39,13.87-5.61-3.54,9.35-12v-.2l-14.56,1.87V96.73L399,98.6v-.2l-9.25-12,6-3.45,6.11,13.67h.19l6-13.76Z"/></g></g></svg>