<svg xmlns="http://www.w3.org/2000/svg" viewBox="0 0 226.74 198.98"><defs><style>.cls-1{fill:#903373;}.cls-2{fill:#fff;}</style></defs><title>100elles-logo-squared</title><g id="Layer_2" data-name="Layer 2"><g id="Layer_1-2" data-name="Layer 1"><path class="cls-1" d="M24.27,27.67a9.34,9.34,0,0,0-.74-4.43A2.72,2.72,0,0,0,21,22a6.61,6.61,0,0,0-2.81.75,11.29,11.29,0,0,1-2.09.71,2.09,2.09,0,0,1-1-.26,1.17,1.17,0,0,1-.35-.71c0-.86,1.57-1.92,4.71-3.16.68-.24,1.36-.5,2-.78a14.86,14.86,0,0,0,1.42-.65A25.49,25.49,0,0,0,29,14.25,28.08,28.08,0,0,1,31.92,12a.86.86,0,0,1,.77.36A2.38,2.38,0,0,1,33,13.47l-.27,3.87c0,1.09,0,2,0,2.67-.12,2.67-.18,4.1-.18,4.31V64q0,4.55.71,6.1a6.32,6.32,0,0,0,2.67,2.53,16.93,16.93,0,0,0,3.69,1c1.87.27,2.8.78,2.8,1.56a1.14,1.14,0,0,1-.71,1,4.4,4.4,0,0,1-1.78.31H38.54c-1.21,0-2.62-.05-4.22-.15q-5.61-.37-6.94-.38c-.89,0-1.57,0-2.05,0-2.43.14-3.75.22-3.95.22l-3.83.26A3.46,3.46,0,0,1,16,76.18a1.18,1.18,0,0,1-.53-.84c0-.89,1-1.51,2.84-1.87L20.27,73a4.56,4.56,0,0,0,3.11-2.53,9.48,9.48,0,0,0,.67-2.71,41.17,41.17,0,0,0,.22-4.67Z"/><path class="cls-1" d="M69.36,12.46q8.67,0,14.41,8.67t5.74,22.14A50.39,50.39,0,0,1,88,55.61a39.89,39.89,0,0,1-4.27,10.61,25.56,25.56,0,0,1-7.36,8.38,15.39,15.39,0,0,1-8.87,2.74q-8.85,0-14.72-8.32T47,47.63a51.9,51.9,0,0,1,1.11-10.76,46.37,46.37,0,0,1,1.33-5.16,47.64,47.64,0,0,1,2-5,26.69,26.69,0,0,1,7.76-10.43A16.26,16.26,0,0,1,69.36,12.46Zm-4.18,6.13a9.45,9.45,0,0,0-8.45,4.89q-3,4.9-3,13.75a61.15,61.15,0,0,0,1.06,11.25,47.78,47.78,0,0,0,3.12,10.36,27.72,27.72,0,0,0,6,9.23,10.57,10.57,0,0,0,7.36,3.13,9.75,9.75,0,0,0,8.67-5q3.16-5,3.16-13.92a57.18,57.18,0,0,0-.31-6,51.75,51.75,0,0,0-1-6,44.5,44.5,0,0,0-3.69-10.8,24.88,24.88,0,0,0-6-8.07A10.7,10.7,0,0,0,65.18,18.59Z"/><path class="cls-1" d="M117.43,12.46q8.67,0,14.41,8.67t5.74,22.14a50.39,50.39,0,0,1-1.47,12.34,39.89,39.89,0,0,1-4.27,10.61,25.56,25.56,0,0,1-7.36,8.38,15.39,15.39,0,0,1-8.87,2.74q-8.85,0-14.72-8.32T95,47.63a51.9,51.9,0,0,1,1.11-10.76,46.39,46.39,0,0,1,1.34-5.16,45.45,45.45,0,0,1,2-5,26.78,26.78,0,0,1,7.76-10.43A16.28,16.28,0,0,1,117.43,12.46Zm-4.18,6.13a9.46,9.46,0,0,0-8.45,4.89q-3,4.9-3,13.75a61.17,61.17,0,0,0,1.07,11.25A47.78,47.78,0,0,0,106,58.84a27.73,27.73,0,0,0,6,9.23,10.55,10.55,0,0,0,7.36,3.13,9.77,9.77,0,0,0,8.67-5q3.15-5,3.15-13.92a57.18,57.18,0,0,0-.31-6,49.67,49.67,0,0,0-1-6,44.08,44.08,0,0,0-3.69-10.8,24.88,24.88,0,0,0-6-8.07A10.7,10.7,0,0,0,113.25,18.59Z"/><path class="cls-1" d="M21.24,172.85V134.51q0-4.8-.84-6.36a5,5,0,0,0-2.94-2.35,16.9,16.9,0,0,0-2.93-.67c-2.08-.33-3.11-.93-3.11-1.82a1.25,1.25,0,0,1,.55-1.07,2.92,2.92,0,0,1,1.71-.4l1.56.13c1.07,0,2.3,0,3.69.14,3.29.2,5.31.31,6.05.31q4.1,0,6.31,0,11.09-.23,12-.22l12.41-.31a1.53,1.53,0,0,1,1.13.31,3.36,3.36,0,0,1,.29,1.82l0,.85-.05,1c0,1,0,1.74.07,2.2s.14,1.24.29,2.33a31.92,31.92,0,0,1,.4,3.56,3.55,3.55,0,0,1-.34,1.8,1.13,1.13,0,0,1-1,.56c-.65,0-1.17-.77-1.56-2.32-.12-.59-.24-1.09-.37-1.51s-.28-.83-.43-1.24a7.9,7.9,0,0,0-4.13-4.34q-2.85-1.26-10.81-1.27-5.59,0-7.14,1c-1,.65-1.53,1.86-1.53,3.6v16.19q0,2.4.6,3c.4.41,1.39.62,3,.62h4.93a17.35,17.35,0,0,0,5.94-.74,5.9,5.9,0,0,0,3-2.6A21.78,21.78,0,0,0,49,144c.53-1.54,1.14-2.31,1.82-2.31.33,0,.59.22.8.66a4,4,0,0,1,.31,1.69l-.22,3.12-.18,4.8c0,.92,0,1.85,0,2.8s.09,1.91.17,2.89l.27,3a3.37,3.37,0,0,1-.35,1.67,1.42,1.42,0,0,1-1.12.69c-.65,0-1.12-.64-1.4-1.91a29.4,29.4,0,0,0-.78-3A5.65,5.65,0,0,0,46,154.79a7.06,7.06,0,0,0-2.38-.67,32.06,32.06,0,0,0-4.11-.22H33.83a3.52,3.52,0,0,0-2.65.8c-.49.54-.73,1.68-.73,3.43v14.72c0,3.61.49,6,1.47,7.11s3.06,1.56,6.27,1.56a33,33,0,0,0,12-2,16.71,16.71,0,0,0,7.72-5.6,26,26,0,0,0,1.71-2.87c.67-1.26,1.25-1.89,1.76-1.89q.3,0,.6.42a1.83,1.83,0,0,1,.29,1,15.74,15.74,0,0,1-.92,4.6,20.28,20.28,0,0,1-2.38,5,10.13,10.13,0,0,1-7.58,5.33,24.35,24.35,0,0,1-4.24.32l-2.92-.12c-1.7-.07-3.12-.11-4.24-.11l-10.32-.22c-1.84,0-3.49,0-4.94.1q-7.65.34-8,.35H15.6a2.05,2.05,0,0,1-1.29-.41,1.67,1.67,0,0,1-.4-1.24c0-.71.67-1.3,2-1.76A9.15,9.15,0,0,0,19,181a6.77,6.77,0,0,0,1.73-2.73A18.75,18.75,0,0,0,21.24,172.85Z"/><path class="cls-1" d="M71.36,131.05c0-2.61-.29-4.32-.89-5.13s-1.69-1.23-3.29-1.23a4.33,4.33,0,0,1-1.84-.27,1,1,0,0,1-.52-1q0-1,2.58-1.47l3.61-.8a21.92,21.92,0,0,0,2.46-.78A22.83,22.83,0,0,0,76,119.17l2.62-1.24c.21,0,.41.14.58.44a4.1,4.1,0,0,1,.23,1v.67c0,1.07,0,1.89,0,2.45-.15,2.79-.22,4.24-.22,4.36v48.41a13.69,13.69,0,0,0,.69,5.1,4.16,4.16,0,0,0,2.38,2.25,20.86,20.86,0,0,0,2.84.47c1.4.16,2.14.61,2.23,1.35a1.22,1.22,0,0,1-.54,1.11,7.28,7.28,0,0,1-2.58.27l-3.87-.15L75,185.52l-4,.16-3,.15a1.8,1.8,0,0,1-1-.22,1.2,1.2,0,0,1-.4-.85c0-.44.49-.91,1.47-1.42l1.33-.71a3.35,3.35,0,0,0,1.49-2,20.77,20.77,0,0,0,.42-5.14Z"/><path class="cls-1" d="M94.75,131.05c0-2.61-.29-4.32-.89-5.13s-1.69-1.23-3.29-1.23a4.33,4.33,0,0,1-1.84-.27,1,1,0,0,1-.51-1q0-1,2.58-1.47l3.6-.8a22.75,22.75,0,0,0,2.47-.78,23.57,23.57,0,0,0,2.55-1.18l2.63-1.24c.2,0,.4.14.57.44a4.1,4.1,0,0,1,.23,1v.67c0,1.07,0,1.89,0,2.45-.15,2.79-.22,4.24-.22,4.36v48.41a13.69,13.69,0,0,0,.69,5.1,4.16,4.16,0,0,0,2.38,2.25,20.86,20.86,0,0,0,2.84.47c1.4.16,2.14.61,2.23,1.35a1.22,1.22,0,0,1-.54,1.11,7.25,7.25,0,0,1-2.57.27l-3.87-.15-5.34-.16-4,.16-3,.15a1.8,1.8,0,0,1-1-.22,1.2,1.2,0,0,1-.4-.85c0-.44.49-.91,1.47-1.42l1.33-.71a3.35,3.35,0,0,0,1.49-2,20.77,20.77,0,0,0,.42-5.14Z"/><path class="cls-1" d="M121.08,163.11v.26q0,8.2,3.87,13.2a12.22,12.22,0,0,0,10.14,5q4.8,0,10.09-3.54a5.06,5.06,0,0,1,1.91-1.08.92.92,0,0,1,.72.26c.12.1.19.35.22.76a3.71,3.71,0,0,1-1.09,1.86,20.67,20.67,0,0,1-2.91,2.7,19.92,19.92,0,0,1-12.41,4.33q-8.28,0-13.36-5.45T113.16,167a21.9,21.9,0,0,1,5.21-14.89,16.59,16.59,0,0,1,13.07-6,16.09,16.09,0,0,1,13.3,6.76,17.89,17.89,0,0,1,2.33,4.21,10.94,10.94,0,0,1,1,3.89,1.82,1.82,0,0,1-.67,1.62,5.76,5.76,0,0,1-2.89.47Zm0-2.63H133.8a10.92,10.92,0,0,0,4.13-.53,1.93,1.93,0,0,0,1.16-1.91,9.35,9.35,0,0,0-2.71-6.61,8.64,8.64,0,0,0-6.5-2.86,7.49,7.49,0,0,0-6.22,3.11,13.24,13.24,0,0,0-1.89,3.82A16.56,16.56,0,0,0,121.08,160.48Z"/><path class="cls-1" d="M169.55,146.25a24,24,0,0,1,6,.69c1.77.46,2.81.93,3.11,1.4a15.78,15.78,0,0,1,.53,2.89c.12.74.22,1.54.31,2.38s.14,1.52.14,2a1,1,0,0,1-.27.75,1.34,1.34,0,0,1-.71.36c-.51,0-1.1-.61-1.78-1.83a13.94,13.94,0,0,0-1.78-2.75,11.68,11.68,0,0,0-3.53-2.69,8.76,8.76,0,0,0-3.85-.91,6.06,6.06,0,0,0-4.29,1.49,5.08,5.08,0,0,0-1.63,3.93q0,4.32,9.08,7.65l2.75,1a13.13,13.13,0,0,1,6.05,4.23,10.93,10.93,0,0,1,2.05,6.8,12.18,12.18,0,0,1-3.89,9.32,14.29,14.29,0,0,1-10.12,3.62,28.57,28.57,0,0,1-7.38-1.33l-2.94-.8a1.2,1.2,0,0,1-.84-.8,11,11,0,0,1-.23-2.72v-1.11a19.45,19.45,0,0,0-.4-3.47l-.35-2.89a1.68,1.68,0,0,1,.27-1,.85.85,0,0,1,.75-.41c.59,0,1.2.81,1.82,2.41.15.44.32.92.52,1.42a13.75,13.75,0,0,0,.77,1.64,14.29,14.29,0,0,0,4,5,8.43,8.43,0,0,0,5.14,1.69,7.25,7.25,0,0,0,5.22-1.89,6.6,6.6,0,0,0,2-5q0-4.59-9.12-8.23l-2.53-1a14.06,14.06,0,0,1-6-4.29,9.88,9.88,0,0,1-2.07-6.2,10.52,10.52,0,0,1,3.63-8.3A14,14,0,0,1,169.55,146.25Z"/><path class="cls-1" d="M203.15,199H0V0H203.15ZM2.83,196.15H200.32V2.83H2.83Z"/><circle class="cls-2" cx="201.74" cy="99.49" r="25"/><path class="cls-1" d="M213.69,85.62l-9.34,12.29v.2l14.85-2v6.69l-14.85-1.77v.2l9.43,11.81-6.2,3.54-5.89-13.78h-.2L195.1,116.7l-5.61-3.54,9.35-12V101l-14.56,1.86V96.14L198.74,98v-.19l-9.25-12,6-3.44L201.59,96h.2l6-13.76Z"/></g></g></svg>