<?xml version="1.0" encoding="utf-8"?>
<!-- Generator: Adobe Illustrator 23.0.2, SVG Export Plug-In . SVG Version: 6.00 Build 0)  -->
<svg version="1.1" id="Layer_1" xmlns="http://www.w3.org/2000/svg" xmlns:xlink="http://www.w3.org/1999/xlink" x="0px" y="0px"
	 viewBox="0 0 345.2 104.9" style="enable-background:new 0 0 345.2 104.9;" xml:space="preserve">
<style type="text/css">
	.st0{fill:#903373;}
</style>
<g>
	<path class="st0" d="M147.3,90.6V52.2c0-3.2-0.3-5.3-0.8-6.4c-0.6-1.1-1.7-2-2.9-2.4c-1-0.3-1.9-0.5-2.9-0.7
		c-2.1-0.3-3.1-0.9-3.1-1.8c0-0.4,0.2-0.8,0.6-1.1c0.5-0.3,1.1-0.4,1.7-0.4l1.6,0.1c1.1,0,2.3,0.1,3.7,0.1c3.3,0.2,5.3,0.3,6,0.3
		c2.7,0,4.8,0,6.3-0.1c7.4-0.1,11.4-0.2,12-0.2l12.4-0.3c0.4-0.1,0.8,0.1,1.1,0.3c0.3,0.6,0.4,1.2,0.3,1.8v0.9v1c0,1,0,1.7,0.1,2.2
		s0.1,1.2,0.3,2.3c0.2,1.2,0.3,2.4,0.4,3.6c0,0.6-0.1,1.2-0.3,1.8c-0.2,0.4-0.6,0.6-1,0.6c-0.7,0-1.2-0.8-1.6-2.3
		c-0.1-0.5-0.2-1-0.4-1.5c-0.1-0.4-0.3-0.8-0.4-1.2c-0.8-1.9-2.2-3.5-4.1-4.3s-5.5-1.3-10.8-1.3c-3.7,0-6.1,0.3-7.1,1
		s-1.5,1.9-1.5,3.6V64c0,1.6,0.2,2.6,0.6,3s1.4,0.6,2.9,0.6h4.9c2,0.1,4-0.2,5.9-0.7c1.3-0.5,2.3-1.4,3-2.6c0.5-0.8,0.9-1.7,1.2-2.6
		c0.5-1.5,1.1-2.3,1.8-2.3c0.3,0,0.6,0.2,0.8,0.7s0.3,1.1,0.3,1.7l-0.2,3.1l-0.2,4.8v2.8c0,0,0.1,1.9,0.2,2.9l0.3,3
		c0,0.6-0.1,1.2-0.4,1.7c-0.2,0.4-0.6,0.7-1.1,0.7c-0.6,0-1.1-0.6-1.4-1.9c-0.2-1-0.5-2-0.8-3c-0.4-1.4-1.2-2.6-2.4-3.3
		c-0.7-0.4-1.6-0.6-2.4-0.7c-1.4-0.2-2.7-0.2-4.1-0.2h-5.6c-1-0.1-1.9,0.2-2.6,0.8c-0.5,0.5-0.7,1.7-0.7,3.4v14.8
		c0,3.6,0.5,6,1.5,7.1s3.1,1.6,6.3,1.6c4.1,0.1,8.2-0.6,12-2c3.1-1.1,5.7-3,7.7-5.6c0.6-0.9,1.2-1.9,1.7-2.9
		c0.7-1.3,1.2-1.9,1.8-1.9c0.3,0,0.5,0.2,0.6,0.4c0.2,0.3,0.3,0.6,0.3,1c-0.1,1.6-0.4,3.1-0.9,4.6c-0.6,1.8-1.4,3.5-2.4,5
		c-1.5,2.9-4.3,4.9-7.6,5.3c-1.4,0.2-2.8,0.3-4.2,0.3l-2.9-0.1c-1.7-0.1-3.1-0.1-4.2-0.1l-10.3-0.2c-1.8,0-3.5,0-4.9,0.1
		c-5.1,0.2-7.8,0.3-8,0.4h-1.1c-0.5,0-0.9-0.1-1.3-0.4c-0.3-0.3-0.4-0.8-0.4-1.2c0-0.7,0.7-1.3,2-1.8c1.1-0.3,2.1-0.9,3-1.6
		c0.8-0.8,1.4-1.7,1.7-2.7C147.2,94.2,147.3,92.4,147.3,90.6L147.3,90.6z"/>
	<path class="st0" d="M197.4,48.8c0-2.6-0.3-4.3-0.9-5.1s-1.7-1.2-3.3-1.2c-0.6,0-1.3,0-1.9-0.3c-0.4-0.2-0.6-0.6-0.5-1
		c0-0.7,0.9-1.2,2.6-1.5l3.6-0.8c0.8-0.2,1.7-0.5,2.5-0.8c0.9-0.3,1.7-0.7,2.6-1.2l2.6-1.2c0.2,0,0.4,0.1,0.6,0.4
		c0.1,0.3,0.2,0.7,0.2,1v0.7v2.4c-0.1,2.8-0.2,4.2-0.2,4.4V93c-0.1,1.7,0.1,3.5,0.7,5.1c0.5,1,1.3,1.9,2.4,2.2
		c0.9,0.2,1.9,0.4,2.9,0.5c1.4,0.2,2.1,0.6,2.2,1.4c0,0.4-0.2,0.9-0.5,1.1c-0.8,0.2-1.7,0.3-2.6,0.3l-3.9-0.1l-5.3-0.2l-4,0.2
		l-3,0.1c-0.3,0-0.7,0-1-0.2c-0.2-0.2-0.4-0.5-0.4-0.8c0-0.5,0.5-0.9,1.5-1.4l1.3-0.7c0.7-0.5,1.3-1.2,1.5-2
		c0.4-1.7,0.5-3.4,0.4-5.1L197.4,48.8z"/>
	<path class="st0" d="M220.8,48.8c0-2.6-0.3-4.3-0.9-5.1s-1.7-1.2-3.3-1.2c-0.6,0-1.3,0-1.8-0.3c-0.4-0.2-0.6-0.6-0.5-1
		c0-0.7,0.9-1.2,2.6-1.5l3.6-0.8c0.8-0.2,1.7-0.5,2.5-0.8c0.9-0.3,1.7-0.7,2.6-1.2l2.6-1.3c0.2,0,0.4,0.1,0.6,0.4
		c0.1,0.3,0.2,0.7,0.2,1v0.7v2.4c-0.1,2.8-0.2,4.2-0.2,4.4V93c-0.1,1.7,0.1,3.5,0.7,5.1c0.5,1,1.3,1.9,2.4,2.2
		c0.9,0.2,1.9,0.4,2.8,0.5c1.4,0.2,2.1,0.6,2.2,1.4c0,0.4-0.2,0.9-0.5,1.1c-0.8,0.2-1.7,0.3-2.6,0.3l-3.9-0.1l-5.3-0.2l-4,0.2
		l-3,0.1c-0.3,0-0.7,0-1-0.2c-0.2-0.2-0.4-0.5-0.4-0.8c0-0.5,0.5-0.9,1.5-1.4l1.3-0.7c0.7-0.5,1.3-1.2,1.5-2
		c0.4-1.7,0.5-3.4,0.4-5.1L220.8,48.8z"/>
	<path class="st0" d="M247.1,80.8v0.3c0,5.5,1.3,9.9,3.9,13.2c2.4,3.2,6.1,5.1,10.1,5c3.2,0,6.6-1.2,10.1-3.5
		c0.6-0.5,1.2-0.9,1.9-1.1c0.3,0,0.5,0.1,0.7,0.3c0.1,0.1,0.2,0.3,0.2,0.8c-0.2,0.7-0.6,1.4-1.1,1.9c-0.9,1-1.9,1.9-2.9,2.7
		c-3.5,2.8-7.9,4.3-12.4,4.3c-5.5,0-10-1.8-13.4-5.5c-3.4-3.6-5.1-8.4-5.1-14.4c-0.2-5.4,1.7-10.7,5.2-14.9c3.2-3.9,8-6.1,13.1-6
		c2.6,0,5.2,0.6,7.5,1.7c2.3,1.2,4.3,2.9,5.8,5c1,1.3,1.7,2.7,2.3,4.2c0.6,1.2,0.9,2.5,1,3.9c0.1,0.6-0.2,1.2-0.7,1.6
		c-0.9,0.4-1.9,0.6-2.9,0.5H247.1z M247.1,78.2h12.7c1.4,0.1,2.8-0.1,4.1-0.5c0.8-0.3,1.2-1.1,1.2-1.9c0-2.5-1-4.8-2.7-6.6
		s-4-2.9-6.5-2.9s-4.8,1.1-6.2,3.1c-0.8,1.2-1.5,2.5-1.9,3.8C247.3,74.8,247.1,76.5,247.1,78.2L247.1,78.2z"/>
	<path class="st0" d="M295.6,64c2,0,4,0.2,6,0.7c1.8,0.5,2.8,0.9,3.1,1.4c0.3,0.9,0.4,1.9,0.5,2.9c0.1,0.8,0.2,1.5,0.3,2.4
		s0.1,1.5,0.1,2c0,0.3-0.1,0.5-0.3,0.8c-0.2,0.2-0.4,0.3-0.7,0.4c-0.5,0-1.1-0.6-1.8-1.8c-0.5-1-1.1-1.9-1.8-2.8
		c-1-1.1-2.2-2-3.5-2.7c-1.2-0.6-2.5-0.9-3.8-0.9c-1.6-0.1-3.1,0.5-4.3,1.5c-1.1,1-1.7,2.4-1.6,3.9c0,2.9,3,5.4,9.1,7.6l2.8,1
		c2.4,0.8,4.5,2.3,6,4.2c1.4,2,2.1,4.4,2,6.8c0.1,3.5-1.3,6.9-3.9,9.3c-2.8,2.5-6.4,3.8-10.1,3.6c-2.5-0.1-5-0.5-7.3-1.3l-2.9-0.8
		c-0.4-0.1-0.7-0.4-0.9-0.8c-0.2-0.9-0.3-1.8-0.2-2.7v-1.1c0-1.2-0.2-2.3-0.4-3.5l-0.4-2.9c0-0.4,0.1-0.7,0.3-1s0.5-0.4,0.8-0.4
		c0.6,0,1.2,0.8,1.8,2.4c0.1,0.4,0.3,0.9,0.5,1.4c0.2,0.6,0.5,1.1,0.8,1.6c0.9,1.9,2.3,3.7,4,5c1.5,1.1,3.3,1.7,5.1,1.7
		c1.9,0.1,3.8-0.6,5.2-1.9c1.3-1.3,2.1-3.1,2-5c0-3.1-3-5.8-9.1-8.2l-2.5-1c-2.3-0.9-4.4-2.4-6-4.3c-1.4-1.8-2.1-4-2.1-6.2
		c-0.1-3.2,1.2-6.2,3.6-8.3C288.4,65,291.6,64,295.6,64L295.6,64z"/>
	<path class="st0" d="M339.7,3.4l-9.3,12.3v0.2l14.8-2v6.7l-14.8-1.7V19l9.4,11.8l-6.2,3.5l-5.9-13.8h-0.2l-6.4,13.9l-5.6-3.5
		l9.4-12v-0.2l-14.6,1.9v-6.7l14.5,1.9v-0.2l-9.2-12l6-3.4l6.1,13.7h0.2l6-13.8L339.7,3.4z"/>
	<path class="st0" d="M9.5,55.2c0.1-1.5-0.1-3-0.7-4.4c-0.6-0.8-1.5-1.3-2.6-1.2c-1,0-1.9,0.3-2.8,0.8c-0.7,0.3-1.4,0.5-2.1,0.7
		c-0.4,0-0.7-0.1-1-0.3C0.2,50.6,0,50.4,0,50.1c0-0.9,1.6-1.9,4.7-3.2c0.7-0.2,1.3-0.5,2-0.8c0.5-0.2,1-0.4,1.4-0.6
		c2.2-0.9,4.3-2.2,6.1-3.7c0.9-0.8,1.9-1.6,2.9-2.2c0.3,0,0.6,0.1,0.8,0.4s0.3,0.7,0.3,1.1L18,45v2.7c-0.1,2.7-0.2,4.1-0.2,4.3v39.6
		c0,3,0.2,5,0.7,6.1c0.6,1.1,1.5,2,2.7,2.5s2.4,0.8,3.7,1c1.9,0.3,2.8,0.8,2.8,1.6c0,0.4-0.3,0.8-0.7,1c-0.6,0.2-1.2,0.3-1.8,0.3
		h-1.4c-1.2,0-2.6,0-4.2-0.2c-3.7-0.2-6.1-0.4-6.9-0.4c-0.9,0-1.6,0-2,0c-2.4,0.1-3.8,0.2-4,0.2L2.8,104c-0.5,0-1,0-1.5-0.2
		c-0.3-0.2-0.5-0.5-0.5-0.9c0-0.9,0.9-1.5,2.8-1.9l1.9-0.5c1.4-0.3,2.5-1.3,3.1-2.5c0.4-0.9,0.6-1.8,0.7-2.7
		c0.2-1.6,0.2-3.1,0.2-4.7L9.5,55.2z"/>
	<path class="st0" d="M54.6,40c5.8,0,10.6,2.9,14.4,8.7s5.7,13.2,5.7,22.2c0,4.2-0.5,8.3-1.5,12.3c-0.9,3.7-2.4,7.3-4.3,10.6
		c-1.8,3.3-4.3,6.2-7.4,8.4c-2.6,1.8-5.7,2.7-8.9,2.7c-5.9,0-10.8-2.8-14.7-8.3S32,83.9,32,75.2c0-3.6,0.4-7.2,1.2-10.8
		c0.3-1.7,0.8-3.5,1.3-5.2c0.6-1.7,1.2-3.4,2-5c1.7-4.1,4.3-7.7,7.7-10.5C47.3,41.4,50.9,40.1,54.6,40z M50.5,46.2
		C47,46.1,43.7,48,42,51.1c-2,3.3-3,7.8-3,13.7c0,3.8,0.4,7.5,1.1,11.2c0.6,3.6,1.7,7,3.1,10.4c1.4,3.5,3.4,6.6,6,9.2
		c1.9,2,4.6,3.1,7.4,3.1c3.6,0.1,6.9-1.9,8.7-5c2.1-3.3,3.2-8,3.2-13.9c0-2-0.1-4-0.3-6s-0.5-4-1-6c-0.8-3.7-2-7.4-3.7-10.8
		c-1.4-3.1-3.5-5.8-6-8.1C55.5,47.3,53,46.3,50.5,46.2L50.5,46.2z"/>
	<path class="st0" d="M102.7,40c5.8,0,10.6,2.9,14.4,8.7s5.7,13.2,5.7,22.2c0,4.2-0.5,8.3-1.5,12.3c-0.9,3.7-2.3,7.3-4.3,10.6
		c-1.8,3.3-4.3,6.2-7.4,8.4c-2.6,1.8-5.7,2.7-8.9,2.7c-5.9,0-10.8-2.8-14.7-8.3s-5.9-12.7-5.9-21.4c0-3.6,0.4-7.2,1.1-10.8
		c0.3-1.7,0.8-3.5,1.3-5.2c0.6-1.7,1.2-3.4,2-5c1.7-4.1,4.4-7.6,7.8-10.4C95.3,41.5,99,40.1,102.7,40z M98.5,46.2
		c-3.5-0.1-6.8,1.8-8.4,4.9c-2,3.3-3,7.8-3,13.7c0,3.8,0.4,7.5,1.1,11.2c0.6,3.6,1.7,7,3.1,10.4s3.4,6.6,6,9.2
		c1.9,2,4.6,3.1,7.4,3.1c3.6,0.1,6.9-1.9,8.7-5c2.1-3.3,3.1-8,3.1-13.9c0-2-0.1-4-0.3-6s-0.5-4-1-6c-0.8-3.7-2-7.4-3.7-10.8
		c-1.4-3.1-3.5-5.8-6-8.1C103.6,47.3,101.1,46.3,98.5,46.2z"/>
</g>
</svg>
