<svg id="Calque_1" data-name="Calque 1" xmlns="http://www.w3.org/2000/svg" xmlns:xlink="http://www.w3.org/1999/xlink" viewBox="0 0 837.82 1117.09"><defs><style>.cls-1{fill:none;}.cls-2{clip-path:url(#clip-path);}.cls-3{fill:#fff;}</style><clipPath id="clip-path"><rect class="cls-1" width="837.82" height="1117.09"/></clipPath></defs><title>illustration</title><g class="cls-2"><path class="cls-3" d="M.55.55H838.36V1117.64H.55ZM508.44,62.76l.05.05c-.69-.47-1.39-1.35-2.07-1.33q-6,.14-12.07.65a45,45,0,0,0-8.7,1.23c-3.89,1.14-7.61,2.85-11.4,4.33-.07,0,0,.32-.09.86l5.25-1.49.32.8-31.8,13.83-.23-.6,1.73-2,9.93-4.48L459,74a45.48,45.48,0,0,0-5.79,2.14,24.36,24.36,0,0,0-3.78,3c-3.47.35-5.22,3.15-7.86,4.7l.43.64,3.16-1.53.41.84c-2.56,1.06-3.76,4.67-7.58,3.47-.39-.12-1.07.44-1.53.79a34.32,34.32,0,0,0-3.32,2.7c-1.56,1.54-3,3.2-4.49,4.8l-1,1.5c-.47.23-1.12.33-1.37.7-3.1,4.61-6.37,9.13-9.13,14a201.74,201.74,0,0,0-9.57,18.47c-2.64,5.94-4.48,12.24-6.83,18.32-1.82,4.72-4.21,9.24-5.77,14-2,6.08-4.79,11.86-5.41,18.43-.69,7.36-2.27,14.64-3.37,22-.61,4.05-1,8.13-1.53,12.19-.23,1.78-.62,3.53-.81,5.31-.47,4.36-1,8.72-1.26,13.1a83.68,83.68,0,0,0,0,9c.09,2.63.73,5.26.58,7.86-.33,5.74-.8,11.48-1.59,17.16a137.86,137.86,0,0,1-3,15.35c-.81,3.11-2.59,6-3.6,9-1.41,4.28-2.36,8.7-3.76,13-2.82,8.59-5.67,17.17-8.77,25.66-2.12,5.79-4.62,11.45-7.05,17.13-2.17,5.09-4.52,10.11-6.71,15.2-1.62,3.78-3,7.66-4.7,11.41-3.38,7.49-7.31,14.77-10.22,22.43-1.8,4.72-3.45,9.54-5.09,14.33-1.22,3.56-1,7.59-1.53,11.41-.4,3-.89,6-1.31,8.89-3.56-.61-6.67-1-9.71-1.71-3.19-.72-6.31-1.74-9.48-2.55-7.63-1.95-15.28-3.82-22.91-5.77-2.85-.73-5.62-1.8-8.49-2.4-4.86-1-9.76-1.78-14.65-2.61-4.14-.7-8.28-1.62-12.45-1.9-2.7-.18-5.44.76-8.19.95-1.89.13-3.82-.21-5.73-.27a10.71,10.71,0,0,0-3,.18c-.91.24-1.69,1-2.6,1.25-2.79.79-5.65,1.33-8.42,2.18-8.6,2.64-17.21,5.26-25.74,8.12-7.28,2.44-14.55,5-21.64,7.92-4.92,2-9.55,4.74-14.28,7.21a27.53,27.53,0,0,0-4.58,2.83c-1.52,1.22-2.65,2.93-4.21,4.09-7,5.22-11.93,12.22-16.68,19.34a107.05,107.05,0,0,0-6.66,11.26,95.9,95.9,0,0,0-5.74,13.31,67.44,67.44,0,0,0-2.28,11.95c-.43,3.19-.38,6.45-.55,9.69-.28.51-.79,1-.82,1.53-.15,3.3-.19,6.6-.28,9.91,0,6.15,0,12.31.1,18.46,0,3.08.47,6.15.41,9.23-.08,4.73-.38,9.46-.66,14.19q-.57,9.49-1.26,19c-.59,8.05-1.5,16.09-1.78,24.14-.28,8.33,0,16.67.11,25,.07,5.19.09,10.39.51,15.55.48,6,1.34,12,2.08,17.93.54,4.37,1.05,8.76,1.75,13.11.53,3.32,1.29,6.62,2,9.91.83,3.76,1.66,7.53,2.65,11.26,1.21,4.53,2.71,9,3.85,13.54.93,3.7,1.47,7.49,2.25,11.22,1,4.73,2.05,9.45,3.1,14.17,1.42,6.45,2.4,13,4.42,19.29,2.52,7.77,5.7,15.34,9,22.84,4,9.19,8.28,18.27,12.67,27.29,1.69,3.47,4.1,6.6,6,10,4.52,7.91,8.77,16,13.51,23.74,2.36,3.86,5.56,7.23,8.43,10.77,1,1.21,2.12,2.28,3.18,3.4L187.48,861l7.6,2.5L199,864.7a46.29,46.29,0,0,0,4.77,1.52c3.74.74,7.49,1.5,11.27,1.88a29.66,29.66,0,0,0,7-.42c3.22-.45,6.44-1.06,9.61-1.78s7.1-.93,9.72-2.75A84.77,84.77,0,0,0,256,850.55c4.23-4.7,7.5-10.29,11-15.63,3.71-5.72,7-11.7,10.77-17.39a91.32,91.32,0,0,1,7.66-9.89c3.31-3.8,7.06-7.24,10.34-11.07,5.1-6,10-12.15,15-18.22,2.2-2.68,4.65-5.19,6.65-8,3.67-5.15,7.17-10.43,10.61-15.75,4.21-6.51,8.62-12.93,12.31-19.73s6.67-14.14,10-21.23c.22-.49.57-.93.78-1.43,1.36-3.26,3.44-6.43,3.91-9.83a214.36,214.36,0,0,0,2.14-25.16c.29-15.78,0-31.58,0-47.37-.05-8.77-.32-17.54-.3-26.31,0-4.24.46-8.48.73-13.11,3,6.83,5.7,13.27,8.64,19.61s5.64,12.67,9.24,18.53c3.24,5.28,7.57,9.89,11.39,14.81a24,24,0,0,0,1.88,2.8c1.79,1.75,3.71,3.37,5.63,5a19.59,19.59,0,0,0,3.45,2.53c1.06.55,2.41.53,3.52,1,2.13.94,4.1,2.29,6.28,3,3.3,1.16,6.35,3.09,10,3.25,2.42.11,4.82.53,7.14.81,0,3.87,0,8,0,12.09,0,10.17-.09,20.34.07,30.51.09,5.25.45,10.53,1,15.75.73,6.36,1.81,12.69,2.8,19,.44,2.84.64,5.79,1.6,8.46,2.19,6.08,4.82,12,7.2,18,2.64,6.68,5.08,13.42,8.13,20,3.29,7.06,7.81,13.23,12.41,19.31A119.94,119.94,0,0,0,472,819.83c5.65,5.28,12.49,7.29,19.12,9.61,5.2,1.82,11.21,1.56,16.87,1.75a18,18,0,0,0,7.8-1.6c4-1.83,7.75-4.28,11.61-6.45A72.58,72.58,0,0,0,543.34,811c2.27-2.29,4.71-4.41,6.86-6.79a145.21,145.21,0,0,0,10.72-12.59c2.14-3,3.32-6.67,4.83-10.09A89.92,89.92,0,0,0,571.93,763c1.14-5.62,2.14-11.26,3.08-16.92q1.68-10.15,3.14-20.37c.37-2.62.53-5.28.65-7.93.13-2.95.11-5.89.13-8.84.05-6,.05-12,.15-18,0-1.9.45-3.81.41-5.7-.09-4.77-.63-9.54-.48-14.3.2-6.1.13-12.19-.06-18.28a19.64,19.64,0,0,1,.66-4.68c.31-1.41,1.23-2.79,1.18-4.16-.32-8.46,2.42-16.22,5.26-23.95,1.51-4.13,3.51-8.1,4.83-12.29,1.79-5.65,3.07-11.46,4.71-17.16,2.64-9.24,5.44-18.42,5.59-28.15.11-7.26.35-14.52.55-21.78.11-4-.18-8,.48-11.93a42.16,42.16,0,0,0,.43-12.18c-.53-4.61.78-9.26-1.34-13.92-1.8-3.94-2.45-8.29-5.66-11.67-3.84-4.05-7.29-8.48-10.82-12.81a2.85,2.85,0,0,1-.67-2.33c2.46-5.63,5.1-11.2,7.65-16.8s5.36-11.16,7.54-16.94c1.74-4.6,2.4-9.61,4.08-14.23a81.06,81.06,0,0,0,4-17.35c1.07-8.08,2.58-16.1,3.65-24.18.65-4.9.83-9.87,1.2-14.81.25-3.34,1.05-6.78.51-10-.56-3.41,1.53-6.14,1.06-9.67-.54-4.13.79-8.6,1.15-12.95.34-4.15,1.11-8.27,1.43-12.42.41-5.41.57-10.83.79-16.25a33.23,33.23,0,0,1-.09-3.72c.52-3.44,1.41-6.83,1.81-10.29.31-2.71-.23-5.54.2-8.22,1.16-7.31,2.27-14.66,4.1-21.82,1.4-5.44,3.85-10.62,5.84-15.92a49.16,49.16,0,0,0,1.85-5c.94-3.68,1.85-7.38,2.49-11.12.79-4.58,1.34-9.19,1.91-13.81.23-1.88.24-3.78.33-5.68.08-1.66.25-3.33.18-5-.08-2.15-.65-4.32-.49-6.45.48-6.49,1.15-13,.13-19.46-.45-2.87-.36-5.84-1-8.66-.85-3.83-2.16-7.55-3.29-11.31-1.44-4.73-2.92-9.46-4.32-14.2-.4-1.35-.47-2.81-.93-4.13-.88-2.53-.34-5.49-3-7.54-1-.78-1.72-3.75-1.19-4.25,2.17-2.05.19-3.46-.28-5.05-.33-1.1,0-3.07-2.33-2.42-.09,0-.36-.7-.58-1.06-1.83-2.92-3.69-5.82-5.48-8.76-2.38-3.93-4.69-7.9-7-11.75l1.27.07a8.43,8.43,0,0,0-2.54-3.06c-4.25-3.44-8.53-6.84-12.78-10.28a40.84,40.84,0,0,1-3.89-3.3,63,63,0,0,0-15.66-11.67c-1.69-.91-3.43-1.72-5.15-2.55L555.57,68c-.53.72-.79,1.37-1.05,1.37-.82,0-1.65-.39-2.47-.35-3.06.14-5.9,0-7.27-3.46a1.54,1.54,0,0,0-1.07-.68c-5.1-.94-10.18-2-15.31-2.7-3.35-.47-6.77-.46-10.16-.67l-.15.45,2.11,1.38-6.9.61,2-2.66h-3c0,.67-.07,1.22-.11,1.78l-.54,0V61.27l-2.78.54,1.83,1.11Zm105.41,49.17-.72.52,5,9.11.74-.4Z"/><path d="M117.83,514.38c.17-3.24.12-6.5.55-9.69a67.44,67.44,0,0,1,2.28-11.95,95.9,95.9,0,0,1,5.74-13.31,107.05,107.05,0,0,1,6.66-11.26c4.75-7.12,9.68-14.12,16.68-19.34,1.56-1.16,2.69-2.87,4.21-4.09a27.53,27.53,0,0,1,4.58-2.83c4.73-2.47,9.36-5.19,14.28-7.21,7.09-2.93,14.36-5.48,21.64-7.92,8.53-2.86,17.14-5.48,25.74-8.12,2.77-.85,5.63-1.39,8.42-2.18.91-.26,1.69-1,2.6-1.25a10.71,10.71,0,0,1,3-.18c1.91.06,3.84.4,5.73.27,2.75-.19,5.49-1.13,8.19-.95,4.17.28,8.31,1.2,12.45,1.9,4.89.83,9.79,1.6,14.65,2.61,2.87.6,5.64,1.67,8.49,2.4,7.63,2,15.28,3.82,22.91,5.77,3.17.81,6.29,1.83,9.48,2.55,3,.69,6.15,1.1,9.71,1.71.42-2.88.91-5.88,1.31-8.89.5-3.82.31-7.85,1.53-11.41,1.64-4.79,3.29-9.61,5.09-14.33,2.91-7.66,6.84-14.94,10.22-22.43,1.69-3.75,3.08-7.63,4.7-11.41,2.19-5.09,4.54-10.11,6.71-15.2,2.43-5.68,4.93-11.34,7.05-17.13,3.1-8.49,5.95-17.07,8.77-25.66,1.4-4.28,2.35-8.7,3.76-13,1-3.07,2.79-5.92,3.6-9a137.86,137.86,0,0,0,3-15.35c.79-5.68,1.26-11.42,1.59-17.16.15-2.6-.49-5.23-.58-7.86a83.68,83.68,0,0,1,0-9c.28-4.38.79-8.74,1.26-13.1.19-1.78.58-3.53.81-5.31.52-4.06.92-8.14,1.53-12.19,1.1-7.33,2.68-14.61,3.37-22,.62-6.57,3.44-12.35,5.41-18.43,1.56-4.8,3.95-9.32,5.77-14,2.35-6.08,4.19-12.38,6.83-18.32a201.74,201.74,0,0,1,9.57-18.47c2.76-4.82,6-9.34,9.13-14,.25-.37.9-.47,1.37-.7-.53,1.17-1.05,2.33-1.58,3.49l.5.36,10.44-10-.79-.88-7.54,5.54c1.49-1.6,2.93-3.26,4.49-4.8A34.32,34.32,0,0,1,436.5,88c.46-.35,1.14-.91,1.53-.79,3.82,1.2,5-2.41,7.58-3.47l-.41-.84L442,84.46l-.43-.64c2.64-1.55,4.39-4.35,7.86-4.7l0,0-1.73,2,.23.6,31.8-13.83-.32-.8-5.25,1.49c0-.54,0-.83.09-.86,3.79-1.48,7.51-3.19,11.4-4.33a45,45,0,0,1,8.7-1.23q6-.51,12.07-.65c.68,0,1.38.86,2.06,1.33l-13.63.13.07,1.29c4.54,0,9.08,0,13.52-1.47l2.24.16-1.83-1.11,2.78-.54v1.78l.54,0c0-.56.07-1.11.11-1.78h3l-2,2.66,6.9-.61L518.09,62l.15-.45c3.39.21,6.81.2,10.16.67,5.13.72,10.21,1.76,15.31,2.7a1.54,1.54,0,0,1,1.07.68c1.37,3.43,4.21,3.6,7.27,3.46.82,0,1.65.35,2.47.35.26,0,.52-.65,1.05-1.37l11.85,5.69c1.72.83,3.46,1.64,5.15,2.55a63,63,0,0,1,15.66,11.67,40.84,40.84,0,0,0,3.89,3.3c4.25,3.44,8.53,6.84,12.78,10.28a8.43,8.43,0,0,1,2.54,3.06l-1.27-.07c2.28,3.85,4.59,7.82,7,11.75,1.79,2.94,3.65,5.84,5.48,8.76.22.36.49,1.09.58,1.06,2.31-.65,2,1.32,2.33,2.42.47,1.59,2.45,3,.28,5.05-.53.5.21,3.47,1.19,4.25,2.61,2.05,2.07,5,3,7.54.46,1.32.53,2.78.93,4.13,1.4,4.74,2.88,9.47,4.32,14.2,1.13,3.76,2.44,7.48,3.29,11.31.63,2.82.54,5.79,1,8.66,1,6.51.35,13-.13,19.46-.16,2.13.41,4.3.49,6.45.07,1.66-.1,3.33-.18,5-.09,1.9-.1,3.8-.33,5.68-.57,4.62-1.12,9.23-1.91,13.81-.64,3.74-1.55,7.44-2.49,11.12a49.16,49.16,0,0,1-1.85,5c-2,5.3-4.44,10.48-5.84,15.92-1.83,7.16-2.94,14.51-4.1,21.82-.43,2.68.11,5.51-.2,8.22-.4,3.46-1.29,6.85-1.81,10.29a33.23,33.23,0,0,0,.09,3.72c-.22,5.42-.38,10.84-.79,16.25-.32,4.15-1.09,8.27-1.43,12.42-.36,4.35-1.69,8.82-1.15,12.95.47,3.53-1.62,6.26-1.06,9.67.54,3.21-.26,6.65-.51,10-.37,4.94-.55,9.91-1.2,14.81-1.07,8.08-2.58,16.1-3.65,24.18a81.06,81.06,0,0,1-4,17.35c-1.68,4.62-2.34,9.63-4.08,14.23-2.18,5.78-5,11.32-7.54,16.94s-5.19,11.17-7.65,16.8a2.85,2.85,0,0,0,.67,2.33c3.53,4.33,7,8.76,10.82,12.81,3.21,3.38,3.86,7.73,5.66,11.67,2.12,4.66.81,9.31,1.34,13.92a42.16,42.16,0,0,1-.43,12.18c-.66,3.89-.37,8-.48,11.93-.2,7.26-.44,14.52-.55,21.78-.15,9.73-2.95,18.91-5.59,28.15-1.64,5.7-2.92,11.51-4.71,17.16-1.32,4.19-3.32,8.16-4.83,12.29-2.84,7.73-5.58,15.49-5.26,23.95.05,1.37-.87,2.75-1.18,4.16a19.64,19.64,0,0,0-.66,4.68c.19,6.09.26,12.18.06,18.28-.15,4.76.39,9.53.48,14.3,0,1.89-.38,3.8-.41,5.7-.1,6-.1,12-.15,18,0,2.95,0,5.89-.13,8.84-.12,2.65-.28,5.31-.65,7.93q-1.47,10.2-3.14,20.37c-.94,5.66-1.94,11.3-3.08,16.92a89.92,89.92,0,0,1-6.18,18.47c-1.51,3.42-2.69,7.1-4.83,10.09a145.21,145.21,0,0,1-10.72,12.59c-2.15,2.38-4.59,4.5-6.86,6.79a72.58,72.58,0,0,1-15.94,12.17c-3.86,2.17-7.6,4.62-11.61,6.45a18,18,0,0,1-7.8,1.6c-5.66-.19-11.67.07-16.87-1.75-6.63-2.32-13.47-4.33-19.12-9.61a119.94,119.94,0,0,1-14.08-14.91c-4.6-6.08-9.12-12.25-12.41-19.31-3.05-6.54-5.49-13.28-8.13-20-2.38-6-5-11.92-7.2-18-1-2.67-1.16-5.62-1.6-8.46-1-6.34-2.07-12.67-2.8-19-.6-5.22-1-10.5-1-15.75-.16-10.17-.06-20.34-.07-30.51,0-4.11,0-8.22,0-12.09-2.32-.28-4.72-.7-7.14-.81-3.65-.16-6.7-2.09-10-3.25-2.18-.76-4.15-2.11-6.28-3-1.11-.49-2.46-.47-3.52-1a19.59,19.59,0,0,1-3.45-2.53c-1.92-1.61-3.84-3.23-5.63-5a24,24,0,0,1-1.88-2.8c-3.82-4.92-8.15-9.53-11.39-14.81-3.6-5.86-6.32-12.27-9.24-18.53s-5.65-12.78-8.64-19.61c-.27,4.63-.72,8.87-.73,13.11,0,8.77.25,17.54.3,26.31.08,15.79.33,31.59,0,47.37A214.36,214.36,0,0,1,355,702.37c-.47,3.4-2.55,6.57-3.91,9.83-.21.5-.56.94-.78,1.43-3.3,7.09-6.24,14.37-10,21.23s-8.1,13.22-12.31,19.73c-3.44,5.32-6.94,10.6-10.61,15.75-2,2.82-4.45,5.33-6.65,8-5,6.07-9.85,12.25-15,18.22-3.28,3.83-7,7.27-10.34,11.07a91.32,91.32,0,0,0-7.66,9.89c-3.75,5.69-7.06,11.67-10.77,17.39-3.47,5.34-6.74,10.93-11,15.63a84.77,84.77,0,0,1-14.65,12.6c-2.62,1.82-6.42,2-9.72,2.75s-6.39,1.33-9.61,1.78a29.66,29.66,0,0,1-7,.42c-3.78-.38-7.53-1.14-11.27-1.88A46.29,46.29,0,0,1,199,864.7l-3.92-1.24-7.6-2.5,1.59-1.16c-1.06-1.12-2.2-2.19-3.18-3.4-2.87-3.54-6.07-6.91-8.43-10.77-4.74-7.76-9-15.83-13.51-23.74-1.93-3.36-4.34-6.49-6-10-4.39-9-8.67-18.1-12.67-27.29-3.27-7.5-6.45-15.07-9-22.84-2-6.25-3-12.84-4.42-19.29-1.05-4.72-2.1-9.44-3.1-14.17-.78-3.73-1.32-7.52-2.25-11.22-1.14-4.55-2.64-9-3.85-13.54-1-3.73-1.82-7.5-2.65-11.26-.73-3.29-1.49-6.59-2-9.91-.7-4.35-1.21-8.74-1.75-13.11-.74-6-1.6-11.94-2.08-17.93-.42-5.16-.44-10.36-.51-15.55-.12-8.34-.39-16.68-.11-25,.28-8,1.19-16.09,1.78-24.14q.69-9.48,1.26-19c.28-4.73.58-9.46.66-14.19.06-3.08-.36-6.15-.41-9.23-.09-6.15-.07-12.31-.1-18.46l.65.72c1.88,1.67,1.36-.45,1.4-1,.3-4,.48-8,.72-12.27l-1.71,1.09ZM474,87a.64.64,0,0,0-.45,0l-2.84,3.95,8.87-5-.33-.7ZM448.9,166.36l5.72-9.79-1-.57-5.34,10.4-4.84,8,1,.56ZM295.62,456l.05,0-10-4.76c3.51,7.59,9.69,9.18,17.13,11.27.27.08.64-.21,1-.32l.73-1.31a38.35,38.35,0,0,0,3.32,3.53,31.27,31.27,0,0,0,3.85,2.37l.47-.65c-5.77-5.31-10.62-11.69-18.29-14.73l4.91,4.25c-.49,0-1.11.13-1.45-.11-1.74-1.2-3.38-2.53-5.1-3.74a7.26,7.26,0,0,0-1.68-.66l-.19.45ZM161,453.49l8-7.72-5.87,2.86c-2.13,1-3.34,2.43-2.1,4.89L159.33,452l-4.63,3.17a4.28,4.28,0,0,0,3.23.27A19,19,0,0,0,161,453.49ZM584.71,165.78a.41.41,0,0,0-.48-.07l-1,1.16a39.36,39.36,0,0,0-3.09-3.83c-3.16-3.06-6.43-6-9.65-9-1.36-1.27-2.68-2.59-4-3.89.36-3.09-2.21-4.1-4.15-5.58l3.74,5.85a3,3,0,0,0,.19,1c2.31,3.83,4.3,7.93,7.09,11.38,2.46,3,5.72,5.45,8.83,7.87,1.7,1.32,3.85,2.06,5.78,3.1,1.77,1,3.53,2,5.41,3l-2.65-3.93c.78.46,1.57.91,2.36,1.36l3.62,2.07c2.36,3.07,5.91,3.77,9.13,5.09a60.18,60.18,0,0,0-5.87-5.77c-2.12-1.79-4.39-3.4-6.59-5.09l-.39.5.54,1.89a16.85,16.85,0,0,1-1.72-1.11C589.41,169.82,587.06,167.79,584.71,165.78ZM564.43,155c.08-.83.48-1.83.16-2.46a26.14,26.14,0,0,0-2.74-3.93,6.13,6.13,0,0,0-1.29-1l-.67.56,4.6,6.77c1.58,4.47,5.93,10.23,8.55,11.14-1.49-2.48-2.74-5-4.37-7.13A32,32,0,0,0,564.43,155Zm-75.75-45.91,0,0,1.52,2.06c2.88-3.92,5.59-7.6,8.29-11.29l-1-.78c-2,2.58-3.88,5.2-5.95,7.7a8.13,8.13,0,0,1-2.34,1.38c-.12-.62-.24-1.24-.43-2.18-4.75,5.09-9.58,9.84-11.7,16.53a19.05,19.05,0,0,0,3-3.36c2.22-2.77,4.48-5.5,6.73-8.25l-3.32,7.82A5.16,5.16,0,0,0,487,114.6C487.49,112.74,488.12,110.92,488.68,109.08ZM128.15,483.3c1.78-3.33,3.65-6.61,5.3-10,.93-1.92,3.23-3.33,2.6-6.22-3,4.73-6,9.09-8.67,13.68-3.53,6.15-5.34,11.78-5.29,15.44.28-.74.42-1.14.58-1.54,1.58-3.94,2.34-8.28,5.55-11.42a33.16,33.16,0,0,1-.88,3.6c-1.84,5.08-3.75,10.14-5.64,15.21l.73.27c2.7-2,7.47-14.93,7.21-19.41ZM606.53,175.08l-5-.27c2.43,3.12,7,2.71,9.52,6.48l-3.54-1.23-.36.65,16.74,11.47.58-.81c-3.55-4.61-9.12-6.77-13.7-10.12l.42-.64,4,1.32a9.3,9.3,0,0,0-1.25-2c-2.06-1.62-4.18-3.19-6.27-4.77a46.31,46.31,0,0,0-4.11-2.78c-3.38-1.81-6.84-3.48-10.27-5.2l-.47,1c3.26,1.66,6.51,3.34,9.78,5C603.84,173.84,605.19,174.45,606.53,175.08Zm-53.45-28.35-5.72-5.47c1.08,6.82,10,19.93,13.62,20.76-1.11-3.12-2.37-6.7-3.65-10.27a3.19,3.19,0,0,0-.61-.87L553,146.67l3.4,2.61.23-.18-5.58-8.53.23-.07L547.44,136l-.7.61c.65,1,1.32,2,2,3Q550.9,143.16,553.08,146.73ZM581.52,511c-.35.59-.56,1.43-1.08,1.72Q574.68,516,568.79,519c-.37.18-1.13-.4-1.71-.62l-.18-1c-2.81,2.45-5.61,4.91-8.68,7.6l1.55.18-2,1.71.39.44,5.79-2.83.16.35-6.43,4.88.29.61c.93-.17,1.86-.38,2.8-.52,3.59-.55,7.2-1.59,10.77-1.49,5.62.15,10.55-1.93,15.66-3.56.76,2.39.91,2.37,4.49-.79-.62-3.87-1.17-4.71-4.62-9-1.53-1.91-2.65-4.18-5.61-4,.17-.71.65-1.54.43-2.1a21.37,21.37,0,0,0-2.09-3.65c-2.54-3.82-5.11-7.62-7.87-11.74-2,3-3.42,5.5-5.21,7.73-2.4,3-5.15,5.7-7.6,8.66-2.22,2.67-4.2,5.55-6.36,8.28-3,3.8-6.09,7.54-9.13,11.32-.33.42-.56.92-.86,1.38-2.37,3.67-4.65,7.41-7.18,11-1.1,1.54-3.3,2.46-4,4.1-2.51,5.68-6.16,10.54-10,15.3-1.07,1.33-2.3,2.56-3.26,4-3.57,5.24-7.29,10.38-10.49,15.84s-5.63,11-8.47,16.53q-4.5,8.7-9.11,17.35-2.5,4.68-5.23,9.23c-1.81,3-3.76,6-5.66,8.95-3.79,5.93-8.48,11.25-14.56,14.57-8.66,4.74-17.84,8.54-26.85,12.62a10,10,0,0,1-5.06,1.17c-3.82-.52-5.19.37-5.13,4.1,0,1.57,0,3.15,0,4.72-.17,4.84-.49,9.68-.5,14.53s.21,9.81.42,14.71c.25,5.93.42,11.87,1,17.78.44,5,1.17,9.93,2.1,14.84,1.28,6.71,2.26,13.58,4.48,20,3.36,9.66,7.56,19,11.64,28.44a127.51,127.51,0,0,0,7.47,14.81,89.73,89.73,0,0,0,8.17,10.82,62.78,62.78,0,0,0,5.57,5.49c3.8,3.57,7.24,7.71,11.55,10.51a37.17,37.17,0,0,0,20.29,6.24,48.65,48.65,0,0,0,18.87-3.18c8.49-3.41,15.75-8.8,22.45-15,1.09-1,1.95-2.26,3-3.26,5.22-4.75,10.16-9.72,13.2-16.25,1.36-2.93,2.67-5.89,4.21-8.73a59.53,59.53,0,0,0,7-19.29c.62-4,1.38-8.05,2.2-12.05,1.11-5.42,2.57-10.79,3.46-16.24a93.38,93.38,0,0,0,1.3-24.08,46.59,46.59,0,0,1,0-7c.13-2.27.76-4.52.74-6.78,0-4.5-.56-9-.55-13.49,0-9,.29-17.91.35-26.87a33.7,33.7,0,0,0-.66-6.49c-.18-1-1.28-1.84-1.43-2.83-.3-2.09-.14-4.25-.37-6.36-1-8.94-2.19-17.87-.62-26.87q.84-4.87,1.77-9.74c.34-1.83.82-3.63,1.18-5.45.75-3.81.87-7.86,2.3-11.39a142.34,142.34,0,0,0,7.47-24.68c.93-4.51,1.95-9,2.75-13.55.58-3.29.83-6.64,1.28-10,.48-3.53,1-7,1.52-10.58l.76.06a12.28,12.28,0,0,0,0,1.92,23.34,23.34,0,0,0,.77,2.53c.45-4.14.45-4.14-1.83-5.54-2.81,1.67-5.31,3.6-8.14,4.74s-5.83,1.37-8.77,2c2.08,6.13-2.17,12.91-8.52,13.35a6.76,6.76,0,0,1-4.76-1.72c-1.28-1.32-1.71-3.47-2.56-5.38-3.69,4.9-8.05,9.59-13.65,12.71-2-5.62.75-10.11,2.89-14.47-1.28-.3-2.41-.24-2.72-.72a2.66,2.66,0,0,1-.17-2.49,9.09,9.09,0,0,0,2.53-3.61c.67-2.19,2.35-4.06,3.16-5.37a12.53,12.53,0,0,0,2.29-1.06c2.32-1.9,4.53-3.94,6.91-5.76a19.68,19.68,0,0,1,5.09-3.07C570.16,514.57,575.86,512.83,581.52,511ZM221.41,450l2.61-5c-3.63,1.47-27,28.62-27.64,32.78,4.88-3.94,9.55-8.12,14.17-12.34,1-.91,1.84-2,2.75-3-.48,1.11-.7,2.48-1.49,3.29-2.58,2.64-5.48,5-8.07,7.6-5.49,5.57-13,8.71-17.55,15.56-4.12,6.17-11,9.38-17.36,12.91a19.11,19.11,0,0,1-4.55,1.68c-5,1.29-10.21,2.08-14,6.21-1,1.08-2.65,1.55-4,2.31l-.41-.81,6.94-4.73a2.23,2.23,0,0,0-1.65,0c-3,1-6.06,2.14-9.11,3.15-1.2.39-2.61.34-3.65,1-2.44,1.45-5.86,2.2-6.37,5.46-.33,2-1.18,2.45-2.57,2.54l-2.24,5.3.38.34,5-3.51.49.78a31.78,31.78,0,0,0-4.16,3.94c-1.86,2.51-4.23,4.66-4.36,8.33-.16,4.46-1.18,8.89-1.7,13.34-.65,5.63-1.21,11.27-1.75,16.91-.41,4.35-.5,8.75-1.16,13.07-.38,2.48.44,5.08-1.66,7.56-1.24,1.46-.7,4.5-.82,6.84-.36,6.92-.09,13.93-1.14,20.75-1.13,7.37-.78,14.67-.54,22,.18,5.37,1.41,10.72,1.37,16.08a101.06,101.06,0,0,0,2.31,24.35c1.73,7.17,1.84,14.64,4.86,21.6,1.85,4.26,2.13,9.2,3,13.85,1.17,6,2.2,12.06,3.42,18.07,1.26,6.2,2.73,12.36,4,18.56.57,2.72.52,5.65,1.46,8.22,4.49,12.18,8.86,24.44,14,36.36a270.6,270.6,0,0,0,13.87,27.4c6.23,10.84,13,21.37,19.88,31.83a36.44,36.44,0,0,0,7.75,8.18c2,1.57,4.71,2.13,7.1,3.15,4.68,2,9.4,3.81,14.63,3.55,2.57-.13,5.14-.13,7.7-.34,5.88-.49,11.73-1.24,17-4.09,1.39-.74,2.54-1.91,3.86-2.79,2.66-1.76,5.65-3.14,8-5.24a75.41,75.41,0,0,0,15.27-18.91c1.8-3.18,3.9-6.09,5.14-9.73s4.19-6.54,6.6-9.62q4.59-5.9,9.51-11.51c3.35-3.81,6.91-7.43,10.34-11.17.66-.72,1-1.69,1.67-2.44,3.35-4,6.92-7.81,10.07-12,5.76-7.56,11.41-15.2,16.85-23,3.53-5,6.72-10.35,9.84-15.66s6.31-10.89,9-16.53a123.58,123.58,0,0,0,6-15,86.07,86.07,0,0,0,2.76-12.14,114.74,114.74,0,0,0,1.69-13.31c.32-5.76.21-11.55.2-17.33,0-4.53-.16-9.06-.19-13.59,0-2.73.11-5.47.07-8.2-.07-5.45-.25-10.89-.31-16.34-.1-8.27-.14-16.54-.23-24.81,0-2-.17-4-.23-6-.12-4.3.76-9-.59-12.82-1.74-5-5.25-9.41-8-14.11l-.34,1.24c-2.43-6-4.88-12-7.35-18a27.83,27.83,0,0,1-1.49-3.53c-.93-3.76-1.6-7.58-2.62-11.31-1.06-3.89-2.68-7.63-3.58-11.54S329,518,328.44,514.16c-.89-5.62-1.73-11.25-2.89-16.81-.88-4.24-.94-8.78-3.73-12.44-3.91-5.12-7.95-10.15-11.75-15.34-2.63-3.59-6.33-4.9-10.35-6.2-5.22-1.69-11.24-2.43-13.83-8.52a9,9,0,0,1-1.39-2.29c-1.32-5.05-5.45-6.77-9.73-8.38a21.89,21.89,0,0,0,4.16,4.93c2.39,1.83,3.36,5.45,7,5.68-.17.47-.33.94-.71,2-2.68-2.51-5.39-4.45-7.33-7-3.09-4-7.9-6.79-9.22-12.16a1.24,1.24,0,0,0-.54-.6l-6.86-4.36,2,2.93-.34.22-16.82-13.08a45.38,45.38,0,0,0-3.53,3.16c-4,4.45-7.9,8.95-11.83,13.44-2,2.25-4,4.44-5.77,6.84C224,447.65,223.64,449.71,221.41,450ZM437.32,523.8c-1.6-1.07.15-1.34.42-2,1.48-3.79,2.51-7.79,4.31-11.4,3.75-7.5,7.6-14.9,9.8-23.07,1.47-5.42,3.34-10.76,5.28-16,1.34-3.65.56-8.47,5.33-10.37.75-2.94,3.39-2.36,5.42-2.86a22.56,22.56,0,0,1,2.84-.3c-.13-1.65-.25-3.12-.36-4.59a13.39,13.39,0,0,1,1.24,2.52c.19.42.72,1.11.9,1.05,1.67-.51,3.56-.82,4.86-1.85,2.08-1.63,3.55-4.05,5.64-5.64,2.89-2.19,5.73-5.13,9.84-4.33a127.2,127.2,0,0,1,14.68,3.59c4,1.27,7.78,3.16,12.16,2.22a4.73,4.73,0,0,1,1.76.32c1.81.37,3.62,1.06,5.42,1,5.16-.08,10.32-.45,15.48-.71.25.82.69,1.21,1.15,1.25,1.53.12,3.09,0,4.6.24.55.09,1,1,1.31,1.33-5.07.65-9.61,1.2-14.13,1.85a19.35,19.35,0,0,0-2.48,1c-2.65.78-5.32,1.53-8,2.2-.27.07-.69-.46-.51-.33l-12.89,11h2.34l-5.6,2.73a3,3,0,0,0,2.36.2c2.77-.72,5.5-1.68,8.31-2.17,5.69-1,11.4-2,17.14-2.55a140.73,140.73,0,0,1,18.45-1.06c6.16.18,12.31,1.14,18,4,2.76,1.38,5.76,2.3,8.77,3.48a28.32,28.32,0,0,0,1.6-2.61c1.72-3.59,3.33-7.23,5.08-10.8.8-1.65,2-3.1,2.69-4.79,1-2.46,1.55-5.08,2.43-7.57,1.65-4.64,3.5-9.21,5.1-13.87,1.22-3.58,2-7.3,3.28-10.88,2.59-7.48,3.62-15.24,4.51-23,.27-2.35-.25-4.94.57-7,3.06-7.93,2.14-16.3,3.17-24.43.91-7.13,1.33-14.32,2-21.48.34-3.93.78-7.86,1-11.79.19-3.51,0-7,.22-10.53.22-4.14.75-8.26.94-12.4.3-6.17.09-12.39.7-18.52s1.91-11.91,3-17.85a145,145,0,0,1,3-14.24c1.86-6.37,4-12.67,6.46-18.84,2.9-7.35,3-15,3-22.66,0-3.35,1.27-7.12-1.88-10-.18-.16.08-.73,0-1a11,11,0,0,0-1-2.11,25.08,25.08,0,0,0-10.35-8.81c-3.36-1.57-7-2.48-10.54-3.7a41.63,41.63,0,0,1-5-1.79c-1.41-.7-2.53-2-4-2.62a8.58,8.58,0,0,1-4.88-4.21c-.8-1.57-1.85-3-4.36-2.62a5.36,5.36,0,0,1-5.36-2.21c-.74-1.09-2.42-1.68-3.79-2.17-1.65-.59-3.51-.61-5.12-1.27-3.6-1.48-7.12-3.13-11.17-2.85-.21,0-.45-.59-.68-.91a10,10,0,0,0,3.17.32,7.39,7.39,0,0,1,6.21,1.41c1.28.9,3.21.85,4.86,1.23-.7-.9-1.64-1-2.25-1.5-4.25-3.52-8.73-6.84-12.57-10.78s-8.42-7-11.12-12.17a61.89,61.89,0,0,1-5.53-13.34,75.38,75.38,0,0,0-3.12-9.35c-1.46-3.58-3.44-7-4.81-10.58-1.62-4.29-2.82-8.74-4.21-13.13a19.64,19.64,0,0,0-.57,5.39c-.14,4.57-.34,9.14-.48,13.71,0,1.55,0,3.11,0,4.66-2.24-4.06-2.2-8.58-1.59-12.84,1.09-7.48.5-14.81-.72-22.13-.68-4.12-1.87-8.15-2.83-12.23-.6-2.52-1.18-5-1.81-7.72-4.93,2.39-6.83,4.87-5.8,7.08a27.26,27.26,0,0,0-4.15,3.52c-2.09,2.64-3.83,5.56-5.81,8.3-1.77,2.44-3.58,4.86-5.52,7.15s-4.06,4.14-5.88,6.38a33,33,0,0,0-3,5c-2.18,4-4.32,8-6.46,12-1.5,2.8-3,5.6-4.45,8.44s-2.9,6-4.3,9c-1.6,3.44-3,7-4.77,10.35-1.89,3.57-4.05,7-6.21,10.43-2,3.13-4,6.21-6.16,9.25-2.28,3.25-4.76,6.36-7,9.63-1.89,2.78-3.35,5.87-5.37,8.55q-8,10.56-16.32,20.85a147.84,147.84,0,0,1-10,11.12c-2.49,2.51-5.42,4.57-8.16,6.84l-1-1c9.44-6.81,16.27-15.92,23.54-24.63C431.4,210,425.57,216,419.37,221.7s-12.88,11-19.34,16.52a6.31,6.31,0,0,0,3.15-1.36c3.16-2.34,6.27-4.75,9.45-7.07.36-.26,1-.12,1.55-.16-.24.44-.37,1-.73,1.3-4.71,3.75-9.48,7.41-14.15,11.21-2.13,1.74-3.9,4-6.11,5.58-3.33,2.48-4.64,4.39-5.49,8.72-1.14,5.76-2.46,11.48-3.62,17.23-.89,4.43-1.41,8.95-2.52,13.32-1.66,6.58-3.4,13.16-5.62,19.57-3.37,9.71-7.06,19.31-10.84,28.87-1.67,4.2-3.92,8.17-5.86,12.27-4,8.39-8,16.75-11.83,25.23-2.94,6.55-6.07,13.09-8.16,19.92-2.82,9.21-4.84,18.68-7,28.09-1,4.33-1.42,8.79-2.07,13,.51.39.64.55.8.6,5.35,1.67,10,4.49,13.14,9.17,2.42,3.61,4.47,7.48,6.53,11.32a28.81,28.81,0,0,1,1.62,4.66c.87,2.59,1.68,5.21,2.62,7.78,1.12,3.05,2.85,6,3.45,9.09a226.07,226.07,0,0,1,3.55,23.51c.64,7.82.48,15.72.35,23.58-.11,6.79-.58,13.57-1,20.34-.19,2.74-.92,5.43-1.23,8.17-.5,4.37-.87,8.75-1.24,13.13-.43,5-.86,10.06-1.15,15.09a9.38,9.38,0,0,0,.56,4.5c2.46,4.95,5.35,9.68,7.77,14.65,2.05,4.2,3.57,8.65,5.51,12.91,1.47,3.26,3.17,6.42,4.87,9.57,1,1.88,2.31,3.62,3.34,5.5.67,1.22.88,2.73,1.68,3.83,2.21,3,4.79,5.82,6.91,8.91,3.23,4.71,7.68,7.86,12.6,10.44,1.49.79,3.35.85,4.92,1.52,2.32,1,4.45,2.46,6.81,3.29a42.4,42.4,0,0,0,8.51,2c1.08.15,3.27-.84,3.32-1.45.34-3.88.25-7.8.25-11.7,0-2.62-.34-5.27-.08-7.86.56-5.65,1.34-11.29,2.17-16.91.53-3.61,1.29-7.18,2-10.77s1.42-7.43,2.07-11.15c.43-2.45.5-5,1.21-7.36s2.2-4.24,2.94-6.47c1.83-5.49,3.47-11,5.11-16.59,1.17-3.94,2.24-7.89,3.32-11.85.64-2.38,1.07-4.83,1.85-7.16.69-2.07,1.82-4,2.6-6,1.38-3.64,2.46-7.41,4-11,1.43-3.34,3.24-6.53,5-9.74,1.65-3,3.36-6.09,5.16-9.06,2.16-3.59,4.44-7.1,6.84-10.92l-2.15.22c.4-.72.74-1.34,1.24-2.27l-5.06-.37c3.26-2.37,6.61-4.58,9.69-7.13s6-5.57,9.05-8.37l-.52-.81-3.32,2c-1.18.7-2.37,1.39-3.56,2.08-.3-.8-.6-1.6-.92-2.4-.06-.14-.26-.23.07.06l-8.65,5.22,1.49-5.12a40.92,40.92,0,0,0-7.21,6.23,55.28,55.28,0,0,0-4.92,6.83c-.77,1.2-.95,2.78-1.76,3.93-3.07,4.36-6.5,8.49-9.4,13-2,3-3.23,6.41-4.82,9.64Zm-9.4,133.68c5.25-.77,10.25-1.08,15-2.32,5.56-1.45,10.54-4.35,15.55-7.28a61,61,0,0,0,14.34-11.44c7.54-8.19,11.87-18.4,17.14-28,2.33-4.25,4.35-8.68,6.69-12.92,3.53-6.4,7.18-12.73,10.87-19,2.57-4.4,5.1-8.85,8-13,3-4.35,6.48-8.37,9.62-12.63,1.78-2.43,3.17-5.13,4.94-7.56,1.56-2.15,3.56-4,5.1-6.15,4.27-6,8.26-12.16,12.62-18.07,4.12-5.58,8.57-10.93,12.89-16.36,2.1-2.64,4.35-5.17,6.34-7.89,2.53-3.44,4.86-7,7.27-10.55,1.52-2.22,3-4.44,4.73-7-2.81-1.42-5.14-2.94-7.7-3.82-4.18-1.44-8.49-2.54-12.79-3.61-.66-.16-1.55.57-2.78,1.06-2.75-1.19-4.75-2.46-12.66-1s-16.26.37-24.17,2.87c-4.12,1.3-8.51,1.79-12.56,3.24-7.18,2.57-13.93,6-19.55,11.4-2.64,2.51-6,4.32-8.31,7.09-4.35,5.29-8.16,11-12.15,16.61a58.36,58.36,0,0,0-4.06,6.27c-2.12,4-4.15,8-6,12.1a125.92,125.92,0,0,0-5.1,12.27c-2.06,6.15-3.66,12.44-5.56,18.65-1.28,4.2-2.74,8.34-4.12,12.51-1.29,3.92-2.63,7.82-3.84,11.77-1.33,4.36-2.74,8.73-3.73,13.18-.75,3.35-.84,6.83-1.31,10.25-.9,6.52-2,13-2.75,19.55-.82,7.31-1.34,14.65-1.89,22C427.77,652.08,427.92,654.53,427.92,657.48ZM331,435.83l-.74,0c-.31.47-.85.91-.9,1.4-.47,5.15-1,10.31-1.18,15.47,0,1.33,1.35,2.68,2,4.05.41.82.72,1.69,1.07,2.53l-.67.27-2-2.83a24.51,24.51,0,0,0-.43,3.12c.08,5.29.23,10.58.31,15.87.09,6.22-.16,12.47.29,18.66s1.53,12.13,2.47,18.17c.79,5,1.53,10.1,2.75,15.05.91,3.67,2.58,7.14,3.84,10.73.66,1.88,1.15,3.81,1.74,5.71,1.21,3.92,2.18,7.94,3.72,11.72a120.83,120.83,0,0,0,5.61,11.21c1.82,3.4,3.8,6.72,5.86,10.33a9.55,9.55,0,0,0,.56-1.63q1.13-10.33,2.23-20.68c.79-7.37,1.63-14.74,2.35-22.12.22-2.29.1-4.61.16-6.91.15-5.27.5-10.54.42-15.81-.05-3.39-.8-6.77-1.07-10.17-.21-2.62,0-5.28-.26-7.89a84.66,84.66,0,0,0-1.54-9.21c-.88-4-1.82-8-3.07-11.85-.62-1.93-2.68-3.54-2.88-5.43a27.53,27.53,0,0,0-5.8-13.81c-.94-1.26-1.87-2.52-.86-4.2.07-.13-.17-.44-.29-.72l-.9,1.07c-2.71-2.21-5.2-4.42-7.89-6.38C333.85,440,331,439.34,331,435.83Zm255.81-257.2-.29.74c11.91,9.79,26.44,14.46,40.33,20.6-.05-3.11-3.17-5.79-6.74-6.78a61.9,61.9,0,0,1-9.6-3.73c-1.82-.85-3.29-2.44-5.1-3.33-3.54-1.76-7.17-3.35-10.83-4.84C592.05,180.26,589.4,179.51,586.81,178.63ZM188.21,484c-3.17,1.6-5.79,2.94-8.42,4.25-3.41,1.68-7.32,2.5-9.72,5.89a11.59,11.59,0,0,1-2.2,1.82L160,502.45l.62.83C171.39,499.51,181.21,494.31,188.21,484ZM619.49,170.75c-1.12-7.08-19-32.7-23.17-34.08,3.17,5.81,6,12.05,9.79,17.64S614.69,164.94,619.49,170.75ZM447.4,92.19l-.86-.92c-2.48,1.65-5,3.28-7.42,5A18.61,18.61,0,0,0,437.4,98c-2.5,2.25-4.71,5.08-7.61,6.56a19.85,19.85,0,0,0-8,8.19c-2.29,4-3.71,8.41-5.52,12.64-.26.63-.53,1.26-.8,1.88,3.43-4.42,7.27-8.45,9.63-13.54.54-1.17,1.85-2,2.79-3,2.75-2.94,5.36-6,8.3-8.78C439.76,98.53,443.64,95.42,447.4,92.19ZM290.78,438.29l25.48,22.37C310.89,449.32,302.46,442,290.78,438.29ZM409,165.87c4.1-4.78,8.38-9.41,12.24-14.37s7.14-10.08,10.69-15.15C425,141.43,414,155,409,165.87ZM580.89,137c0,6.5,11.59,23.29,17.46,23.73C594.17,151.55,585.84,145.55,580.89,137ZM564,536.64c-3,1.18-4.67,3.43-4.24,5.6a5.1,5.1,0,0,0,5.6,3.58c1.54-.2,2.91-1.45,4.43-2,3.45-1.25,3.71-4,3.42-7-.14-1.43-.76-2.44-2.52-1.67-.53.23-1.14.26-.92.21a30.68,30.68,0,0,1-.15,5.81c-.09.45-2.09.94-3,.71C563.91,541.25,563.9,538.89,564,536.64Zm-395.6-43-.44-.79-28,15C151.73,506.44,160.75,501.35,168.4,493.63Zm34.34-50c-6.42,3.33-12.59,6.77-15.26,13.81a2.28,2.28,0,0,1-.49.64l-5.77,6.66.88.81c3.52-3.6,7-7.25,10.59-10.78,1-1,1.41-1.93.86-3.25,0-.08.18-.26.28-.39l.95.89Zm374.19,54.64L591.3,518C592.26,512.47,582,498.82,576.93,498.27Zm1.7,107c-3.59,4.67-4.35,21.89-1.48,27.6C577.66,623.35,578.14,614.3,578.63,605.24ZM467.69,138.42c-4.45,8.55-11.11,16-13.12,25.72C460.11,156.15,465.22,148,467.69,138.42Zm-30-19.2c-5.35,4.31-7.83,9.88-10.42,15.43a8.14,8.14,0,0,0,2.58-2c2.23-2.31,4.59-4.52,6.68-7C438,124,439.16,122,437.73,119.22Zm135.49-3.73c2.4,7.56,7.57,13.34,12.35,19.38C583,127.46,579.33,120.7,573.22,115.49ZM178.73,486.63l.14.2c3.58-1.79,7.1-3.71,10.76-5.34,4-1.77,6.28-6.87,6.7-9.28ZM539.25,121.69l.78-.08c-.38-2.57-.68-5.16-1.16-7.71-.23-1.16-1.36-2.39-1.13-3.36,1.1-4.69-1.19-8.48-2.91-13.12-1.51,4.35.15,7.28,2.4,10.25h-2.32Q537.09,114.69,539.25,121.69ZM176.48,464.14l-15.1,14.57.61.61c2.91-2.2,5.71-4.58,8.77-6.55C174.05,470.64,175.47,467.48,176.48,464.14ZM444.7,89.32l-.37-.6c-2.42,1.54-4.95,2.94-7.24,4.66A59.63,59.63,0,0,0,430.8,99c-2,2-3.78,4.24-5.66,6.37l.39.29Zm38.72,32.33-.28-.52a15.11,15.11,0,0,0-2.81,2.78c-1.72,2.9-3.26,5.91-4.76,8.94-1.95,3.94-3.79,8-5.68,11.93l.81.44ZM439.2,153.91l.65.43q6.88-9.33,13.76-18.68C447.1,140.51,442.75,146.92,439.2,153.91Zm109.2-28.43c0-5.41-3.86-18-6.32-19.23C543.86,112.9,544.64,119.69,548.4,125.48Zm33.13-14.72-.69.72c2,3,3.94,6.1,6,9.06,4.18,5.93,5.75,7.36,7.93,7.09Zm-2.73,66.46c-.27-1.19-.24-1.53-.39-1.66-2.95-2.44-5.92-4.85-8.89-7.27-.68-.56-1.37-1.11-2.06-1.66L562.87,163c-.2.21-.39.43-.58.65,1.57,4.87,7.4,5.18,10.12,9C573.73,174.45,576.22,175.43,578.8,177.22Zm-21.94-66.09c1.63,7.49,6,13,9.29,19C564.26,123.49,562.22,116.87,556.86,111.13Zm-240,342.05c-1.74-6.66-7.11-13.93-11.6-14.74Q311,445.78,316.81,453.18ZM427.55,166a35,35,0,0,0,9.63-14.33C431.68,155.49,429.68,160.8,427.55,166Zm24.6-65,.52.68c6.62-3.39,15.69-9.91,17.31-13.53ZM169,447.71l.58,1.18c6.19-.21,9.52-5.14,13.56-8.92Zm442.19-324.3c.35-3.32-6-13.8-9.33-15-.9,3.86,3.05,5,4.36,7.7S609.55,121.14,611.14,123.41Zm-25.83,471.7h-.68c-1.76,7.46-4.59,14.73-3.28,22.7Zm24.17-470.82,9.87,22.29C617.29,138.55,615,130.63,609.48,124.29ZM402,161.25l1,.32,6.63-17.76c-2.55,2.53-4.69,5.16-5.14,8.85-.23,1.9-1.2,3.71-1.77,5.59C402.38,159.23,402.2,160.25,402,161.25Zm57.42-18.16.9.56,11.44-20.44-1.07-.58Q465,132.86,459.38,143.09ZM174.3,450.23c-.28,0-.63-.15-.74,0-4.54,4.53-9.06,9.08-13.78,13.82C161.92,464.57,170.82,455.74,174.3,450.23ZM581.81,594.77c3.05-4.1,5.68-17.59,4.63-21C584.87,580.89,583.34,587.86,581.81,594.77Zm8.91-459.43-.85.78,10.77,13.82.72-.54C598.78,144,594.62,139.77,590.72,135.34Zm-147.5,3.5-.81-.52-8.62,13.55A26.81,26.81,0,0,0,443.22,138.84Zm18.49-37.52.89,1,10-8.72-.74-.85C468.53,95.65,463.65,96.8,461.71,101.32ZM546.39,108c.49-3.66-4.94-17.77-6.94-19.37C541.82,95.19,544.1,101.57,546.39,108Zm32.41,33.49,1-.54c-2.53-5.39-2.85-11.81-7.78-16.08ZM151.46,449.2l.59,1.19,15.12-9.06-.57-1ZM433.9,201.54c3-3.76,5.9-7.31,9.11-11.3C438.37,192,433.13,198.46,433.9,201.54Zm9.18-70.86c4.5-3.15,6.31-8.3,9.16-12.68C447.5,121,446.31,126.59,443.08,130.68ZM576.93,488.41c.73,3.66,3.8,7.28,6.67,7.6C582.42,492.46,581.09,489.13,576.93,488.41ZM592.73,135l.83-.57-7.66-10.35-.64.45C586.4,128.92,589.61,131.91,592.73,135ZM321.18,457.22a19.88,19.88,0,0,0-3.64-11.06c-.32-.42-1.09-.5-1.66-.74a6.33,6.33,0,0,0,.29,1.88C317.8,450.63,319.5,453.92,321.18,457.22ZM459.52,118.38q-3.88,5.07-7.78,10.15C455.83,126.81,455.83,126.81,459.52,118.38Zm-5.92-13.51-.75-.82c-2.45,3.39-7.8,3.6-9,8.38l.65.71Zm-7.83,11c-3-1.17-6.45,3.27-6,7.57Zm33.14-7.71c-4.06.43-9.14,6.5-8.12,8.64Zm110.71,49.45-8.78-12.24-.57.42C582.77,150.11,584.27,155.11,589.62,157.66Zm-25-27.33-1,.43c1.52,4.61,4.48,8.52,6.78,12.76l.77-.39Zm26,442.54q1.61-7,3.22-14.08C589.7,562.8,591.26,568.11,590.67,572.87ZM160.75,458.36c-4.85,2.16-7.62,6.08-9.75,10.53Zm290.8-283.14c1.8-2.84,5.41-4.54,5.49-9C452.55,170.47,451.94,171.43,451.55,175.22ZM594.91,493.07q-4.49-5.46-8.95-10.93l-.52.45C588.21,486.46,590.18,491,594.91,493.07Zm-14.13,94.21-.52-.26c-.62,2.21-1.35,4.41-1.81,6.65s-.64,4.48-.94,6.73l.63.33a7.23,7.23,0,0,0,1-2C579.76,594.93,580.25,591.1,580.78,587.28ZM291.16,446.57l8.91,5.15C298,448.53,295.75,445.56,291.16,446.57ZM475.7,102.43l-.7-.64-2.73,3a26.22,26.22,0,0,0-2.7,3,25.11,25.11,0,0,0-1.68,3.64l.84.4ZM314.21,431.09l-.33,1.12,9.68,4.62.24-.62-2.35-3.1-.05.49ZM411.07,192l1.2.91,6.49-9-.93-.69Q414.46,187.59,411.07,192ZM186.47,442.78l-.86-1-8.44,7.44.78.91ZM412.76,178.71l.56.37c2.85-2.91,5.67-5.84,6.71-9.93l-.82-.54ZM455,118.54q4.22-4.38,8.41-8.77l-.81-.76C459.54,111.67,456.52,114.4,455,118.54Zm-2.17,12.31-.3-.27c-2.09,1.74-4.26,3.39-6.19,5.28-.49.47-.18,1.75-.24,2.65l1,.17Zm103.76,0a9.05,9.05,0,0,0,4.87,9.53ZM544.05,69.47l.4-1c-2.43-3-5.83-2.94-9.25-2.87ZM209.69,423.62l.34,1.12,13-4.24-.19-.62ZM532,99.34l1.19-.23q-1.14-5.92-2.27-11.84l-1.06.21Q530.95,93.41,532,99.34ZM280.66,437.44l-.6,1,10.45,6.23.6-1Zm21.46,16.86,8.71,8.25.55-.6C308.32,459.36,306.61,455.33,302.12,454.3Zm279-293.47c.17-.27.34-.54.52-.81l-8.22-6.86C575.49,156.31,577.61,159.4,581.11,160.83Zm17.8,383.85-.62.08v14.8h.62Zm-21.86-400.6.75-.35-5.28-10.12-1.08.57Zm-49-72.32c1.55,2.74,2.79,4.9,4.34,7.63.37-1.32,1-2.57.73-2.76C531.44,75.31,531.38,72.33,528.05,71.76Zm23.11,40.62,1.16-.33-4.43-10.93-.91.36ZM263.67,419.12l0-.8-9.86-.59C260.16,420.39,260.73,420.46,263.67,419.12Zm332.58,154.6-.94-.18Q594.16,579.77,593,586l.87.17ZM549.54,136.4l.91-.31c-1-2.8-.12-6.33-3.51-8.24ZM488,100.2c5.15-1.88,7.74-4,8.59-6.87ZM214.3,450.63l-.71-.7-7,7,.36.35Zm-71.64,16.95-1-.47-4.76,9.13.76.39Zm438.74,19.6c-.62-2.65,2.83-4.19.08-6.59l-2.62,4.76ZM613,173.42c-.6-2.4-5.15-5.85-8.15-6.09Zm-11.71-19.7c.42,3.92,3.18,5,4.84,6.89l.77-.65ZM186,430.88c5.74.81,5.8.79,7.25-2.43ZM551.85,129.3l.84-.23-3.35-11.45-.56.16Zm-108.5-2.82c-4.66,3.72-5.11,4.47-5.2,7.6Zm16.57-41.63-.77-1.06-5.94,4.35.66.91C455.69,87.38,458.42,87,459.92,84.85Zm-266.27,355c-3.35-1-4.76,1.14-6,3.58Zm-6,23.29c6-2.78,6-2.78,6.35-5.14ZM530.26,65.05l-.26.87,4.29,3.69.53-.36-2.17-3.15,1.59-1.43Zm85.07,61.46-1,.38c1,2.47,2.1,4.93,3.14,7.4l1-.44ZM393.59,244.38l4.59-5.37-.39-.34-6.15,5.18ZM526.26,72.09l1,.38c.61-1.51,1.21-3,1.82-4.54l-.77-.33C527.13,68.88,525,69.7,526.26,72.09ZM175.59,437.45l-.52-.87L168,439.93l.38.79ZM581.59,91l-.73.84,6.58,5.32.48-.61Zm-130.94,83.8-.8-.56-4,5.86,1,.63ZM276.93,433.62l-.42,1,7,3.06c.11-.27.23-.54.35-.81Zm-92.26,2.54-.51-.82-6.69,3.55.46.85ZM146,456.74l.61.73,5.57-4.54-.69-.82ZM455.52,108.36l1,.89,5.09-5.24-.34-.35Zm6.07-25.31.46,1,7.67-3.49-.35-.78Zm-3.67,58.82-1-.72-3.72,6.69.62.37ZM586.79,604.92l-.75-.11-2,8.31.84.2ZM466.58,151.61l1.07.46,2.56-6-.94-.42ZM624.48,201l-.24,1,2.79,2.28.8-.32c-.17-.7-.12-1.71-.56-2A9.86,9.86,0,0,0,624.48,201ZM502.15,98.91l.51.46,5.17-6.91-.66-.49Zm94.16,401.18.84-.6L592.68,494l-.61.53ZM394.38,172.92l-1.17-.22-1.38,6.49.84.19Zm48.35-70.19-.92-.86L437,107.1l.43.42ZM487,106a6.83,6.83,0,0,0-5,5.17ZM603.07,163.7l.86-.56-3.63-5.46-.79.51C600.7,160,601.89,161.86,603.07,163.7ZM197.19,459.11l.86.78,4.39-5.18-.56-.5C200.32,455.84,198.76,457.48,197.19,459.11Zm283-356.74.63.6L486,98.3l-.54-.6Zm142.37,64.79-.68.33,2.68,6.53.87-.36C624.49,171.5,623.54,169.33,622.58,167.16Zm-15.12,25.71-6.69-2.56C602.76,192.71,604.58,193.8,607.46,192.87Zm-186-36.52-.68-.47c-1.29,1.79-2.59,3.58-3.88,5.38l.81.57ZM398.6,203.2l.88.73q1.5-1.81,3-3.61l-1-.82Z"/><path class="cls-3" d="M428.69,95.53,436.23,90l.79.88-10.44,10-.5-.36c.53-1.16,1.05-2.32,1.58-3.49Z"/><path d="M117.38,526.54l-.65-.72c.09-3.31.13-6.61.28-9.91,0-.53.54-1,.82-1.53l0,0a7,7,0,0,1,.51,2c-.06,1.77-.28,3.53-.45,5.29S117.54,524.9,117.38,526.54Z"/><path d="M449.47,79.12a24.36,24.36,0,0,1,3.78-3A45.48,45.48,0,0,1,459,74l.32.63-9.93,4.48Z"/><path d="M613.85,111.93l5,9.23-.74.4-5-9.11Z"/><path class="cls-3" d="M561.73,174.93c.23.32.47.92.68.91,4.05-.28,7.57,1.37,11.17,2.85,1.61.66,3.47.68,5.12,1.27,1.37.49,3,1.08,3.79,2.17a5.36,5.36,0,0,0,5.36,2.21c2.51-.33,3.56,1,4.36,2.62a8.58,8.58,0,0,0,4.88,4.21c1.44.57,2.56,1.92,4,2.62a41.63,41.63,0,0,0,5,1.79c3.52,1.22,7.18,2.13,10.54,3.7a25.08,25.08,0,0,1,10.35,8.81,11,11,0,0,1,1,2.11c.12.31-.14.88,0,1,3.15,2.84,1.88,6.61,1.88,10,0,7.66-.1,15.31-3,22.66-2.43,6.17-4.6,12.47-6.46,18.84a145,145,0,0,0-3,14.24c-1.09,5.94-2.4,11.86-3,17.85s-.4,12.35-.7,18.52c-.19,4.14-.72,8.26-.94,12.4-.19,3.5,0,7-.22,10.53-.21,3.93-.65,7.86-1,11.79-.63,7.16-1,14.35-2,21.48-1,8.13-.11,16.5-3.17,24.43-.82,2.1-.3,4.69-.57,7-.89,7.8-1.92,15.56-4.51,23-1.24,3.58-2.06,7.3-3.28,10.88-1.6,4.66-3.45,9.23-5.1,13.87-.88,2.49-1.45,5.11-2.43,7.57-.67,1.69-1.89,3.14-2.69,4.79-1.75,3.57-3.36,7.21-5.08,10.8a28.32,28.32,0,0,1-1.6,2.61c-3-1.18-6-2.1-8.77-3.48-5.7-2.85-11.85-3.81-18-4a140.73,140.73,0,0,0-18.45,1.06c-5.74.58-11.45,1.55-17.14,2.55-2.81.49-5.54,1.45-8.31,2.17a3,3,0,0,1-2.36-.2l5.6-2.73h-2.34l12.89-11c-.18-.13.24.4.51.33,2.68-.67,5.35-1.42,8-2.2a19.35,19.35,0,0,1,2.48-1c4.52-.65,9.06-1.2,14.13-1.85-.34-.36-.76-1.24-1.31-1.33-1.51-.25-3.07-.12-4.6-.24-.46,0-.9-.43-1.15-1.25-5.16.26-10.32.63-15.48.71-1.8,0-3.61-.66-5.42-1a4.73,4.73,0,0,0-1.76-.32c-4.38.94-8.16-.95-12.16-2.22a127.2,127.2,0,0,0-14.68-3.59c-4.11-.8-6.95,2.14-9.84,4.33-2.09,1.59-3.56,4-5.64,5.64-1.3,1-3.19,1.34-4.86,1.85-.18.06-.71-.63-.9-1.05a13.39,13.39,0,0,0-1.24-2.52c.11,1.47.23,2.94.36,4.59a22.56,22.56,0,0,0-2.84.3c-2,.5-4.67-.08-5.42,2.86-4.77,1.9-4,6.72-5.33,10.37-1.94,5.27-3.81,10.61-5.28,16-2.2,8.17-6.05,15.57-9.8,23.07-1.8,3.61-2.83,7.61-4.31,11.4-.27.69-2,1-.42,2a19.66,19.66,0,0,0-2.27,2.93c-1.34,2.59-2.49,5.27-3.71,7.92l.82.4q2.94-5.41,5.87-10.85c1.59-3.23,2.87-6.65,4.82-9.64,2.9-4.47,6.33-8.6,9.4-13,.81-1.15,1-2.73,1.76-3.93a55.28,55.28,0,0,1,4.92-6.83,40.92,40.92,0,0,1,7.21-6.23l-1.49,5.12,8.65-5.22c-.33-.29-.13-.2-.07-.06.32.8.62,1.6.92,2.4,1.19-.69,2.38-1.38,3.56-2.08l3.32-2,.52.81c-3,2.8-5.89,5.75-9.05,8.37s-6.43,4.76-9.69,7.13l5.06.37c-.5.93-.84,1.55-1.24,2.27l2.15-.22c-2.4,3.82-4.68,7.33-6.84,10.92-1.8,3-3.51,6-5.16,9.06-1.74,3.21-3.55,6.4-5,9.74-1.54,3.58-2.62,7.35-4,11-.78,2-1.91,4-2.6,6-.78,2.33-1.21,4.78-1.85,7.16-1.08,4-2.15,7.91-3.32,11.85-1.64,5.55-3.28,11.1-5.11,16.59-.74,2.23-2.27,4.22-2.94,6.47s-.78,4.91-1.21,7.36c-.65,3.72-1.38,7.43-2.07,11.15s-1.43,7.16-2,10.77c-.83,5.62-1.61,11.26-2.17,16.91-.26,2.59.08,5.24.08,7.86,0,3.9.09,7.82-.25,11.7,0,.61-2.24,1.6-3.32,1.45a42.4,42.4,0,0,1-8.51-2c-2.36-.83-4.49-2.3-6.81-3.29-1.57-.67-3.43-.73-4.92-1.52-4.92-2.58-9.37-5.73-12.6-10.44-2.12-3.09-4.7-5.87-6.91-8.91-.8-1.1-1-2.61-1.68-3.83-1-1.88-2.32-3.62-3.34-5.5-1.7-3.15-3.4-6.31-4.87-9.57-1.94-4.26-3.46-8.71-5.51-12.91-2.42-5-5.31-9.7-7.77-14.65a9.38,9.38,0,0,1-.56-4.5c.29-5,.72-10.06,1.15-15.09.37-4.38.74-8.76,1.24-13.13.31-2.74,1-5.43,1.23-8.17.47-6.77.94-13.55,1-20.34.13-7.86.29-15.76-.35-23.58a226.07,226.07,0,0,0-3.55-23.51c-.6-3.13-2.33-6-3.45-9.09-.94-2.57-1.75-5.19-2.62-7.78a28.81,28.81,0,0,0-1.62-4.66c-2.06-3.84-4.11-7.71-6.53-11.32-3.15-4.68-7.79-7.5-13.14-9.17-.16,0-.29-.21-.8-.6.65-4.19,1.09-8.65,2.07-13,2.13-9.41,4.15-18.88,7-28.09,2.09-6.83,5.22-13.37,8.16-19.92,3.8-8.48,7.86-16.84,11.83-25.23,1.94-4.1,4.19-8.07,5.86-12.27,3.78-9.56,7.47-19.16,10.84-28.87,2.22-6.41,4-13,5.62-19.57,1.11-4.37,1.63-8.89,2.52-13.32,1.16-5.75,2.48-11.47,3.62-17.23.85-4.33,2.16-6.24,5.49-8.72,2.21-1.63,4-3.84,6.11-5.58,4.67-3.8,9.44-7.46,14.15-11.21.36-.29.49-.86.73-1.3-.52,0-1.19-.1-1.55.16-3.18,2.32-6.29,4.73-9.45,7.07a6.31,6.31,0,0,1-3.15,1.36c6.46-5.49,13.08-10.81,19.34-16.52s12-11.74,18.15-17.54c-7.27,8.71-14.1,17.82-23.54,24.63l1,1c2.74-2.27,5.67-4.33,8.16-6.84a147.84,147.84,0,0,0,10-11.12q8.34-10.28,16.32-20.85c2-2.68,3.48-5.77,5.37-8.55,2.23-3.27,4.71-6.38,7-9.63,2.12-3,4.19-6.12,6.16-9.25,2.16-3.43,4.32-6.86,6.21-10.43,1.78-3.36,3.17-6.91,4.77-10.35,1.4-3,2.81-6,4.3-9s2.95-5.64,4.45-8.44c2.14-4,4.28-8,6.46-12a33,33,0,0,1,3-5c1.82-2.24,4-4.17,5.88-6.38s3.75-4.71,5.52-7.15c2-2.74,3.72-5.66,5.81-8.3A27.26,27.26,0,0,1,518.57,83c-1-2.21.87-4.69,5.8-7.08.63,2.68,1.21,5.2,1.81,7.72,1,4.08,2.15,8.11,2.83,12.23,1.22,7.32,1.81,14.65.72,22.13-.61,4.26-.65,8.78,1.59,12.84.17,1.67.33,3.34.5,5,.21,4.32,3.37,7.19,5.32,10.65a5.38,5.38,0,0,0,.7-.27l0,0c1.27,2.84,2.55,5.68,3.81,8.53.93,2.08,1.84,4.18,2.77,6.27l0-.07a53.69,53.69,0,0,1,4,5.43c2.63,4.6,6.69,7,11.67,8.18ZM454.92,188.18l-6.79,8,1,.78c1.49-1.87,3.07-3.69,4.43-5.65a15.15,15.15,0,0,0,1.34-3.23,4.84,4.84,0,0,0,.66.37c1.54-2,3-4,4.55-6l-.94-.68Zm72.13,102.7,1.41-.51.69.23-.15-1c2.26-.93,4.55-1.8,5-4.66l4.93-2.44,1.78.2a23.86,23.86,0,0,1-3.45,3.54,46.27,46.27,0,0,1-5.4,2.73l.29.8h1.89l-10.5,13.55,1.82-.13v2.6h.56l-1.3,1.78c2,0,4,.59,5.36-.11,3.82-2,7.37-4.57,11-6.93,2.64-1.71,5.26-3.45,8.16-5.36a32.22,32.22,0,0,0,1.54,4c.64,1.11,1.34,2.5,2.38,3,10.36,5.25,18.68,2.12,24.7-7.42a89.77,89.77,0,0,1,7.9-10,10.56,10.56,0,0,1,3.38-2.1c2.71-1.32,6-1.94,8.09-3.92,5.43-5.27,12.35-9.2,14.42-17.65.94-3.83,2.95-7.32,1.86-11.44l4.88-.51c0-.25.09-.51.13-.77a9.07,9.07,0,0,0-2-1.47c-3-1-6-1.93-9.09-2.89.66-.86,1-1.34,1.59-2.07-3.14.47-5.12,5-7.82,1.84-1.58.67-2.75,1.19-4,1.65-.41.16-.94.07-1.3.29-2.45,1.45-4.86,3-7.29,4.46-.31.19-.72.59-.92.5-1.76-.7-2.26.52-3.13,1.64-.75,1-2.09,1.47-3.26,2.24-.19-1.09-.31-1.76-.45-2.53L577.44,255c-.87-2-1.78-.26-2.5.07-2.15,1-4.16,2.3-6.35,3.2-.8.33-1.93-.16-2.78-.26l-10.27,4.91,1.46-2.35c-2.48,0-3.83,3.5-6.87,1.76l-3.62,3.93c-.12-.78-.21-1.38-.3-2-.8.17-1.79.1-2.35.55-1.85,1.5-3.54,3.18-5.31,4.81-.09-.51-.19-1-.39-2.15l-2.76,4.22-.56-.34,2.93-4.79-.53-.49-3,3-.46-1.1L532,270.55v-2.68a7.33,7.33,0,0,0-6,5.62c-.09.37-1.68.37-3,.62-.13.49-.4,1.58-.67,2.67l-.31,0v-4.91c-1,1.23-2.49,2.4-3,3.9-.6,1.73-1.6,3.35-2.07,4.88-.91,3-.64,6.37-.38,9.56.15,1.93,3.38,2.61,5,1.29.51-.44,1-.85,1.58-1.27l0,0,1.33,1.5-1.69,1.94.35.35ZM467.79,169l-5,7.51,1,.67,4.78-7.49a19.84,19.84,0,0,0,2.62-3.06c3-5.23,5.8-10.53,8.69-15.8-.87-.16-1.43,0-1.64.44-1.4,2.67-2.58,5.45-4.12,8C472.15,162.62,469.91,165.77,467.79,169ZM462.6,417.71c-2-3.76-.94-7.48.55-11.33a5.29,5.29,0,0,0-3.88,5.4c.09,2.14,1.15,4.24,1.78,6.37l1.59-.51c1.65,3.75,5.2,5.11,8.58,6.46,1.89.75,4.1.35,5.78,2.18.83.89,2.62,1.24,4,1.23,3.83,0,7.66-.27,11.49-.54,2.56-.19,5.13-2.92,4.78-5-.29.31-.53.55-.76.81-2.63,2.92-3.56,3.41-6.68,1.58-1.74-1-3.13-2.31-5.28-1.8.73-2.93,1.47-5.85,2.21-8.78l-.75-.18q-1.19,4.83-2.38,9.65a10.73,10.73,0,0,0-1.1.62c-1.66,1.25-3.1,2.63-5.09.15a23.63,23.63,0,0,1-4.29-7.78c-1.38-4.2-.77-7.72.85-11.47a59.39,59.39,0,0,0,2.84-7.6c1.37-5,2.42-10.18,3.75-15.24,1.45-5.56,3.55-11,4.49-16.64,1.45-8.68,2.31-17.48,3.1-26.25.51-5.69.36-11.43.67-17.13.31-5.91.83-11.8-.09-17.69-.51-3.24-.91-6.51-1.64-9.69s-1.08-6.53-2.79-9c-4-5.76-8.68-11-13.16-16.46-.53-.64-2-1.45-2.23-1.26-2,1.79-3-.28-4.26-1-1.84-1.1-3.47-2.58-5.81-1.32a1.21,1.21,0,0,1-.92-.21,42.79,42.79,0,0,1-6.32-3.95c-1.77-1.55-2.43-1.23-2.75.75l-12-7.16-.81,1,5.24,4.32c-3.19,2.21-4.71-1.82-7.84-1.77l2.47,2.17c-.74.13-1.15.33-1.36.21-2.85-1.62-5.88-1.18-8.75-.41-2.4.65-5.47.52-6.41,3.83-.11.4-.79.76-1.27.9-3,.89-6.13,1.62-9.13,2.62a6.8,6.8,0,0,0-3.09,2c-2.95,3.74-7.7,5.94-9.51,10.89l-1.83.15c.32,1.24-2.18,6.84-3.29,6.84-2.3,0-1.75,2-2.55,3-.14.18.35.82.21,1.08-.82,1.57-2.1,3-2.56,4.64-1.91,6.88-3.49,13.85-5.36,20.74-1.54,5.65-1.72,11.67-4.68,16.94a35.12,35.12,0,0,0-1.74,4.51c.95-.58,1.48-.9,2-1.23l-1,3.5.68.28a17.12,17.12,0,0,0,1.07-1.35c5-7.94,7.87-16.65,9.48-25.88.85-4.82,1.79-9.77,3.74-14.21a78.71,78.71,0,0,1,13.1-21.2c4.34-4.84,9.3-9.26,16-10.71,2.49-.54,5.08-.69,7.63-1,4.41-.52,8.9-2.07,13,1.1a4.73,4.73,0,0,0,1.77.57,24,24,0,0,1,4.37,1.15c4.21,2,8.22,4.52,12.51,6.35,7.31,3.11,14.15,6.76,19.59,12.74,2.4,2.64,4.94,5,5.54,8.83.85,5.44,2.45,10.71,1.94,16.39-.48,5.34,0,10.76-.17,16.13-.09,3.7-.6,7.39-.71,11.1-.09,3.52-1.82,6.72-1.18,10.51.51,3-.51,6.36-1.2,9.49-1.16,5.32-2.64,10.56-3.89,15.86-1.48,6.29-2.69,12.65-4.34,18.9-1.37,5.16-2.71,10.35-5.55,15-.91,1.49-.6,3.72-.85,5.61l.63.08.87-4.25.24.05.42,4.65Zm-7.58-123a3.67,3.67,0,0,0,0-1.61c-1.24-3.18-4-4.79-7.89-4.78a15.06,15.06,0,0,1-1.89-.16c-2.15-.21-4.33-.32-6.45-.68-1.2-.21-2.3-1.05-3.5-1.22s-2.29.43-3.39.3c-4.49-.52-8.91-.67-13,1.7-2,1.15-3.78,2.54-5.66,3.82l.16.15-5,4.1c.1-1.28.15-1.88.23-2.82a6.89,6.89,0,0,0-1.93,1.08c-1.25,1.51-2.31,3.17-3.54,4.7s-3.09,3.06-4.11,4.87c-4.27,7.64-5.91,16.18-7.95,24.57-1.49,6.11-1.81,12.63-6.26,17.7a1.26,1.26,0,0,0-.14.76c0,.81.08,1.63.13,2.72,0,0,.47.27.76.13,3.17-1.63,6.35-3.17,8.36-6.45a38.58,38.58,0,0,0,2.46-5.26c1.63-3.74,3.85-7.23,6-11.1,3.36,1.43,7.1.36,10.81-.61,6-1.58,10.45-5.22,12.1-11.29.89-3.31.61-6.93,1-10.39.21-1.88.16-4.14,1.19-5.49,2.73-3.59,6.18-6.3,11.25-5.32a23.08,23.08,0,0,0,3.22,0C446.11,294.25,450.29,294.45,455,294.67ZM485.7,136.35c-3.5,3.42-6.77,10.78-5.89,13.08ZM520.87,303l.68.55,6.62-7.87-.85-.69Zm-5-24.67c-3.21,3.05-3.8,5.41-2.42,9.06C513.48,284.15,513.26,280.85,515.91,278.33ZM492,125c.68-1.57,1.26-2.93,1.86-4.29.52-1.18,1.07-2.35,1.6-3.53C491.69,121.68,491,123.6,492,125Z"/><path class="cls-3" d="M285.9,454.84c2.58,6.1,8.6,6.84,13.82,8.53,4,1.3,7.72,2.61,10.35,6.2,3.8,5.19,7.84,10.22,11.75,15.34,2.79,3.66,2.85,8.2,3.73,12.44,1.16,5.56,2,11.19,2.89,16.81.6,3.82.8,7.73,1.67,11.49s2.52,7.65,3.58,11.54c1,3.73,1.69,7.55,2.62,11.31A27.83,27.83,0,0,0,337.8,552c2.47,6,4.92,12.08,7.35,18l.34-1.24c2.78,4.7,6.29,9.1,8,14.11,1.35,3.87.47,8.52.59,12.82.06,2,.21,4,.23,6,.09,8.27.13,16.54.23,24.81.06,5.45.24,10.89.31,16.34,0,2.73-.1,5.47-.07,8.2,0,4.53.19,9.06.19,13.59,0,5.78.12,11.57-.2,17.33a114.74,114.74,0,0,1-1.69,13.31,86.07,86.07,0,0,1-2.76,12.14,123.58,123.58,0,0,1-6,15c-2.73,5.64-5.86,11.11-9,16.53s-6.31,10.61-9.84,15.66c-5.44,7.79-11.09,15.43-16.85,23-3.15,4.14-6.72,8-10.07,12-.63.75-1,1.72-1.67,2.44-3.43,3.74-7,7.36-10.34,11.17s-6.45,7.58-9.51,11.51c-2.41,3.08-5.39,6.07-6.6,9.62s-3.34,6.55-5.14,9.73A75.41,75.41,0,0,1,250,853c-2.34,2.1-5.33,3.48-8,5.24-1.32.88-2.47,2-3.86,2.79-5.3,2.85-11.15,3.6-17,4.09-2.56.21-5.13.21-7.7.34-5.23.26-10-1.55-14.63-3.55-2.39-1-5.15-1.58-7.1-3.15a36.44,36.44,0,0,1-7.75-8.18c-6.85-10.46-13.65-21-19.88-31.83a270.6,270.6,0,0,1-13.87-27.4c-5.13-11.92-9.5-24.18-14-36.36-.94-2.57-.89-5.5-1.46-8.22-1.29-6.2-2.76-12.36-4-18.56-1.22-6-2.25-12.05-3.42-18.07-.91-4.65-1.19-9.59-3-13.85-3-7-3.13-14.43-4.86-21.6a101.06,101.06,0,0,1-2.31-24.35c0-5.36-1.19-10.71-1.37-16.08-.24-7.32-.59-14.62.54-22,1-6.82.78-13.83,1.14-20.75.12-2.34-.42-5.38.82-6.84,2.1-2.48,1.28-5.08,1.66-7.56.66-4.32.75-8.72,1.16-13.07.54-5.64,1.1-11.28,1.75-16.91.52-4.45,1.54-8.88,1.7-13.34.13-3.67,2.5-5.82,4.36-8.33a31.78,31.78,0,0,1,4.16-3.94l-.49-.78-5,3.51-.38-.34,2.24-5.3c1.39-.09,2.24-.5,2.57-2.54.51-3.26,3.93-4,6.37-5.46,1-.62,2.45-.57,3.65-1,3.05-1,6.07-2.11,9.11-3.15a2.23,2.23,0,0,1,1.65,0l-6.94,4.73.41.81c1.36-.76,3-1.23,4-2.31,3.83-4.13,9-4.92,14-6.21a19.11,19.11,0,0,0,4.55-1.68c6.36-3.53,13.24-6.74,17.36-12.91,4.57-6.85,12.06-10,17.55-15.56,2.59-2.63,5.49-5,8.07-7.6.79-.81,1-2.18,1.49-3.29l-.05.07c.72-.34,1.7-.5,2.12-1.06,1.42-1.88,3.1-3.76,3.78-5.92.62-2,3.65-2.94,2.32-5.62l-.06.06c2.23-.32,2.56-2.38,3.64-3.82,1.77-2.4,3.81-4.59,5.77-6.84,3.93-4.49,7.85-9,11.83-13.44a45.38,45.38,0,0,1,3.53-3.16L263,435.85l.34-.22-2-2.93,6.86,4.36a1.24,1.24,0,0,1,.54.6c1.32,5.37,6.13,8.12,9.22,12.16,1.94,2.54,4.65,4.48,7.33,7,.38-1.08.54-1.55.71-2Zm-6.38,31.53a22,22,0,0,0,1.2-2c.27-.56.24-1.31.61-1.77.85-1.05,1.87-2,2.82-2.95l-.57-.9a20.82,20.82,0,0,0-3.25,1.14c-1.32.7-2.7,2.51-3.7,2.29-1.7-.38-1.59.52-1.76,1.33a58.63,58.63,0,0,0-.93,17.63c.2,2.11.46,4.22.76,6.32.67,4.76,1.08,9.58,2.17,14.24.94,4,2.81,7.85,4.05,11.82,1.89,6.07,3.55,12.21,5.42,18.28.93,3,2.26,6,3.17,9,.69,2.33.93,4.79,1.47,7.17,2,8.6,4,17.18,5.9,25.8.78,3.56,1.19,7.19,1.69,10.8.46,3.36.49,6.82,1.29,10.09,1.64,6.78,3.72,13.45,5.49,20.19.58,2.18.76,4.46,1.22,7.31-1.1-1.5-1.75-2.37-2.26-3.06-.3,1.46-.6,3-.95,4.48-.64,2.78-1.36,3.16-4,1.86-2.49-1.21-4.9-2.58-6.8-3.59-1.37,1.71-2.62,4-4.51,5.47-2.81,2.14-4.66,1.15-5.47-2.3-.08-.37-.44-.67-.7-1.06-1.32,1.77-1.42,3.52-.39,4.7,1.52,1.75,4.86,2.85,6.12,1.56a6.51,6.51,0,0,1,5.94-2.24c.33,0,.69-.23,1-.25,1.42-.1,2.85-.19,4.27-.23,1.81-.06,3.69.24,5.41-.17,2.41-.58,4.63-2.13,7-2.43,2.85-.34,5-1.18,6-3.65-.62-1.22-1.18-2.29-2.09-4.09-.79,2.1-1.39,3.69-2,5.29-4.39,0-4.66-.29-5.13-4.69a28.54,28.54,0,0,0-.83-3.11c-1.35-5.91-2.72-11.81-4-17.74-1.35-6.25-.5-12.75-2.59-19-1.61-4.86-1.86-10.16-2.88-15.24A104.77,104.77,0,0,0,295,571c-2.14-6.6-4.81-13-6.92-19.63-1.91-6-3.1-12.26-5.1-18.24a128,128,0,0,1-5.55-23.36c-.14-1,.66-2.15,1.08-3.43.18.11,0-.14-.24-.14a11.2,11.2,0,0,0-1.52.16c-.81-7-.37-9.84,1.56-10.95V485.08l.86-.07c.14.46.28.91.43,1.38,0,1.77-.15,3.55-.09,5.32,0,.37.61.77,1,1.05.08.06.75-.42.72-.55C280.67,490.25,280.09,488.31,279.52,486.37Zm48.29,88.54c2.55,2.94,5.09,5.9,7.7,8.78.22.25,1,0,1.54-.06l1.15-2.11c-.68-1.51-1.3-3.06-2.06-4.53-.44-.85-1.34-1.5-1.64-2.37-1.77-5-3.3-10-5.17-15-.55-1.44-1.95-2.55-3.4-4.36-.73,5.37,3.17,8.42,3.95,13.13-.74-.88-1.08-1.27-1.4-1.67-5.79-7.24-6.05-16.8-10.34-24.7-1.19-2.19-1-5.09-1.85-7.52-1.34-3.81-.73-8.08-3.45-11.68-1.25-1.65-.8-4.58-1.13-6.93-.06-.42,0-1.13-.24-1.21-2.58-1-1-2.71-.8-4.25.27-2.36,2.48-4.64.48-7.15-3.54.15-3.83-.17-3-3.49.1-.42.6-.83.54-1.19-.22-1.36.19-3.35-2.4-2.78.47-2.6,2.72-5.32-.39-7.12.16-2.53.3-4.79.45-7.05l-.61-.14c-.44,1.25-.89,2.49-1.29,3.64-4.45-1.19-1.17-4.94-2.41-7.55-.68,1.16-1.19,2-1.69,2.9l-.52-.24,2.3-4.86-.77-.41c-1.05,1.85-2.06,3.72-3.15,5.54s-.67,3,1.51,3.82l-1.84.43c2.39.56,1.27,1.84.8,3.19a19,19,0,0,0-1.5,5.94,98.31,98.31,0,0,0,.8,14.16c.42,2.89,1.9,5.63,3,8.41.12.3.73.4.79.43v6.48l2.82-.6c1.62,1.2-1.59,5.33,2.85,4.56.26,1.57.42,3.08.76,4.54q1.17,5.09,2.5,10.13c.35,1.28.58,3,1.48,3.63,1.51,1,1.36,2.22,1.58,3.6.35,2.08.38,4.68,1.65,6a12.61,12.61,0,0,1,2.71,4.58,16.4,16.4,0,0,0,1.75,3.85c2.57,3.6,5.29,7.1,7.95,10.63Zm-95.92,22.88,6.27-1.16L218.73,580l-1.25,1.62c-.52-.89-.81-2-1.29-2.1-3-.51-5.52-3.07-8.7-2.22a14.35,14.35,0,0,0-2.3-1.23c-7.9-2.68-16.16-1.75-24.25-2-2.87-.1-5.86,2.16-8.72,3.5-.82.38-1.31,1.41-2.09,1.95-2.39,1.66-5.13,2.92-7.22,4.88-5.46,5.11-10.65,10.5-16,15.78-1.72,1.71-1.62,2.93.29,3.95L146,605.49l3.38,1.72-.25-1,8.51-5.45,5,5.94-6.66-.4-.07,1.19c2.49.33,5,.73,7.49.91a2.19,2.19,0,0,0,1.61-1.18,1.91,1.91,0,0,0-.58-1.73,6.83,6.83,0,0,1-3.17-6.89l19.69-7.69c2.14,6,6.68,9.69,11.15,10.55,3.06.58,5.47-1.1,7.51-2.7,1.31-1,1.64-3.41,2.23-5.24s.88-3.51,1.28-5.16c4,.55,7.8,1.13,11.59,1.56,5.9.66,8.61,4.39,7.4,10.19-.28,1.35.53,3.29,1.78,2.48,2.66-1.72,6.46-1.59,8.13-4.88ZM347,636.41c.26-1.82.95-3.33.57-4.49-2.27-7-4.91-13.8-7.19-20.75-2.65-8-8-13.34-15.78-16.3-4.87-1.85-10.15-2.88-14.68-5.33-3.89-2.11-7.59-5.18-8.59-10.13-.16.08-.38.12-.46.24a2.46,2.46,0,0,0-.41.94c-.57,4.68,1,8.83,3.18,12.83a11.22,11.22,0,0,1,1.4,3.39c1.07,6.33,2.47,12.57,5.41,18.33.71,1.37,1.28,3.29,3.76,2.45.52-.18,1.91.85,2.21,1.59,1.48,3.76,4.88,4.09,8.07,4.83,4,.91,7.1-1.17,10.75-3.29,1.11,5.72,2.22,11.14,3.18,16.59a7.68,7.68,0,0,1-.38,3.16c-.81,3-2.48,3.59-4.62,1.34-1.86-2-3.38-4.24-5-6.38a2.1,2.1,0,0,0-.11,2c3.13,4,6.11,8.19,9.6,11.87,1.9,2,3.66,3.88,4.66,6.47a33.12,33.12,0,0,0,2.34,4.74c.85,1.43,2.75,1.51,2.92.18a67.92,67.92,0,0,0,.55-9.13c0-3.33-1.07-6.85-.25-9.91C348.75,639.09,348.78,637.62,347,636.41ZM284.4,685c-.5-1-.65-1.94-1.11-2.15a2.37,2.37,0,0,0-2.12.13Q275.5,688.1,270,693.43c-3.19,3.1-6.32,6.25-9.37,9.49-1.07,1.13-2.26,2.63-.64,4.16q3.5,3.3,7.24,6.32a18.61,18.61,0,0,0,14.62,4c1.11-.14,2.31.31,3.37.06,3-.73,6.88,1.29,9-2.58a3.29,3.29,0,0,1,1.51-1,29.88,29.88,0,0,0,11.08-8.47c1-1.3,2.64-2.13,4.49-3.56.35-4.58-1.05-7.1-5-9a31,31,0,0,0-1.83-3.25,49.48,49.48,0,0,0-4.81-5.86c-1.4-1.34-3.26-3-5-3a7.56,7.56,0,0,0-5.67,2.46C287.59,685.29,286.25,685.69,284.4,685ZM173.4,545.2c.87,1.78,1.89,2.23,3.27.41a1.88,1.88,0,0,1,1.45-.57c4.3.33,8.54-.57,12.87-.5,6,.11,12.16-1.16,18.18-2.2,1.87-.32,3.29-.76,4.4,1.53,2.31-2.63,4.79-1.86,7.45-1.09a11,11,0,0,0,8.92-.88c.64-.37,1.79.14,3,.27.68-.48,2.28-1,2.64-2,1.28-3.45,2.12-7,3.18-10.79l-2.36,1.51-1.52-2L232.29,532l-1.87-3.94c-.33,1.78-.71,3.76-1.08,5.75l-.85-.1-.42-1.64a11.92,11.92,0,0,0-2.2-.56,7,7,0,0,0-2.05.24c0,3.44-3.51,2.46-4.91,4.07.46-1.64.93-3.28,1.39-4.92l-.83-.61-7.13,6.64c.43-1.66.79-3,1.17-4.48L205.56,536l.49-2.32-.59-.34-4.7,3.69,1.08-3.23-6.24,5.45-.42-.22,1.72-3.39-7,5.42-.52-.62,1.11-3.37-3.65,2.87-.62-2.37-3.17,2.89-.69-1.37L179,541.6c.15-1.59.23-2.55.34-3.67l-4.15,4-.74-.59a15.29,15.29,0,0,0,1.09-2.83,17.29,17.29,0,0,0-.11-3.41l-3.07,4.33-1.05-1.27c-.79,1.09-1.55,2.15-2.61,3.6l-.28-1.52c-4-1.59-3.05,3.95-6.5,4.08l1.58-2.26c-.54-.18-1.46-.65-1.57-.5-1.78,2.34-4.48,2.76-7,3.79a21.33,21.33,0,0,0-6.22,4.26c-1.56,1.46-2.6,3.47-3.87,5.24l.68.59c3.46-4.24,8.64-4.62,13.29-6.15,3.55-1.18,7.16-2.16,10.74-3.21.31-.09.81-.25.92-.12C172,547.6,172.5,545.86,173.4,545.2ZM295.62,657.61l-.93,0c.74,4.7-2.81,9.17-.63,14.13C294.6,666.87,295.11,662.24,295.62,657.61Zm-3.5-165.07.74-.32c-.77-1.76-1.53-3.52-2.3-5.29l-1.17.58Z"/><path class="cls-3" d="M581.52,511c-5.66,1.85-11.36,3.59-17,5.6a19.68,19.68,0,0,0-5.09,3.07c-2.38,1.82-4.59,3.86-6.91,5.76a12.53,12.53,0,0,1-2.29,1.06c-.81,1.31-2.49,3.18-3.16,5.37a9.09,9.09,0,0,1-2.53,3.61,2.66,2.66,0,0,0,.17,2.49c.31.48,1.44.42,2.72.72-2.14,4.36-4.85,8.85-2.89,14.47,5.6-3.12,10-7.81,13.65-12.71.85,1.91,1.28,4.06,2.56,5.38a6.76,6.76,0,0,0,4.76,1.72c6.35-.44,10.6-7.22,8.52-13.35,2.94-.65,6-.93,8.77-2s5.33-3.07,8.14-4.74c2.28,1.4,2.28,1.4,1.83,5.54a23.34,23.34,0,0,1-.77-2.53,12.28,12.28,0,0,1,0-1.92l-.76-.06c-.51,3.53-1,7-1.52,10.58-.45,3.31-.7,6.66-1.28,10-.8,4.54-1.82,9-2.75,13.55a142.34,142.34,0,0,1-7.47,24.68c-1.43,3.53-1.55,7.58-2.3,11.39-.36,1.82-.84,3.62-1.18,5.45q-.93,4.86-1.77,9.74c-1.57,9-.37,17.93.62,26.87.23,2.11.07,4.27.37,6.36.15,1,1.25,1.83,1.43,2.83a33.7,33.7,0,0,1,.66,6.49c-.06,9-.34,17.91-.35,26.87,0,4.49.51,9,.55,13.49,0,2.26-.61,4.51-.74,6.78a46.59,46.59,0,0,0,0,7,93.38,93.38,0,0,1-1.3,24.08c-.89,5.45-2.35,10.82-3.46,16.24-.82,4-1.58,8-2.2,12.05a59.53,59.53,0,0,1-7,19.29c-1.54,2.84-2.85,5.8-4.21,8.73-3,6.53-8,11.5-13.2,16.25-1.1,1-2,2.26-3,3.26-6.7,6.16-14,11.55-22.45,15a48.65,48.65,0,0,1-18.87,3.18,37.17,37.17,0,0,1-20.29-6.24c-4.31-2.8-7.75-6.94-11.55-10.51a62.78,62.78,0,0,1-5.57-5.49,89.73,89.73,0,0,1-8.17-10.82,127.51,127.51,0,0,1-7.47-14.81c-4.08-9.4-8.28-18.78-11.64-28.44-2.22-6.42-3.2-13.29-4.48-20-.93-4.91-1.66-9.87-2.1-14.84-.54-5.91-.71-11.85-1-17.78-.21-4.9-.44-9.81-.42-14.71s.33-9.69.5-14.53c0-1.57,0-3.15,0-4.72-.06-3.73,1.31-4.62,5.13-4.1a10,10,0,0,0,5.06-1.17c9-4.08,18.19-7.88,26.85-12.62,6.08-3.32,10.77-8.64,14.56-14.57,1.9-3,3.85-5.92,5.66-8.95s3.56-6.11,5.23-9.23q4.62-8.64,9.11-17.35c2.84-5.51,5.35-11.2,8.47-16.53s6.92-10.6,10.49-15.84c1-1.4,2.19-2.63,3.26-4,3.85-4.76,7.5-9.62,10-15.3.72-1.64,2.92-2.56,4-4.1,2.53-3.56,4.81-7.3,7.18-11,.3-.46.53-1,.86-1.38,3-3.78,6.12-7.52,9.13-11.32,2.16-2.73,4.14-5.61,6.36-8.28,2.45-3,5.2-5.66,7.6-8.66,1.79-2.23,3.23-4.75,5.21-7.73,2.76,4.12,5.33,7.92,7.87,11.74a21.37,21.37,0,0,1,2.09,3.65c.22.56-.26,1.39-.43,2.1ZM468.58,653.93,466.87,656l-1.54,1.25.37.91a17.11,17.11,0,0,1,4.1-.77c.83,0,2.28-1.67,2.67.57-.48.19-1.34.33-1.38.59-.32,2.15-2,1.77-3.43,2.12-4.57,1.1-9.38,1.41-13.45,4.27-3.74,2.64-7.54,5.11-10.23,9-2.14,3.1-4.68,5.91-7,8.85l-.69-.37,1.58,3,8.28-1.19,0-.64-2.78-.25,7.71-7.9c.65,1.16,1.22,3.23,3.86,2.7,2-.39,4.13-.1,6-.75,3-1.06,3.6-3.89,2.34-9l10.32-1.2-4.46,6a1.5,1.5,0,0,0,1.48-.3c3-2.65,5.72-5.54,8.91-7.87,1.95-1.42,2-2.38.79-3.73l-4.69,1.11-1.22-3.51c2.27-.94,3.38-2.93,2.49-4.73,5.28-2.65,5.67-8.28,7.45-13l-1.08-.16c1.29-3.47,2.52-6.75,3.74-10l-3.65,1c.28-.94.44-1.36.54-1.8a7.84,7.84,0,0,0,.11-.88c-12.41,17.86-27.58,32.07-50,36.6,3,1.17,5.81,1.71,8.63.14,1.25-.7,3,.79,4.08-1.16a7.6,7.6,0,0,1,3.08-2.39c3.48-1.87,7.06-3.57,10.55-5.44,2.83-1.51,5.59-3.15,8.74-4.94C468.81,653.07,468.69,653.5,468.58,653.93Zm73.15,42.86-1.07-.41c-.22,3.28-2.25,2.89-4.14,2.52a75.38,75.38,0,0,1-8.17-1.83c-3.75-1.16-7.8-2-11-4.12-2.91-1.91-4.62-1.41-7,.28-3.35,2.33-3.89,2.06-7.09-.69-.89-.77-2.65-1.58-3.48-1.2-4,1.81-7.71,4.06-11.57,6.08-4.81,2.51-8.56,7.3-14.83,6.77-.46,0-1.07,1.72-1.61,2.64.66.18,1.37.63,2,.5,3.79-.78,7.62-1.48,11.3-2.62,2.51-.78,4.71-2.65,7.24-3.27,3.27-.81,6.73-.87,10.11-1.25l.52.65a11.78,11.78,0,0,1-1.71,1.47,22.11,22.11,0,0,1-2.64,1.14l.27.85a17.69,17.69,0,0,1,2.94-.49,7,7,0,0,1,2.08.57,12.46,12.46,0,0,1-1.53,1.55c-.31.22-.9,0-1.27.2a15.61,15.61,0,0,0-1.73,1.19c1,1.19.47,3.54,2.83,3.61,3.95.14,7.9.27,11.85.35a3.05,3.05,0,0,0,1.25-.45c3.94-1.93,7.78-4.08,11.83-5.75,3.56-1.47,7-3.68,11.27-2.85,1.09.21,2.84-.93,3.62-2C542.46,699.56,541.84,698,541.73,696.79ZM540.34,543.6l-.94-.52a370.48,370.48,0,0,0-40,70.54c-3.69-2.65-3.69-2.65-1.56-6.3a24.68,24.68,0,0,0,1.3-2.36c.65-1.45,1.21-2.94,1.8-4.42l-1.11-.5c-1.72,3.41-3.46,6.81-5.1,10.26a1.75,1.75,0,0,0,.4,1.49c1.24,1.35,2.9,2.42,3.82,4,1.92,3.18,5.7,2.86,8.24,4.86,1.41,1.09,3.64,1.2,4.89,2.39,2,2,3.79.45,5.35-.18.68-.27.6-2.4.8-3.38-1.26,1-2.24,2.14-3.49,2.58-2.74,1-3.28-1.71-4.05-3.25-1-2-2.31-2.59-4.33-2.17a24.68,24.68,0,0,1-2.68.48,2.16,2.16,0,0,1-2.37-3c1.73-4,3.52-8,5.41-11.91,3-6.27,6-12.58,9.32-18.72,3.51-6.52,7.28-12.91,11.12-19.24,2.48-4.09,5.34-8,7.94-12C536.93,549.41,538.6,546.48,540.34,543.6ZM480.12,752.35a19.58,19.58,0,0,0,.32-2.51c0-4.09.1-8.15,2.67-11.69.81-1.12,1.45-2,2.69-.24-.57-2.56,1.3-3.17,2.85-4s3-1.36,4.39-2.12c2.13-1.11,4.12-2.58,6.35-3.37a42.3,42.3,0,0,1,6.84-1.27l-1.47-2.07c-6,1.53-11.77,3.24-16.57,7.2-2.13,1.76-4.55,3.28-6.28,5.38C478.34,742,479.77,747.31,480.12,752.35Zm33.54-22.83a3.34,3.34,0,0,0-5.12-1.59Z"/><path class="cls-3" d="M427.92,657.48c0-3-.15-5.4,0-7.84.55-7.34,1.07-14.68,1.89-22,.72-6.54,1.85-13,2.75-19.55.47-3.42.56-6.9,1.31-10.25,1-4.45,2.4-8.82,3.73-13.18,1.21-3.95,2.55-7.85,3.84-11.77,1.38-4.17,2.84-8.31,4.12-12.51,1.9-6.21,3.5-12.5,5.56-18.65a125.92,125.92,0,0,1,5.1-12.27c1.88-4.1,3.91-8.13,6-12.1a58.36,58.36,0,0,1,4.06-6.27c4-5.59,7.8-11.32,12.15-16.61,2.27-2.77,5.67-4.58,8.31-7.09,5.62-5.37,12.37-8.83,19.55-11.4,4-1.45,8.44-1.94,12.56-3.24,7.91-2.5,16.23-1.42,24.17-2.87s9.91-.18,12.66,1c1.23-.49,2.12-1.22,2.78-1.06,4.3,1.07,8.61,2.17,12.79,3.61,2.56.88,4.89,2.4,7.7,3.82-1.71,2.51-3.21,4.73-4.73,7-2.41,3.53-4.74,7.11-7.27,10.55-2,2.72-4.24,5.25-6.34,7.89-4.32,5.43-8.77,10.78-12.89,16.36-4.36,5.91-8.35,12.09-12.62,18.07-1.54,2.17-3.54,4-5.1,6.15-1.77,2.43-3.16,5.13-4.94,7.56-3.14,4.26-6.62,8.28-9.62,12.63-2.89,4.19-5.42,8.64-8,13-3.69,6.31-7.34,12.64-10.87,19-2.34,4.24-4.36,8.67-6.69,12.92-5.27,9.61-9.6,19.82-17.14,28a61,61,0,0,1-14.34,11.44c-5,2.93-10,5.83-15.55,7.28C438.17,656.4,433.17,656.71,427.92,657.48Z"/><path class="cls-3" d="M331,435.83c0,3.51,2.85,4.18,4.95,5.7,2.69,2,5.18,4.17,7.89,6.38l.9-1.07c.12.28.36.59.29.72-1,1.68-.08,2.94.86,4.2a27.53,27.53,0,0,1,5.8,13.81c.2,1.89,2.26,3.5,2.88,5.43,1.25,3.88,2.19,7.86,3.07,11.85a84.66,84.66,0,0,1,1.54,9.21c.28,2.61.05,5.27.26,7.89.27,3.4,1,6.78,1.07,10.17.08,5.27-.27,10.54-.42,15.81-.06,2.3.06,4.62-.16,6.91-.72,7.38-1.56,14.75-2.35,22.12q-1.11,10.34-2.23,20.68a9.55,9.55,0,0,1-.56,1.63c-2.06-3.61-4-6.93-5.86-10.33a120.83,120.83,0,0,1-5.61-11.21c-1.54-3.78-2.51-7.8-3.72-11.72-.59-1.9-1.08-3.83-1.74-5.71-1.26-3.59-2.93-7.06-3.84-10.73-1.22-5-2-10-2.75-15.05-.94-6-2-12.08-2.47-18.17s-.2-12.44-.29-18.66c-.08-5.29-.23-10.58-.31-15.87a24.51,24.51,0,0,1,.43-3.12l2,2.83.67-.27c-.35-.84-.66-1.71-1.07-2.53-.68-1.37-2.06-2.72-2-4.05.14-5.16.71-10.32,1.18-15.47.05-.49.59-.93.9-1.4Z"/><path class="cls-3" d="M531.82,135.82c-.17-1.68-.33-3.35-.5-5,0-1.55-.05-3.11,0-4.66.14-4.57.34-9.14.48-13.71a19.64,19.64,0,0,1,.57-5.39c1.39,4.39,2.59,8.84,4.21,13.13,1.37,3.62,3.35,7,4.81,10.58a75.38,75.38,0,0,1,3.12,9.35A61.89,61.89,0,0,0,550,153.44c2.7,5.15,7.3,8.26,11.12,12.17s8.32,7.26,12.57,10.78c.61.5,1.55.6,2.25,1.5-1.65-.38-3.58-.33-4.86-1.23a7.39,7.39,0,0,0-6.21-1.41,10,10,0,0,1-3.17-.32l-1.7-.44c-.41-.44-.73-1.08-1.24-1.28a22.68,22.68,0,0,1-10.92-9.32c-.79-1.25-2.34-2-3.54-3l0,.07c-.64-5.63-3.16-10.41-6.58-14.8l0,0a7,7,0,0,0-.44-1.75c-1.27-2.36-2.57-4.7-3.95-7A9.31,9.31,0,0,0,531.82,135.82Z"/><path class="cls-3" d="M581.46,511c3-.19,4.08,2.08,5.61,4,3.45,4.29,4,5.13,4.62,9-3.58,3.16-3.73,3.18-4.49.79-5.11,1.63-10,3.71-15.66,3.56-3.57-.1-7.18.94-10.77,1.49-.94.14-1.87.35-2.8.52l-.29-.61,6.43-4.88-.16-.35-5.79,2.83-.39-.44,2-1.71-1.55-.18c3.07-2.69,5.87-5.15,8.68-7.6l.18,1c.58.22,1.34.8,1.71.62q5.9-3,11.65-6.32c.52-.29.73-1.13,1.08-1.72Z"/><path class="cls-3" d="M586.81,178.63c2.59.88,5.24,1.63,7.77,2.66,3.66,1.49,7.29,3.08,10.83,4.84,1.81.89,3.28,2.48,5.1,3.33a61.9,61.9,0,0,0,9.6,3.73c3.57,1,6.69,3.67,6.74,6.78-13.89-6.14-28.42-10.81-40.33-20.6Z"/><path class="cls-3" d="M213.3,462.5c-.91,1-1.75,2.08-2.75,3-4.62,4.22-9.29,8.4-14.17,12.34.63-4.16,24-31.31,27.64-32.78l-2.61,5,.06-.06c-.33.09-.84.07-1,.28-2.45,4.09-4.85,8.21-7.26,12.32Z"/><path class="cls-3" d="M188.21,484c-7,10.34-16.82,15.54-27.6,19.31l-.62-.83,7.88-6.52a11.59,11.59,0,0,0,2.2-1.82c2.4-3.39,6.31-4.21,9.72-5.89C182.42,486.91,185,485.57,188.21,484Z"/><path class="cls-3" d="M619.49,170.75c-4.8-5.81-9.56-10.81-13.38-16.44s-6.62-11.83-9.79-17.64C600.51,138.05,618.37,163.67,619.49,170.75Z"/><path class="cls-3" d="M447.4,92.19c-3.76,3.23-7.64,6.34-11.25,9.74-2.94,2.75-5.55,5.84-8.3,8.78-.94,1-2.25,1.82-2.79,3-2.36,5.09-6.2,9.12-9.63,13.54.27-.62.54-1.25.8-1.88,1.81-4.23,3.23-8.69,5.52-12.64a19.85,19.85,0,0,1,8-8.19c2.9-1.48,5.11-4.31,7.61-6.56a18.61,18.61,0,0,1,1.72-1.72c2.44-1.7,4.94-3.33,7.42-5Z"/><path class="cls-3" d="M566.46,150.13c1.33,1.3,2.65,2.62,4,3.89,3.22,3,6.49,6,9.65,9a39.36,39.36,0,0,1,3.09,3.83l1-1.16c0,2.53,3,5.87,6.53,7.23l-.06-.06,2.65,3.93c-1.88-1.05-3.64-2.07-5.41-3-1.93-1-4.08-1.78-5.78-3.1-3.11-2.42-6.37-4.85-8.83-7.87-2.79-3.45-4.78-7.55-7.09-11.38a3,3,0,0,1-.19-1A1.62,1.62,0,0,1,566.46,150.13Z"/><path class="cls-3" d="M290.78,438.29c11.68,3.7,20.11,11,25.48,22.37Z"/><path class="cls-3" d="M409,165.87c5-10.88,16-24.44,22.93-29.52-3.55,5.07-6.9,10.28-10.69,15.15S413.08,161.09,409,165.87Z"/><path class="cls-3" d="M580.89,137c5,8.53,13.28,14.53,17.46,23.73C592.48,160.31,580.89,143.52,580.89,137Z"/><path class="cls-3" d="M564,536.64c-.1,2.25-.09,4.61,2.57,5.25,1,.23,3-.26,3-.71a30.68,30.68,0,0,0,.15-5.81c-.22,0,.39,0,.92-.21,1.76-.77,2.38.24,2.52,1.67.29,3,0,5.73-3.42,7-1.52.56-2.89,1.81-4.43,2a5.1,5.1,0,0,1-5.6-3.58C559.33,540.07,561,537.82,564,536.64Z"/><path class="cls-3" d="M168.4,493.63c-7.65,7.72-16.67,12.81-28.44,14.23l28-15Z"/><path class="cls-3" d="M553,146.67l3.69,4.21a3.19,3.19,0,0,1,.61.87c1.28,3.57,2.54,7.15,3.65,10.27-3.57-.83-12.54-13.94-13.62-20.76l5.72,5.47Z"/><path class="cls-3" d="M202.74,443.63l-8,8.39-.95-.89c-.1.13-.32.31-.28.39.55,1.32.17,2.24-.86,3.25-3.59,3.53-7.07,7.18-10.59,10.78l-.88-.81,5.77-6.66a2.28,2.28,0,0,0,.49-.64C190.15,450.4,196.32,447,202.74,443.63Z"/><path class="cls-3" d="M607.59,175.2c2.09,1.58,4.21,3.15,6.27,4.77a9.3,9.3,0,0,1,1.25,2l-4-1.32-.42.64c4.58,3.35,10.15,5.51,13.7,10.12l-.58.81L607.1,180.71l.36-.65,3.54,1.23c-2.53-3.77-7.09-3.36-9.52-6.48l5,.27Z"/><path class="cls-3" d="M576.93,498.27c5.1.55,15.33,14.2,14.37,19.74Z"/><path class="cls-3" d="M578.63,605.24c-.49,9.06-1,18.11-1.48,27.6C574.28,627.13,575,609.91,578.63,605.24Z"/><path class="cls-3" d="M467.69,138.42c-2.47,9.53-7.58,17.73-13.12,25.72C456.58,154.39,463.24,147,467.69,138.42Z"/><path class="cls-3" d="M437.73,119.22c1.43,2.75.29,4.75-1.16,6.45-2.09,2.43-4.45,4.64-6.68,7a8.14,8.14,0,0,1-2.58,2C429.9,129.1,432.38,123.53,437.73,119.22Z"/><path class="cls-3" d="M573.22,115.49c6.11,5.21,9.76,12,12.35,19.38C580.79,128.83,575.62,123.05,573.22,115.49Z"/><path class="cls-3" d="M303.75,462.16c-.32.11-.69.4-1,.32-7.44-2.09-13.62-3.68-17.13-11.27l10,4.76c.45.73.73,1.71,1.38,2.15C299.22,459.57,301.51,460.83,303.75,462.16Z"/><path class="cls-3" d="M178.73,486.63l17.6-14.42c-.42,2.41-2.75,7.51-6.7,9.28-3.66,1.63-7.18,3.55-10.76,5.34Z"/><path class="cls-3" d="M539.25,121.69q-2.18-7-4.34-14h2.32c-2.25-3-3.91-5.9-2.4-10.25,1.72,4.64,4,8.43,2.91,13.12-.23,1,.9,2.2,1.13,3.36.48,2.55.78,5.14,1.16,7.71Z"/><path class="cls-3" d="M128.16,483.3l1.48-.39c.26,4.48-4.51,17.37-7.21,19.41l-.73-.27c1.89-5.07,3.8-10.13,5.64-15.21a33.16,33.16,0,0,0,.88-3.6Z"/><path class="cls-3" d="M176.48,464.14c-1,3.34-2.43,6.5-5.72,8.63-3.06,2-5.86,4.35-8.77,6.55l-.61-.61Z"/><path class="cls-3" d="M444.7,89.32l-19.17,16.32-.39-.29C427,103.22,428.8,101,430.8,99a59.63,59.63,0,0,1,6.29-5.6c2.29-1.72,4.82-3.12,7.24-4.66Z"/><path class="cls-3" d="M483.42,121.65,470.7,145.22l-.81-.44c1.89-4,3.73-8,5.68-11.93,1.5-3,3-6,4.76-8.94a15.11,15.11,0,0,1,2.81-2.78Z"/><path class="cls-3" d="M298.74,455.62l-4.91-4.25c7.67,3,12.52,9.42,18.29,14.73l-.47.65a31.27,31.27,0,0,1-3.85-2.37,38.35,38.35,0,0,1-3.32-3.53l-5.11-4.51Z"/><path class="cls-3" d="M128.22,483.24c-3.21,3.14-4,7.48-5.55,11.42-.16.4-.3.8-.58,1.54,0-3.66,1.76-9.29,5.29-15.44,2.63-4.59,5.66-8.95,8.67-13.68.63,2.89-1.67,4.3-2.6,6.22-1.65,3.39-3.52,6.67-5.29,10Z"/><path class="cls-3" d="M439.2,153.91c3.55-7,7.9-13.4,14.41-18.25q-6.87,9.34-13.76,18.68Z"/><path class="cls-3" d="M548.4,125.48c-3.76-5.79-4.54-12.58-6.32-19.23C544.54,107.51,548.43,120.07,548.4,125.48Z"/><path class="cls-3" d="M581.53,110.76l13.27,16.87c-2.18.27-3.75-1.16-7.93-7.09-2.09-3-4-6-6-9.06Z"/><path class="cls-3" d="M578.8,177.22c-2.58-1.79-5.07-2.77-6.39-4.6-2.72-3.78-8.55-4.09-10.12-9,.19-.22.38-.44.58-.65l4.59,3.62c.69.55,1.38,1.1,2.06,1.66,3,2.42,5.94,4.83,8.89,7.27C578.56,175.69,578.53,176,578.8,177.22Z"/><path class="cls-3" d="M556.86,111.13c5.36,5.74,7.4,12.36,9.29,19C562.89,124.12,558.49,118.62,556.86,111.13Z"/><path class="cls-3" d="M486.82,110.85c-2.25,2.75-4.51,5.48-6.73,8.25a19.05,19.05,0,0,1-3,3.36c2.12-6.69,7-11.44,11.7-16.53.19.94.31,1.56.43,2.18l-.5.93,0,0Z"/><path class="cls-3" d="M316.81,453.18q-5.81-7.4-11.6-14.74C309.7,439.25,315.07,446.52,316.81,453.18Z"/><path class="cls-3" d="M427.55,166c2.13-5.18,4.13-10.49,9.63-14.33A35,35,0,0,1,427.55,166Z"/><path class="cls-3" d="M593.5,172.93,593,171l.39-.5c2.2,1.69,4.47,3.3,6.59,5.09a60.18,60.18,0,0,1,5.87,5.77c-3.22-1.32-6.77-2-9.13-5.09Z"/><path class="cls-3" d="M452.15,101,470,88.14c-1.62,3.62-10.69,10.14-17.31,13.53Z"/><path class="cls-3" d="M169,447.71,183.09,440c-4,3.78-7.37,8.71-13.56,8.92Z"/><path class="cls-3" d="M611.14,123.41c-1.59-2.27-3.65-4.59-5-7.28s-5.26-3.84-4.36-7.7C605.12,109.61,611.49,120.09,611.14,123.41Z"/><path class="cls-3" d="M286,454.79c-3.66-.23-4.63-3.85-7-5.68a21.89,21.89,0,0,1-4.16-4.93c4.28,1.61,8.41,3.33,9.73,8.38a9,9,0,0,0,1.39,2.29Z"/><path class="cls-3" d="M585.31,595.11l-4,22.7c-1.31-8,1.52-15.24,3.28-22.7Z"/><path class="cls-3" d="M609.48,124.29c5.5,6.34,7.81,14.26,9.87,22.29Z"/><path class="cls-3" d="M402,161.25c.24-1,.42-2,.73-3,.57-1.88,1.54-3.69,1.77-5.59.45-3.69,2.59-6.32,5.14-8.85L403,161.57Z"/><path class="cls-3" d="M459.38,143.09q5.64-10.23,11.27-20.46l1.07.58-11.44,20.44Z"/><path class="cls-3" d="M174.3,450.23c-3.48,5.51-12.38,14.34-14.52,13.78,4.72-4.74,9.24-9.29,13.78-13.82C173.67,450.08,174,450.21,174.3,450.23Z"/><path class="cls-3" d="M581.81,594.77c1.53-6.91,3.06-13.88,4.63-21C587.49,577.18,584.86,590.67,581.81,594.77Z"/><path class="cls-3" d="M590.72,135.34c3.9,4.43,8.06,8.66,10.64,14.06l-.72.54-10.77-13.82Z"/><path class="cls-3" d="M443.22,138.84a26.81,26.81,0,0,1-9.43,13l8.62-13.55Z"/><path class="cls-3" d="M461.71,101.32c1.94-4.52,6.82-5.67,10.2-8.54l.74.85-10,8.72Z"/><path class="cls-3" d="M546.39,108c-2.29-6.38-4.57-12.76-6.94-19.37C541.45,90.18,546.88,104.29,546.39,108Z"/><path class="cls-3" d="M578.8,141.44,572,124.82c4.93,4.27,5.25,10.69,7.78,16.08Z"/><path class="cls-3" d="M151.46,449.2l15.14-8.85.57,1-15.12,9.06Z"/><path class="cls-3" d="M433.9,201.54c-.77-3.08,4.47-9.52,9.11-11.3C439.8,194.23,436.94,197.78,433.9,201.54Z"/><path class="cls-3" d="M488.72,109l.5-.93a8.13,8.13,0,0,0,2.34-1.38c2.07-2.5,4-5.12,5.95-7.7l1,.78c-2.7,3.69-5.41,7.37-8.29,11.29C489.56,110.19,489.14,109.62,488.72,109Z"/><path class="cls-3" d="M443.08,130.68c3.23-4.09,4.42-9.7,9.16-12.68C449.39,122.38,447.58,127.53,443.08,130.68Z"/><path class="cls-3" d="M576.93,488.41c4.16.72,5.49,4,6.67,7.6C580.73,495.69,577.66,492.07,576.93,488.41Z"/><path class="cls-3" d="M592.73,135c-3.12-3.06-6.33-6.05-7.47-10.47l.64-.45,7.66,10.35Z"/><path class="cls-3" d="M321.18,457.22c-1.68-3.3-3.38-6.59-5-9.92a6.33,6.33,0,0,1-.29-1.88c.57.24,1.34.32,1.66.74A19.88,19.88,0,0,1,321.18,457.22Z"/><path class="cls-3" d="M459.52,118.38c-3.69,8.43-3.69,8.43-7.78,10.15Q455.64,123.46,459.52,118.38Z"/><path class="cls-3" d="M553.08,146.73q-2.19-3.57-4.39-7.13c-.63-1-1.3-2-2-3l.7-.61,3.87,4.51-.23.07,5.58,8.53-.23.18-3.4-2.61Z"/><path class="cls-3" d="M453.6,104.87l-9.08,8.27-.65-.71c1.18-4.78,6.53-5,9-8.38Z"/><path class="cls-3" d="M445.77,115.92l-6,7.57C439.32,119.19,442.72,114.75,445.77,115.92Z"/><path class="cls-3" d="M478.91,108.21l-8.12,8.64C469.77,114.71,474.85,108.64,478.91,108.21Z"/><path class="cls-3" d="M607.59,175.2l-1.06-.12c-1.34-.63-2.69-1.24-4-1.9-3.27-1.65-6.52-3.33-9.78-5l.47-1c3.43,1.72,6.89,3.39,10.27,5.2A46.31,46.31,0,0,1,607.59,175.2Z"/><path class="cls-3" d="M589.62,157.66c-5.35-2.55-6.85-7.55-9.35-11.82l.57-.42Z"/><path class="cls-3" d="M564.62,130.33l6.51,12.8-.77.39c-2.3-4.24-5.26-8.15-6.78-12.76Z"/><path class="cls-3" d="M590.67,572.87c.59-4.76-1-10.07,3.22-14.08Q592.27,565.84,590.67,572.87Z"/><path class="cls-3" d="M564.43,155a32,32,0,0,1,4.24,4c1.63,2.18,2.88,4.65,4.37,7.13-2.62-.91-7-6.67-8.55-11.14Z"/><path class="cls-3" d="M160.75,458.36,151,468.89C153.13,464.44,155.9,460.52,160.75,458.36Z"/><path class="cls-3" d="M451.55,175.22c.39-3.79,1-4.75,5.49-9C457,170.68,453.35,172.38,451.55,175.22Z"/><path class="cls-3" d="M593.5,172.93l3.18,3.38-3.62-2.07c-.79-.45-1.58-.9-2.36-1.36l.06.06c-.65-.82-1.27-1.66-2-2.45-1.35-1.58-2.73-3.14-4.1-4.71,2.35,2,4.7,4,7.07,6A16.85,16.85,0,0,0,593.5,172.93Z"/><path class="cls-3" d="M594.91,493.07c-4.73-2.07-6.7-6.61-9.47-10.48l.52-.45Q590.43,487.6,594.91,493.07Z"/><path class="cls-3" d="M580.78,587.28c-.53,3.82-1,7.65-1.62,11.46a7.23,7.23,0,0,1-1,2l-.63-.33c.3-2.25.48-4.51.94-6.73s1.19-4.44,1.81-6.65Z"/><path class="cls-3" d="M291.16,446.57c4.59-1,6.81,2,8.91,5.15Z"/><path class="cls-3" d="M475.7,102.43l-7,9.41-.84-.4a25.11,25.11,0,0,1,1.68-3.64,26.22,26.22,0,0,1,2.7-3l2.73-3Z"/><path class="cls-3" d="M314.21,431.09l7.19,2.51.05-.49,2.35,3.1-.24.62-9.68-4.62Z"/><path class="cls-3" d="M411.07,192q3.38-4.42,6.76-8.83l.93.69-6.49,9Z"/><path class="cls-3" d="M161.06,453.53c-1.25-2.47,0-3.88,2.09-4.9l5.87-2.86-8,7.72Z"/><path d="M438,524.2q-2.92,5.43-5.87,10.85l-.82-.4c1.22-2.65,2.37-5.33,3.71-7.92a19.66,19.66,0,0,1,2.27-2.93Z"/><path class="cls-3" d="M186.47,442.78,178,450.12l-.78-.91,8.44-7.44Z"/><path class="cls-3" d="M412.76,178.71l6.45-10.1.82.54c-1,4.09-3.86,7-6.71,9.93Z"/><path class="cls-3" d="M455,118.54c1.5-4.14,4.52-6.87,7.6-9.53l.81.76Q459.23,114.17,455,118.54Z"/><path class="cls-3" d="M452.85,130.85l-5.76,7.83-1-.17c.06-.9-.25-2.18.24-2.65,1.93-1.89,4.1-3.54,6.19-5.28Z"/><path d="M299.37,456.34l5.11,4.51-.73,1.31c-2.24-1.33-4.53-2.59-6.7-4-.65-.44-.93-1.42-1.38-2.15l-.05,0,3.75,1.63Z"/><path class="cls-3" d="M508.44,62.76c-4.44,1.44-9,1.45-13.52,1.47l-.07-1.29,13.63-.13Z"/><path class="cls-3" d="M556.61,130.84l4.87,9.53A9.05,9.05,0,0,1,556.61,130.84Z"/><path class="cls-3" d="M544.05,69.47,535.2,65.6c3.42-.07,6.82-.09,9.25,2.87Z"/><path class="cls-3" d="M117.38,526.54c.16-1.64.32-3.28.47-4.92s.39-3.52.45-5.29a7,7,0,0,0-.51-2l1.71-1.09c-.24,4.26-.42,8.27-.72,12.27C118.74,526.09,119.26,528.21,117.38,526.54Z"/><path class="cls-3" d="M209.69,423.62l13.16-3.74.19.62-13,4.24Z"/><path class="cls-3" d="M532,99.34q-1.08-5.94-2.14-11.86l1.06-.21q1.14,5.92,2.27,11.84Z"/><path class="cls-3" d="M486.82,110.85l1.86-1.77c-.56,1.84-1.19,3.66-1.66,5.52a5.16,5.16,0,0,1-3.52,4.07Z"/><path class="cls-3" d="M280.66,437.44l10.45,6.22-.6,1-10.45-6.23Z"/><path class="cls-3" d="M302.12,454.3c4.49,1,6.2,5.06,9.26,7.65l-.55.6Z"/><path class="cls-3" d="M448.24,166.4l5.34-10.4,1,.57-5.72,9.79Z"/><path class="cls-3" d="M581.11,160.83c-3.5-1.43-5.62-4.52-7.7-7.67l8.22,6.86C581.45,160.29,581.28,160.56,581.11,160.83Z"/><path class="cls-3" d="M598.91,544.68v14.87h-.62v-14.8Z"/><path class="cls-3" d="M577.05,144.08l-5.61-9.9,1.08-.57,5.28,10.12Z"/><path class="cls-3" d="M528.05,71.76c3.33.57,3.39,3.55,5.07,4.87.24.19-.36,1.44-.73,2.76C530.84,76.66,529.6,74.5,528.05,71.76Z"/><path class="cls-3" d="M551.16,112.38,547,101.48l.91-.36,4.43,10.93Z"/><path class="cls-3" d="M263.67,419.12c-2.94,1.34-3.51,1.27-9.88-1.39l9.86.59Z"/><path class="cls-3" d="M596.25,573.72l-2.4,12.45L593,586q1.17-6.22,2.33-12.46Z"/><path class="cls-3" d="M474,87l5.25-1.79.33.7-8.87,5,2.84-3.95.22.07Z"/><path class="cls-3" d="M549.54,136.4l-2.6-8.55c3.39,1.91,2.49,5.44,3.51,8.24Z"/><path class="cls-3" d="M488,100.2l8.59-6.87C495.73,96.16,493.14,98.32,488,100.2Z"/><path class="cls-3" d="M299.37,456.34v1.31L295.62,456l-5.3-4.46.19-.45a7.26,7.26,0,0,1,1.68.66c1.72,1.21,3.36,2.54,5.1,3.74.34.24,1,.08,1.45.11Z"/><path class="cls-3" d="M214.3,450.63,207,457.3l-.36-.35,7-7Z"/><path class="cls-3" d="M142.66,467.58l-5,9.05-.76-.39,4.76-9.13Z"/><path class="cls-3" d="M581.4,487.18l-2.54-1.83,2.62-4.76C584.23,483,580.78,484.53,581.4,487.18Z"/><path class="cls-3" d="M613,173.42l-8.15-6.09C607.82,167.57,612.37,171,613,173.42Z"/><path class="cls-3" d="M601.26,153.72l5.61,6.24-.77.65C604.44,158.69,601.68,157.64,601.26,153.72Z"/><path class="cls-3" d="M186,430.88l7.25-2.43C191.81,431.67,191.75,431.69,186,430.88Z"/><path class="cls-3" d="M551.85,129.3l-3.07-11.52.56-.16,3.35,11.45Z"/><path class="cls-3" d="M443.35,126.48l-5.2,7.6C438.24,131,438.69,130.2,443.35,126.48Z"/><path class="cls-3" d="M459.92,84.85c-1.5,2.11-4.23,2.53-6.05,4.2l-.66-.91,5.94-4.35Z"/><path class="cls-3" d="M193.65,439.84l-6,3.58C188.89,441,190.3,438.79,193.65,439.84Z"/><path class="cls-3" d="M161,453.49a19,19,0,0,1-3.11,1.91,4.28,4.28,0,0,1-3.23-.27l4.63-3.17,1.72,1.57Z"/><path class="cls-3" d="M187.65,463.13,194,458C193.61,460.35,193.61,460.35,187.65,463.13Z"/><path class="cls-3" d="M564.49,154.94l-4.6-6.77.67-.56a6.13,6.13,0,0,1,1.29,1,26.14,26.14,0,0,1,2.74,3.93c.32.63-.08,1.63-.16,2.46Z"/><path class="cls-3" d="M530.26,65.05l4-.38-1.59,1.43,2.17,3.15-.53.36L530,65.92Z"/><path d="M584.71,165.78c1.37,1.57,2.75,3.13,4.1,4.71.68.79,1.3,1.63,2,2.45-3.55-1.36-6.57-4.7-6.53-7.23A.41.41,0,0,1,584.71,165.78Z"/><path class="cls-3" d="M448.24,166.4l.66,0-4.48,8.58-1-.56Z"/><path class="cls-3" d="M615.33,126.51l3.15,7.34-1,.44c-1-2.47-2.09-4.93-3.14-7.4Z"/><path class="cls-3" d="M393.59,244.38l-1.95-.53,6.15-5.18.39.34Z"/><path class="cls-3" d="M526.26,72.09c-1.24-2.39.87-3.21,2-4.49l.77.33c-.61,1.51-1.21,3-1.82,4.54Z"/><path class="cls-3" d="M175.59,437.45l-7.25,3.27-.38-.79,7.11-3.35Z"/><path class="cls-3" d="M581.59,91l6.33,5.55-.48.61-6.58-5.32Z"/><path class="cls-3" d="M450.65,174.76l-3.77,5.93-1-.63,4-5.86Z"/><path class="cls-3" d="M276.93,433.62l6.92,3.22c-.12.27-.24.54-.35.81l-7-3.06Z"/><path class="cls-3" d="M184.67,436.16l-6.74,3.58-.46-.85,6.69-3.55Z"/><path class="cls-3" d="M146,456.74l5.49-4.63.69.82-5.57,4.54Z"/><path class="cls-3" d="M455.52,108.36l5.71-4.7.34.35-5.09,5.24Z"/><path class="cls-3" d="M461.59,83.05l7.78-3.24.35.78-7.67,3.49Z"/><path class="cls-3" d="M457.92,141.87l-4.1,6.34-.62-.37,3.72-6.69Z"/><path class="cls-3" d="M566.46,150.13a1.62,1.62,0,0,0-.41.27l-3.74-5.85C564.25,146,566.82,147,566.46,150.13Z"/><path class="cls-3" d="M586.79,604.92l-1.92,8.4-.84-.2,2-8.31Z"/><path class="cls-3" d="M466.58,151.61l2.69-6,.94.42-2.56,6Z"/><path class="cls-3" d="M624.48,201a9.86,9.86,0,0,1,2.79.94c.44.31.39,1.32.56,2l-.8.32L624.24,202Z"/><path class="cls-3" d="M502.15,98.91l5-6.94.66.49-5.17,6.91Z"/><path class="cls-3" d="M596.31,500.09l-4.24-5.54.61-.53,4.47,5.47Z"/><path class="cls-3" d="M394.38,172.92l-1.71,6.46-.84-.19,1.38-6.49Z"/><path class="cls-3" d="M442.73,102.73l-5.26,4.79-.43-.42,4.77-5.23Z"/><path class="cls-3" d="M487,106l-5,5.17A6.83,6.83,0,0,1,487,106Z"/><path class="cls-3" d="M603.07,163.7c-1.18-1.84-2.37-3.67-3.56-5.51l.79-.51,3.63,5.46Z"/><path class="cls-3" d="M197.19,459.11c1.57-1.63,3.13-3.27,4.69-4.9l.56.5-4.39,5.18Z"/><path class="cls-3" d="M480.21,102.37l5.22-4.67.54.6L480.84,103Z"/><path class="cls-3" d="M622.58,167.16c1,2.17,1.91,4.34,2.87,6.5l-.87.36-2.68-6.53Z"/><path class="cls-3" d="M607.46,192.87c-2.88.93-4.7-.16-6.69-2.56Z"/><path class="cls-3" d="M421.45,156.35l-3.75,5.48-.81-.57c1.29-1.8,2.59-3.59,3.88-5.38Z"/><path class="cls-3" d="M398.6,203.2l2.91-3.7,1,.82q-1.51,1.8-3,3.61Z"/><path class="cls-3" d="M474,87l-.23,0-.22-.07A.64.64,0,0,1,474,87Z"/><path d="M523.08,290.21c-.53.42-1.07.83-1.58,1.27-1.57,1.32-4.8.64-5-1.29-.26-3.19-.53-6.6.38-9.56.47-1.53,1.47-3.15,2.07-4.88.53-1.5,2-2.67,3-3.9v4.91l.31,0c.27-1.09.54-2.18.67-2.67,1.3-.25,2.89-.25,3-.62a7.33,7.33,0,0,1,6-5.62v2.68l1.79-2.64.46,1.1,3-3,.53.49-2.93,4.79.56.34,2.76-4.22c.2,1.1.3,1.64.39,2.15,1.77-1.63,3.46-3.31,5.31-4.81.56-.45,1.55-.38,2.35-.55.09.6.18,1.2.3,2l3.62-3.93c3,1.74,4.39-1.78,6.87-1.76l-1.46,2.35L565.81,258c.85.1,2,.59,2.78.26,2.19-.9,4.2-2.21,6.35-3.2.72-.33,1.63-2.11,2.5-.07l3.36-2.86c.14.77.26,1.44.45,2.53,1.17-.77,2.51-1.28,3.26-2.24.87-1.12,1.37-2.34,3.13-1.64.2.09.61-.31.92-.5,2.43-1.49,4.84-3,7.29-4.46.36-.22.89-.13,1.3-.29,1.2-.46,2.37-1,4-1.65,2.7,3.15,4.68-1.37,7.82-1.84-.57.73-.93,1.21-1.59,2.07,3.06,1,6.1,1.86,9.09,2.89a9.07,9.07,0,0,1,2,1.47c0,.26-.08.52-.13.77l-4.88.51c1.09,4.12-.92,7.61-1.86,11.44-2.07,8.45-9,12.38-14.42,17.65-2,2-5.38,2.6-8.09,3.92a10.56,10.56,0,0,0-3.38,2.1,89.77,89.77,0,0,0-7.9,10c-6,9.54-14.34,12.67-24.7,7.42-1-.53-1.74-1.92-2.38-3a32.22,32.22,0,0,1-1.54-4c-2.9,1.91-5.52,3.65-8.16,5.36-3.65,2.36-7.2,4.9-11,6.93-1.34.7-3.36.11-5.36.11l1.3-1.78h-.56v-2.6l-1.82.13,10.5-13.55h-1.89l-.29-.8a46.27,46.27,0,0,0,5.4-2.73,23.86,23.86,0,0,0,3.45-3.54l-1.78-.2c.37-.64.59-1.64,1.13-1.85,3.28-1.32,6.63-2.45,10.66-3.9l-9.8,8.78c2.89-.91,5.5-2,8.12-3.11,2.06-.85,4.14-1.64,6.19-2.52,3-1.27,6.18-2.23,8.82-4,2.1-1.41,3.81-3.33,6.5-3.66a13.42,13.42,0,0,0,4.62-1.86,29.78,29.78,0,0,1,8.63-2.86c8.14-1.66,16.17-3.12,22.09-9.67,2.16-2.39,4.56-4.66,5.44-9-3.6,2.31-8.05-2.26-10.46,3-.11.24-.67.23-1,.42-3.37,2-6.69,4.1-10.11,6-1.95,1.09-4.26,2.93-6.06,2.59-3.43-.65-5.52,1.47-7.54,2.87-4.72,3.26-9.57,5.58-15.3,6.26a66.64,66.64,0,0,0-11.39,2.3c-3.77,1.14-7.67,2.39-10.94,4.5-4.62,3-8.75,6.75-13,10.28A19.87,19.87,0,0,0,523.08,290.21Zm45.74,6.3-1.2-1.51,4.12-.43-3.06-1.38c-2.82,2.12-.77,4.21-.35,6.26l-1.78-.67c-.27,1-.5,1.84-.73,2.67l-.58-.12c-.09-1.33-.18-2.65-.29-4.13l-1.9,1c.2-.92.34-1.52.47-2.13l-.4-.2c-1,1.53-1.92,3.05-2.87,4.58l-.42-.24c0-.63.11-1.27.22-2.61l-1.61,2.5c-3.61-2,.52-3.62.25-6.33l-2.84,3.5-.62-.39c1-2.09,2-4.17,2.95-6.25l-1.1-.84c-1.74,1.5-4,2.69-5.09,4.57-1.38,2.4,2.3,7.66,5.29,8.16a13,13,0,0,0,3.45.28c3-.33,6.37.79,8.81-1.8q4.44-4.72,8.56-9.76c1.51-1.84,2.68-4,4.49-6.7l-10.87,2.1c-.4,1.94-.65,3.12-.89,4.3a8.8,8.8,0,0,0,1.92,3.54,9.53,9.53,0,0,1,.69,1.52c-.56.08-1.11.18-1.67.24C570.79,296.35,569.81,296.43,568.82,296.51Zm13-20.3h6.09l2.39-3.41v-3.11c-.88,0-2.25-.4-2.88.11s-.7,2-1.17,3a5.15,5.15,0,0,1-1.43,1.92A19.3,19.3,0,0,1,581.85,276.21Zm-48.5,20.71-.7-.72-3.37,3.26.62.66Z"/><path d="M484.52,422.52c2.15-.51,3.54.78,5.28,1.8,3.12,1.83,4.05,1.34,6.68-1.58.23-.26.47-.5.76-.81.35,2.12-2.22,4.85-4.78,5-3.83.27-7.66.53-11.49.54-1.35,0-3.14-.34-4-1.23-1.68-1.83-3.89-1.43-5.78-2.18-3.38-1.35-6.93-2.71-8.58-6.46l0,.07,7.75-.63-.42-4.65-.24-.05-.87,4.25-.63-.08c.25-1.89-.06-4.12.85-5.61,2.84-4.69,4.18-9.88,5.55-15,1.65-6.25,2.86-12.61,4.34-18.9,1.25-5.3,2.73-10.54,3.89-15.86.69-3.13,1.71-6.47,1.2-9.49-.64-3.79,1.09-7,1.18-10.51.11-3.71.62-7.4.71-11.1.14-5.37-.31-10.79.17-16.13.51-5.68-1.09-11-1.94-16.39-.6-3.85-3.14-6.19-5.54-8.83-5.44-6-12.28-9.63-19.59-12.74-4.29-1.83-8.3-4.31-12.51-6.35a24,24,0,0,0-4.37-1.15,4.73,4.73,0,0,1-1.77-.57c-4.12-3.17-8.61-1.62-13-1.1-2.55.29-5.14.44-7.63,1-6.71,1.45-11.67,5.87-16,10.71a78.71,78.71,0,0,0-13.1,21.2c-2,4.44-2.89,9.39-3.74,14.21-1.61,9.23-4.46,17.94-9.48,25.88a17.12,17.12,0,0,1-1.07,1.35l-.68-.28,1-3.5c-.52.33-1.05.65-2,1.23a35.12,35.12,0,0,1,1.74-4.51c3-5.27,3.14-11.29,4.68-16.94,1.87-6.89,3.45-13.86,5.36-20.74.46-1.65,1.74-3.07,2.56-4.64.14-.26-.35-.9-.21-1.08.8-1,.25-3,2.55-3,1.11,0,3.61-5.6,3.29-6.84l1.83-.15c1.81-4.95,6.56-7.15,9.51-10.89a6.8,6.8,0,0,1,3.09-2c3-1,6.09-1.73,9.13-2.62.48-.14,1.16-.5,1.27-.9.94-3.31,4-3.18,6.41-3.83,2.87-.77,5.9-1.21,8.75.41.21.12.62-.08,1.36-.21l-2.47-2.17c3.13-.05,4.65,4,7.84,1.77l-5.24-4.32.81-1,12,7.16c.32-2,1-2.3,2.75-.75a42.79,42.79,0,0,0,6.32,3.95,1.21,1.21,0,0,0,.92.21c2.34-1.26,4,.22,5.81,1.32,1.22.73,2.27,2.8,4.26,1,.22-.19,1.7.62,2.23,1.26,4.48,5.42,9.16,10.7,13.16,16.46,1.71,2.46,2.09,5.92,2.79,9s1.13,6.45,1.64,9.69c.92,5.89.4,11.78.09,17.69-.31,5.7-.16,11.44-.67,17.13-.79,8.77-1.65,17.57-3.1,26.25-.94,5.64-3,11.08-4.49,16.64-1.33,5.06-2.38,10.2-3.75,15.24a59.39,59.39,0,0,1-2.84,7.6c-1.62,3.75-2.23,7.27-.85,11.47a23.63,23.63,0,0,0,4.29,7.78c2,2.48,3.43,1.1,5.09-.15a10.73,10.73,0,0,1,1.1-.62Z"/><path d="M455,294.67c-4.73-.22-8.91-.42-13.1-.59a23.08,23.08,0,0,1-3.22,0c-5.07-1-8.52,1.73-11.25,5.32-1,1.35-1,3.61-1.19,5.49-.4,3.46-.12,7.08-1,10.39-1.65,6.07-6.07,9.71-12.1,11.29-3.71,1-7.45,2-10.81.61-2.13,3.87-4.35,7.36-6,11.1a38.58,38.58,0,0,1-2.46,5.26c-2,3.28-5.19,4.82-8.36,6.45-.29.14-.8-.14-.76-.13,0-1.09-.11-1.91-.13-2.72a1.26,1.26,0,0,1,.14-.76c4.45-5.07,4.77-11.59,6.26-17.7,2-8.39,3.68-16.93,7.95-24.57,1-1.81,2.77-3.21,4.11-4.87s2.29-3.19,3.54-4.7a6.89,6.89,0,0,1,1.93-1.08c-.08.94-.13,1.54-.23,2.82l5-4.1-.16-.15c1.88-1.28,3.7-2.67,5.66-3.82,4.06-2.37,8.48-2.22,13-1.7,1.1.13,2.3-.45,3.39-.3s2.3,1,3.5,1.22c2.12.36,4.3.47,6.45.68a15.06,15.06,0,0,0,1.89.16c3.88,0,6.65,1.6,7.89,4.78A3.67,3.67,0,0,1,455,294.67ZM408,318l-.45-.33c.13-1.18.27-2.36.41-3.54-1,.66-1.24,1.68-1.87,2.16a3.59,3.59,0,0,0-.62,5.29c.94,1.27,2.95,2,4.63,2.38,4.11.84,6.76-1.87,9.43-4.53l-2.28-2.61a9.88,9.88,0,0,1-1.24.83c-1.13.52-2.29,1-3.43,1.47-.32-.83-.64-1.66-1-2.49-.23-.6-.48-1.2-.74-1.82C409.82,316,408.92,317,408,318Zm13.11-6.44.57-.38q1.56-6.57,3.13-13.16l-.67-.46a48,48,0,0,0-3.31,4.87,33.64,33.64,0,0,0-1.67,5.06C419.63,308.38,420.38,310,421.14,311.52Zm-12.57-11.61c-5.19,4.2-7.94,9.78-9.28,16.15ZM420,294.2l-.77-1.38-4.84,2.92.69,1.24Zm-2.19,16.89-.62,1,4.39,3.56c0-1.32.32-2.56-.06-2.85A20,20,0,0,0,417.84,311.09Z"/><path class="cls-3" d="M523.08,290.21a19.87,19.87,0,0,1,2.48-3.09c4.26-3.53,8.39-7.3,13-10.28,3.27-2.11,7.17-3.36,10.94-4.5A66.64,66.64,0,0,1,560.9,270c5.73-.68,10.58-3,15.3-6.26,2-1.4,4.11-3.52,7.54-2.87,1.8.34,4.11-1.5,6.06-2.59,3.42-1.91,6.74-4,10.11-6,.31-.19.87-.18,1-.42,2.41-5.3,6.86-.73,10.46-3-.88,4.37-3.28,6.64-5.44,9-5.92,6.55-13.95,8-22.09,9.67a29.78,29.78,0,0,0-8.63,2.86,13.42,13.42,0,0,1-4.62,1.86c-2.69.33-4.4,2.25-6.5,3.66-2.64,1.77-5.85,2.73-8.82,4-2,.88-4.13,1.67-6.19,2.52-2.62,1.09-5.23,2.2-8.12,3.11l9.8-8.78c-4,1.45-7.38,2.58-10.66,3.9-.54.21-.76,1.21-1.13,1.85L534,285c-.74.56-1.81,1.75-2.15,1.57-3-1.63-3.54,2.07-5.53,2.5l-3.28,1.13Z"/><path d="M467.79,169c2.12-3.23,4.36-6.38,6.33-9.7,1.54-2.58,2.72-5.36,4.12-8,.21-.39.77-.6,1.64-.44-2.89,5.27-5.73,10.57-8.69,15.8a19.84,19.84,0,0,1-2.62,3.06Z"/><path d="M462.64,417.64l-1.59.51c-.63-2.13-1.69-4.23-1.78-6.37a5.29,5.29,0,0,1,3.88-5.4c-1.49,3.85-2.54,7.57-.55,11.33Z"/><path d="M544.33,160.88c1.2,1,2.75,1.76,3.54,3a22.68,22.68,0,0,0,10.92,9.32c.51.2.83.84,1.24,1.28-5-1.17-9-3.58-11.67-8.18A53.69,53.69,0,0,0,544.33,160.88Z"/><path d="M526.34,289c2-.43,2.48-4.13,5.53-2.5.34.18,1.41-1,2.15-1.57-.47,2.86-2.76,3.73-5,4.66l-.54.74-1.4.52Z"/><path d="M537.8,146.15c3.42,4.39,5.94,9.17,6.58,14.8-.93-2.09-1.84-4.19-2.77-6.27C540.35,151.83,539.07,149,537.8,146.15Z"/><path d="M485.7,136.35l-5.89,13.08C478.93,147.13,482.2,139.77,485.7,136.35Z"/><path d="M531.82,135.82a9.31,9.31,0,0,1,1.63,1.63c1.38,2.3,2.68,4.64,3.95,7a7,7,0,0,1,.44,1.75,5.38,5.38,0,0,1-.7.27C535.19,143,532,140.14,531.82,135.82Z"/><path d="M454.88,188.12a15.15,15.15,0,0,1-1.34,3.23c-1.36,2-2.94,3.78-4.43,5.65l-1-.78,6.79-8Z"/><path d="M467.79,169l.78.69-4.78,7.49-1-.67Z"/><path d="M520.87,303l6.45-8,.85.69-6.62,7.87Z"/><path d="M515.91,278.33c-2.65,2.52-2.43,5.82-2.42,9.06C512.11,283.74,512.7,281.38,515.91,278.33Z"/><path d="M526.34,289l.72,1.85q-2,1.53-4,3.07l-.35-.35,1.69-1.94-1.33-1.5Z"/><path d="M492,125c-1-1.43-.26-3.35,3.46-7.82-.53,1.18-1.08,2.35-1.6,3.53C493.21,122.1,492.63,123.46,492,125Z"/><path d="M454.92,188.18l4.23-6.36.94.68c-1.51,2-3,4-4.55,6a4.84,4.84,0,0,1-.66-.37Z"/><path d="M484.52,422.52l-.92.69,2.38-9.65.75.18C486,416.67,485.25,419.59,484.52,422.52Z"/><path d="M528.46,290.37l.54-.74.15,1Z"/><path d="M231.94,597.74c-1.67,3.29-5.47,3.16-8.13,4.88-1.25.81-2.06-1.13-1.78-2.48,1.21-5.8-1.5-9.53-7.4-10.19-3.79-.43-7.57-1-11.59-1.56-.4,1.65-.72,3.44-1.28,5.16s-.92,4.21-2.23,5.24c-2,1.6-4.45,3.28-7.51,2.7-4.47-.86-9-4.51-11.15-10.55l-19.69,7.69a6.83,6.83,0,0,0,3.17,6.89,1.91,1.91,0,0,1,.58,1.73,2.19,2.19,0,0,1-1.61,1.18c-2.51-.18-5-.58-7.49-.91l.07-1.19,6.66.4-5-5.94-8.51,5.45.25,1L146,605.49l1.29-1.46c-1.91-1-2-2.24-.29-3.95,5.31-5.28,10.5-10.67,16-15.78,2.09-2,4.83-3.22,7.22-4.88.78-.54,1.27-1.57,2.09-1.95,2.86-1.34,5.85-3.6,8.72-3.5,8.09.3,16.35-.63,24.25,2a14.35,14.35,0,0,1,2.3,1.23c3.18-.85,5.74,1.71,8.7,2.22.48.09.77,1.21,1.29,2.1l1.25-1.62,19.43,16.68-6.27,1.16-6-2.42c-.12,1.62-.25,3.24-.34,4.85,0,.07.24.16.38.24C227.24,598,229.73,598.17,231.94,597.74Zm-33.1-10.07c-1.14,3.33-2.74,6-6.08,6.2s-5.89-1.13-5.5-5l-3,1.17c.22,3.4,3.1,7.56,5.54,8.51,2.65,1,7.26-.25,8.88-2.6C199.89,594.17,200.24,589.82,198.84,587.67Zm2.25-9.76c-4.66-2.73-13.1-1.78-16.34,1.6l5.24.75-.06.59-1.87.37v.67c1.51.08,3,.19,4.52.2.19,0,.52-.51.53-.8a1,1,0,0,0-.47-.83,9.08,9.08,0,0,0-1.67-.19l-.06-.52Z"/><path d="M347,636.41c1.8,1.21,1.77,2.68,1.09,5.26-.82,3.06.25,6.58.25,9.91a67.92,67.92,0,0,1-.55,9.13c-.17,1.33-2.07,1.25-2.92-.18a33.12,33.12,0,0,1-2.34-4.74c-1-2.59-2.76-4.47-4.66-6.47-3.49-3.68-6.47-7.85-9.6-11.87a2.1,2.1,0,0,1,.11-2c1.66,2.14,3.18,4.42,5,6.38,2.14,2.25,3.81,1.7,4.62-1.34a7.68,7.68,0,0,0,.38-3.16c-1-5.45-2.07-10.87-3.18-16.59-3.65,2.12-6.79,4.2-10.75,3.29-3.19-.74-6.59-1.07-8.07-4.83-.3-.74-1.69-1.77-2.21-1.59-2.48.84-3.05-1.08-3.76-2.45-2.94-5.76-4.34-12-5.41-18.33a11.22,11.22,0,0,0-1.4-3.39c-2.2-4-3.75-8.15-3.18-12.83a2.46,2.46,0,0,1,.41-.94c.08-.12.3-.16.46-.24,1,5,4.7,8,8.59,10.13,4.53,2.45,9.81,3.48,14.68,5.33,7.76,3,13.13,8.26,15.78,16.3,2.28,7,4.92,13.79,7.19,20.75C347.93,633.08,347.24,634.59,347,636.41Zm-33.59-20.13c1.42-4.88,1-10.51,7.84-12.82l-13.48-8.08C309.28,602.7,309.76,609.87,313.39,616.28Zm6.85,1.88c-2.76-2.46,4.33-2.94.25-5.13l3.38-4.89c-6.42,1.33-6.82,1.94-6,8.1a12.76,12.76,0,0,0,.52,2.63,2.68,2.68,0,0,0,1.15,1.37c4.42,2.33,8.79,2.31,13-.53a3.18,3.18,0,0,0,0-4.93c-.48-.42-2.32,0-3,.64a46.77,46.77,0,0,0-4.21,5.27c.11-1.29.19-1.84.19-2.39s-.09-1.09-.14-1.64a10.24,10.24,0,0,0-1.47.24C322.54,617.34,321.18,617.83,320.24,618.16Z"/><path d="M284.4,685c1.85.72,3.19.32,4.72-1.81a7.56,7.56,0,0,1,5.67-2.46c1.7,0,3.56,1.68,5,3a49.48,49.48,0,0,1,4.81,5.86,31,31,0,0,1,1.83,3.25c3.91,1.87,5.31,4.39,5,9-1.85,1.43-3.45,2.26-4.49,3.56a29.88,29.88,0,0,1-11.08,8.47,3.29,3.29,0,0,0-1.51,1c-2.17,3.87-6,1.85-9,2.58-1.06.25-2.26-.2-3.37-.06a18.61,18.61,0,0,1-14.62-4q-3.74-3-7.24-6.32c-1.62-1.53-.43-3,.64-4.16,3.05-3.24,6.18-6.39,9.37-9.49q5.49-5.34,11.17-10.48a2.37,2.37,0,0,1,2.12-.13C283.75,683,283.9,683.94,284.4,685Zm-16.07,17.14c2.3,2.92,4.18,5.93,8.47,7.07,4.72,1.24,9,2.77,13.35-.82,2-1.62,4.54-2.56,6.83-3.81,2.79-1.52,5.74-2.87,7-6.56-1.28-.25-2.42-.41-3.53-.71-5.5-1.48-10.95-3.34-16.77-1.65a66.49,66.49,0,0,0-7.31,2.08A90.41,90.41,0,0,0,268.33,702.11Z"/><path d="M337.05,583.63c-.53,0-1.32.31-1.54.06-2.61-2.88-5.15-5.84-7.7-8.78a.74.74,0,0,0-.05-.53c-2.66-3.53-5.38-7-7.95-10.63a16.4,16.4,0,0,1-1.75-3.85,12.61,12.61,0,0,0-2.71-4.58c-1.27-1.34-1.3-3.94-1.65-6-.22-1.38-.07-2.59-1.58-3.6-.9-.6-1.13-2.35-1.48-3.63q-1.33-5-2.5-10.13c-.34-1.46-.5-3-.76-4.54-4.44.77-1.23-3.36-2.85-4.56l-2.82.6V517c-.06,0-.67-.13-.79-.43-1.07-2.78-2.55-5.52-3-8.41a98.31,98.31,0,0,1-.8-14.16,19,19,0,0,1,1.5-5.94c.47-1.35,1.59-2.63-.8-3.19l1.84-.43c-2.18-.85-2.61-2-1.51-3.82s2.1-3.69,3.15-5.54l.77.41-2.3,4.86.52.24c.5-.87,1-1.74,1.69-2.9,1.24,2.61-2,6.36,2.41,7.55.4-1.15.85-2.39,1.29-3.64l.61.14c-.15,2.26-.29,4.52-.45,7.05,3.11,1.8.86,4.52.39,7.12,2.59-.57,2.18,1.42,2.4,2.78.06.36-.44.77-.54,1.19-.8,3.32-.51,3.64,3,3.49,2,2.51-.21,4.79-.48,7.15-.17,1.54-1.78,3.22.8,4.25.21.08.18.79.24,1.21.33,2.35-.12,5.28,1.13,6.93,2.72,3.6,2.11,7.87,3.45,11.68.85,2.43.66,5.33,1.85,7.52,4.29,7.9,4.55,17.46,10.34,24.7.32.4.66.79,1.4,1.67-.78-4.71-4.68-7.76-3.95-13.13,1.45,1.81,2.85,2.92,3.4,4.36,1.87,4.92,3.4,10,5.17,15,.3.87,1.2,1.52,1.64,2.37.76,1.47,1.38,3,2.06,4.53-.94-1-1.82-2.13-2.85-3.06-.42-.39-1.17-.42-2.07-.7Z"/><path d="M173.4,545.2c-.9.66-1.45,2.4-2.89.73-.11-.13-.61,0-.92.12-3.58,1.05-7.19,2-10.74,3.21-4.65,1.53-9.83,1.91-13.29,6.15l-.68-.59c1.27-1.77,2.31-3.78,3.87-5.24a21.33,21.33,0,0,1,6.22-4.26c2.49-1,5.19-1.45,7-3.79.11-.15,1,.32,1.57.5l-1.58,2.26c3.45-.13,2.48-5.67,6.5-4.08l.28,1.52c1.06-1.45,1.82-2.51,2.61-3.6l1.05,1.27,3.07-4.33a17.29,17.29,0,0,1,.11,3.41,15.29,15.29,0,0,1-1.09,2.83l.74.59,4.15-4c-.11,1.12-.19,2.08-.34,3.67l3.4-2.51.69,1.37,3.17-2.89.62,2.37,3.65-2.87-1.11,3.37.52.62,7-5.42L195.18,539l.42.22,6.24-5.45L200.76,537l4.7-3.69.59.34-.49,2.32,7.95-3.54c-.38,1.47-.74,2.82-1.17,4.48l7.13-6.64.83.61c-.46,1.64-.93,3.28-1.39,4.92,1.4-1.61,5-.63,4.91-4.07a7,7,0,0,1,2.05-.24,11.92,11.92,0,0,1,2.2.56l.42,1.64.85.1c.37-2,.75-4,1.08-5.75l1.87,3.94,2.55-3.08,1.52,2,2.36-1.51c-1.06,3.74-1.9,7.34-3.18,10.79-.36,1-2,1.52-2.64,2-1.17-.13-2.32-.64-3-.27a11,11,0,0,1-8.92.88c-2.66-.77-5.14-1.54-7.45,1.09-1.11-2.29-2.53-1.85-4.4-1.53-6,1-12.13,2.31-18.18,2.2-4.33-.07-8.57.83-12.87.5a1.88,1.88,0,0,0-1.45.57C175.29,547.43,174.27,547,173.4,545.2Z"/><path d="M279.55,486.38l-.42-1.37-.86.07v10.31c-1.93,1.11-2.37,4-1.56,10.95a11.2,11.2,0,0,1,1.52-.16c.21,0,.42.25.24.14-.42,1.28-1.22,2.42-1.08,3.43a128,128,0,0,0,5.55,23.36c2,6,3.19,12.23,5.1,18.24,2.11,6.61,4.78,13,6.92,19.63a104.77,104.77,0,0,1,2.82,11.66c1,5.08,1.27,10.38,2.88,15.24,2.09,6.26,1.24,12.76,2.59,19,1.28,5.93,2.65,11.83,4,17.74a28.54,28.54,0,0,1,.83,3.11c.47,4.4.74,4.69,5.13,4.69.61-1.6,1.21-3.19,2-5.29.91,1.8,1.47,2.87,2.09,4.09-1.07,2.47-3.18,3.31-6,3.65-2.41.3-4.63,1.85-7,2.43-1.72.41-3.6.11-5.41.17-1.42,0-2.85.13-4.27.23-.35,0-.71.29-1,.25a6.51,6.51,0,0,0-5.94,2.24c-1.26,1.29-4.6.19-6.12-1.56-1-1.18-.93-2.93.39-4.7.26.39.62.69.7,1.06.81,3.45,2.66,4.44,5.47,2.3,1.89-1.45,3.14-3.76,4.51-5.47,1.9,1,4.31,2.38,6.8,3.59,2.68,1.3,3.4.92,4-1.86.35-1.51.65-3,.95-4.48.51.69,1.16,1.56,2.26,3.06-.46-2.85-.64-5.13-1.22-7.31-1.77-6.74-3.85-13.41-5.49-20.19-.8-3.27-.83-6.73-1.29-10.09-.5-3.61-.91-7.24-1.69-10.8-1.87-8.62-3.94-17.2-5.9-25.8-.54-2.38-.78-4.84-1.47-7.17-.91-3-2.24-6-3.17-9-1.87-6.07-3.53-12.21-5.42-18.28-1.24-4-3.11-7.78-4.05-11.82-1.09-4.66-1.5-9.48-2.17-14.24-.3-2.1-.56-4.21-.76-6.32a58.63,58.63,0,0,1,.93-17.63c.17-.81.06-1.71,1.76-1.33,1,.22,2.38-1.59,3.7-2.29a20.82,20.82,0,0,1,3.25-1.14l.57.9c-.95,1-2,1.9-2.82,2.95-.37.46-.34,1.21-.61,1.77a22,22,0,0,1-1.2,2Z"/><path d="M213.25,462.57c2.41-4.11,4.81-8.23,7.26-12.32.12-.21.63-.19,1-.28,1.33,2.68-1.7,3.65-2.32,5.62-.68,2.16-2.36,4-3.78,5.92C215,462.07,214,462.23,213.25,462.57Z"/><path d="M295.62,657.61c-.51,4.63-1,9.26-1.56,14.1-2.18-5,1.37-9.43.63-14.13Z"/><path d="M279.52,486.37c.57,1.94,1.15,3.88,1.67,5.84,0,.13-.64.61-.72.55-.39-.28-1-.68-1-1.05-.06-1.77,0-3.55.09-5.33Z"/><path class="cls-3" d="M337.05,583.63l-3.77-5.87c.9.28,1.65.31,2.07.7,1,.93,1.91,2,2.85,3.06Z"/><path d="M292.12,492.54l-2.73-5,1.17-.58c.77,1.77,1.53,3.53,2.3,5.29Z"/><path class="cls-3" d="M327.76,574.38a.74.74,0,0,1,.05.53Z"/><path d="M541.73,696.79c.11,1.19.73,2.77.19,3.48-.78,1-2.53,2.17-3.62,2-4.3-.83-7.71,1.38-11.27,2.85-4,1.67-7.89,3.82-11.83,5.75a3.05,3.05,0,0,1-1.25.45c-4-.08-7.9-.21-11.85-.35-2.36-.07-1.86-2.42-2.83-3.61a15.61,15.61,0,0,1,1.73-1.19c.37-.18,1,0,1.27-.2a12.46,12.46,0,0,0,1.53-1.55,7,7,0,0,0-2.08-.57,17.69,17.69,0,0,0-2.94.49l-.27-.85a22.11,22.11,0,0,0,2.64-1.14,11.78,11.78,0,0,0,1.71-1.47l-.52-.65c-3.38.38-6.84.44-10.11,1.25-2.53.62-4.73,2.49-7.24,3.27-3.68,1.14-7.51,1.84-11.3,2.62-.59.13-1.3-.32-2-.5.54-.92,1.15-2.67,1.61-2.64,6.27.53,10-4.26,14.83-6.77,3.86-2,7.61-4.27,11.57-6.08.83-.38,2.59.43,3.48,1.2,3.2,2.75,3.74,3,7.09.69,2.42-1.69,4.13-2.19,7-.28,3.2,2.09,7.25,3,11,4.12a75.38,75.38,0,0,0,8.17,1.83c1.89.37,3.92.76,4.14-2.52Z"/><path d="M474.38,658.87l1.22,3.51,4.69-1.11c1.19,1.35,1.16,2.31-.79,3.73-3.19,2.33-5.95,5.22-8.91,7.87a1.5,1.5,0,0,1-1.48.3l4.46-6-10.32,1.2c1.26,5.13.63,8-2.34,9-1.85.65-4,.36-6,.75-2.64.53-3.21-1.54-3.86-2.7l-7.71,7.9,2.78.25,0,.64-8.28,1.19-1.58-3,.69.37c2.36-2.94,4.9-5.75,7-8.85,2.69-3.88,6.49-6.35,10.23-9,4.07-2.86,8.88-3.17,13.45-4.27,1.45-.35,3.11,0,3.43-2.12,0-.26.9-.4,1.38-.59Zm-14,10.4c-1,1.88-1.44,3.63-2.53,4.31-.75.47-2.44-.55-4.19-1.05l-1,3.62c1.26.08,2.24.18,3.23.2a17.88,17.88,0,0,0,3.19,0,3.78,3.78,0,0,0,3.35-4.4C462.16,670.41,461.81,668.71,460.38,669.27Z"/><path d="M474.38,658.87l-1.91-.91c-.39-2.24-1.84-.54-2.67-.57a17.11,17.11,0,0,0-4.1.77l-.37-.91,1.54-1.25c2.25-.55,4.54-1,6.72-1.71.6-.21.85-1.43,1.37-2.39l3.47-3.07a22.81,22.81,0,0,0-6.14.94c-.35.1-.59.6-.87.92l-2.84,3.24c.11-.43.23-.86.48-1.83-3.15,1.79-5.91,3.43-8.74,4.94-3.49,1.87-7.07,3.57-10.55,5.44a7.6,7.6,0,0,0-3.08,2.39c-1.1,2-2.83.46-4.08,1.16-2.82,1.57-5.65,1-8.63-.14,22.42-4.53,37.59-18.74,50-36.6a7.84,7.84,0,0,1-.11.88c-.1.44-.26.86-.54,1.8l3.65-1c-1.22,3.27-2.45,6.55-3.74,10l1.08.16c-1.78,4.7-2.17,10.33-7.45,13C477.76,655.94,476.65,657.93,474.38,658.87Z"/><path d="M540.34,543.6c-1.74,2.88-3.41,5.81-5.23,8.63-2.6,4-5.46,7.88-7.94,12-3.84,6.33-7.61,12.72-11.12,19.24-3.3,6.14-6.28,12.45-9.32,18.72-1.89,3.93-3.68,7.91-5.41,11.91a2.16,2.16,0,0,0,2.37,3,24.68,24.68,0,0,0,2.68-.48c2-.42,3.31.16,4.33,2.17.77,1.54,1.31,4.21,4.05,3.25,1.25-.44,2.23-1.62,3.49-2.58-.2,1-.12,3.11-.8,3.38-1.56.63-3.31,2.13-5.35.18-1.25-1.19-3.48-1.3-4.89-2.39-2.54-2-6.32-1.68-8.24-4.86-.92-1.53-2.58-2.6-3.82-4a1.75,1.75,0,0,1-.4-1.49c1.64-3.45,3.38-6.85,5.1-10.26l1.11.5c-.59,1.48-1.15,3-1.8,4.42a24.68,24.68,0,0,1-1.3,2.36c-2.13,3.65-2.13,3.65,1.56,6.3a370.48,370.48,0,0,1,40-70.54Z"/><path d="M480.12,752.35c-.35-5-1.78-10.34,1.79-14.67,1.73-2.1,4.15-3.62,6.28-5.38,4.8-4,10.58-5.67,16.57-7.2l1.47,2.07a42.3,42.3,0,0,0-6.84,1.27c-2.23.79-4.22,2.26-6.35,3.37-1.44.76-3,1.36-4.39,2.12s-3.42,1.42-2.85,4c-1.24-1.75-1.88-.88-2.69.24-2.57,3.54-2.63,7.6-2.67,11.69A19.58,19.58,0,0,1,480.12,752.35Z"/><path class="cls-3" d="M468.58,653.93l2.84-3.24c.28-.32.52-.82.87-.92a22.81,22.81,0,0,1,6.14-.94L475,651.9c-.52,1-.77,2.18-1.37,2.39-2.18.75-4.47,1.16-6.72,1.71Z"/><path d="M513.66,729.52l-5.12-1.59A3.34,3.34,0,0,1,513.66,729.52Z"/><path class="cls-3" d="M568.82,296.51c1-.08,2-.16,2.95-.26.56-.06,1.11-.16,1.67-.24a9.53,9.53,0,0,0-.69-1.52,8.8,8.8,0,0,1-1.92-3.54c.24-1.18.49-2.36.89-4.3l10.87-2.1c-1.81,2.73-3,4.86-4.49,6.7q-4.11,5-8.56,9.76c-2.44,2.59-5.82,1.47-8.81,1.8a13,13,0,0,1-3.45-.28c-3-.5-6.67-5.76-5.29-8.16,1.08-1.88,3.35-3.07,5.09-4.57l1.1.84c-1,2.08-2,4.16-2.95,6.25l.62.39,2.84-3.5c.27,2.71-3.86,4.35-.25,6.33l1.61-2.5c-.11,1.34-.17,2-.22,2.61l.42.24c1-1.53,1.91-3,2.87-4.58l.4.2c-.13.61-.27,1.21-.47,2.13l1.9-1c.11,1.48.2,2.8.29,4.13l.58.12c.23-.83.46-1.67.73-2.67l1.78.67Z"/><path class="cls-3" d="M581.85,276.21a19.3,19.3,0,0,0,3-1.5,5.15,5.15,0,0,0,1.43-1.92c.47-1,.45-2.42,1.17-3s2-.11,2.88-.11v3.11l-2.39,3.41Z"/><path class="cls-3" d="M568.82,296.51l-.49,2.94c-.42-2.05-2.47-4.14.35-6.26l3.06,1.38-4.12.43Z"/><path class="cls-3" d="M533.35,296.92l-3.45,3.2-.62-.66,3.37-3.26Z"/><path class="cls-3" d="M408,318c.89-1,1.79-2,2.87-3.19.26.62.51,1.22.74,1.82.33.83.65,1.66,1,2.49,1.14-.49,2.3-.95,3.43-1.47a9.88,9.88,0,0,0,1.24-.83l2.28,2.61c-2.67,2.66-5.32,5.37-9.43,4.53-1.68-.34-3.69-1.11-4.63-2.38a3.59,3.59,0,0,1,.62-5.29c.63-.48.85-1.5,1.87-2.16-.14,1.18-.28,2.36-.41,3.54Z"/><path class="cls-3" d="M421.14,311.52c-.76-1.57-1.51-3.14-1.95-4.07a33.64,33.64,0,0,1,1.67-5.06,48,48,0,0,1,3.31-4.87l.67.46q-1.56,6.58-3.13,13.16Z"/><path class="cls-3" d="M408.57,299.91l-9.28,16.15C400.63,309.69,403.38,304.11,408.57,299.91Z"/><path class="cls-3" d="M420,294.2,415.11,297l-.69-1.24,4.84-2.92Z"/><path class="cls-3" d="M417.84,311.09a20,20,0,0,1,3.71,1.75c.38.29.06,1.53.06,2.85l-4.39-3.56Z"/><path class="cls-3" d="M198.84,587.67c1.4,2.15,1,6.5-.17,8.27-1.62,2.35-6.23,3.63-8.88,2.6-2.44-.95-5.32-5.11-5.54-8.51l3-1.17c-.39,3.88,2.13,5.23,5.5,5S197.7,591,198.84,587.67Z"/><path class="cls-3" d="M201.09,577.91l-10.17,1.84.06.52a9.08,9.08,0,0,1,1.67.19,1,1,0,0,1,.47.83c0,.29-.34.8-.53.8-1.5,0-3-.12-4.52-.2v-.67l1.87-.37.06-.59-5.24-.75C188,576.13,196.43,575.18,201.09,577.91Z"/><path class="cls-3" d="M231.94,597.74c-2.21.43-4.7.23-6,2.72-.14-.08-.39-.17-.38-.24.09-1.61.22-3.23.34-4.85l6,2.42Z"/><path class="cls-3" d="M313.39,616.28c-3.63-6.41-4.11-13.58-5.64-20.9l13.48,8.08C314.43,605.77,314.81,611.4,313.39,616.28Z"/><path class="cls-3" d="M320.24,618.16c.94-.33,2.3-.82,3.67-1.26a10.24,10.24,0,0,1,1.47-.24c.05.55.14,1.09.14,1.64s-.08,1.1-.19,2.39a46.77,46.77,0,0,1,4.21-5.27c.68-.63,2.52-1.06,3-.64a3.18,3.18,0,0,1,0,4.93c-4.22,2.84-8.59,2.86-13,.53a2.68,2.68,0,0,1-1.15-1.37,12.76,12.76,0,0,1-.52-2.63c-.85-6.16-.45-6.77,6-8.1L320.49,613C324.57,615.22,317.48,615.7,320.24,618.16Z"/><path class="cls-3" d="M268.33,702.11a90.41,90.41,0,0,1,8.08-4.4,66.49,66.49,0,0,1,7.31-2.08c5.82-1.69,11.27.17,16.77,1.65,1.11.3,2.25.46,3.53.71-1.3,3.69-4.25,5-7,6.56-2.29,1.25-4.84,2.19-6.83,3.81-4.39,3.59-8.63,2.06-13.35.82C272.51,708,270.63,705,268.33,702.11Z"/><path class="cls-3" d="M460.38,669.27c1.43-.56,1.78,1.14,2.06,2.64a3.78,3.78,0,0,1-3.35,4.4,17.88,17.88,0,0,1-3.19,0c-1,0-2-.12-3.23-.2l1-3.62c1.75.5,3.44,1.52,4.19,1.05C458.94,672.9,459.36,671.15,460.38,669.27Z"/></g></svg>