<svg enable-background="new 0 0 522.7 806.8" viewBox="0 0 522.7 806.8" xmlns="http://www.w3.org/2000/svg"><path d="m4.4 453.1c.2-3.2.1-6.5.6-9.7.4-4 1.2-8 2.3-12 1.6-4.6 3.5-9 5.7-13.3 2-3.9 4.2-7.6 6.7-11.3 4.8-7.1 9.7-14.1 16.7-19.3 1.6-1.2 2.7-2.9 4.2-4.1 1.4-1.1 3-2 4.6-2.8 4.7-2.5 9.4-5.2 14.3-7.2 7.1-2.9 14.4-5.5 21.6-7.9 8.5-2.9 17.1-5.5 25.7-8.1 2.8-.9 5.6-1.4 8.4-2.2.9-.3 1.7-1 2.6-1.2 1-.2 2-.3 3-.2 1.9.1 3.8.4 5.7.3 2.8-.2 5.5-1.1 8.2-1 4.2.3 8.3 1.2 12.5 1.9 4.9.8 9.8 1.6 14.6 2.6 2.9.6 5.6 1.7 8.5 2.4 7.6 2 15.3 3.8 22.9 5.8 3.2.8 6.3 1.8 9.5 2.5 3 .7 6.1 1.1 9.7 1.7.4-2.9.9-5.9 1.3-8.9.5-3.8.3-7.9 1.5-11.4 1.6-4.8 3.3-9.6 5.1-14.3 2.9-7.7 6.8-14.9 10.2-22.4 1.7-3.8 3.1-7.6 4.7-11.4 2.2-5.1 4.5-10.1 6.7-15.2 2.4-5.7 4.9-11.3 7-17.1 3.1-8.5 6-17.1 8.8-25.7 1.4-4.3 2.4-8.7 3.8-13 1-3.1 2.8-5.9 3.6-9 1.3-5.1 2.3-10.2 3-15.4.8-5.7 1.3-11.4 1.6-17.2.1-2.6-.5-5.2-.6-7.9-.2-3-.2-6 0-9 .3-4.4.8-8.7 1.3-13.1.2-1.8.6-3.5.8-5.3.5-4.1.9-8.1 1.5-12.2 1.1-7.3 2.7-14.6 3.4-22 .6-6.6 3.4-12.4 5.4-18.4 1.6-4.8 4-9.3 5.8-14 2.4-6.1 4.2-12.4 6.8-18.3 2.9-6.3 6.1-12.5 9.6-18.5 2.8-4.8 6-9.3 9.1-14 .2-.4.9-.5 1.4-.7-.5 1.2-1 2.3-1.6 3.5l.5.4 10.4-10-.8-.9-7.5 5.5c1.5-1.6 2.9-3.3 4.5-4.8 1.1-1 2.2-1.9 3.4-2.7.5-.3 1.1-.9 1.5-.8 3.8 1.2 5-2.4 7.6-3.5l-.4-.8-3.2 1.6-.4-.6c2.6-1.6 4.4-4.3 7.9-4.7l-1.7 2 .2.6 31.8-13.8-.4-.8-5.2 1.5c0-.5 0-.8.1-.9 3.8-1.5 7.5-3.2 11.4-4.3 2.9-.7 5.8-1.1 8.7-1.2 4-.3 8-.6 12.1-.7.7 0 1.4.9 2.1 1.3l-13.6.1.1 1.3c4.5 0 9.1 0 13.5-1.5l2.2.2-1.8-1.1 2.8-.5v1.8h.5c0-.6.1-1.1.1-1.8h3l-2 2.7 6.9-.6-2.1-1.3.2-.5c3.4.2 6.8.2 10.2.7 5.1.7 10.2 1.8 15.3 2.7.4.1.8.3 1.1.7 1.4 3.4 4.2 3.6 7.3 3.5.8 0 1.7.3 2.5.3.3 0 .5-.7 1-1.4l11.8 5.7c1.7.8 3.5 1.6 5.2 2.6 5.8 3.1 11.1 7 15.7 11.7 1.2 1.2 2.5 2.3 3.9 3.3 4.2 3.4 8.5 6.8 12.8 10.3 1.1.8 1.9 1.9 2.5 3.1l-1.3-.1c2.3 3.8 4.6 7.8 7 11.8 1.8 2.9 3.7 5.8 5.5 8.8.2.4.5 1.1.6 1.1 2.3-.6 2 1.3 2.3 2.4.5 1.6 2.5 3 .3 5.1-.5.5.2 3.5 1.2 4.2 2.6 2.1 2.1 5 3 7.5.5 1.3.5 2.8.9 4.1 1.4 4.7 2.9 9.5 4.3 14.2 1.1 3.8 2.4 7.5 3.3 11.3.6 2.8.5 5.8 1 8.7 1 6.5.3 13-.1 19.5-.2 2.1.4 4.3.5 6.4.1 1.7-.1 3.3-.2 5-.1 1.9-.1 3.8-.3 5.7-.6 4.6-1.1 9.2-1.9 13.8-.6 3.7-1.5 7.4-2.5 11.1-.5 1.7-1.1 3.4-1.8 5-2 5.3-4.4 10.5-5.8 15.9-1.8 7.2-2.9 14.5-4.1 21.8-.4 2.7.1 5.5-.2 8.2-.4 3.5-1.3 6.9-1.8 10.3 0 1.2 0 2.5.1 3.7-.2 5.4-.4 10.8-.8 16.3-.3 4.1-1.1 8.3-1.4 12.4-.4 4.4-1.7 8.8-1.2 13 .5 3.5-1.6 6.3-1.1 9.7.5 3.2-.3 6.6-.5 10-.4 4.9-.5 9.9-1.2 14.8-1.1 8.1-2.6 16.1-3.7 24.2-.7 5.9-2 11.7-4 17.4-1.7 4.6-2.3 9.6-4.1 14.2-2.2 5.8-5 11.3-7.5 16.9s-5.2 11.2-7.7 16.8c-.1.8.1 1.7.7 2.3 3.5 4.3 7 8.8 10.8 12.8 3.2 3.4 3.9 7.7 5.7 11.7 2.1 4.7.8 9.3 1.3 13.9.4 4.1.3 8.2-.4 12.2-.7 3.9-.4 8-.5 11.9-.2 7.3-.4 14.5-.5 21.8-.2 9.7-3 18.9-5.6 28.2-1.6 5.7-2.9 11.5-4.7 17.2-1.3 4.2-3.3 8.2-4.8 12.3-2.8 7.7-5.6 15.5-5.3 24 0 1.4-.9 2.8-1.2 4.2-.4 1.5-.6 3.1-.7 4.7.2 6.1.3 12.2.1 18.3-.2 4.8.4 9.5.5 14.3 0 1.9-.4 3.8-.4 5.7-.1 6-.1 12-.2 18 0 3 0 5.9-.1 8.8-.1 2.7-.3 5.3-.7 7.9-1 6.8-2 13.6-3.1 20.4-.9 5.7-1.9 11.3-3.1 16.9-1.4 6.4-3.5 12.6-6.2 18.5-1.5 3.4-2.7 7.1-4.8 10.1-3.3 4.4-6.9 8.6-10.7 12.6-2.2 2.4-4.6 4.5-6.9 6.8-4.7 4.8-10.1 8.9-15.9 12.2-3.9 2.2-7.6 4.6-11.6 6.5-2.4 1.1-5.1 1.7-7.8 1.6-5.7-.2-11.7.1-16.9-1.8-6.6-2.3-13.5-4.3-19.1-9.6-5.1-4.6-9.8-9.5-14.1-14.9-4.6-6.1-9.1-12.2-12.4-19.3-3-6.5-5.5-13.3-8.1-20-2.4-6-5-11.9-7.2-18-1-2.7-1.2-5.6-1.6-8.5-1-6.3-2.1-12.7-2.8-19-.6-5.2-1-10.5-1-15.8-.2-10.2-.1-20.3-.1-30.5 0-4.1 0-8.2 0-12.1-2.3-.3-4.7-.7-7.1-.8-3.6-.2-6.7-2.1-10-3.2-2.2-.8-4.1-2.1-6.3-3-1.1-.5-2.5-.5-3.5-1-1.2-.7-2.4-1.6-3.5-2.5-1.9-1.6-3.8-3.2-5.6-5-.7-.9-1.3-1.8-1.9-2.8-3.8-4.9-8.1-9.5-11.4-14.8-3.6-5.9-6.3-12.3-9.2-18.5s-5.6-12.8-8.6-19.6c-.3 4.6-.7 8.9-.7 13.1 0 8.8.2 17.5.3 26.3.1 15.8.3 31.6 0 47.4-.2 8.4-1 16.8-2.2 25.1-.5 3.4-2.5 6.6-3.9 9.8-.2.5-.6.9-.8 1.4-3.3 7.1-6.2 14.4-10 21.2s-8.1 13.2-12.3 19.7c-3.4 5.3-6.9 10.6-10.6 15.8-2 2.8-4.5 5.3-6.6 8-5 6.1-9.9 12.2-15 18.2-3.3 3.8-7 7.3-10.3 11.1-2.8 3.1-5.3 6.4-7.7 9.9-3.8 5.7-7.1 11.7-10.8 17.4-3.5 5.3-6.7 10.9-11 15.6-4.4 4.7-9.3 9-14.6 12.6-2.6 1.8-6.4 2-9.7 2.8s-6.4 1.3-9.6 1.8c-2.3.4-4.7.6-7 .4-3.8-.4-7.5-1.1-11.3-1.9-1.6-.4-3.2-.9-4.7-1.5l-3.9-1.2-7.6-2.5 1.6-1.2c-1.1-1.1-2.2-2.2-3.2-3.4-2.9-3.5-6.1-6.9-8.4-10.8-4.7-7.8-9-15.8-13.5-23.7-1.9-3.4-4.3-6.5-6-10-4.4-9-8.7-18.1-12.7-27.3-3.3-7.5-6.4-15.1-9-22.8-2-6.2-3-12.8-4.4-19.3-1.1-4.7-2.1-9.4-3.1-14.2-.8-3.7-1.3-7.5-2.2-11.2-1.1-4.5-2.6-9-3.8-13.5-1-3.7-1.8-7.5-2.7-11.3-.7-3.3-1.5-6.6-2-9.9-.7-4.3-1.2-8.7-1.8-13.1-1.3-6.6-2.2-12.6-2.7-18.6-.4-5.2-.4-10.4-.5-15.5-.1-8.3-.4-16.7-.1-25 .3-8 1.2-16.1 1.8-24.1.5-6.3.9-12.7 1.3-19 .3-4.7.6-9.5.7-14.2.1-3.1-.4-6.2-.4-9.2-.1-6.2-.1-12.3-.1-18.5l.7.7c1.9 1.7 1.4-.5 1.4-1 .3-4 .5-8 .7-12.3zm356.2-427.4c-.1-.1-.3-.1-.5 0l-2.8 3.9 8.9-5-.3-.7zm-25.1 79.4 5.7-9.8-1-.6-5.3 10.4-4.8 8 1 .6zm-153.3 289.6-10-4.8c3.5 7.6 9.7 9.2 17.1 11.3.3.1.6-.2 1-.3l.7-1.3c1 1.2 2.1 2.4 3.3 3.5 1.2.9 2.5 1.7 3.9 2.4l.5-.6c-5.8-5.3-10.6-11.7-18.3-14.7l4.9 4.2c-.5 0-1.1.1-1.5-.1-1.7-1.2-3.4-2.5-5.1-3.7-.5-.3-1.1-.5-1.7-.7l-.2.5zm-134.6-2.5 8-7.7-5.9 2.9c-2.1.9-3.3 2.4-2.1 4.8l-1.7-1.5-4.6 3.2c1 .5 2.2.6 3.2.3 1.1-.6 2.1-1.3 3.1-2zm423.7-287.7c-.1-.1-.3-.2-.5-.1l-1 1.2c-.9-1.3-2-2.6-3.1-3.8-3.2-3.1-6.4-6-9.7-9-1.4-1.3-2.7-2.6-4-3.9.4-3.1-2.2-4.1-4.2-5.6l3.7 5.9c0 .3.1.7.2 1 2.3 3.8 4.3 7.9 7.1 11.4 2.5 3 5.7 5.4 8.8 7.9 1.7 1.3 3.8 2.1 5.8 3.1 1.8 1 3.5 2 5.4 3l-2.7-3.9c.8.5 1.6.9 2.4 1.4l3.6 2.1c2.4 3.1 5.9 3.8 9.1 5.1-1.8-2.1-3.8-4-5.9-5.8s-4.4-3.4-6.6-5.1l-.4.5.5 1.9c-.6-.3-1.2-.7-1.7-1.1-2.1-2.2-4.5-4.2-6.8-6.2zm-20.3-10.8c.1-.8.5-1.8.2-2.5-.8-1.4-1.7-2.7-2.7-3.9-.4-.4-.8-.7-1.3-1l-.7.6 4.5 6.8c1.6 4.4 6 10.2 8.6 11.1-1.5-2.5-2.7-5-4.4-7.1-1.3-1.5-2.7-2.8-4.2-4zm-75.8-45.9 1.5 2.1c2.9-3.9 5.6-7.6 8.3-11.3l-1-.8c-2 2.6-3.9 5.2-6 7.7-.7.6-1.5 1.1-2.3 1.4-.1-.6-.2-1.2-.4-2.2-4.8 5.1-9.6 9.8-11.7 16.5 1.1-1 2.1-2.1 3-3.4 2.2-2.8 4.5-5.5 6.7-8.2l-3.3 7.8c1.9-.6 3.2-2.2 3.5-4.1.6-1.9 1.2-3.7 1.7-5.5zm-360.5 374.2c1.8-3.3 3.6-6.6 5.3-10 .9-1.9 3.2-3.3 2.6-6.2-3 4.7-6 9.1-8.7 13.7-3.5 6.1-5.3 11.8-5.3 15.4.3-.7.4-1.1.6-1.5 1.6-4 2.4-8.3 5.5-11.4-.2 1.2-.4 2.4-.8 3.5-1.8 5.1-3.8 10.1-5.6 15.2l.7.3c2.7-2 7.5-14.9 7.2-19.4zm478.4-308.2-5-.3c2.4 3.1 7 2.7 9.5 6.5l-3.5-1.2-.4.6 16.7 11.5.6-.8c-3.5-4.6-9.1-6.8-13.7-10.1l.4-.6 4 1.3c-.3-.7-.8-1.4-1.2-2-2.1-1.6-4.2-3.2-6.3-4.8-1.3-1-2.7-1.9-4.1-2.8-3.4-1.8-6.8-3.5-10.3-5.2l-.5 1c3.3 1.7 6.5 3.3 9.8 5 1.3.6 2.7 1.3 4 1.9zm-53.5-28.4-5.7-5.5c1.1 6.8 10 19.9 13.6 20.8-1.1-3.1-2.4-6.7-3.7-10.3-.2-.3-.4-.6-.6-.9l-3.6-4.1 3.4 2.6.2-.2-5.6-8.5.2-.1-3.8-4.5-.7.6c.7 1 1.3 2 2 3 1.4 2.4 2.9 4.8 4.3 7.1zm28.5 364.3c-.3.6-.6 1.4-1.1 1.7-3.8 2.2-7.7 4.3-11.7 6.3-.4.2-1.1-.4-1.7-.6l-.2-1c-2.8 2.5-5.6 4.9-8.7 7.6l1.5.2-2 1.7.4.4 5.8-2.8.2.3-6.4 4.9.3.6c.9-.2 1.9-.4 2.8-.5 3.6-.5 7.2-1.6 10.8-1.5 5.6.2 10.5-1.9 15.7-3.6.8 2.4.9 2.4 4.5-.8-.6-3.9-1.2-4.7-4.6-9-1.6-1.8-2.7-4.1-5.6-3.9.1-.8.6-1.6.4-2.1-.6-1.3-1.3-2.5-2.1-3.6-2.5-3.8-5.1-7.6-7.9-11.7-2 3-3.4 5.5-5.2 7.7-2.4 3-5.2 5.7-7.6 8.7-2.2 2.7-4.2 5.5-6.4 8.3-3 3.8-6.1 7.5-9.1 11.3-.3.4-.6.9-.9 1.4-2.4 3.7-4.7 7.4-7.2 11-1.1 1.5-3.3 2.5-4 4.1-2.5 5.7-6.2 10.5-10 15.3-1.1 1.3-2.3 2.6-3.3 4-3.6 5.2-7.3 10.4-10.5 15.8s-5.6 11-8.5 16.5c-3 5.8-6 11.6-9.1 17.3-1.7 3.1-3.4 6.2-5.2 9.2s-3.8 6-5.7 9c-3.8 5.9-8.5 11.2-14.6 14.6-8.7 4.7-17.8 8.5-26.9 12.6-1.6.8-3.3 1.2-5.1 1.2-3.8-.5-5.2.4-5.1 4.1v4.7c-.2 4.8-.5 9.7-.5 14.5s.2 9.8.4 14.7c.2 5.9.4 11.9 1 17.8.4 5 1.2 9.9 2.1 14.8 1.3 6.7 2.3 13.6 4.5 20 3.4 9.7 7.6 19 11.6 28.4 2.2 5.1 4.7 10 7.5 14.8 2.4 3.8 5.2 7.4 8.2 10.8 1.7 1.9 3.6 3.8 5.6 5.5 3.8 3.6 7.2 7.7 11.5 10.5 6 4 13.1 6.2 20.3 6.2 6.4.2 12.9-.9 18.9-3.2 8.5-3.4 15.8-8.8 22.5-15 1.1-1 2-2.3 3-3.3 5.2-4.8 10.2-9.7 13.2-16.2 1.4-2.9 2.7-5.9 4.2-8.7 3.4-6 5.8-12.5 7-19.3.6-4 1.4-8 2.2-12 1.1-5.4 2.6-10.8 3.5-16.2 1.5-7.9 1.9-16 1.3-24.1-.2-2.3-.2-4.7 0-7 .1-2.3.8-4.5.7-6.8 0-4.5-.6-9-.5-13.5 0-9 .3-17.9.3-26.9 0-2.2-.2-4.4-.7-6.5-.2-1-1.3-1.8-1.4-2.8-.3-2.1-.1-4.2-.4-6.4-1-8.9-2.2-17.9-.6-26.9.6-3.2 1.2-6.5 1.8-9.7.3-1.8.8-3.6 1.2-5.5.8-3.8.9-7.9 2.3-11.4 3.2-8 5.7-16.2 7.5-24.7.9-4.5 2-9 2.8-13.5.6-3.3.8-6.6 1.3-10 .5-3.5 1-7 1.5-10.6l.8.1c-.1.6-.1 1.3 0 1.9.2.9.5 1.7.8 2.5.5-4.1.5-4.1-1.8-5.5-2.8 1.7-5.3 3.6-8.1 4.7s-5.8 1.4-8.8 2c2.1 6.1-2.2 12.9-8.5 13.3-1.7.1-3.5-.6-4.8-1.7-1.3-1.3-1.7-3.5-2.6-5.4-3.7 4.9-8 9.6-13.7 12.7-2-5.6.8-10.1 2.9-14.5-1.3-.3-2.4-.2-2.7-.7-.5-.8-.5-1.7-.2-2.5 1.1-1 2-2.2 2.5-3.6.7-2.2 2.3-4.1 3.2-5.4.8-.3 1.6-.6 2.3-1.1 2.3-1.9 4.5-3.9 6.9-5.8 1.5-1.3 3.2-2.3 5.1-3.1 5.5-1.5 11.2-3.3 16.9-5.1zm-360.1-61 2.6-5c-3.6 1.5-27 28.6-27.6 32.8 4.9-3.9 9.6-8.1 14.2-12.3 1-.9 1.8-2 2.8-3-.5 1.1-.7 2.5-1.5 3.3-2.6 2.6-5.5 5-8.1 7.6-5.5 5.6-13 8.7-17.6 15.6-4.1 6.2-11 9.4-17.4 12.9-1.4.8-3 1.3-4.6 1.7-5 1.3-10.2 2.1-14 6.2-1 1.1-2.6 1.5-4 2.3l-.4-.8 6.9-4.7c-.5-.2-1.1-.2-1.6 0-3 1-6.1 2.1-9.1 3.1-1.2.4-2.6.3-3.6 1-2.4 1.4-5.9 2.2-6.4 5.5-.3 2-1.2 2.5-2.6 2.5l-2.2 5.3.4.3 5-3.5.5.8c-1.5 1.2-2.9 2.5-4.2 3.9-1.9 2.5-4.2 4.7-4.4 8.3-.2 4.5-1.2 8.9-1.7 13.3-.7 5.6-1.2 11.3-1.8 16.9-.4 4.3-.5 8.8-1.2 13.1-.4 2.5.4 5.1-1.7 7.6-1.2 1.5-.7 4.5-.8 6.8-.2 6.9.1 13.9-1 20.8-1.1 7.4-.8 14.7-.5 22 .2 5.4 1.4 10.7 1.4 16.1-.2 8.2.6 16.4 2.3 24.3 1.7 7.2 1.8 14.6 4.9 21.6 1.8 4.3 2.1 9.2 3 13.8 1.2 6 2.2 12.1 3.4 18.1 1.3 6.2 2.7 12.4 4 18.6.6 2.7.5 5.7 1.5 8.2 4.5 12.2 8.9 24.4 14 36.4 4.1 9.4 8.7 18.5 13.9 27.4 6.2 10.8 13 21.4 19.9 31.8 2.1 3.1 4.8 5.9 7.8 8.2 2 1.6 4.7 2.1 7.1 3.2 4.7 2 9.4 3.8 14.6 3.5 2.6-.1 5.1-.1 7.7-.3 5.9-.5 11.7-1.2 17-4.1 1.4-.7 2.5-1.9 3.9-2.8 2.7-1.8 5.6-3.1 8-5.2 6.1-5.4 11.2-11.8 15.3-18.9 1.8-3.2 3.9-6.1 5.1-9.7s4.2-6.5 6.6-9.6c3.1-3.9 6.2-7.8 9.5-11.5 3.4-3.8 6.9-7.4 10.3-11.2.7-.7 1-1.7 1.7-2.4 3.4-4 6.9-7.8 10.1-12 5.8-7.6 11.4-15.2 16.9-23 3.5-5 6.7-10.3 9.8-15.7s6.3-10.9 9-16.5c2.3-4.9 4.3-9.9 6-15 1.2-4 2.1-8 2.8-12.1.8-4.4 1.4-8.8 1.7-13.3.3-5.8.2-11.5.2-17.3 0-4.5-.2-9.1-.2-13.6 0-2.7.1-5.5.1-8.2-.1-5.5-.2-10.9-.3-16.3-.1-8.3-.1-16.5-.2-24.8 0-2-.2-4-.2-6-.1-4.3.8-9-.6-12.8-1.7-5-5.2-9.4-8-14.1l-.3 1.2c-2.4-6-4.9-12-7.4-18-.6-1.1-1.1-2.3-1.5-3.5-.9-3.8-1.6-7.6-2.6-11.3-1.1-3.9-2.7-7.6-3.6-11.5s-1.1-7.6-1.6-11.5c-.9-5.6-1.7-11.2-2.9-16.8-.9-4.2-.9-8.8-3.7-12.4-3.9-5.1-8-10.1-11.8-15.3-2.6-3.6-6.3-4.9-10.4-6.2-5.2-1.7-11.2-2.4-13.8-8.5-.6-.7-1-1.5-1.4-2.3-1.3-5-5.5-6.8-9.7-8.4 1.1 1.8 2.5 3.5 4.2 4.9 2.4 1.8 3.4 5.5 7 5.7-.2.5-.3.9-.7 2-2.7-2.5-5.4-4.5-7.3-7-3.1-4-7.9-6.8-9.2-12.2-.1-.3-.3-.5-.5-.6l-6.9-4.4 2 2.9-.3.2-16.8-13.1c-1.2 1-2.4 2-3.5 3.2-4 4.5-7.9 9-11.8 13.4-2 2.2-4 4.4-5.8 6.8-1.5 1.3-1.9 3.3-4.1 3.6zm215.9 73.8c-1.6-1.1.1-1.3.4-2 1.5-3.8 2.5-7.8 4.3-11.4 3.8-7.5 7.6-14.9 9.8-23.1 1.5-5.4 3.3-10.8 5.3-16 1.3-3.6.6-8.5 5.3-10.4.8-2.9 3.4-2.4 5.4-2.9.9-.2 1.9-.3 2.8-.3-.1-1.6-.2-3.1-.4-4.6.5.8.9 1.6 1.2 2.5.2.4.7 1.1.9 1 1.7-.5 3.6-.8 4.9-1.9 2.1-1.6 3.5-4 5.6-5.6 2.9-2.2 5.7-5.1 9.8-4.3 5 .9 9.9 2.1 14.7 3.6 4 1.3 7.8 3.2 12.2 2.2.6 0 1.2.1 1.8.3 1.8.4 3.6 1.1 5.4 1 5.2-.1 10.3-.5 15.5-.7.2.8.7 1.2 1.2 1.2 1.5.1 3.1 0 4.6.2.5.1 1 1 1.3 1.3-5.1.6-9.6 1.2-14.1 1.9-.8.3-1.7.6-2.5 1-2.7.8-5.3 1.5-8 2.2-.3.1-.7-.5-.5-.3l-12.9 11h2.3l-5.6 2.7c.7.4 1.6.5 2.4.2 2.8-.7 5.5-1.7 8.3-2.2 5.7-1 11.4-2 17.1-2.5 6.1-.8 12.3-1.1 18.5-1.1 6.2.2 12.3 1.1 18 4 2.8 1.4 5.8 2.3 8.8 3.5.6-.8 1.1-1.7 1.6-2.6 1.7-3.6 3.3-7.2 5.1-10.8.8-1.6 2-3.1 2.7-4.8 1-2.5 1.5-5.1 2.4-7.6 1.7-4.6 3.5-9.2 5.1-13.9 1.2-3.6 2-7.3 3.3-10.9 2.6-7.5 3.6-15.2 4.5-23 .3-2.4-.2-4.9.6-7 3.1-7.9 2.1-16.3 3.2-24.4.9-7.1 1.3-14.3 2-21.5.3-3.9.8-7.9 1-11.8.2-3.5 0-7 .2-10.5.2-4.1.8-8.3.9-12.4.3-6.2.1-12.4.7-18.5s1.9-11.9 3-17.9c.8-4.8 1.8-9.5 3-14.2 1.9-6.4 4-12.7 6.5-18.8 2.9-7.4 3-15 3-22.7 0-3.4 1.3-7.1-1.9-10-.2-.2.1-.7 0-1-.3-.7-.6-1.4-1-2.1-2.6-3.8-6.2-6.9-10.4-8.8-3.4-1.6-7-2.5-10.5-3.7-1.7-.5-3.4-1.1-5-1.8-1.4-.7-2.5-2-4-2.6-2.1-.7-3.9-2.2-4.9-4.2-.8-1.6-1.8-3-4.4-2.6-2.1.4-4.2-.5-5.4-2.2-.7-1.1-2.4-1.7-3.8-2.2-1.7-.6-3.5-.6-5.1-1.3-3.6-1.5-7.1-3.1-11.2-2.9-.2 0-.5-.6-.7-.9 1 .3 2.1.4 3.2.3 2.2-.5 4.5 0 6.2 1.4 1.3.9 3.2.9 4.9 1.2-.7-.9-1.6-1-2.2-1.5-4.2-3.5-8.7-6.8-12.6-10.8s-8.4-7-11.1-12.2c-2.4-4.2-4.2-8.7-5.5-13.3-.8-3.2-1.9-6.3-3.1-9.4-1.5-3.6-3.4-7-4.8-10.6-1.6-4.3-2.8-8.7-4.2-13.1-.4 1.8-.6 3.6-.6 5.4-.1 4.6-.3 9.1-.5 13.7v4.7c-2.2-4.1-2.2-8.6-1.6-12.8 1.1-7.5.5-14.8-.7-22.1-.7-4.1-1.9-8.2-2.8-12.2-.6-2.5-1.2-5-1.8-7.7-4.9 2.4-6.8 4.9-5.8 7.1-1.5 1-2.9 2.2-4.2 3.5-2.1 2.6-3.8 5.6-5.8 8.3-1.8 2.4-3.6 4.9-5.5 7.2s-4.1 4.1-5.9 6.4c-1.1 1.6-2.1 3.2-3 5-2.2 4-4.3 8-6.5 12-1.5 2.8-3 5.6-4.5 8.4s-2.9 6-4.3 9c-1.6 3.4-3 7-4.8 10.4-1.9 3.6-4 7-6.2 10.4-2 3.1-4 6.2-6.2 9.2-2.3 3.2-4.8 6.4-7 9.6-1.9 2.8-3.4 5.9-5.4 8.6-5.3 7-10.8 14-16.3 20.9-3.1 3.9-6.5 7.6-10 11.1-2.5 2.5-5.4 4.6-8.2 6.8l-1-1c9.4-6.8 16.3-15.9 23.5-24.6-6.2 5.8-12 11.8-18.2 17.5s-12.9 11-19.3 16.5c1.2-.2 2.2-.6 3.1-1.4 3.2-2.3 6.3-4.8 9.5-7.1.4-.3 1-.1 1.5-.2-.2.4-.4 1-.7 1.3-4.7 3.8-9.5 7.4-14.1 11.2-2.1 1.7-3.9 4-6.1 5.6-3.3 2.5-4.6 4.4-5.5 8.7-1.1 5.8-2.5 11.5-3.6 17.2-.9 4.4-1.4 9-2.5 13.3-1.7 6.6-3.4 13.2-5.6 19.6-3.4 9.7-7.1 19.3-10.8 28.9-1.7 4.2-3.9 8.2-5.9 12.3-4 8.4-8 16.8-11.8 25.2-2.9 6.5-6.1 13.1-8.2 19.9-2.8 9.2-4.8 18.7-7 28.1-1 4.3-1.4 8.8-2.1 13 .5.4.6.5.8.6 5.4 1.7 10 4.5 13.1 9.2 2.4 3.6 4.5 7.5 6.5 11.3.7 1.5 1.2 3.1 1.6 4.7.9 2.6 1.7 5.2 2.6 7.8 1.1 3 2.9 6 3.5 9.1 1.6 7.8 2.8 15.6 3.5 23.5.6 7.8.5 15.7.4 23.6-.1 6.8-.6 13.6-1 20.3-.2 2.7-.9 5.4-1.2 8.2-.5 4.4-.9 8.8-1.2 13.1-.4 5-.9 10.1-1.1 15.1-.2 1.5 0 3.1.6 4.5 2.5 5 5.4 9.7 7.8 14.7 2 4.2 3.6 8.7 5.5 12.9 1.5 3.3 3.2 6.4 4.9 9.6 1 1.9 2.3 3.6 3.3 5.5.7 1.2.9 2.7 1.7 3.8 2.2 3 4.8 5.8 6.9 8.9 3.2 4.7 7.7 7.9 12.6 10.4 1.5.8 3.4.8 4.9 1.5 2.3 1 4.5 2.5 6.8 3.3 2.8 1 5.6 1.6 8.5 2 1.1.2 3.3-.8 3.3-1.5.3-3.9.2-7.8.2-11.7 0-2.6-.3-5.3-.1-7.9.6-5.7 1.3-11.3 2.2-16.9.5-3.6 1.3-7.2 2-10.8s1.4-7.4 2.1-11.2c.4-2.5.5-5 1.2-7.4s2.2-4.2 2.9-6.5c1.8-5.5 3.5-11 5.1-16.6 1.2-3.9 2.2-7.9 3.3-11.8.6-2.4 1.1-4.8 1.9-7.2.7-2.1 1.8-4 2.6-6 1.4-3.6 2.5-7.4 4-11 1.4-3.3 3.2-6.5 5-9.7 1.6-3 3.4-6.1 5.2-9.1 2.2-3.6 4.4-7.1 6.8-10.9l-2.1.2c.4-.7.7-1.3 1.2-2.3l-5.1-.4c3.3-2.4 6.6-4.6 9.7-7.1s6-5.6 9-8.4l-.5-.8-3.3 2c-1.2.7-2.4 1.4-3.6 2.1-.3-.8-.6-1.6-.9-2.4-.1-.1-.3-.2.1.1l-8.6 5.2 1.5-5.1c-2.6 1.8-5.1 3.9-7.2 6.2-1.8 2.1-3.5 4.4-4.9 6.8-.8 1.2-1 2.8-1.8 3.9-3.1 4.4-6.5 8.5-9.4 13-2 3-3.2 6.4-4.8 9.6zm-9.4 133.7c5.2-.8 10.2-1.1 15-2.3 5.6-1.5 10.5-4.3 15.5-7.3 5.3-3.1 10.2-6.9 14.3-11.4 7.5-8.2 11.9-18.4 17.1-28 2.3-4.2 4.4-8.7 6.7-12.9 3.5-6.4 7.2-12.7 10.9-19 2.6-4.4 5.1-8.8 8-13 3-4.3 6.5-8.4 9.6-12.6 1.8-2.4 3.2-5.1 4.9-7.6 1.6-2.2 3.6-4 5.1-6.2 4.3-6 8.3-12.2 12.6-18.1 4.1-5.6 8.6-10.9 12.9-16.4 2.1-2.6 4.3-5.2 6.3-7.9 2.5-3.4 4.9-7 7.3-10.5 1.5-2.2 3-4.4 4.7-7-2.8-1.4-5.1-2.9-7.7-3.8-4.2-1.4-8.5-2.5-12.8-3.6-.7-.2-1.5.6-2.8 1.1-2.8-1.2-4.8-2.5-12.7-1s-16.3.4-24.2 2.9c-4.1 1.3-8.5 1.8-12.6 3.2-7.2 2.6-13.9 6-19.5 11.4-2.6 2.5-6 4.3-8.3 7.1-4.4 5.3-8.2 11-12.1 16.6-1.5 2-2.8 4.1-4.1 6.3-2.1 4-4.1 8-6 12.1-1.9 4-3.6 8.1-5.1 12.3-2.1 6.2-3.7 12.4-5.6 18.7-1.3 4.2-2.7 8.3-4.1 12.5-1.3 3.9-2.6 7.8-3.8 11.8-1.3 4.4-2.7 8.7-3.7 13.2-.8 3.3-.8 6.8-1.3 10.2-.9 6.5-2 13-2.8 19.5-.8 7.3-1.3 14.7-1.9 22 0 2.3.2 4.7.2 7.7zm-96.9-221.7h-.7c-.3.5-.9.9-.9 1.4-.5 5.1-1 10.3-1.2 15.5 0 1.3 1.4 2.7 2 4 .4.8.7 1.7 1.1 2.5l-.7.3-2-2.8c-.2 1-.4 2.1-.4 3.1.1 5.3.2 10.6.3 15.9.1 6.2-.2 12.5.3 18.7s1.5 12.1 2.5 18.2c.8 5 1.5 10.1 2.8 15 .9 3.7 2.6 7.1 3.8 10.7.7 1.9 1.1 3.8 1.7 5.7 1.2 3.9 2.2 7.9 3.7 11.7 1.7 3.8 3.5 7.6 5.6 11.2 1.8 3.4 3.8 6.7 5.9 10.3.2-.5.4-1.1.6-1.6.8-6.9 1.5-13.8 2.2-20.7.8-7.4 1.6-14.7 2.4-22.1.2-2.3.1-4.6.2-6.9.1-5.3.5-10.5.4-15.8 0-3.4-.8-6.8-1.1-10.2-.2-2.6 0-5.3-.3-7.9-.3-3.1-.9-6.2-1.5-9.2-.9-4-1.8-8-3.1-11.9-.6-1.9-2.7-3.5-2.9-5.4-.6-5.1-2.6-9.8-5.8-13.8-.9-1.3-1.9-2.5-.9-4.2.1-.1-.2-.4-.3-.7l-.9 1.1c-2.7-2.2-5.2-4.4-7.9-6.4-2.1-1.5-4.9-2.2-4.9-5.7zm255.8-257.2-.3.7c11.9 9.8 26.4 14.5 40.3 20.6 0-3.1-3.2-5.8-6.7-6.8-3.3-1-6.5-2.2-9.6-3.7-1.8-.9-3.3-2.4-5.1-3.3-3.5-1.8-7.2-3.4-10.8-4.8-2.6-1-5.2-1.8-7.8-2.7zm-398.6 305.4c-3.2 1.6-5.8 2.9-8.4 4.2-3.4 1.7-7.3 2.5-9.7 5.9-.7.7-1.4 1.3-2.2 1.8l-7.9 6.5.6.8c10.8-3.7 20.6-8.9 27.6-19.2zm431.3-313.2c-1.1-7.1-19-32.7-23.2-34.1 3.2 5.8 6 12.1 9.8 17.6s8.6 10.6 13.4 16.5zm-172.1-78.6-.9-.9c-2.5 1.7-5 3.3-7.4 5-.6.5-1.2 1.1-1.7 1.7-2.5 2.2-4.7 5.1-7.6 6.6-3.4 1.9-6.2 4.7-8 8.2-2.3 4-3.7 8.4-5.5 12.6-.3.6-.5 1.3-.8 1.9 3.4-4.4 7.3-8.4 9.6-13.5.5-1.2 1.9-2 2.8-3 2.8-2.9 5.4-6 8.3-8.8 3.5-3.5 7.4-6.6 11.2-9.8zm-156.7 346.1 25.5 22.4c-5.3-11.4-13.8-18.7-25.5-22.4zm118.3-272.4c4.1-4.8 8.4-9.4 12.2-14.4s7.1-10.1 10.7-15.1c-6.9 5-17.9 18.6-22.9 29.5zm171.9-28.9c0 6.5 11.6 23.3 17.5 23.7-4.3-9.1-12.6-15.1-17.5-23.7zm-16.9 399.6c-3 1.2-4.7 3.4-4.2 5.6.7 2.4 3.1 3.9 5.6 3.6 1.5-.2 2.9-1.5 4.4-2 3.5-1.2 3.7-4 3.4-7-.1-1.4-.8-2.4-2.5-1.7-.5.2-1.1.3-.9.2.1 1.9.1 3.9-.2 5.8-.1.5-2.1.9-3 .7-2.7-.5-2.7-2.9-2.6-5.2zm-395.6-43-.4-.8-28 15c11.7-1.4 20.7-6.4 28.4-14.2zm34.3-50c-6.4 3.3-12.6 6.8-15.3 13.8-.1.2-.3.5-.5.6l-5.8 6.7.9.8c3.5-3.6 7-7.2 10.6-10.8 1-1 1.4-1.9.9-3.2 0-.1.2-.3.3-.4l.9.9zm374.2 54.7 14.4 19.7c.9-5.5-9.3-19.2-14.4-19.7zm1.7 107c-3.6 4.7-4.3 21.9-1.5 27.6.5-9.5 1-18.6 1.5-27.6zm-110.9-466.9c-4.5 8.6-11.1 16-13.1 25.7 5.5-7.9 10.6-16.1 13.1-25.7zm-30-19.2c-5.4 4.3-7.8 9.9-10.4 15.4 1-.5 1.9-1.2 2.6-2 2.2-2.3 4.6-4.5 6.7-7 1.4-1.6 2.5-3.6 1.1-6.4zm135.4-3.7c2.4 7.6 7.6 13.3 12.3 19.4-2.4-7.4-6.1-14.2-12.3-19.4zm-394.4 371.1.1.2c3.6-1.8 7.1-3.7 10.8-5.3 4-1.8 6.3-6.9 6.7-9.3zm360.5-364.9.8-.1c-.4-2.6-.7-5.2-1.2-7.7-.2-1.2-1.4-2.4-1.1-3.4 1.1-4.7-1.2-8.5-2.9-13.1-1.5 4.3.2 7.3 2.4 10.2h-2.3c1.4 4.8 2.9 9.4 4.3 14.1zm-362.8 342.4-15.1 14.6.6.6c2.9-2.2 5.7-4.6 8.8-6.5 3.3-2.2 4.7-5.3 5.7-8.7zm268.3-374.8-.4-.6c-2.4 1.5-5 2.9-7.2 4.7-2.2 1.7-4.3 3.6-6.3 5.6s-3.8 4.2-5.7 6.4l.4.3zm38.7 32.4-.3-.5c-1.1.8-2 1.7-2.8 2.8-1.7 2.9-3.3 5.9-4.8 8.9-2 3.9-3.8 8-5.7 11.9l.8.4zm-44.2 32.2.6.4c4.6-6.2 9.2-12.4 13.8-18.7-6.5 4.9-10.9 11.3-14.4 18.3zm109.2-28.4c0-5.4-3.9-18-6.3-19.2 1.7 6.6 2.5 13.4 6.3 19.2zm33.1-14.7-.7.7c2 3 3.9 6.1 6 9.1 4.2 5.9 5.8 7.4 7.9 7.1zm-2.7 66.4c-.3-1.2-.2-1.5-.4-1.7-3-2.4-5.9-4.9-8.9-7.3-.7-.6-1.4-1.1-2.1-1.7l-4.6-3.6c-.2.2-.4.4-.6.6 1.6 4.9 7.4 5.2 10.1 9 1.4 2 3.9 2.9 6.5 4.7zm-22-66.1c1.6 7.5 6 13 9.3 19-1.9-6.6-3.9-13.2-9.3-19zm-240 342.1c-1.7-6.7-7.1-13.9-11.6-14.7 3.8 4.8 7.7 9.7 11.6 14.7zm110.7-287.2c4.4-3.9 7.7-8.8 9.6-14.3-5.5 3.8-7.5 9.1-9.6 14.3zm24.6-65 .5.7c6.6-3.4 15.7-9.9 17.3-13.5zm-283.1 346.7.6 1.2c6.2-.2 9.5-5.1 13.6-8.9zm442.2-324.3c.3-3.3-6-13.8-9.3-15-.9 3.9 3 5 4.4 7.7s3.2 5 4.9 7.3zm-25.9 471.7h-.7c-1.8 7.5-4.6 14.7-3.3 22.7zm24.2-470.8 9.9 22.3c-2.1-8-4.4-16-9.9-22.3zm-207.5 37 1 .3 6.6-17.8c-2.5 2.5-4.7 5.2-5.1 8.9-.2 1.9-1.2 3.7-1.8 5.6-.4.9-.5 2-.7 3zm57.4-18.2.9.6 11.4-20.4-1.1-.6c-3.7 6.8-7.5 13.6-11.2 20.4zm-285.1 307.1c-.3 0-.6-.1-.7 0-4.5 4.5-9.1 9.1-13.8 13.8 2.1.6 11-8.3 14.5-13.8zm407.5 144.6c3-4.1 5.7-17.6 4.6-21-1.6 7.1-3.1 14.1-4.6 21zm8.9-459.5-.8.8 10.8 13.8.7-.5c-2.7-5.4-6.8-9.6-10.7-14.1zm-147.5 3.5-.8-.5-8.6 13.6c4.4-3.3 7.6-7.9 9.4-13.1zm18.5-37.5.9 1 10-8.7-.7-.8c-3.4 2.9-8.3 4-10.2 8.5zm84.7 6.7c.5-3.7-4.9-17.8-6.9-19.4 2.3 6.6 4.6 13 6.9 19.4zm32.4 33.5 1-.5c-2.5-5.4-2.8-11.8-7.8-16.1zm-427.4 307.7.6 1.2 15.1-9.1-.6-1zm282.5-247.7c3-3.8 5.9-7.3 9.1-11.3-4.7 1.8-9.9 8.3-9.1 11.3zm9.1-70.8c4.5-3.1 6.3-8.3 9.2-12.7-4.7 3-5.9 8.6-9.2 12.7zm133.9 357.7c.7 3.7 3.8 7.3 6.7 7.6-1.2-3.5-2.5-6.9-6.7-7.6zm15.8-353.4.8-.6-7.7-10.3-.6.4c1.2 4.4 4.4 7.4 7.5 10.5zm-271.6 322.2c-.1-4-1.4-7.8-3.6-11.1-.3-.4-1.1-.5-1.7-.7 0 .6.1 1.3.3 1.9 1.7 3.3 3.4 6.6 5 9.9zm138.4-338.8c-2.6 3.4-5.2 6.8-7.8 10.1 4.1-1.7 4.1-1.7 7.8-10.1zm-5.9-13.5-.8-.8c-2.5 3.4-7.8 3.6-9 8.4l.6.7zm-7.9 11c-3-1.2-6.5 3.3-6 7.6zm33.2-7.7c-4.1.4-9.1 6.5-8.1 8.6zm110.7 49.4-8.8-12.2-.6.4c2.5 4.3 4 9.3 9.4 11.8zm-25-27.3-1 .4c1.5 4.6 4.5 8.5 6.8 12.8l.8-.4zm26 442.5c1.1-4.7 2.1-9.4 3.2-14.1-4.1 4.1-2.6 9.4-3.2 14.1zm-429.9-114.4c-4.9 2.2-7.6 6.1-9.8 10.5zm290.8-283.2c1.8-2.8 5.4-4.5 5.5-9-4.5 4.3-5.1 5.2-5.5 9zm143.4 317.9c-3-3.6-6-7.3-9-10.9l-.5.5c2.8 3.8 4.7 8.3 9.5 10.4zm-14.2 94.2-.5-.3c-.6 2.2-1.3 4.4-1.8 6.7s-.6 4.5-.9 6.7l.6.3c.4-.6.8-1.3 1-2 .6-3.8 1.1-7.6 1.6-11.4zm-289.6-140.7 8.9 5.1c-2-3.2-4.3-6.1-8.9-5.1zm184.6-344.2-.7-.6-2.7 3c-1 .9-1.9 1.9-2.7 3-.7 1.2-1.2 2.4-1.7 3.6l.8.4zm-161.5 328.7-.3 1.1 9.7 4.6.2-.6-2.4-3.1v.5zm96.8-239.1 1.2.9 6.5-9-.9-.7c-2.3 2.9-4.5 5.9-6.8 8.8zm-224.6 250.8-.9-1-8.4 7.4.8.9zm226.3-264.1.6.4c2.9-2.9 5.7-5.8 6.7-9.9l-.8-.5zm42.3-60.2c2.8-2.9 5.6-5.8 8.4-8.8l-.8-.8c-3.1 2.8-6.1 5.5-7.6 9.6zm-2.2 12.4-.3-.3c-2.1 1.7-4.3 3.4-6.2 5.3-.5.5-.2 1.8-.2 2.6l1 .2zm103.8 0c-.6 3.9 1.3 7.8 4.9 9.5zm-12.6-61.4.4-1c-2.4-3-5.8-2.9-9.2-2.9zm-334.3 354.1.3 1.1 13-4.2-.2-.6zm322.3-324.3 1.2-.2c-.8-3.9-1.5-7.9-2.3-11.8l-1.1.2c.7 3.9 1.5 7.9 2.2 11.8zm-251.4 338.1-.6 1 10.5 6.2.6-1zm21.5 16.9 8.7 8.2.5-.6c-3-2.5-4.7-6.6-9.2-7.6zm279-293.5c.2-.3.3-.5.5-.8l-8.2-6.9c2.1 3.2 4.2 6.3 7.7 7.7zm17.8 383.9-.6.1v14.8h.6zm-21.9-400.6.8-.4-5.3-10.1-1.1.6zm-49-72.3c1.5 2.7 2.8 4.9 4.3 7.6.4-1.3 1-2.6.7-2.8-1.6-1.3-1.7-4.3-5-4.8zm23.1 40.6 1.2-.3-4.4-10.9-.9.4zm-287.5 306.7v-.8l-9.9-.6c6.4 2.7 7 2.8 9.9 1.4zm332.6 154.6-.9-.2c-.8 4.2-1.5 8.3-2.3 12.5l.9.2zm-46.7-437.3.9-.3c-1-2.8-.1-6.3-3.5-8.2zm-61.5-36.2c5.1-1.9 7.7-4 8.6-6.9zm-273.7 350.4-.7-.7-7 7 .4.4zm-71.7 17-1-.5-4.8 9.1.8.4zm438.8 19.6c-.6-2.6 2.8-4.2.1-6.6l-2.6 4.8zm31.6-313.8c-.6-2.4-5.2-5.9-8.2-6.1zm-11.7-19.7c.4 3.9 3.2 5 4.8 6.9l.8-.6zm-415.3 277.2c5.7.8 5.8.8 7.2-2.4zm365.8-301.6.8-.2-3.3-11.4-.6.2zm-108.5-2.8c-4.7 3.7-5.1 4.5-5.2 7.6zm16.6-41.6-.8-1.1-5.9 4.3.7.9c1.8-1.6 4.5-2 6-4.1zm-266.3 355c-3.4-1-4.8 1.1-6 3.6zm-6 23.2c6-2.8 6-2.8 6.4-5.1zm342.6-398-.3.9 4.3 3.7.5-.4-2.2-3.2 1.6-1.4zm85.1 61.4-1 .4c1 2.5 2.1 4.9 3.1 7.4l1-.4zm-221.7 117.9 4.6-5.4-.4-.3-6.1 5.2zm132.6-172.3 1 .4c.6-1.5 1.2-3 1.8-4.5l-.8-.3c-1.1 1.2-3.2 2-2 4.4zm-350.6 365.4-.5-.9-7.1 3.4.4.8zm406-346.5-.7.8 6.6 5.3.5-.6zm-131 83.8-.8-.6-4 5.9 1 .6zm-173.7 258.8-.4 1 7 3.1c.1-.3.2-.5.4-.8zm-92.3 2.6-.5-.8-6.7 3.5.5.9zm-38.6 20.5.6.7 5.6-4.5-.7-.8zm309.5-348.3 1 .9 5.1-5.2-.3-.3zm6.1-25.3.5 1 7.7-3.5-.4-.8zm-3.7 58.8-1-.7-3.7 6.7.6.4zm128.9 463-.8-.1-2 8.3.8.2zm-120.3-453.3 1.1.5 2.6-6-.9-.4zm157.9 49.4-.2 1 2.8 2.3.8-.3c-.2-.7-.1-1.7-.6-2-.8-.5-1.8-.8-2.8-1zm-122.3-102.1.5.5 5.2-6.9-.7-.5zm94.2 401.2.8-.6-4.5-5.5-.6.5zm-202-327.2-1.2-.2-1.4 6.5.8.2zm48.4-70.2-.9-.9-4.8 5.2.4.4zm44.3 3.3c-2.5.6-4.4 2.6-5 5.2zm116 57.7.9-.6-3.6-5.5-.8.5c1.2 1.9 2.4 3.8 3.5 5.6zm-405.8 295.4.9.8 4.4-5.2-.6-.5c-1.6 1.6-3.2 3.3-4.7 4.9zm283-356.7.6.6 5.2-4.7-.5-.6zm142.3 64.8-.7.3 2.7 6.5.9-.4c-.9-2.1-1.9-4.3-2.9-6.4zm-15.1 25.7-6.7-2.6c2 2.4 3.8 3.5 6.7 2.6zm-186-36.5-.7-.5c-1.3 1.8-2.6 3.6-3.9 5.4l.8.6zm-22.8 46.8.9.7c1-1.2 2-2.4 3-3.6l-1-.8z" fill="#903373"/><path d="m315.3 34.2 7.5-5.5.8.9-10.4 10-.5-.4c.5-1.2 1-2.3 1.6-3.5z" fill="#fff"/><path d="m3.9 465.2-.7-.7c.1-3.3.1-6.6.3-9.9 0-.5.5-1 .8-1.5.3.6.4 1.3.5 2-.1 1.8-.3 3.5-.4 5.3s-.3 3.2-.5 4.8z" fill="#903373"/><path d="m336 17.8c1.2-1.1 2.4-2.1 3.8-3 1.9-.8 3.8-1.5 5.8-2.1l.3.6z" fill="#903373"/><path d="m500.4 50.6 5 9.2-.7.4-5-9.1z" fill="#903373"/><g fill="#fff"><path d="m448.3 113.6c.2.3.5.9.7.9 4-.3 7.6 1.4 11.2 2.9 1.6.7 3.5.7 5.1 1.3 1.4.5 3 1.1 3.8 2.2 1.2 1.7 3.3 2.6 5.4 2.2 2.5-.3 3.6 1 4.4 2.6 1 2 2.8 3.5 4.9 4.2 1.4.6 2.6 1.9 4 2.6 1.6.7 3.3 1.3 5 1.8 3.5 1.2 7.2 2.1 10.5 3.7 4.2 1.9 7.8 5 10.4 8.8.4.7.7 1.4 1 2.1.1.3-.1.9 0 1 3.2 2.8 1.9 6.6 1.9 10 0 7.7-.1 15.3-3 22.7-2.4 6.2-4.6 12.5-6.5 18.8-1.2 4.7-2.2 9.4-3 14.2-1.1 5.9-2.4 11.9-3 17.9s-.4 12.4-.7 18.5c-.2 4.1-.7 8.3-.9 12.4-.2 3.5 0 7-.2 10.5-.2 3.9-.7 7.9-1 11.8-.6 7.2-1 14.4-2 21.5-1 8.1-.1 16.5-3.2 24.4-.8 2.1-.3 4.7-.6 7-.9 7.8-1.9 15.6-4.5 23-1.2 3.6-2.1 7.3-3.3 10.9-1.6 4.7-3.5 9.2-5.1 13.9-.9 2.5-1.5 5.1-2.4 7.6-.7 1.7-1.9 3.1-2.7 4.8-1.8 3.6-3.4 7.2-5.1 10.8-.5.9-1 1.8-1.6 2.6-3-1.2-6-2.1-8.8-3.5-5.7-2.9-11.8-3.8-18-4-6.2-.1-12.3.3-18.5 1.1-5.7.6-11.5 1.5-17.1 2.5-2.8.5-5.5 1.5-8.3 2.2-.8.3-1.6.2-2.4-.2l5.6-2.7h-2.3l12.9-11c-.2-.1.2.4.5.3 2.7-.7 5.3-1.4 8-2.2.8-.4 1.6-.7 2.5-1 4.5-.6 9.1-1.2 14.1-1.9-.3-.4-.8-1.2-1.3-1.3-1.5-.2-3.1-.1-4.6-.2-.5 0-.9-.4-1.2-1.2-5.2.3-10.3.6-15.5.7-1.8 0-3.6-.7-5.4-1-.6-.2-1.2-.3-1.8-.3-4.4.9-8.2-1-12.2-2.2-4.8-1.5-9.7-2.7-14.7-3.6-4.1-.8-7 2.1-9.8 4.3-2.1 1.6-3.6 4-5.6 5.6-1.3 1-3.2 1.3-4.9 1.9-.2.1-.7-.6-.9-1-.3-.9-.7-1.7-1.2-2.5.1 1.5.2 2.9.4 4.6-1 0-1.9.1-2.8.3-2 .5-4.7-.1-5.4 2.9-4.8 1.9-4 6.7-5.3 10.4-1.9 5.3-3.8 10.6-5.3 16-2.2 8.2-6 15.6-9.8 23.1-1.8 3.6-2.8 7.6-4.3 11.4-.3.7-2 1-.4 2-.8.9-1.6 1.9-2.3 2.9-1.3 2.6-2.5 5.3-3.7 7.9l.8.4c2-3.6 3.9-7.2 5.9-10.8 1.6-3.2 2.9-6.7 4.8-9.6 2.9-4.5 6.3-8.6 9.4-13 .8-1.1 1-2.7 1.8-3.9 1.5-2.4 3.1-4.7 4.9-6.8 2.2-2.4 4.6-4.4 7.2-6.2l-1.5 5.1 8.6-5.2c-.3-.3-.1-.2-.1-.1.3.8.6 1.6.9 2.4 1.2-.7 2.4-1.4 3.6-2.1l3.3-2 .5.8c-3 2.8-5.9 5.8-9 8.4s-6.4 4.8-9.7 7.1l5.1.4c-.5.9-.8 1.5-1.2 2.3l2.1-.2c-2.4 3.8-4.7 7.3-6.8 10.9-1.8 3-3.5 6-5.2 9.1-1.7 3.2-3.5 6.4-5 9.7-1.5 3.6-2.6 7.3-4 11-.8 2-1.9 4-2.6 6-.8 2.3-1.2 4.8-1.9 7.2-1.1 4-2.1 7.9-3.3 11.8-1.6 5.5-3.3 11.1-5.1 16.6-.7 2.2-2.3 4.2-2.9 6.5s-.8 4.9-1.2 7.4c-.6 3.7-1.4 7.4-2.1 11.2s-1.4 7.2-2 10.8c-.8 5.6-1.6 11.3-2.2 16.9-.3 2.6.1 5.2.1 7.9 0 3.9.1 7.8-.2 11.7 0 .6-2.2 1.6-3.3 1.5-2.9-.4-5.7-1-8.5-2-2.4-.8-4.5-2.3-6.8-3.3-1.6-.7-3.4-.7-4.9-1.5-4.9-2.6-9.4-5.7-12.6-10.4-2.1-3.1-4.7-5.9-6.9-8.9-.8-1.1-1-2.6-1.7-3.8-1-1.9-2.3-3.6-3.3-5.5-1.7-3.2-3.4-6.3-4.9-9.6-1.9-4.3-3.5-8.7-5.5-12.9-2.4-5-5.3-9.7-7.8-14.7-.6-1.4-.7-3-.6-4.5.3-5 .7-10.1 1.1-15.1.4-4.4.7-8.8 1.2-13.1.3-2.7 1-5.4 1.2-8.2.5-6.8.9-13.5 1-20.3.1-7.9.3-15.8-.4-23.6-.8-7.9-2-15.7-3.5-23.5-.6-3.1-2.3-6-3.5-9.1-.9-2.6-1.8-5.2-2.6-7.8-.4-1.6-.9-3.2-1.6-4.7-2.1-3.8-4.1-7.7-6.5-11.3-3.1-4.7-7.8-7.5-13.1-9.2-.2 0-.3-.2-.8-.6.6-4.2 1.1-8.6 2.1-13 2.1-9.4 4.1-18.9 7-28.1 2.1-6.8 5.2-13.4 8.2-19.9 3.8-8.5 7.9-16.8 11.8-25.2 1.9-4.1 4.2-8.1 5.9-12.3 3.8-9.6 7.5-19.2 10.8-28.9 2.2-6.4 4-13 5.6-19.6 1.1-4.4 1.6-8.9 2.5-13.3 1.2-5.8 2.5-11.5 3.6-17.2.9-4.3 2.2-6.2 5.5-8.7 2.2-1.6 4-3.8 6.1-5.6 4.7-3.8 9.4-7.5 14.1-11.2.4-.3.5-.9.7-1.3-.5 0-1.2-.1-1.5.2-3.2 2.3-6.3 4.7-9.5 7.1-.9.7-2 1.2-3.1 1.4 6.5-5.5 13.1-10.8 19.3-16.5s12-11.7 18.1-17.5c-7.3 8.7-14.1 17.8-23.5 24.6l1 1c2.7-2.3 5.7-4.3 8.2-6.8 3.5-3.5 6.9-7.2 10-11.1 5.6-6.9 11-13.8 16.3-20.9 2-2.7 3.5-5.8 5.4-8.6 2.2-3.3 4.7-6.4 7-9.6 2.1-3 4.2-6.1 6.2-9.2 2.2-3.4 4.3-6.9 6.2-10.4 1.8-3.4 3.2-6.9 4.8-10.4 1.4-3 2.8-6 4.3-9s3-5.6 4.5-8.4c2.1-4 4.3-8 6.5-12 .9-1.8 1.9-3.4 3-5 1.8-2.2 4-4.2 5.9-6.4s3.8-4.7 5.5-7.2c2-2.7 3.7-5.7 5.8-8.3 1.3-1.3 2.8-2.4 4.3-3.4-1-2.2.9-4.7 5.8-7.1.6 2.7 1.2 5.2 1.8 7.7 1 4.1 2.2 8.1 2.8 12.2 1.2 7.3 1.8 14.7.7 22.1-.6 4.3-.7 8.8 1.6 12.8.2 1.7.3 3.3.5 5 .2 4.3 3.4 7.2 5.3 10.6.2-.1.5-.2.7-.3 1.3 2.8 2.5 5.7 3.8 8.5.9 2.1 1.8 4.2 2.8 6.3v-.1c1.4 1.7 2.8 3.5 4 5.4 2.6 4.6 6.7 7 11.7 8.2zm-106.8 13.3-6.8 8 1 .8c1.5-1.9 3.1-3.7 4.4-5.6.6-1.1 1-2.2 1.4-3.2.2 0 .4.2.6.3 1.5-2 3-4 4.5-6l-.9-.7zm72.1 102.7 1.4-.5.7.2-.2-1c2.3-.9 4.5-1.8 5-4.7l4.9-2.4 1.8.2c-1 1.3-2.2 2.5-3.5 3.5-1.7 1-3.5 1.9-5.4 2.7l.3.8h1.9l-10.4 13.6 1.8-.1v2.6h.6l-1.3 1.8c2 0 4 .6 5.4-.1 3.8-2 7.4-4.6 11-6.9 2.6-1.7 5.3-3.5 8.2-5.4.4 1.4.9 2.7 1.5 4 .6 1.1 1.3 2.5 2.4 3 10.4 5.2 18.7 2.1 24.7-7.4 2.4-3.5 5-6.9 7.9-10 1-.9 2.1-1.6 3.4-2.1 2.7-1.3 6-1.9 8.1-3.9 5.4-5.3 12.3-9.2 14.4-17.6.9-3.8 3-7.3 1.9-11.4l4.9-.5c0-.2.1-.5.1-.8-.6-.6-1.3-1.1-2-1.5-3-1-6-1.9-9.1-2.9.7-.9 1-1.3 1.6-2.1-3.1.5-5.1 5-7.8 1.8-1.6.7-2.8 1.2-4 1.6-.4.2-.9.1-1.3.3-2.5 1.4-4.9 3-7.3 4.5-.3.2-.7.6-.9.5-1.8-.7-2.3.5-3.1 1.6-.8 1-2.1 1.5-3.3 2.2-.2-1.1-.3-1.8-.5-2.5l-3.3 3c-.9-2-1.8-.3-2.5.1-2.2 1-4.2 2.3-6.3 3.2-.8.3-1.9-.2-2.8-.3l-10.3 4.9 1.5-2.4c-2.5 0-3.8 3.5-6.9 1.8l-3.6 3.9c-.1-.8-.2-1.4-.3-2-.8.2-1.8.1-2.3.5-1.8 1.5-3.5 3.2-5.3 4.8-.1-.5-.2-1-.4-2.1l-2.8 4.2-.6-.3 2.9-4.8-.5-.5-3 3-.5-1.1-1.8 2.6v-2.7c-3 .5-5.3 2.7-6 5.6-.1.4-1.7.4-3 .6-.1.5-.4 1.6-.7 2.7h-.3v-4.9c-1 1.2-2.5 2.4-3 3.9-.6 1.7-1.6 3.4-2.1 4.9-.9 3-.6 6.4-.4 9.6.2 1.9 3.4 2.6 5 1.3.5-.4 1-.9 1.6-1.3l1.3 1.5-1.7 1.9.3.4zm-59.2-121.9-5 7.5 1 .7 4.8-7.5c1-.9 1.9-2 2.6-3.1 3-5.2 5.8-10.5 8.7-15.8-.9-.2-1.4 0-1.6.4-1.4 2.7-2.6 5.4-4.1 8-2.1 3.4-4.3 6.6-6.4 9.8zm-5.2 248.7c-2-3.8-.9-7.5.5-11.3-2.4.7-4 2.9-3.9 5.4.1 2.1 1.1 4.2 1.8 6.4l1.6-.5c1.7 3.7 5.2 5 8.6 6.4 1.9.8 4.1.4 5.8 2.2.8.9 2.6 1.2 4 1.2 3.8 0 7.7-.3 11.5-.5 2.6-.2 5.1-2.9 4.8-5-.3.3-.5.5-.8.8-2.6 2.9-3.6 3.4-6.7 1.6-1.7-1-3.1-2.3-5.3-1.8.7-2.9 1.5-5.9 2.2-8.8l-.8-.2c-.8 3.2-1.6 6.4-2.4 9.6-.4.2-.7.4-1.1.6-1.7 1.2-3.1 2.6-5.1.1-1.9-2.3-3.4-4.9-4.3-7.8-1.4-4.2-.8-7.7.9-11.5 1.1-2.5 2.1-5 2.8-7.6 1.4-5 2.4-10.2 3.8-15.2 1.5-5.6 3.5-11 4.5-16.6 1.5-8.7 2.3-17.5 3.1-26.2.5-5.7.4-11.4.7-17.1.3-5.9.8-11.8-.1-17.7-.5-3.2-.9-6.5-1.6-9.7s-1.1-6.5-2.8-9c-4-5.8-8.7-11-13.2-16.5-.5-.6-2-1.5-2.2-1.3-2 1.8-3-.3-4.3-1-1.8-1.1-3.5-2.6-5.8-1.3-.3.1-.7 0-.9-.2-2.2-1.1-4.3-2.5-6.3-4-1.8-1.5-2.4-1.2-2.8.8l-12-7.2-.8 1 5.2 4.3c-3.2 2.2-4.7-1.8-7.8-1.8l2.5 2.2c-.7.1-1.1.3-1.4.2-2.9-1.6-5.9-1.2-8.8-.4-2.4.6-5.5.5-6.4 3.8-.1.4-.8.8-1.3.9-3 .9-6.1 1.6-9.1 2.6-1.2.4-2.3 1.1-3.1 2-3 3.7-7.7 5.9-9.5 10.9l-1.8.1c.3 1.2-2.2 6.8-3.3 6.8-2.3 0-1.8 2-2.5 3-.1.2.4.8.2 1.1-.8 1.6-2.1 3-2.6 4.6-1.9 6.9-3.5 13.9-5.4 20.7-1.5 5.7-1.7 11.7-4.7 16.9-.7 1.5-1.3 3-1.7 4.5l2-1.2-1 3.5.7.3c.4-.4.7-.9 1.1-1.4 5-7.9 7.9-16.6 9.5-25.9.9-4.8 1.8-9.8 3.7-14.2 3.2-7.7 7.6-14.9 13.1-21.2 4.3-4.8 9.3-9.3 16-10.7 2.5-.5 5.1-.7 7.6-1 4.4-.5 8.9-2.1 13 1.1.5.3 1.1.5 1.8.6 1.5.2 3 .6 4.4 1.1 4.2 2 8.2 4.5 12.5 6.4 7.3 3.1 14.1 6.8 19.6 12.7 2.4 2.6 4.9 5 5.5 8.8.9 5.4 2.5 10.7 1.9 16.4-.5 5.3 0 10.8-.2 16.1-.1 3.7-.6 7.4-.7 11.1-.1 3.5-1.8 6.7-1.2 10.5.5 3-.5 6.4-1.2 9.5-1.2 5.3-2.6 10.6-3.9 15.9-1.5 6.3-2.7 12.6-4.3 18.9-1.4 5.2-2.7 10.4-5.5 15-.9 1.5-.6 3.7-.9 5.6l.6.1.9-4.2h.2l.4 4.6zm-7.6-123c.1-.5.1-1.1 0-1.6-1.2-3.2-4-4.8-7.9-4.8-.6 0-1.3-.1-1.9-.2-2.1-.2-4.3-.3-6.5-.7-1.2-.2-2.3-1-3.5-1.2s-2.3.4-3.4.3c-4.5-.5-8.9-.7-13 1.7-2 1.1-3.8 2.5-5.7 3.8l.2.1-5 4.1c.1-1.3.1-1.9.2-2.8-.7.3-1.3.6-1.9 1.1-1.2 1.5-2.3 3.2-3.5 4.7s-3.1 3.1-4.1 4.9c-4.3 7.6-5.9 16.2-8 24.6-1.5 6.1-1.8 12.6-6.3 17.7-.1.2-.2.5-.1.8 0 .8.1 1.6.1 2.7 0 0 .5.3.8.1 3.2-1.6 6.4-3.2 8.4-6.5 1-1.7 1.8-3.4 2.5-5.3 1.6-3.7 3.9-7.2 6-11.1 3.4 1.4 7.1.4 10.8-.6 6-1.6 10.5-5.2 12.1-11.3.9-3.3.6-6.9 1-10.4.2-1.9.2-4.1 1.2-5.5 2.7-3.6 6.2-6.3 11.2-5.3 1.1.1 2.1.1 3.2 0 4.2.3 8.4.5 13.1.7zm30.7-158.3c-3.5 3.4-6.8 10.8-5.9 13.1zm35.1 166.6.7.5 6.6-7.9-.8-.7zm-5-24.7c-3.2 3-3.8 5.4-2.4 9.1 0-3.2-.2-6.5 2.4-9.1zm-23.8-153.3c.7-1.6 1.3-2.9 1.9-4.3.5-1.2 1.1-2.3 1.6-3.5-3.8 4.5-4.5 6.4-3.5 7.8z"/><path d="m172.5 393.5c2.6 6.1 8.6 6.8 13.8 8.5 4 1.3 7.7 2.6 10.4 6.2 3.8 5.2 7.8 10.2 11.8 15.3 2.8 3.7 2.9 8.2 3.7 12.4 1.2 5.6 2 11.2 2.9 16.8.6 3.8.8 7.7 1.7 11.5s2.5 7.7 3.6 11.5c1 3.7 1.7 7.5 2.6 11.3.4 1.2.9 2.4 1.5 3.5 2.5 6 4.9 12.1 7.4 18l.3-1.2c2.8 4.7 6.3 9.1 8 14.1 1.4 3.9.5 8.5.6 12.8.1 2 .2 4 .2 6 .1 8.3.1 16.5.2 24.8.1 5.5.2 10.9.3 16.3 0 2.7-.1 5.5-.1 8.2 0 4.5.2 9.1.2 13.6 0 5.8.1 11.6-.2 17.3-.3 4.5-.9 8.9-1.7 13.3-.6 4.1-1.5 8.2-2.8 12.1-1.7 5.1-3.7 10.1-6 15-2.7 5.6-5.9 11.1-9 16.5s-6.3 10.6-9.8 15.7c-5.4 7.8-11.1 15.4-16.9 23-3.1 4.1-6.7 8-10.1 12-.6.8-1 1.7-1.7 2.4-3.4 3.7-7 7.4-10.3 11.2s-6.5 7.6-9.5 11.5c-2.4 3.1-5.4 6.1-6.6 9.6s-3.3 6.5-5.1 9.7c-4 7.1-9.2 13.5-15.3 18.9-2.3 2.1-5.3 3.5-8 5.2-1.3.9-2.5 2-3.9 2.8-5.3 2.8-11.1 3.6-17 4.1-2.6.2-5.1.2-7.7.3-5.2.3-10-1.5-14.6-3.5-2.4-1-5.1-1.6-7.1-3.2-3-2.3-5.6-5.1-7.8-8.2-6.9-10.5-13.6-21-19.9-31.8-5.1-8.9-9.8-18-13.9-27.4-5.1-11.9-9.5-24.2-14-36.4-.9-2.6-.9-5.5-1.5-8.2-1.3-6.2-2.8-12.4-4-18.6-1.2-6-2.2-12-3.4-18.1-.9-4.7-1.2-9.6-3-13.8-3-7-3.1-14.4-4.9-21.6-1.8-8-2.5-16.2-2.3-24.3 0-5.4-1.2-10.7-1.4-16.1-.2-7.3-.6-14.6.5-22 1-6.8.8-13.8 1.1-20.8.1-2.3-.4-5.4.8-6.8 2.1-2.5 1.3-5.1 1.7-7.6.7-4.3.8-8.7 1.2-13.1.5-5.6 1.1-11.3 1.8-16.9.5-4.5 1.5-8.9 1.7-13.3.1-3.7 2.5-5.8 4.4-8.3 1.3-1.4 2.7-2.8 4.2-3.9l-.5-.8-5 3.5-.4-.3 2.2-5.3c1.4-.1 2.2-.5 2.6-2.5.5-3.3 3.9-4 6.4-5.5 1-.6 2.4-.6 3.6-1 3.1-1 6.1-2.1 9.1-3.1.5-.2 1.1-.2 1.6 0l-6.9 4.7.4.8c1.4-.8 3-1.2 4-2.3 3.8-4.1 9-4.9 14-6.2 1.6-.4 3.1-.9 4.6-1.7 6.4-3.5 13.2-6.7 17.4-12.9 4.6-6.9 12.1-10 17.6-15.6 2.6-2.6 5.5-5 8.1-7.6.8-.8 1-2.2 1.5-3.3l-.1.1c.7-.3 1.7-.5 2.1-1.1 1.4-1.9 3.1-3.8 3.8-5.9.6-2 3.6-2.9 2.3-5.6l-.1.1c2.2-.3 2.6-2.4 3.6-3.8 1.8-2.4 3.8-4.6 5.8-6.8 3.9-4.5 7.9-9 11.8-13.4 1.1-1.1 2.3-2.2 3.5-3.2l16.8 13.1.3-.2-2-2.9 6.9 4.4c.2.1.4.3.5.6 1.3 5.4 6.1 8.1 9.2 12.2 1.9 2.5 4.6 4.5 7.3 7 .6-.9.8-1.3.9-1.8zm-6.4 31.6c.4-.6.8-1.3 1.2-2 .3-.6.2-1.3.6-1.8.9-1 1.9-2 2.8-3l-.6-.9c-1.1.3-2.2.7-3.2 1.1-1.3.7-2.7 2.5-3.7 2.3-1.7-.4-1.6.5-1.8 1.3-1.2 5.8-1.5 11.7-.9 17.6.2 2.1.5 4.2.8 6.3.7 4.8 1.1 9.6 2.2 14.2.9 4 2.8 7.8 4 11.8 1.9 6.1 3.5 12.2 5.4 18.3.9 3 2.3 6 3.2 9 .7 2.3.9 4.8 1.5 7.2 2 8.6 4 17.2 5.9 25.8.8 3.6 1.2 7.2 1.7 10.8.5 3.4.5 6.8 1.3 10.1 1.6 6.8 3.7 13.5 5.5 20.2.6 2.2.8 4.5 1.2 7.3-1.1-1.5-1.8-2.4-2.3-3.1-.3 1.5-.6 3-1 4.5-.6 2.8-1.4 3.2-4 1.9-2.5-1.2-4.9-2.6-6.8-3.6-1.4 1.7-2.6 4-4.5 5.5-2.8 2.1-4.7 1.2-5.5-2.3-.1-.4-.4-.7-.7-1.1-1.3 1.8-1.4 3.5-.4 4.7 1.5 1.8 4.9 2.8 6.1 1.6 1.5-1.7 3.7-2.6 5.9-2.2.3 0 .7-.2 1-.2 1.4-.1 2.9-.2 4.3-.2 1.8-.1 3.7.2 5.4-.2 2.4-.6 4.6-2.1 7-2.4 2.9-.3 5-1.2 6-3.7-.6-1.2-1.2-2.3-2.1-4.1-.8 2.1-1.4 3.7-2 5.3-4.4 0-4.7-.3-5.1-4.7-.2-1.1-.5-2.1-.8-3.1-1.4-5.9-2.7-11.8-4-17.7-1.4-6.2-.5-12.8-2.6-19-1.6-4.9-1.9-10.2-2.9-15.2-.7-3.9-1.6-7.8-2.7-11.7-2.1-6.6-4.8-13-6.9-19.6-1.9-6-3.1-12.3-5.1-18.2-2.6-7.6-4.4-15.4-5.5-23.4-.1-1 .7-2.1 1.1-3.4.2.1 0-.1-.2-.1-.5 0-1 .1-1.5.2-.8-7-.4-9.8 1.6-11v-10.3l.9-.1c0 .4.1.8.2 1.3.1 1.8-.1 3.6 0 5.3 0 .4.6.8 1 1 .1.1.8-.4.7-.5-.6-1.9-1.1-3.9-1.7-5.8zm48.3 88.5c2.5 2.9 5.1 5.9 7.7 8.8.2.2 1 0 1.5-.1l1.1-2.1c-.7-1.5-1.3-3.1-2.1-4.5-.4-.8-1.3-1.5-1.6-2.4-1.8-5-3.3-10-5.2-15-.5-1.4-2-2.5-3.4-4.4-.7 5.4 3.2 8.4 4 13.1-.7-.9-1.1-1.3-1.4-1.7-5.8-7.2-6-16.8-10.3-24.7-1.2-2.2-1-5.1-1.9-7.5-1.3-3.8-.7-8.1-3.5-11.7-1.2-1.7-.8-4.6-1.1-6.9-.1-.4 0-1.1-.2-1.2-2.6-1-1-2.7-.8-4.2.3-2.4 2.5-4.6.5-7.1-3.5.1-3.8-.2-3-3.5.1-.4.6-.8.5-1.2-.2-1.4.2-3.4-2.4-2.8.5-2.6 2.7-5.3-.4-7.1.2-2.5.3-4.8.5-7l-.6-.1c-.4 1.2-.9 2.5-1.3 3.6-4.5-1.2-1.2-4.9-2.4-7.5-.7 1.2-1.2 2-1.7 2.9l-.5-.2 2.3-4.9-.8-.4c-1 1.9-2.1 3.7-3.1 5.5s-.7 3 1.5 3.8l-1.8.4c2.4.6 1.3 1.8.8 3.2-.8 1.9-1.3 3.9-1.5 5.9-.1 4.7.2 9.5.8 14.2.4 2.9 1.9 5.6 3 8.4.1.3.7.4.8.4v6.5l2.8-.6c1.6 1.2-1.6 5.3 2.9 4.6.3 1.6.4 3.1.8 4.5.8 3.4 1.6 6.8 2.5 10.1.4 1.3.6 3 1.5 3.6 1.5 1 1.4 2.2 1.6 3.6.4 2.1.4 4.7 1.6 6s2.1 2.9 2.7 4.6c.4 1.4 1 2.6 1.8 3.8 2.6 3.6 5.3 7.1 8 10.6zm-95.9 22.9 6.3-1.2-19.4-16.6-1.2 1.6c-.5-.9-.8-2-1.3-2.1-3-.5-5.5-3.1-8.7-2.2-.7-.5-1.5-.9-2.3-1.2-7.9-2.7-16.2-1.8-24.2-2-2.9-.1-5.9 2.2-8.7 3.5-.8.4-1.3 1.4-2.1 2-2.4 1.7-5.1 2.9-7.2 4.9-5.5 5.1-10.6 10.5-16 15.8-1.7 1.7-1.6 2.9.3 4l-1.2 1.4 3.4 1.7-.2-1 8.5-5.5 5 5.9-6.7-.4-.1 1.2c2.5.3 5 .7 7.5.9.7-.1 1.3-.6 1.6-1.2.1-.6-.1-1.3-.6-1.7-2.4-1.4-3.6-4.2-3.2-6.9l19.7-7.7c2.1 6 6.7 9.7 11.1 10.5 3.1.6 5.5-1.1 7.5-2.7 1.3-1 1.6-3.4 2.2-5.2s.9-3.5 1.3-5.2c4 .5 7.8 1.1 11.6 1.6 5.9.7 8.6 4.4 7.4 10.2-.3 1.3.5 3.3 1.8 2.5 2.7-1.7 6.5-1.6 8.1-4.9zm115.1 38.6c.3-1.8 1-3.3.6-4.5-2.3-7-4.9-13.8-7.2-20.8-2.6-8-8-13.3-15.8-16.3-4.9-1.8-10.1-2.9-14.7-5.3-3.9-2.1-7.6-5.2-8.6-10.1-.2.1-.4.1-.5.2-.2.3-.3.6-.4.9-.6 4.7 1 8.8 3.2 12.8.6 1 1.1 2.2 1.4 3.4 1.1 6.3 2.5 12.6 5.4 18.3.7 1.4 1.3 3.3 3.8 2.5.5-.2 1.9.8 2.2 1.6 1.5 3.8 4.9 4.1 8.1 4.8 4 .9 7.1-1.2 10.8-3.3 1.1 5.7 2.2 11.1 3.2 16.6.1 1.1 0 2.1-.4 3.2-.8 3-2.5 3.6-4.6 1.3-1.9-2-3.4-4.2-5-6.4-.4.6-.4 1.4-.1 2 3.1 4 6.1 8.2 9.6 11.9 1.9 2 3.7 3.9 4.7 6.5.7 1.6 1.4 3.2 2.3 4.7.9 1.4 2.8 1.5 2.9.2.4-3 .6-6.1.5-9.1 0-3.3-1.1-6.8-.2-9.9.5-2.5.5-4-1.2-5.2zm-62.6 48.6c-.5-1-.6-1.9-1.1-2.2-.7-.3-1.5-.2-2.1.1-3.8 3.4-7.5 6.9-11.2 10.5-3.2 3.1-6.3 6.2-9.4 9.5-1.1 1.1-2.3 2.6-.6 4.2 2.3 2.2 4.7 4.3 7.2 6.3 4.1 3.3 9.4 4.8 14.6 4 1.1-.1 2.3.3 3.4.1 3-.7 6.9 1.3 9-2.6.4-.5.9-.8 1.5-1 4.3-1.9 8.1-4.8 11.1-8.5 1-1.3 2.6-2.1 4.5-3.6.4-4.6-1-7.1-5-9-.5-1.1-1.2-2.2-1.8-3.2-1.5-2.1-3.1-4-4.8-5.9-1.4-1.3-3.3-3-5-3-2.2 0-4.2.9-5.7 2.5-1.4 2.1-2.8 2.5-4.6 1.8zm-111-139.8c.9 1.8 1.9 2.2 3.3.4.4-.4.9-.6 1.5-.6 4.3.3 8.5-.6 12.9-.5 6 .1 12.2-1.2 18.2-2.2 1.9-.3 3.3-.8 4.4 1.5 2.3-2.6 4.8-1.9 7.4-1.1 3 1 6.2.7 8.9-.9.6-.4 1.8.1 3 .3.7-.5 2.3-1 2.6-2 1.3-3.5 2.1-7 3.2-10.8l-2.4 1.5-1.5-2-2.6 3.1-1.9-3.9c-.3 1.8-.7 3.8-1.1 5.8l-.9-.1-.4-1.6c-.7-.3-1.5-.4-2.2-.6-.7 0-1.4.1-2.1.2 0 3.4-3.5 2.5-4.9 4.1.5-1.6.9-3.3 1.4-4.9l-.8-.6-7.1 6.6c.4-1.7.8-3 1.2-4.5l-7.9 3.5.5-2.3-.7-.3-4.7 3.7 1.1-3.2-6.2 5.5-.4-.2 1.7-3.4-7 5.4-.5-.6 1.1-3.4-3.6 2.9-.6-2.4-3.2 2.9-.7-1.4-3.4 2.5c.1-1.6.2-2.5.3-3.7l-4.1 4-.8-.6c.5-.9.8-1.9 1.1-2.8.1-1.1 0-2.3-.1-3.4l-3.1 4.3-1.1-1.3c-.8 1.1-1.6 2.2-2.6 3.6l-.3-1.5c-4-1.6-3.1 4-6.5 4.1l1.6-2.3c-.5-.2-1.5-.7-1.6-.5-1.8 2.3-4.5 2.8-7 3.8-2.3 1-4.4 2.5-6.2 4.3-1.6 1.5-2.6 3.5-3.9 5.2l.7.6c3.5-4.2 8.6-4.6 13.3-6.2 3.6-1.2 7.2-2.2 10.7-3.2.3-.1.8-.2.9-.1 1.7 1.7 2.2 0 3.1-.7zm122.2 112.4h-.9c.7 4.7-2.8 9.2-.6 14.1.5-4.8 1-9.5 1.5-14.1zm-3.5-165.1.7-.3c-.8-1.8-1.5-3.5-2.3-5.3l-1.2.6z"/><path d="m468.1 449.7c-5.7 1.8-11.4 3.6-17 5.6-1.8.8-3.6 1.8-5.1 3.1-2.4 1.8-4.6 3.9-6.9 5.8-.7.4-1.5.8-2.3 1.1-.8 1.3-2.5 3.2-3.2 5.4-.5 1.4-1.4 2.6-2.5 3.6-.4.8-.3 1.7.2 2.5.3.5 1.4.4 2.7.7-2.1 4.4-4.8 8.8-2.9 14.5 5.6-3.1 10-7.8 13.7-12.7.8 1.9 1.3 4.1 2.6 5.4 1.3 1.2 3 1.8 4.8 1.7 6.3-.4 10.6-7.2 8.5-13.3 2.9-.7 6-.9 8.8-2s5.3-3.1 8.1-4.7c2.3 1.4 2.3 1.4 1.8 5.5-.3-.8-.6-1.7-.8-2.5-.1-.6-.1-1.3 0-1.9l-.8-.1c-.5 3.5-1 7-1.5 10.6-.5 3.3-.7 6.7-1.3 10-.8 4.5-1.8 9-2.8 13.5-1.7 8.4-4.2 16.7-7.5 24.7-1.4 3.5-1.5 7.6-2.3 11.4-.4 1.8-.8 3.6-1.2 5.5-.6 3.2-1.2 6.5-1.8 9.7-1.6 9-.4 17.9.6 26.9.2 2.1.1 4.3.4 6.4.2 1 1.2 1.8 1.4 2.8.4 2.1.7 4.3.7 6.5-.1 9-.3 17.9-.3 26.9 0 4.5.5 9 .5 13.5 0 2.3-.6 4.5-.7 6.8-.2 2.3-.2 4.7 0 7 .6 8 .2 16.1-1.3 24.1-.9 5.5-2.3 10.8-3.5 16.2-.8 4-1.6 8-2.2 12-1.2 6.8-3.6 13.3-7 19.3-1.5 2.8-2.8 5.8-4.2 8.7-3 6.5-8 11.5-13.2 16.2-1.1 1-2 2.3-3 3.3-6.7 6.2-14 11.5-22.5 15-6 2.3-12.4 3.4-18.9 3.2-7.2-.1-14.3-2.2-20.3-6.2-4.3-2.8-7.8-6.9-11.5-10.5-2-1.7-3.8-3.5-5.6-5.5-3-3.4-5.7-7-8.2-10.8-2.8-4.8-5.3-9.7-7.5-14.8-4.1-9.4-8.3-18.8-11.6-28.4-2.2-6.4-3.2-13.3-4.5-20-.9-4.9-1.7-9.9-2.1-14.8-.5-5.9-.7-11.8-1-17.8-.2-4.9-.4-9.8-.4-14.7s.3-9.7.5-14.5c0-1.6 0-3.2 0-4.7-.1-3.7 1.3-4.6 5.1-4.1 1.8.1 3.5-.3 5.1-1.2 9-4.1 18.2-7.9 26.9-12.6 6.1-3.3 10.8-8.6 14.6-14.6 1.9-3 3.9-5.9 5.7-9s3.6-6.1 5.2-9.2c3.1-5.8 6.1-11.5 9.1-17.3 2.8-5.5 5.4-11.2 8.5-16.5s6.9-10.6 10.5-15.8c1-1.4 2.2-2.6 3.3-4 3.8-4.8 7.5-9.6 10-15.3.7-1.6 2.9-2.6 4-4.1 2.5-3.6 4.8-7.3 7.2-11 .3-.5.5-1 .9-1.4 3-3.8 6.1-7.5 9.1-11.3 2.2-2.7 4.1-5.6 6.4-8.3 2.5-3 5.2-5.7 7.6-8.7 1.8-2.2 3.2-4.8 5.2-7.7 2.8 4.1 5.3 7.9 7.9 11.7.8 1.1 1.5 2.4 2.1 3.6.2.6-.3 1.4-.4 2.1zm-113 142.9-1.7 2.1-1.5 1.2.4.9c1.3-.4 2.7-.7 4.1-.8.8 0 2.3-1.7 2.7.6-.5.2-1.3.3-1.4.6-.3 2.2-2 1.8-3.4 2.1-4.6 1.1-9.4 1.4-13.5 4.3-3.7 2.6-7.5 5.1-10.2 9-2.1 3.1-4.7 5.9-7 8.8l-.7-.4 1.6 3 8.3-1.2v-.6l-2.8-.2 7.7-7.9c.6 1.2 1.2 3.2 3.9 2.7 2-.4 4.1-.1 6-.8 3-1.1 3.6-3.9 2.3-9l10.3-1.2-4.5 6c.5.2 1.1.1 1.5-.3 3-2.7 5.7-5.5 8.9-7.9 2-1.4 2-2.4.8-3.7l-4.7 1.1-1.2-3.5c2.3-.9 3.4-2.9 2.5-4.7 5.3-2.7 5.7-8.3 7.5-13l-1.1-.2c1.3-3.5 2.5-6.8 3.7-10l-3.6 1c.3-.9.4-1.4.5-1.8.1-.3.1-.6.1-.9-12.4 17.9-27.6 32.1-50 36.6 3 1.2 5.8 1.7 8.6.1 1.2-.7 3 .8 4.1-1.2.8-1.1 1.9-1.9 3.1-2.4 3.5-1.9 7.1-3.6 10.5-5.4 2.8-1.5 5.6-3.2 8.7-4.9-.2 1.1-.3 1.5-.5 1.9zm73.2 42.9-1.1-.4c-.2 3.3-2.2 2.9-4.1 2.5-2.8-.5-5.5-1.1-8.2-1.8-3.8-1.2-7.8-2-11-4.1-2.9-1.9-4.6-1.4-7 .3-3.4 2.3-3.9 2.1-7.1-.7-.9-.8-2.6-1.6-3.5-1.2-4 1.8-7.7 4.1-11.6 6.1-4.8 2.5-8.6 7.3-14.8 6.8-.5 0-1.1 1.7-1.6 2.6.7.2 1.4.6 2 .5 3.8-.8 7.6-1.5 11.3-2.6 2.5-.8 4.7-2.7 7.2-3.3 3.3-.8 6.7-.9 10.1-1.2l.5.7c-.5.5-1.1 1-1.7 1.5-.9.4-1.7.8-2.6 1.1l.3.8c1-.2 1.9-.4 2.9-.5.7.1 1.4.3 2.1.6-.5.6-1 1.1-1.5 1.5-.3.2-.9 0-1.3.2-.6.4-1.2.8-1.7 1.2 1 1.2.5 3.5 2.8 3.6 4 .1 7.9.3 11.9.3.4-.1.9-.2 1.2-.5 3.9-1.9 7.8-4.1 11.8-5.8 3.6-1.5 7-3.7 11.3-2.8 1.1.2 2.8-.9 3.6-2 .5-.6-.1-2.2-.2-3.4zm-1.4-153.2-.9-.5c-15.9 22-29.3 45.6-40 70.5-3.7-2.7-3.7-2.7-1.6-6.3.5-.8.9-1.6 1.3-2.4.6-1.5 1.2-2.9 1.8-4.4l-1.1-.5c-1.7 3.4-3.5 6.8-5.1 10.3-.1.5 0 1.1.4 1.5 1.2 1.3 2.9 2.4 3.8 4 1.9 3.2 5.7 2.9 8.2 4.9 1.4 1.1 3.6 1.2 4.9 2.4 2 2 3.8.5 5.3-.2.7-.3.6-2.4.8-3.4-1.3 1-2.2 2.1-3.5 2.6-2.7 1-3.3-1.7-4-3.2-1-2-2.3-2.6-4.3-2.2-.9.2-1.8.4-2.7.5-1.2.2-2.3-.6-2.5-1.7-.1-.4 0-.9.1-1.3 1.7-4 3.5-8 5.4-11.9 3-6.3 6-12.6 9.3-18.7 3.5-6.5 7.3-12.9 11.1-19.2 2.5-4.1 5.3-8 7.9-12 2-3 3.7-5.9 5.4-8.8zm-60.2 208.8c.2-.8.3-1.7.3-2.5 0-4.1.1-8.2 2.7-11.7.8-1.1 1.5-2 2.7-.2-.6-2.6 1.3-3.2 2.9-4s3-1.4 4.4-2.1c2.1-1.1 4.1-2.6 6.4-3.4 2.2-.6 4.5-1 6.8-1.3l-1.5-2.1c-6 1.5-11.8 3.2-16.6 7.2-2.1 1.8-4.5 3.3-6.3 5.4-3.6 4.3-2.2 9.6-1.8 14.7zm33.5-22.9c-.6-1.7-2.5-2.7-4.3-2-.3.1-.6.3-.9.5z"/><path d="m314.5 596.2c0-3-.1-5.4 0-7.8.5-7.3 1.1-14.7 1.9-22 .7-6.5 1.9-13 2.8-19.5.5-3.4.6-6.9 1.3-10.2 1-4.5 2.4-8.8 3.7-13.2 1.2-4 2.5-7.8 3.8-11.8 1.4-4.2 2.8-8.3 4.1-12.5 1.9-6.2 3.5-12.5 5.6-18.7 1.5-4.2 3.2-8.3 5.1-12.3 1.9-4.1 3.9-8.1 6-12.1 1.2-2.2 2.6-4.3 4.1-6.3 4-5.6 7.8-11.3 12.1-16.6 2.3-2.8 5.7-4.6 8.3-7.1 5.6-5.4 12.4-8.8 19.5-11.4 4-1.5 8.4-1.9 12.6-3.2 7.9-2.5 16.2-1.4 24.2-2.9s9.9-.2 12.7 1c1.2-.5 2.1-1.2 2.8-1.1 4.3 1.1 8.6 2.2 12.8 3.6 2.6.9 4.9 2.4 7.7 3.8-1.7 2.5-3.2 4.7-4.7 7-2.4 3.5-4.7 7.1-7.3 10.5-2 2.7-4.2 5.2-6.3 7.9-4.3 5.4-8.8 10.8-12.9 16.4-4.4 5.9-8.3 12.1-12.6 18.1-1.5 2.2-3.5 4-5.1 6.2-1.8 2.4-3.2 5.1-4.9 7.6-3.1 4.3-6.6 8.3-9.6 12.6-2.9 4.2-5.4 8.6-8 13-3.7 6.3-7.3 12.6-10.9 19-2.3 4.2-4.4 8.7-6.7 12.9-5.3 9.6-9.6 19.8-17.1 28-4.2 4.5-9 8.4-14.3 11.4-5 2.9-10 5.8-15.5 7.3-5 1.3-10 1.6-15.2 2.4z"/><path d="m217.6 374.5c0 3.5 2.9 4.2 5 5.7 2.7 2 5.2 4.2 7.9 6.4l.9-1.1c.1.3.4.6.3.7-1 1.7-.1 2.9.9 4.2 3.2 4 5.2 8.8 5.8 13.8.2 1.9 2.3 3.5 2.9 5.4 1.2 3.9 2.2 7.9 3.1 11.9.7 3 1.2 6.1 1.5 9.2.3 2.6 0 5.3.3 7.9.3 3.4 1 6.8 1.1 10.2.1 5.3-.3 10.5-.4 15.8-.1 2.3.1 4.6-.2 6.9-.7 7.4-1.6 14.8-2.4 22.1-.7 6.9-1.5 13.8-2.2 20.7-.1.6-.3 1.1-.6 1.6-2.1-3.6-4-6.9-5.9-10.3-2.1-3.6-3.9-7.4-5.6-11.2-1.5-3.8-2.5-7.8-3.7-11.7-.6-1.9-1.1-3.8-1.7-5.7-1.3-3.6-2.9-7.1-3.8-10.7-1.2-5-2-10-2.8-15-.9-6-2-12.1-2.5-18.2s-.2-12.4-.3-18.7c-.1-5.3-.2-10.6-.3-15.9.1-1 .2-2.1.4-3.1l2 2.8.7-.3c-.4-.8-.7-1.7-1.1-2.5-.7-1.4-2.1-2.7-2-4 .1-5.2.7-10.3 1.2-15.5 0-.5.6-.9.9-1.4z"/><path d="m418.4 74.5c-.2-1.7-.3-3.4-.5-5 0-1.6 0-3.1 0-4.7.1-4.6.3-9.1.5-13.7-.1-1.8.1-3.6.6-5.4 1.4 4.4 2.6 8.8 4.2 13.1 1.4 3.6 3.3 7 4.8 10.6 1.2 3 2.3 6.2 3.1 9.4 1.3 4.6 3.1 9.1 5.5 13.3 2.7 5.1 7.3 8.3 11.1 12.2s8.3 7.3 12.6 10.8c.6.5 1.5.6 2.2 1.5-1.7-.4-3.6-.3-4.9-1.2-1.8-1.4-4-1.9-6.2-1.4-1.1.1-2.1 0-3.2-.3l-1.7-.4c-.4-.4-.7-1.1-1.2-1.3-4.6-1.8-8.4-5.1-10.9-9.3-.8-1.2-2.3-2-3.5-3v.1c-.6-5.6-3.2-10.4-6.6-14.8-.1-.6-.2-1.2-.4-1.8-1.3-2.4-2.6-4.7-4-7-.4-.7-1-1.2-1.5-1.7z"/><path d="m468 449.7c3-.2 4.1 2.1 5.6 4 3.5 4.3 4 5.1 4.6 9-3.6 3.2-3.7 3.2-4.5.8-5.1 1.6-10 3.7-15.7 3.6-3.6-.1-7.2.9-10.8 1.5-.9.1-1.9.3-2.8.5l-.3-.6 6.4-4.9-.2-.3-5.8 2.8-.4-.4 2-1.7-1.5-.2c3.1-2.7 5.9-5.2 8.7-7.6l.2 1c.6.2 1.3.8 1.7.6 3.9-2 7.8-4.1 11.7-6.3.6-.4.8-1.2 1.1-1.8z"/><path d="m473.4 117.3c2.6.9 5.2 1.6 7.8 2.7 3.7 1.5 7.3 3.1 10.8 4.8 1.8.9 3.3 2.5 5.1 3.3 3.1 1.5 6.3 2.8 9.6 3.7 3.6 1 6.7 3.7 6.7 6.8-13.9-6.1-28.4-10.8-40.3-20.6z"/><path d="m99.9 401.2c-.9 1-1.8 2.1-2.8 3-4.6 4.2-9.3 8.4-14.2 12.3.6-4.2 24-31.3 27.6-32.8l-2.6 5 .1-.1c-.3.1-.8.1-1 .3-2.4 4.1-4.9 8.2-7.3 12.3z"/><path d="m74.8 422.7c-7 10.3-16.8 15.5-27.6 19.3l-.6-.8 7.9-6.5c.8-.5 1.5-1.1 2.2-1.8 2.4-3.4 6.3-4.2 9.7-5.9 2.6-1.4 5.2-2.7 8.4-4.3z"/><path d="m506.1 109.5c-4.8-5.8-9.6-10.8-13.4-16.4s-6.6-11.8-9.8-17.6c4.2 1.3 22 26.9 23.2 34z"/><path d="m334 30.9c-3.8 3.2-7.6 6.3-11.2 9.7-2.9 2.8-5.5 5.8-8.3 8.8-.9 1-2.2 1.8-2.8 3-2.4 5.1-6.2 9.1-9.6 13.5.3-.6.5-1.2.8-1.9 1.8-4.2 3.2-8.7 5.5-12.6 1.8-3.5 4.6-6.3 8-8.2 2.9-1.5 5.1-4.3 7.6-6.6.5-.6 1.1-1.2 1.7-1.7 2.4-1.7 4.9-3.3 7.4-5z"/><path d="m453 88.8c1.3 1.3 2.7 2.6 4 3.9 3.2 3 6.5 6 9.7 9 1.1 1.2 2.1 2.5 3.1 3.8l1-1.2c0 2.5 3 5.9 6.5 7.2l-.1-.1 2.7 3.9c-1.9-1.1-3.6-2.1-5.4-3-1.9-1-4.1-1.8-5.8-3.1-3.1-2.4-6.4-4.9-8.8-7.9-2.8-3.4-4.8-7.6-7.1-11.4-.1-.3-.2-.7-.2-1 .1.1.3 0 .4-.1z"/><path d="m177.3 377c11.7 3.7 20.1 11 25.5 22.4z"/><path d="m295.6 104.6c5-10.9 16-24.4 22.9-29.5-3.5 5.1-6.9 10.3-10.7 15.1s-8.2 9.6-12.2 14.4z"/><path d="m467.5 75.7c5 8.5 13.3 14.5 17.5 23.7-6-.4-17.5-17.2-17.5-23.7z"/><path d="m450.6 475.3c-.1 2.2-.1 4.6 2.6 5.2 1 .2 3-.3 3-.7.2-1.9.3-3.9.2-5.8-.2 0 .4 0 .9-.2 1.8-.8 2.4.2 2.5 1.7.3 3 0 5.7-3.4 7-1.5.6-2.9 1.8-4.4 2-2.5.4-4.9-1.2-5.6-3.6-.5-2.1 1.2-4.4 4.2-5.6z"/><path d="m55 432.3c-7.6 7.7-16.7 12.8-28.4 14.2l28-15z"/><path d="m439.6 85.4 3.7 4.2c.3.3.5.5.6.9 1.3 3.6 2.5 7.1 3.7 10.3-3.6-.8-12.5-13.9-13.6-20.8z"/><path d="m89.3 382.3-8 8.4-.9-.9c-.1.1-.3.3-.3.4.6 1.3.2 2.2-.9 3.2-3.6 3.5-7.1 7.2-10.6 10.8l-.9-.8 5.8-6.7c.2-.2.4-.4.5-.6 2.7-7 8.9-10.4 15.3-13.8z"/><path d="m494.2 113.9c2.1 1.6 4.2 3.1 6.3 4.8.5.6.9 1.3 1.2 2l-4-1.3-.4.6c4.6 3.4 10.2 5.5 13.7 10.1l-.6.8-16.7-11.5.4-.6 3.5 1.2c-2.5-3.8-7.1-3.4-9.5-6.5l5 .3z"/><path d="m463.5 437c5.1.5 15.3 14.2 14.4 19.7z"/><path d="m465.2 543.9c-.5 9.1-1 18.1-1.5 27.6-2.9-5.7-2.1-22.9 1.5-27.6z"/><path d="m354.3 77.1c-2.5 9.5-7.6 17.7-13.1 25.7 1.9-9.7 8.6-17.1 13.1-25.7z"/><path d="m324.3 57.9c1.4 2.8.3 4.8-1.2 6.4-2.1 2.4-4.5 4.6-6.7 7-.7.8-1.6 1.5-2.6 2 2.7-5.5 5.1-11.1 10.5-15.4z"/><path d="m459.8 54.2c6.1 5.2 9.8 12 12.3 19.4-4.7-6.1-9.9-11.8-12.3-19.4z"/><path d="m190.3 400.9c-.3.1-.7.4-1 .3-7.4-2.1-13.6-3.7-17.1-11.3l10 4.8c.5.7.7 1.7 1.4 2.1 2.2 1.5 4.5 2.7 6.7 4.1z"/><path d="m65.3 425.3 17.6-14.4c-.4 2.4-2.8 7.5-6.7 9.3-3.7 1.6-7.2 3.5-10.8 5.3z"/><path d="m425.8 60.4c-1.5-4.7-2.9-9.3-4.3-14h2.3c-2.2-3-3.9-5.9-2.4-10.2 1.7 4.6 4 8.4 2.9 13.1-.2 1 .9 2.2 1.1 3.4.5 2.6.8 5.1 1.2 7.7z"/><path d="m14.7 422 1.5-.4c.3 4.5-4.5 17.4-7.2 19.4l-.7-.3c1.9-5.1 3.8-10.1 5.6-15.2.4-1.1.7-2.3.8-3.5z"/><path d="m63 402.8c-1 3.3-2.4 6.5-5.7 8.6-3.1 2-5.9 4.4-8.8 6.5l-.6-.6z"/><path d="m331.3 28-19.2 16.3-.4-.3c1.9-2.1 3.7-4.3 5.7-6.3s4.1-3.9 6.3-5.6c2.3-1.7 4.8-3.1 7.2-4.7z"/><path d="m370 60.4-12.7 23.6-.8-.4c1.9-4 3.7-8 5.7-11.9 1.5-3 3-6 4.8-8.9.8-1 1.8-2 2.8-2.8z"/><path d="m185.3 394.3-4.9-4.2c7.7 3 12.5 9.4 18.3 14.7l-.5.6c-1.3-.7-2.6-1.5-3.9-2.4-1.2-1.1-2.3-2.3-3.3-3.5l-5.1-4.5z"/><path d="m14.8 421.9c-3.2 3.1-4 7.5-5.6 11.4-.2.4-.3.8-.6 1.5 0-3.7 1.8-9.3 5.3-15.4 2.6-4.6 5.7-9 8.7-13.7.6 2.9-1.7 4.3-2.6 6.2-1.6 3.5-3.5 6.8-5.2 10z"/><path d="m325.8 92.6c3.5-7 7.9-13.4 14.4-18.2-4.6 6.2-9.2 12.5-13.8 18.7z"/><path d="m435 64.2c-3.8-5.8-4.5-12.6-6.3-19.2 2.4 1.2 6.3 13.8 6.3 19.2z"/><path d="m468.1 49.5 13.3 16.9c-2.2.3-3.8-1.2-7.9-7.1-2.1-3-4-6-6-9.1z"/><path d="m465.4 115.9c-2.6-1.8-5.1-2.8-6.4-4.6-2.7-3.8-8.5-4.1-10.1-9 .2-.2.4-.4.6-.6l4.6 3.6c.7.6 1.4 1.1 2.1 1.7 3 2.4 5.9 4.8 8.9 7.3 0 .1 0 .4.3 1.6z"/><path d="m443.4 49.8c5.4 5.7 7.4 12.4 9.3 19-3.2-6-7.6-11.5-9.3-19z"/><path d="m373.4 49.6c-2.2 2.8-4.5 5.5-6.7 8.2-.9 1.2-1.9 2.4-3 3.4 2.1-6.7 7-11.4 11.7-16.5.2.9.3 1.6.4 2.2l-.5.9z"/><path d="m203.4 391.9c-3.9-4.9-7.7-9.8-11.6-14.7 4.5.8 9.8 8 11.6 14.7z"/><path d="m314.1 104.7c2.1-5.2 4.1-10.5 9.6-14.3-1.9 5.5-5.2 10.4-9.6 14.3z"/><path d="m480.1 111.6-.5-1.9.4-.5c2.2 1.7 4.5 3.3 6.6 5.1s4 3.7 5.9 5.8c-3.2-1.3-6.8-2-9.1-5.1z"/><path d="m338.7 39.7 17.9-12.9c-1.6 3.6-10.7 10.1-17.3 13.5z"/><path d="m55.6 386.4 14.1-7.7c-4 3.8-7.4 8.7-13.6 8.9z"/><path d="m497.7 62.1c-1.6-2.3-3.7-4.6-5-7.3s-5.3-3.8-4.4-7.7c3.4 1.2 9.8 11.7 9.4 15z"/><path d="m172.6 393.5c-3.7-.2-4.6-3.9-7-5.7-1.6-1.4-3-3.1-4.2-4.9 4.3 1.6 8.4 3.3 9.7 8.4.4.8.8 1.6 1.5 2.2z"/><path d="m471.9 533.8-4 22.7c-1.3-8 1.5-15.2 3.3-22.7z"/><path d="m496 63c5.5 6.3 7.8 14.3 9.9 22.3z"/><path d="m288.6 100c.2-1 .4-2 .7-3 .6-1.9 1.5-3.7 1.8-5.6.5-3.7 2.6-6.3 5.1-8.9l-6.6 17.8z"/><path d="m345.9 81.8c3.8-6.8 7.5-13.6 11.3-20.5l1.1.6-11.4 20.4z"/><path d="m60.9 388.9c-3.5 5.5-12.4 14.3-14.5 13.8 4.7-4.7 9.2-9.3 13.8-13.8 0-.1.4 0 .7 0z"/><path d="m468.4 533.5c1.5-6.9 3.1-13.9 4.6-21 1.1 3.4-1.6 16.9-4.6 21z"/><path d="m477.3 74c3.9 4.4 8.1 8.7 10.6 14.1l-.7.5-10.8-13.8z"/><path d="m329.8 77.5c-1.7 5.2-5 9.7-9.4 13l8.6-13.5z"/><path d="m348.3 40c1.9-4.5 6.8-5.7 10.2-8.5l.7.8-10 8.7z"/><path d="m433 46.7c-2.3-6.4-4.6-12.8-6.9-19.4 1.9 1.6 7.3 15.7 6.9 19.4z"/><path d="m465.4 80.1-6.8-16.6c4.9 4.3 5.2 10.7 7.8 16.1z"/><path d="m38 387.9 15.1-8.9.6 1-15.1 9.1z"/><path d="m320.5 140.2c-.8-3.1 4.5-9.5 9.1-11.3-3.2 4-6.1 7.6-9.1 11.3z"/><path d="m375.3 47.7.5-.9c.9-.3 1.6-.8 2.3-1.4 2.1-2.5 4-5.1 6-7.7l1 .8c-2.7 3.7-5.4 7.4-8.3 11.3-.7-.9-1.1-1.5-1.5-2.1z"/><path d="m329.6 69.4c3.2-4.1 4.4-9.7 9.2-12.7-2.8 4.4-4.7 9.5-9.2 12.7z"/><path d="m463.5 427.1c4.2.7 5.5 4 6.7 7.6-2.9-.3-6-3.9-6.7-7.6z"/><path d="m479.3 73.7c-3.1-3.1-6.3-6.1-7.5-10.5l.6-.4 7.7 10.4z"/><path d="m207.7 395.9c-1.7-3.3-3.4-6.6-5-9.9-.2-.6-.3-1.2-.3-1.9.6.2 1.3.3 1.7.7 2.3 3.3 3.6 7.2 3.6 11.1z"/><path d="m346.1 57.1c-3.7 8.4-3.7 8.4-7.8 10.1 2.6-3.3 5.2-6.7 7.8-10.1z"/><path d="m439.6 85.4c-1.5-2.4-2.9-4.8-4.4-7.1-.6-1-1.3-2-2-3l.7-.6 3.9 4.5-.2.1 5.6 8.5-.2.2z"/><path d="m340.2 43.6-9.1 8.3-.6-.7c1.2-4.8 6.5-5 9-8.4z"/><path d="m332.3 54.6-6 7.6c-.4-4.3 3-8.7 6-7.6z"/><path d="m365.5 46.9-8.1 8.6c-1.1-2.1 4-8.2 8.1-8.6z"/><path d="m494.2 113.9-1.1-.1c-1.3-.6-2.7-1.2-4-1.9-3.3-1.6-6.5-3.3-9.8-5l.5-1c3.4 1.7 6.9 3.4 10.3 5.2 1.4.8 2.7 1.8 4.1 2.8z"/><path d="m476.2 96.4c-5.3-2.6-6.8-7.6-9.3-11.8l.6-.4z"/><path d="m451.2 69 6.5 12.8-.8.4c-2.3-4.2-5.3-8.1-6.8-12.8z"/><path d="m477.2 511.6c.6-4.8-1-10.1 3.2-14.1-1 4.7-2.1 9.4-3.2 14.1z"/><path d="m451 93.7c1.5 1.2 3 2.5 4.2 4 1.6 2.2 2.9 4.6 4.4 7.1-2.6-.9-7-6.6-8.6-11.1z"/><path d="m47.3 397.1-9.8 10.5c2.2-4.5 5-8.4 9.8-10.5z"/><path d="m338.1 113.9c.4-3.8 1-4.8 5.5-9 0 4.5-3.7 6.2-5.5 9z"/><path d="m480.1 111.6 3.2 3.4-3.6-2.1c-.8-.4-1.6-.9-2.4-1.4l.1.1c-.7-.8-1.3-1.7-2-2.4-1.3-1.6-2.7-3.1-4.1-4.7 2.3 2 4.7 4 7.1 6 .5.4 1 .8 1.7 1.1z"/><path d="m481.5 431.8c-4.7-2.1-6.7-6.6-9.5-10.5l.5-.5c3 3.7 6 7.3 9 11z"/><path d="m467.3 526c-.5 3.8-1 7.7-1.6 11.5-.2.7-.6 1.4-1 2l-.6-.3c.3-2.2.5-4.5.9-6.7s1.2-4.4 1.8-6.7z"/><path d="m177.7 385.3c4.6-1 6.8 2 8.9 5.1z"/><path d="m362.3 41.1-7 9.4-.8-.4c.5-1.3 1-2.5 1.7-3.6.8-1.1 1.7-2.1 2.7-3l2.7-3z"/><path d="m200.8 369.8 7.2 2.5v-.5l2.4 3.1-.2.6-9.7-4.6z"/><path d="m297.6 130.7c2.3-2.9 4.5-5.9 6.8-8.8l.9.7-6.5 9z"/><path d="m47.6 392.2c-1.2-2.5 0-3.9 2.1-4.9l5.9-2.9z"/></g><path d="m324.6 462.9c-1.9 3.6-3.9 7.2-5.9 10.8l-.8-.4c1.2-2.7 2.4-5.3 3.7-7.9.7-1 1.4-2 2.3-2.9z" fill="#903373"/><path d="m73 381.5-8.5 7.3-.8-.9 8.4-7.4z" fill="#fff"/><path d="m299.3 117.4 6.5-10.1.8.5c-1 4.1-3.9 7-6.7 9.9z" fill="#fff"/><path d="m341.6 57.2c1.5-4.1 4.5-6.9 7.6-9.5l.8.8c-2.8 2.9-5.6 5.8-8.4 8.7z" fill="#fff"/><path d="m339.4 69.6-5.8 7.8-1-.2c.1-.9-.2-2.2.2-2.6 1.9-1.9 4.1-3.5 6.2-5.3z" fill="#fff"/><path d="m185.9 395 5.1 4.5-.7 1.3c-2.2-1.3-4.5-2.6-6.7-4-.6-.4-.9-1.4-1.4-2.1l3.8 1.6z" fill="#903373"/><path d="m395 1.5c-4.4 1.4-9 1.5-13.5 1.5l-.1-1.3z" fill="#fff"/><path d="m443.2 69.5 4.9 9.5c-3.6-1.7-5.6-5.6-4.9-9.5z" fill="#fff"/><path d="m430.6 8.2-8.8-3.9c3.4-.1 6.8-.1 9.2 2.9z" fill="#fff"/><path d="m3.9 465.2c.2-1.6.3-3.3.5-4.9s.4-3.5.4-5.3c-.1-.7-.2-1.4-.5-2l1.7-1.1c-.2 4.3-.4 8.3-.7 12.3 0 .6.5 2.7-1.4 1z" fill="#fff"/><path d="m96.3 362.3 13.2-3.7.2.6-13 4.2z" fill="#fff"/><path d="m418.6 38c-.7-4-1.4-7.9-2.1-11.9l1.1-.2c.8 3.9 1.5 7.9 2.3 11.8z" fill="#fff"/><path d="m373.4 49.6 1.9-1.8c-.6 1.8-1.2 3.7-1.7 5.5-.3 1.9-1.7 3.5-3.5 4.1z" fill="#fff"/><path d="m167.2 376.1 10.5 6.2-.6 1-10.5-6.2z" fill="#fff"/><path d="m188.7 393c4.5 1 6.2 5.1 9.3 7.6l-.5.6z" fill="#fff"/><path d="m334.8 105.1 5.3-10.4 1 .6-5.7 9.8z" fill="#fff"/><path d="m467.7 99.5c-3.5-1.4-5.6-4.5-7.7-7.7l8.2 6.9c-.2.3-.4.6-.5.8z" fill="#fff"/><path d="m485.5 483.4v14.9h-.6v-14.8z" fill="#fff"/><path d="m463.6 82.8-5.6-9.9 1.1-.6 5.3 10.1z" fill="#fff"/><path d="m414.6 10.5c3.3.6 3.4 3.6 5.1 4.9.2.2-.4 1.4-.7 2.8-1.6-2.8-2.8-5-4.4-7.7z" fill="#fff"/><path d="m437.7 51.1-4.2-10.9.9-.4 4.4 10.9z" fill="#fff"/><path d="m150.2 357.8c-2.9 1.3-3.5 1.3-9.9-1.4l9.9.6z" fill="#fff"/><path d="m482.8 512.4-2.4 12.5-.8-.2c.8-4.1 1.6-8.3 2.3-12.5z" fill="#fff"/><path d="m360.6 25.7 5.2-1.8.3.7-8.9 5 2.8-3.9.2.1z" fill="#fff"/><path d="m436.1 75.1-2.6-8.6c3.4 1.9 2.5 5.4 3.5 8.2z" fill="#fff"/><path d="m374.6 38.9 8.6-6.9c-.9 2.9-3.5 5-8.6 6.9z" fill="#fff"/><path d="m185.9 395v1.3l-3.8-1.6-5.3-4.5.2-.5c.6.1 1.1.4 1.7.7 1.7 1.2 3.4 2.5 5.1 3.7.3.2 1 .1 1.5.1z" fill="#fff"/><path d="m100.9 389.3-7.3 6.7-.4-.4 7-7z" fill="#fff"/><path d="m29.2 406.3-5 9-.8-.4 4.8-9.1z" fill="#fff"/><path d="m468 425.9-2.5-1.8 2.6-4.8c2.7 2.4-.8 3.9-.1 6.6z" fill="#fff"/><path d="m499.6 112.1-8.2-6.1c3 .3 7.5 3.7 8.2 6.1z" fill="#fff"/><path d="m487.8 92.4 5.6 6.2-.8.6c-1.6-1.8-4.4-2.9-4.8-6.8z" fill="#fff"/><path d="m72.6 369.6 7.2-2.4c-1.4 3.2-1.5 3.2-7.2 2.4z" fill="#fff"/><path d="m438.4 68-3.1-11.5.6-.2 3.3 11.4z" fill="#fff"/><path d="m329.9 65.2-5.2 7.6c.1-3.1.6-3.9 5.2-7.6z" fill="#fff"/><path d="m346.5 23.6c-1.5 2.1-4.2 2.5-6 4.2l-.7-.9 5.9-4.3z" fill="#fff"/><path d="m80.2 378.5-6 3.6c1.3-2.4 2.7-4.6 6-3.6z" fill="#fff"/><path d="m47.6 392.2c-1 .7-2 1.4-3.1 1.9-1.1.3-2.2.2-3.2-.3l4.6-3.2z" fill="#fff"/><path d="m74.2 401.8 6.4-5.1c-.4 2.4-.4 2.4-6.4 5.1z" fill="#fff"/><path d="m451.1 93.6-4.6-6.8.7-.6c.5.3.9.6 1.3 1 1 1.2 1.9 2.5 2.7 3.9.3.8-.1 1.8-.1 2.5z" fill="#fff"/><path d="m416.8 3.8 4-.4-1.6 1.4 2.2 3.2-.5.4-4.3-3.7z" fill="#fff"/><path d="m471.3 104.5c1.4 1.6 2.8 3.1 4.1 4.7.7.8 1.3 1.6 2 2.4-3.5-1.4-6.6-4.7-6.5-7.2.1-.1.3 0 .4.1z" fill="#903373"/><path d="m334.8 105.1h.7l-4.5 8.6-1-.6z" fill="#fff"/><path d="m501.9 65.2 3.2 7.3-1 .4c-1-2.5-2.1-4.9-3.1-7.4z" fill="#fff"/><path d="m280.2 183.1-2-.5 6.1-5.2.4.3z" fill="#fff"/><path d="m412.8 10.8c-1.2-2.4.9-3.2 2-4.5l.8.3c-.6 1.5-1.2 3-1.8 4.5z" fill="#fff"/><path d="m62.2 376.2-7.2 3.3-.4-.8 7.1-3.4z" fill="#fff"/><path d="m468.2 29.7 6.3 5.6-.5.6-6.6-5.3z" fill="#fff"/><path d="m337.2 113.5-3.8 5.9-1-.6 4-5.9z" fill="#fff"/><path d="m163.5 372.3 6.9 3.2c-.1.3-.2.5-.4.8l-7-3.1z" fill="#fff"/><path d="m71.2 374.9-6.7 3.6-.5-.9 6.7-3.5z" fill="#fff"/><path d="m32.6 395.4 5.5-4.6.7.8-5.6 4.5z" fill="#fff"/><path d="m342.1 47.1 5.7-4.7.3.3-5.1 5.3z" fill="#fff"/><path d="m348.2 21.8 7.8-3.2.4.8-7.7 3.5z" fill="#fff"/><path d="m344.5 80.6-4.1 6.3-.6-.4 3.7-6.7z" fill="#fff"/><path d="m453 88.8c-.1.1-.3.2-.4.3l-3.7-5.9c1.9 1.5 4.5 2.5 4.1 5.6z" fill="#fff"/><path d="m473.4 543.6-1.9 8.4-.8-.2 2-8.3z" fill="#fff"/><path d="m353.1 90.3 2.7-6 .9.4-2.6 6z" fill="#fff"/><path d="m511 139.7c1 .2 1.9.5 2.8.9.4.3.4 1.3.6 2l-.8.3-2.8-2.3z" fill="#fff"/><path d="m388.7 37.6 5-6.9.7.5-5.2 6.9z" fill="#fff"/><path d="m482.9 438.8-4.2-5.5.6-.5 4.5 5.5z" fill="#fff"/><path d="m280.9 111.6-1.7 6.5-.8-.2 1.4-6.5z" fill="#fff"/><path d="m329.3 41.4-5.3 4.8-.4-.4 4.8-5.2z" fill="#fff"/><path d="m373.6 44.7-5 5.2c.5-2.6 2.5-4.6 5-5.2z" fill="#fff"/><path d="m489.6 102.4c-1.2-1.8-2.4-3.7-3.6-5.5l.8-.5 3.6 5.5z" fill="#fff"/><path d="m83.8 397.8c1.6-1.6 3.1-3.3 4.7-4.9l.6.5-4.4 5.2z" fill="#fff"/><path d="m366.8 41.1 5.2-4.7.5.6-5.1 4.7z" fill="#fff"/><path d="m509.1 105.9c1 2.2 1.9 4.3 2.9 6.5l-.9.4-2.7-6.5z" fill="#fff"/><path d="m494 131.6c-2.9.9-4.7-.2-6.7-2.6z" fill="#fff"/><path d="m308 95.1-3.8 5.5-.8-.6c1.3-1.8 2.6-3.6 3.9-5.4z" fill="#fff"/><path d="m285.2 141.9 2.9-3.7 1 .8c-1 1.2-2 2.4-3 3.6z" fill="#fff"/><path d="m360.6 25.7h-.2l-.2-.1c.1 0 .2 0 .4.1z" fill="#fff"/><path d="m409.6 228.9c-.5.4-1.1.8-1.6 1.3-1.6 1.3-4.8.6-5-1.3-.3-3.2-.5-6.6.4-9.6.5-1.5 1.5-3.1 2.1-4.9.5-1.5 2-2.7 3-3.9v4.9h.3c.3-1.1.5-2.2.7-2.7 1.3-.2 2.9-.2 3-.6.7-2.9 3-5.2 6-5.6v2.7l1.8-2.6.5 1.1 3-3 .5.5-2.9 4.8.6.3 2.8-4.2c.2 1.1.3 1.6.4 2.1 1.8-1.6 3.5-3.3 5.3-4.8.6-.5 1.5-.4 2.3-.5.1.6.2 1.2.3 2l3.6-3.9c3 1.7 4.4-1.8 6.9-1.8l-1.5 2.4 10.3-4.8c.8.1 2 .6 2.8.3 2.2-.9 4.2-2.2 6.3-3.2.7-.3 1.6-2.1 2.5-.1l3.4-2.9c.1.8.3 1.4.5 2.5 1.2-.8 2.5-1.3 3.3-2.2.9-1.1 1.4-2.3 3.1-1.6.2.1.6-.3.9-.5 2.4-1.5 4.8-3 7.3-4.5.4-.2.9-.1 1.3-.3 1.2-.5 2.4-1 4-1.6 2.7 3.1 4.7-1.4 7.8-1.8-.6.7-.9 1.2-1.6 2.1 3.1 1 6.1 1.9 9.1 2.9.7.4 1.4.9 2 1.5 0 .3-.1.5-.1.8l-4.9.5c1.1 4.1-.9 7.6-1.9 11.4-2.1 8.5-9 12.4-14.4 17.6-2 2-5.4 2.6-8.1 3.9-1.2.5-2.4 1.2-3.4 2.1-2.9 3.1-5.5 6.5-7.9 10-6 9.5-14.3 12.7-24.7 7.4-1-.5-1.7-1.9-2.4-3-.6-1.3-1.1-2.6-1.5-4-2.9 1.9-5.5 3.6-8.2 5.4-3.7 2.4-7.2 4.9-11 6.9-1.3.7-3.4.1-5.4.1l1.3-1.8h-.5v-2.7l-1.8.1 10.5-13.5h-1.9l-.3-.8c1.9-.8 3.7-1.7 5.4-2.7 1.3-1.1 2.4-2.2 3.5-3.5l-1.8-.2c.4-.6.6-1.6 1.1-1.9 3.3-1.3 6.6-2.5 10.7-3.9l-9.8 8.8c2.9-.9 5.5-2 8.1-3.1 2.1-.9 4.1-1.6 6.2-2.5 3-1.3 6.2-2.2 8.8-4 2.1-1.4 3.8-3.3 6.5-3.7 1.6-.3 3.2-1 4.6-1.9 2.7-1.4 5.6-2.4 8.6-2.9 8.1-1.7 16.2-3.1 22.1-9.7 2.2-2.4 4.6-4.7 5.4-9-3.6 2.3-8-2.3-10.5 3-.1.2-.7.2-1 .4-3.4 2-6.7 4.1-10.1 6-2 1.1-4.3 2.9-6.1 2.6-3.4-.6-5.5 1.5-7.5 2.9-4.7 3.3-9.6 5.6-15.3 6.3-3.9.4-7.7 1.2-11.4 2.3-3.8 1.1-7.7 2.4-10.9 4.5-4.6 3-8.8 6.8-13 10.3-.9.9-1.7 1.9-2.5 3zm45.8 6.3-1.2-1.5 4.1-.4-3.1-1.4c-2.8 2.1-.8 4.2-.3 6.3l-1.8-.7c-.3 1-.5 1.8-.7 2.7l-.6-.1c-.1-1.3-.2-2.6-.3-4.1l-1.9 1c.2-.9.3-1.5.5-2.1l-.4-.2c-1 1.5-1.9 3-2.9 4.6l-.4-.2c0-.6.1-1.3.2-2.6l-1.6 2.5c-3.6-2 .5-3.6.2-6.3l-2.8 3.5-.6-.4c1-2.1 2-4.2 3-6.2l-1.1-.8c-1.7 1.5-4 2.7-5.1 4.6-1.4 2.4 2.3 7.7 5.3 8.2 1.1.2 2.3.3 3.5.3 3-.3 6.4.8 8.8-1.8 3-3.1 5.8-6.4 8.6-9.8 1.5-1.8 2.7-4 4.5-6.7l-10.9 2.1c-.4 1.9-.7 3.1-.9 4.3.4 1.3 1 2.5 1.9 3.5.3.5.5 1 .7 1.5-.6.1-1.1.2-1.7.2-1-.1-2-.1-3 0zm13-20.3h6.1l2.4-3.4v-3.1c-.9 0-2.2-.4-2.9.1s-.7 2-1.2 3c-.3.7-.8 1.4-1.4 1.9-1 .6-2 1.1-3 1.5zm-48.5 20.7-.7-.7-3.4 3.3.6.7z" fill="#903373"/><path d="m371.1 361.2c2.1-.5 3.5.8 5.3 1.8 3.1 1.8 4 1.3 6.7-1.6.2-.3.5-.5.8-.8.4 2.1-2.2 4.9-4.8 5-3.8.3-7.7.5-11.5.5-1.4 0-3.1-.3-4-1.2-1.7-1.8-3.9-1.4-5.8-2.2-3.4-1.4-6.9-2.7-8.6-6.5v.1l7.8-.6-.4-4.6h-.2l-.9 4.2-.6-.1c.2-1.9-.1-4.1.9-5.6 2.8-4.7 4.2-9.9 5.5-15 1.6-6.2 2.9-12.6 4.3-18.9 1.2-5.3 2.7-10.5 3.9-15.9.7-3.1 1.7-6.5 1.2-9.5-.6-3.8 1.1-7 1.2-10.5.1-3.7.6-7.4.7-11.1.1-5.4-.3-10.8.2-16.1.5-5.7-1.1-11-1.9-16.4-.6-3.9-3.1-6.2-5.5-8.8-5.4-6-12.3-9.6-19.6-12.7-4.3-1.8-8.3-4.3-12.5-6.4-1.4-.5-2.9-.9-4.4-1.1-.6-.1-1.2-.3-1.8-.6-4.1-3.2-8.6-1.6-13-1.1-2.5.3-5.1.4-7.6 1-6.7 1.5-11.7 5.9-16 10.7-5.5 6.3-9.9 13.5-13.1 21.2-2 4.4-2.9 9.4-3.7 14.2-1.6 9.2-4.5 17.9-9.5 25.9-.3.5-.7.9-1.1 1.4l-.7-.3 1-3.5c-.5.3-1 .6-2 1.2.5-1.5 1.1-3 1.7-4.5 3-5.3 3.1-11.3 4.7-16.9 1.9-6.9 3.5-13.9 5.4-20.7.5-1.6 1.7-3.1 2.6-4.6.1-.3-.4-.9-.2-1.1.8-1 .2-3 2.5-3 1.1 0 3.6-5.6 3.3-6.8l1.8-.1c1.8-5 6.6-7.1 9.5-10.9.8-.9 1.9-1.6 3.1-2 3-1 6.1-1.7 9.1-2.6.5-.1 1.2-.5 1.3-.9.9-3.3 4-3.2 6.4-3.8 2.9-.8 5.9-1.2 8.8.4.2.1.6-.1 1.4-.2l-2.5-2.2c3.1 0 4.6 4 7.8 1.8l-5.2-4.3.8-1 12 7.2c.3-2 1-2.3 2.8-.8 2 1.5 4.1 2.8 6.3 4 .3.2.6.3.9.2 2.3-1.3 4 .2 5.8 1.3 1.2.7 2.3 2.8 4.3 1 .2-.2 1.7.6 2.2 1.3 4.5 5.4 9.2 10.7 13.2 16.5 1.7 2.5 2.1 5.9 2.8 9s1.1 6.5 1.6 9.7c.9 5.9.4 11.8.1 17.7-.3 5.7-.2 11.4-.7 17.1-.8 8.8-1.6 17.6-3.1 26.2-.9 5.6-3 11.1-4.5 16.6-1.3 5.1-2.4 10.2-3.8 15.2-.8 2.6-1.7 5.1-2.8 7.6-1.6 3.8-2.2 7.3-.9 11.5.9 2.8 2.4 5.5 4.3 7.8 2 2.5 3.4 1.1 5.1-.1.4-.2.7-.4 1.1-.6z" fill="#903373"/><path d="m341.6 233.4c-4.7-.2-8.9-.4-13.1-.6-1.1.1-2.1.1-3.2 0-5.1-1-8.5 1.7-11.2 5.3-1 1.4-1 3.6-1.2 5.5-.4 3.5-.1 7.1-1 10.4-1.6 6.1-6.1 9.7-12.1 11.3-3.7 1-7.5 2-10.8.6-2.1 3.9-4.4 7.4-6 11.1-.7 1.8-1.5 3.6-2.5 5.3-2 3.3-5.2 4.8-8.4 6.5-.3.1-.8-.1-.8-.1 0-1.1-.1-1.9-.1-2.7 0-.3 0-.5.1-.8 4.5-5.1 4.8-11.6 6.3-17.7 2-8.4 3.7-16.9 8-24.6 1-1.8 2.8-3.2 4.1-4.9s2.3-3.2 3.5-4.7c.6-.5 1.2-.8 1.9-1.1-.1.9-.1 1.5-.2 2.8l5-4.1-.2-.1c1.9-1.3 3.7-2.7 5.7-3.8 4.1-2.4 8.5-2.2 13-1.7 1.1.1 2.3-.5 3.4-.3s2.3 1 3.5 1.2c2.1.4 4.3.5 6.5.7.6.1 1.3.1 1.9.2 3.9 0 6.6 1.6 7.9 4.8 0 .4.1.9 0 1.5zm-47 23.3-.5-.3c.1-1.2.3-2.4.4-3.5-1 .7-1.2 1.7-1.9 2.2-1.6 1.1-2 3.4-.8 5 .1.1.1.2.2.3.9 1.3 3 2 4.6 2.4 4.1.8 6.8-1.9 9.4-4.5l-2.3-2.6c-.4.3-.8.6-1.2.8-1.1.5-2.3 1-3.4 1.5-.3-.8-.6-1.7-1-2.5-.2-.6-.5-1.2-.7-1.8-1 1-1.9 2-2.8 3zm13.1-6.4.6-.4c1-4.4 2.1-8.8 3.1-13.2l-.7-.5c-1.2 1.6-2.3 3.2-3.3 4.9-.7 1.6-1.2 3.3-1.7 5.1.5.9 1.2 2.5 2 4.1zm-12.6-11.6c-5.2 4.2-7.9 9.8-9.3 16.1zm11.5-5.8-.8-1.4-4.8 2.9.7 1.2zm-2.2 16.9-.6 1 4.4 3.6c0-1.3.3-2.6-.1-2.9-1.2-.7-2.4-1.3-3.7-1.7z" fill="#903373"/><path d="m409.6 228.9c.7-1.1 1.6-2.1 2.5-3.1 4.3-3.5 8.4-7.3 13-10.3 3.3-2.1 7.2-3.4 10.9-4.5s7.5-1.9 11.4-2.3c5.7-.7 10.6-3 15.3-6.3 2-1.4 4.1-3.5 7.5-2.9 1.8.3 4.1-1.5 6.1-2.6 3.4-1.9 6.7-4 10.1-6 .3-.2.9-.2 1-.4 2.4-5.3 6.9-.7 10.5-3-.9 4.4-3.3 6.6-5.4 9-5.9 6.5-14 8-22.1 9.7-3 .5-5.9 1.5-8.6 2.9-1.4.9-3 1.5-4.6 1.9-2.7.3-4.4 2.2-6.5 3.7-2.6 1.8-5.8 2.7-8.8 4-2 .9-4.1 1.7-6.2 2.5-2.6 1.1-5.2 2.2-8.1 3.1l9.8-8.8c-4 1.5-7.4 2.6-10.7 3.9-.5.2-.8 1.2-1.1 1.9l-5 2.5c-.7.6-1.8 1.8-2.2 1.6-3-1.6-3.5 2.1-5.5 2.5z" fill="#fff"/><path d="m354.4 107.7c2.1-3.2 4.4-6.4 6.3-9.7 1.5-2.6 2.7-5.4 4.1-8 .2-.4.8-.6 1.6-.4-2.9 5.3-5.7 10.6-8.7 15.8-.8 1.1-1.6 2.1-2.6 3.1z" fill="#903373"/><path d="m349.2 356.3-1.6.5c-.6-2.1-1.7-4.2-1.8-6.4-.1-2.5 1.5-4.7 3.9-5.4-1.5 3.9-2.5 7.7-.5 11.3z" fill="#903373"/><path d="m430.9 99.6c1.2 1 2.8 1.8 3.5 3 2.5 4.2 6.4 7.5 10.9 9.3.5.2.8.8 1.2 1.3-5-1.2-9-3.6-11.7-8.2-1.1-1.9-2.5-3.7-3.9-5.4z" fill="#903373"/><path d="m412.9 227.7c2-.4 2.5-4.1 5.5-2.5.3.2 1.4-1 2.2-1.6-.5 2.9-2.8 3.7-5 4.7l-.6.7-1.4.5z" fill="#903373"/><path d="m424.4 84.9c3.4 4.4 5.9 9.2 6.6 14.8-.9-2.1-1.8-4.2-2.8-6.3-1.3-2.9-2.6-5.7-3.8-8.5z" fill="#903373"/><path d="m372.3 75.1-5.9 13.1c-.9-2.4 2.4-9.7 5.9-13.1z" fill="#903373"/><path d="m418.4 74.5c.6.5 1.2 1 1.6 1.6 1.4 2.3 2.7 4.6 4 7 .2.6.4 1.2.4 1.8-.2.1-.5.2-.7.3-1.9-3.5-5.1-6.4-5.3-10.7z" fill="#903373"/><path d="m341.4 126.8c-.3 1.1-.8 2.2-1.3 3.2-1.4 2-2.9 3.8-4.4 5.6l-1-.8z" fill="#903373"/><path d="m354.4 107.7.8.7-4.8 7.5-1-.7z" fill="#903373"/><path d="m407.4 241.7 6.5-8 .8.7-6.6 7.9z" fill="#903373"/><path d="m402.5 217c-2.7 2.5-2.4 5.8-2.4 9.1-1.4-3.7-.8-6 2.4-9.1z" fill="#903373"/><path d="m412.9 227.7.7 1.9c-1.3 1-2.7 2-4 3.1l-.3-.4 1.7-1.9-1.3-1.5z" fill="#903373"/><path d="m378.6 63.7c-1-1.4-.3-3.3 3.5-7.8-.5 1.2-1.1 2.3-1.6 3.5-.7 1.4-1.3 2.8-1.9 4.3z" fill="#903373"/><path d="m341.5 126.9 4.2-6.4.9.7c-1.5 2-3 4-4.5 6-.2-.1-.4-.2-.6-.3z" fill="#903373"/><path d="m371.1 361.2-.9.7 2.4-9.6.8.2c-.8 2.9-1.6 5.8-2.3 8.7z" fill="#903373"/><path d="m415 229.1.5-.7.2 1z" fill="#903373"/><path d="m118.5 536.4c-1.7 3.3-5.5 3.2-8.1 4.9-1.2.8-2.1-1.1-1.8-2.5 1.2-5.8-1.5-9.5-7.4-10.2-3.8-.4-7.6-1-11.6-1.6-.4 1.7-.7 3.4-1.3 5.2s-.9 4.2-2.2 5.2c-2 1.6-4.4 3.3-7.5 2.7-4.5-.9-9-4.5-11.1-10.5l-19.7 7.7c-.4 2.7.8 5.4 3.2 6.9.5.4.7 1.1.6 1.7-.3.6-.9 1.1-1.6 1.2-2.5-.2-5-.6-7.5-.9l.1-1.2 6.7.4-5-5.9-8.5 5.5.2 1-3.3-1.8 1.3-1.5c-1.9-1-2-2.2-.3-4 5.3-5.3 10.5-10.7 16-15.8 2.1-2 4.8-3.2 7.2-4.9.8-.5 1.3-1.6 2.1-2 2.9-1.3 5.9-3.6 8.7-3.5 8.1.3 16.4-.6 24.2 2 .8.3 1.6.8 2.3 1.2 3.2-.8 5.7 1.7 8.7 2.2.5.1.8 1.2 1.3 2.1l1.2-1.6 19.4 16.7-6.3 1.3-6-2.4c-.1 1.6-.2 3.2-.3 4.8 0 .1.2.2.4.2 1.2-2.3 3.7-2.1 5.9-2.6zm-33.1-10c-1.1 3.3-2.7 6-6.1 6.2s-5.9-1.1-5.5-5l-3 1.2c.2 3.4 3.1 7.6 5.5 8.5 2.6 1 7.3-.2 8.9-2.6 1.3-1.8 1.6-6.2.2-8.3zm2.3-9.8c-4.7-2.7-13.1-1.8-16.3 1.6l5.2.8-.1.6-1.9.4v.7c1.5.1 3 .2 4.5.2.2 0 .5-.5.5-.8s-.2-.7-.5-.8c-.5-.1-1.1-.2-1.7-.2l-.1-.5z" fill="#903373"/><path d="m233.6 575.1c1.8 1.2 1.8 2.7 1.1 5.3-.8 3.1.2 6.6.2 9.9 0 3.1-.2 6.1-.5 9.1-.2 1.3-2.1 1.2-2.9-.2-.9-1.5-1.7-3.1-2.3-4.7-1-2.6-2.8-4.5-4.7-6.5-3.5-3.7-6.5-7.8-9.6-11.9-.3-.6-.3-1.4.1-2 1.7 2.1 3.2 4.4 5 6.4 2.1 2.2 3.8 1.7 4.6-1.3.3-1 .5-2.1.4-3.2-1-5.5-2.1-10.9-3.2-16.6-3.6 2.1-6.8 4.2-10.8 3.3-3.2-.7-6.6-1.1-8.1-4.8-.3-.7-1.7-1.8-2.2-1.6-2.5.8-3-1.1-3.8-2.5-2.9-5.8-4.3-12-5.4-18.3-.3-1.2-.8-2.3-1.4-3.4-2.2-4-3.8-8.2-3.2-12.8.1-.3.2-.7.4-.9.1-.1.3-.2.5-.2 1 5 4.7 8 8.6 10.1 4.5 2.5 9.8 3.5 14.7 5.3 7.8 3 13.1 8.3 15.8 16.3 2.3 7 4.9 13.8 7.2 20.8.4 1.1-.3 2.6-.5 4.4zm-33.6-20.1c1.4-4.9 1-10.5 7.8-12.8l-13.5-8.1c1.5 7.3 2 14.5 5.7 20.9zm6.8 1.9c-2.8-2.5 4.3-2.9.2-5.1l3.4-4.9c-6.4 1.3-6.8 1.9-6 8.1.1.9.3 1.8.5 2.6.2.6.6 1.1 1.1 1.4 4.4 2.3 8.8 2.3 13-.5 1.4-1.1 1.6-3.1.5-4.5-.1-.2-.3-.3-.5-.5-.5-.4-2.3 0-3 .6-1.5 1.7-2.9 3.4-4.2 5.3.1-1.3.2-1.8.2-2.4s-.1-1.1-.1-1.6c-.5 0-1 .1-1.5.2-1.3.4-2.7.9-3.6 1.3z" fill="#903373"/><path d="m171 623.7c1.9.7 3.2.3 4.7-1.8 1.5-1.6 3.5-2.5 5.7-2.5 1.7 0 3.6 1.7 5 3 1.8 1.8 3.4 3.8 4.8 5.9.7 1 1.3 2.1 1.8 3.2 3.9 1.9 5.3 4.4 5 9-1.9 1.4-3.5 2.3-4.5 3.6-3 3.7-6.8 6.6-11.1 8.5-.6.2-1.1.5-1.5 1-2.2 3.9-6 1.8-9 2.6-1.1.2-2.3-.2-3.4-.1-5.2.8-10.5-.7-14.6-4-2.5-2-4.9-4.1-7.2-6.3-1.6-1.5-.4-3 .6-4.2 3-3.2 6.2-6.4 9.4-9.5 3.7-3.6 7.4-7.1 11.2-10.5.6-.4 1.4-.4 2.1-.1.3.2.5 1.1 1 2.2zm-16.1 17.1c2.3 2.9 4.2 5.9 8.5 7.1 4.7 1.2 9 2.8 13.4-.8 2-1.6 4.5-2.6 6.8-3.8 2.8-1.5 5.7-2.9 7-6.6-1.3-.2-2.4-.4-3.5-.7-5.5-1.5-11-3.3-16.8-1.7-2.5.6-4.9 1.2-7.3 2.1-2.8 1.4-5.5 2.8-8.1 4.4z" fill="#903373"/><path d="m223.6 522.3c-.5 0-1.3.3-1.5.1-2.6-2.9-5.1-5.8-7.7-8.8 0-.2 0-.4 0-.5-2.7-3.5-5.4-7-8-10.6-.7-1.2-1.3-2.5-1.8-3.8-.6-1.7-1.5-3.3-2.7-4.6-1.3-1.3-1.3-3.9-1.6-6-.2-1.4-.1-2.6-1.6-3.6-.9-.6-1.1-2.3-1.5-3.6-.9-3.3-1.7-6.7-2.5-10.1-.3-1.5-.5-3-.8-4.5-4.4.8-1.2-3.4-2.9-4.6l-2.8.6v-6.5c-.1 0-.7-.1-.8-.4-1.1-2.8-2.5-5.5-3-8.4-.6-4.7-.9-9.4-.8-14.2.2-2 .7-4.1 1.5-5.9.5-1.4 1.6-2.6-.8-3.2l1.8-.4c-2.2-.9-2.6-2-1.5-3.8s2.1-3.7 3.1-5.5l.8.4-2.3 4.9.5.2c.5-.9 1-1.7 1.7-2.9 1.2 2.6-2 6.4 2.4 7.5.4-1.1.9-2.4 1.3-3.6l.6.1c-.1 2.3-.3 4.5-.5 7 3.1 1.8.9 4.5.4 7.1 2.6-.6 2.2 1.4 2.4 2.8.1.4-.4.8-.5 1.2-.8 3.3-.5 3.6 3 3.5 2 2.5-.2 4.8-.5 7.1-.2 1.5-1.8 3.2.8 4.3.2.1.2.8.2 1.2.3 2.3-.1 5.3 1.1 6.9 2.7 3.6 2.1 7.9 3.5 11.7.9 2.4.7 5.3 1.9 7.5 4.3 7.9 4.5 17.5 10.3 24.7.3.4.7.8 1.4 1.7-.8-4.7-4.7-7.8-4-13.1 1.5 1.8 2.9 2.9 3.4 4.4 1.9 4.9 3.4 10 5.2 15 .3.9 1.2 1.5 1.6 2.4.8 1.5 1.4 3 2.1 4.5-.9-1-1.8-2.1-2.9-3.1-.4-.4-1.2-.4-2.1-.7z" fill="#903373"/><path d="m60 483.9c-.9.7-1.4 2.4-2.9.7-.1-.1-.6 0-.9.1-3.6 1-7.2 2-10.7 3.2-4.6 1.5-9.8 1.9-13.3 6.2l-.7-.6c1.3-1.8 2.3-3.8 3.9-5.2 1.8-1.8 3.9-3.2 6.2-4.3 2.5-1 5.2-1.5 7-3.8.1-.2 1 .3 1.6.5l-1.6 2.3c3.4-.1 2.5-5.7 6.5-4.1l.3 1.5c1.1-1.5 1.8-2.5 2.6-3.6l1.1 1.3 3.1-4.3c.1 1.1.2 2.3.1 3.4-.3 1-.6 1.9-1.1 2.8l.7.6 4.1-4c-.1 1.1-.2 2.1-.3 3.7l3.4-2.5.7 1.4 3.2-2.9.6 2.4 3.6-2.9-1.1 3.4.5.6 7-5.4-1.8 3.4.4.2 6.2-5.5-1.1 3.2 4.7-3.7.6.3-.5 2.3 7.9-3.5c-.4 1.5-.7 2.8-1.2 4.5l7.1-6.6.8.6c-.5 1.6-.9 3.3-1.4 4.9 1.4-1.6 5-.6 4.9-4.1.7-.2 1.4-.3 2.1-.2s1.5.3 2.2.6l.4 1.6.9.1c.4-2 .8-4 1.1-5.8l1.9 3.9 2.6-3.1 1.5 2 2.4-1.5c-1.1 3.7-1.9 7.3-3.2 10.8-.4 1-2 1.5-2.6 2-1.2-.1-2.3-.6-3-.3-2.7 1.5-6 1.9-8.9.9-2.7-.8-5.1-1.5-7.4 1.1-1.1-2.3-2.5-1.8-4.4-1.5-6 1-12.1 2.3-18.2 2.2-4.3-.1-8.6.8-12.9.5-.5 0-1.1.2-1.5.6-1.3 1.8-2.4 1.4-3.2-.4z" fill="#903373"/><path d="m166.1 425.1-.4-1.4-.9.1v10.3c-1.9 1.1-2.4 4-1.6 11 .5-.1 1-.1 1.5-.2.2 0 .4.2.2.1-.4 1.3-1.2 2.4-1.1 3.4 1.1 7.9 3 15.8 5.5 23.4 2 6 3.2 12.2 5.1 18.2 2.1 6.6 4.8 13 6.9 19.6 1.2 3.8 2.1 7.7 2.8 11.7 1 5.1 1.3 10.4 2.9 15.2 2.1 6.3 1.2 12.8 2.6 19 1.3 5.9 2.6 11.8 4 17.7.3 1 .6 2.1.8 3.1.5 4.4.7 4.7 5.1 4.7.6-1.6 1.2-3.2 2-5.3.9 1.8 1.5 2.9 2.1 4.1-1.1 2.5-3.2 3.3-6 3.7-2.4.3-4.6 1.8-7 2.4-1.7.4-3.6.1-5.4.2-1.4 0-2.9.1-4.3.2-.4 0-.7.3-1 .2-2.2-.3-4.5.5-5.9 2.2-1.3 1.3-4.6.2-6.1-1.6-1-1.2-.9-2.9.4-4.7.3.4.6.7.7 1.1.8 3.5 2.7 4.4 5.5 2.3 1.9-1.5 3.1-3.8 4.5-5.5 1.9 1 4.3 2.4 6.8 3.6 2.7 1.3 3.4.9 4-1.9.4-1.5.6-3 1-4.5.5.7 1.2 1.6 2.3 3.1-.5-2.8-.6-5.1-1.2-7.3-1.8-6.7-3.9-13.4-5.5-20.2-.8-3.3-.8-6.7-1.3-10.1-.5-3.6-.9-7.2-1.7-10.8-1.9-8.6-3.9-17.2-5.9-25.8-.5-2.4-.8-4.8-1.5-7.2-.9-3-2.2-6-3.2-9-1.9-6.1-3.5-12.2-5.4-18.3-1.2-4-3.1-7.8-4-11.8-1.1-4.7-1.5-9.5-2.2-14.2-.3-2.1-.6-4.2-.8-6.3-.6-5.9-.3-11.8.9-17.6.2-.8.1-1.7 1.8-1.3 1 .2 2.4-1.6 3.7-2.3 1-.5 2.1-.9 3.2-1.1l.6.9c-1 1-2 1.9-2.8 3-.4.5-.3 1.2-.6 1.8-.2.7-.6 1.4-1.1 2.1z" fill="#903373"/><path d="m99.8 401.3c2.4-4.1 4.8-8.2 7.3-12.3.1-.2.6-.2 1-.3 1.3 2.7-1.7 3.6-2.3 5.6-.7 2.2-2.4 4-3.8 5.9-.4.6-1.4.7-2.2 1.1z" fill="#903373"/><path d="m182.2 596.3c-.5 4.6-1 9.3-1.6 14.1-2.2-5 1.4-9.4.6-14.1z" fill="#903373"/><path d="m166.1 425.1c.6 1.9 1.1 3.9 1.7 5.8 0 .1-.6.6-.7.5-.4-.3-1-.7-1-1-.1-1.8-.1-3.5 0-5.3z" fill="#903373"/><path d="m223.6 522.3-3.8-5.9c.9.3 1.6.3 2.1.7 1 .9 1.9 2 2.9 3.1z" fill="#fff"/><path d="m178.7 431.2-2.7-5 1.2-.6c.8 1.8 1.5 3.5 2.3 5.3z" fill="#903373"/><path d="m214.3 513.1c.1.2.1.4 0 .5z" fill="#fff"/><path d="m428.3 635.5c.1 1.2.7 2.8.2 3.5-.8 1-2.5 2.2-3.6 2-4.3-.8-7.7 1.4-11.3 2.8-4 1.7-7.9 3.8-11.8 5.8-.4.2-.8.4-1.2.5-4-.1-7.9-.2-11.9-.3-2.4-.1-1.9-2.4-2.8-3.6.5-.4 1.1-.8 1.7-1.2.4-.2 1 0 1.3-.2.6-.5 1.1-1 1.5-1.5-.7-.3-1.4-.5-2.1-.6-1 .1-2 .2-2.9.5l-.3-.8c.9-.3 1.8-.7 2.6-1.1.6-.4 1.2-.9 1.7-1.5l-.5-.7c-3.4.4-6.8.4-10.1 1.2-2.5.6-4.7 2.5-7.2 3.3-3.7 1.1-7.5 1.8-11.3 2.6-.6.1-1.3-.3-2-.5.5-.9 1.1-2.7 1.6-2.6 6.3.5 10-4.3 14.8-6.8 3.9-2 7.6-4.3 11.6-6.1.8-.4 2.6.4 3.5 1.2 3.2 2.8 3.7 3 7.1.7 2.4-1.7 4.1-2.2 7-.3 3.2 2.1 7.2 3 11 4.1 2.7.8 5.4 1.4 8.2 1.8 1.9.4 3.9.8 4.1-2.5z" fill="#903373"/><path d="m360.9 597.6 1.2 3.5 4.7-1.1c1.2 1.3 1.2 2.3-.8 3.7-3.2 2.3-6 5.2-8.9 7.9-.4.4-1 .5-1.5.3l4.5-6-10.3 1.2c1.3 5.1.6 8-2.3 9-1.9.7-4 .4-6 .8-2.6.5-3.2-1.5-3.9-2.7l-7.7 7.9 2.8.2v.6l-8.3 1.2-1.6-3 .7.4c2.4-2.9 4.9-5.8 7-8.8 2.7-3.9 6.5-6.3 10.2-9 4.1-2.9 8.9-3.2 13.5-4.3 1.5-.3 3.1 0 3.4-2.1 0-.3.9-.4 1.4-.6zm-14 10.4c-1 1.9-1.4 3.6-2.5 4.3-.8.5-2.4-.5-4.2-1l-1 3.6c1.3.1 2.2.2 3.2.2 1.1.1 2.1.1 3.2 0 2.1-.2 3.6-2.1 3.4-4.1 0-.1 0-.2 0-.3-.3-1.6-.6-3.3-2.1-2.7z" fill="#903373"/><path d="m360.9 597.6-1.9-.9c-.4-2.2-1.8-.5-2.7-.6-1.4.1-2.8.3-4.1.8l-.4-.9 1.5-1.2c2.2-.5 4.5-1 6.7-1.7.6-.2.9-1.4 1.4-2.4l3.5-3.1c-2.1 0-4.1.3-6.1.9-.4.1-.6.6-.9.9l-2.8 3.2c.1-.4.2-.9.5-1.8-3.1 1.8-5.9 3.4-8.7 4.9-3.5 1.9-7.1 3.6-10.5 5.4-1.2.5-2.3 1.3-3.1 2.4-1.1 2-2.8.5-4.1 1.2-2.8 1.6-5.6 1-8.6-.1 22.4-4.5 37.6-18.7 50-36.6 0 .3-.1.6-.1.9-.1.4-.3.9-.5 1.8l3.6-1c-1.2 3.3-2.5 6.5-3.7 10l1.1.2c-1.8 4.7-2.2 10.3-7.5 13 .8 1.7-.3 3.7-2.6 4.7z" fill="#903373"/><path d="m426.9 482.3c-1.7 2.9-3.4 5.8-5.2 8.6-2.6 4-5.5 7.9-7.9 12-3.8 6.3-7.6 12.7-11.1 19.2-3.3 6.1-6.3 12.5-9.3 18.7-1.9 3.9-3.7 7.9-5.4 11.9-.5 1.1 0 2.4 1.1 2.9.4.2.8.2 1.3.1.9-.1 1.8-.3 2.7-.5 2-.4 3.3.2 4.3 2.2.8 1.5 1.3 4.2 4 3.2 1.2-.4 2.2-1.6 3.5-2.6-.2 1-.1 3.1-.8 3.4-1.6.6-3.3 2.1-5.3.2-1.2-1.2-3.5-1.3-4.9-2.4-2.5-2-6.3-1.7-8.2-4.9-.9-1.5-2.6-2.6-3.8-4-.4-.4-.5-1-.4-1.5 1.6-3.5 3.4-6.8 5.1-10.3l1.1.5c-.6 1.5-1.1 3-1.8 4.4-.4.8-.8 1.6-1.3 2.4-2.1 3.7-2.1 3.7 1.6 6.3 10.7-24.9 24.1-48.6 40-70.5z" fill="#903373"/><path d="m366.7 691.1c-.4-5-1.8-10.3 1.8-14.7 1.7-2.1 4.1-3.6 6.3-5.4 4.8-4 10.6-5.7 16.6-7.2l1.5 2.1c-2.3.2-4.6.7-6.8 1.3-2.2.8-4.2 2.3-6.4 3.4-1.4.8-3 1.4-4.4 2.1s-3.4 1.4-2.9 4c-1.2-1.8-1.9-.9-2.7.2-2.6 3.5-2.6 7.6-2.7 11.7-.1.8-.2 1.6-.3 2.5z" fill="#903373"/><path d="m355.1 592.6 2.8-3.2c.3-.3.5-.8.9-.9 2-.6 4.1-.9 6.1-.9l-3.4 3.1c-.5 1-.8 2.2-1.4 2.4-2.2.8-4.5 1.2-6.7 1.7z" fill="#fff"/><path d="m400.2 668.2-5.1-1.6c1.5-1.1 3.6-.8 4.7.7.2.3.3.6.4.9z" fill="#903373"/><path d="m455.4 235.2c1-.1 2-.2 3-.3.6-.1 1.1-.2 1.7-.2-.2-.5-.4-1-.7-1.5-.9-1-1.6-2.2-1.9-3.5.2-1.2.5-2.4.9-4.3l10.9-2.1c-1.8 2.7-3 4.9-4.5 6.7-2.7 3.3-5.6 6.6-8.6 9.8-2.4 2.6-5.8 1.5-8.8 1.8-1.2.1-2.3 0-3.5-.3-3-.5-6.7-5.8-5.3-8.2 1.1-1.9 3.3-3.1 5.1-4.6l1.1.8c-1 2.1-2 4.2-3 6.2l.6.4 2.8-3.5c.3 2.7-3.9 4.4-.2 6.3l1.6-2.5c-.1 1.3-.2 2-.2 2.6l.4.2c1-1.5 1.9-3 2.9-4.6l.4.2c-.1.6-.3 1.2-.5 2.1l1.9-1c.1 1.5.2 2.8.3 4.1l.6.1c.2-.8.5-1.7.7-2.7l1.8.7z" fill="#fff"/><path d="m468.4 214.9c1-.4 2-.9 3-1.5.6-.5 1.1-1.2 1.4-1.9.5-1 .5-2.4 1.2-3s2-.1 2.9-.1v3.1l-2.4 3.4z" fill="#fff"/><path d="m455.4 235.2-.5 2.9c-.4-2-2.5-4.1.3-6.3l3.1 1.4-4.1.4z" fill="#fff"/><path d="m419.9 235.6-3.5 3.2-.6-.7 3.4-3.3z" fill="#fff"/><path d="m294.6 256.7c.9-1 1.8-2 2.9-3.2.3.6.5 1.2.7 1.8.3.8.6 1.7 1 2.5 1.1-.5 2.3-1 3.4-1.5.4-.2.8-.5 1.2-.8l2.3 2.6c-2.7 2.7-5.3 5.4-9.4 4.5-1.7-.3-3.7-1.1-4.6-2.4-1.3-1.5-1.2-3.8.3-5.1.1-.1.2-.2.3-.2.6-.5.9-1.5 1.9-2.2-.1 1.2-.3 2.4-.4 3.5z" fill="#fff"/><path d="m307.7 250.2c-.8-1.6-1.5-3.1-2-4.1.4-1.7 1-3.4 1.7-5.1 1-1.7 2.1-3.3 3.3-4.9l.7.5c-1 4.4-2.1 8.8-3.1 13.2z" fill="#fff"/><path d="m295.1 238.6-9.3 16.1c1.4-6.3 4.1-11.9 9.3-16.1z" fill="#fff"/><path d="m306.6 232.9-4.9 2.8-.7-1.2 4.8-2.9z" fill="#fff"/><path d="m304.4 249.8c1.3.5 2.5 1 3.7 1.8.4.3.1 1.5.1 2.9l-4.4-3.6z" fill="#fff"/><path d="m85.4 526.4c1.4 2.2 1 6.5-.2 8.3-1.6 2.3-6.2 3.6-8.9 2.6-2.4-1-5.3-5.1-5.5-8.5l3-1.2c-.4 3.9 2.1 5.2 5.5 5s5-2.9 6.1-6.2z" fill="#fff"/><path d="m87.7 516.6-10.2 1.8.1.5c.6 0 1.1.1 1.7.2.3.2.5.5.5.8s-.3.8-.5.8c-1.5 0-3-.1-4.5-.2v-.7l1.9-.4.1-.6-5.2-.8c3-3.2 11.4-4.1 16.1-1.4z" fill="#fff"/><path d="m118.5 536.4c-2.2.4-4.7.2-6 2.7-.1-.1-.4-.2-.4-.2.1-1.6.2-3.2.3-4.8z" fill="#fff"/><path d="m200 555c-3.6-6.4-4.1-13.6-5.6-20.9l13.5 8.1c-6.9 2.3-6.5 7.9-7.9 12.8z" fill="#fff"/><path d="m206.8 556.9c.9-.3 2.3-.8 3.7-1.3.5-.1 1-.2 1.5-.2 0 .5.1 1.1.1 1.6s-.1 1.1-.2 2.4c1.3-1.9 2.7-3.6 4.2-5.3.7-.6 2.5-1.1 3-.6 1.4 1.1 1.6 3.1.5 4.5-.1.2-.3.3-.5.5-4.2 2.8-8.6 2.9-13 .5-.5-.3-.9-.8-1.1-1.4-.3-.9-.4-1.7-.5-2.6-.9-6.2-.5-6.8 6-8.1l-3.4 4.9c4 2.1-3.1 2.6-.3 5.1z" fill="#fff"/><path d="m154.9 640.8c2.6-1.6 5.3-3.1 8.1-4.4 2.4-.8 4.8-1.5 7.3-2.1 5.8-1.7 11.3.2 16.8 1.7 1.1.3 2.2.5 3.5.7-1.3 3.7-4.2 5-7 6.6-2.3 1.2-4.8 2.2-6.8 3.8-4.4 3.6-8.6 2.1-13.4.8-4.3-1.2-6.2-4.2-8.5-7.1z" fill="#fff"/><path d="m346.9 608c1.4-.6 1.8 1.1 2.1 2.6.4 2.1-1 4-3.1 4.4-.1 0-.2 0-.3 0-1.1.1-2.1.1-3.2 0-1 0-2-.1-3.2-.2l1-3.6c1.8.5 3.4 1.5 4.2 1 1.1-.6 1.5-2.3 2.5-4.2z" fill="#fff"/></svg>