<svg viewBox="0 0 955.32 209.7" xmlns="http://www.w3.org/2000/svg"><path d="m0 13.62h32v144h-32z"/><path d="m76.62 13.68v40.14h-14.89l-7.06-40.14z"/><path d="m131.84 103.59h44.21v-26.01h-44.21v-25.96h50.06v-28.11h-82.01v134.11h82.87v-28.08h-50.92z"/><path d="m349.62 134.82c-19.2 0-28.68-11.4-28.68-31.54 0-20 9.08-31.54 28.68-31.54 8.82 0 15.1 2.21 19.5 5.9v-25.25a53.41 53.41 0 0 0 -24.28-5.81c-38.44 0-55.45 25.31-55.83 56.53s17.39 56.52 54.45 56.52a54.31 54.31 0 0 0 25.66-6.45v-24.44c-4.43 3.8-10.73 6.08-19.5 6.08z"/><path d="m202.8 152.42a74.86 74.86 0 0 0 32.39 7.21c9.41-.09 21.81-.2 31-9.06a32 32 0 0 0 7.54-33.87c-2.54-6.48-6.74-10.3-9.77-13-6.44-5.73-16.5-11.22-26.08-16.45-1.4-.76-4.27-2.31-5.44-5.44a9.66 9.66 0 0 1 1.36-8.9c3.52-4.53 11-3.67 16.07-3.09a45.47 45.47 0 0 1 22 9l-.03-23.82c-6.47-3.39-13.85-9-33.15-8.39-9.86.33-27.38 1.09-36 14.11-5.77 8.71-5.63 20-2.43 28.09 4.53 11.47 15.67 17.74 18.55 19.24 3.33 1.73 7 3.75 14.21 7.8 2.93 1.63 6.91 4.73 8.3 6.93a8.73 8.73 0 0 1 -1.49 11.49c-2.88 2.67-12.17 2.72-14.61 2.38-9.24-1.28-17.47-5.44-22.36-8.32z"/><path d="m571.92 123.17a34.62 34.62 0 0 1 -4.86 5c-2.37 2-4.72 4-8.33 5a14.66 14.66 0 0 1 -10.5-.42 14.13 14.13 0 0 1 -6.44-6.44 15.65 15.65 0 0 1 -1.78-7v-69.73h-32.11v78.24a30.89 30.89 0 0 0 4.78 17.78c6.2 9.6 15.93 12.36 18.69 13.09 4.45 1.19 7.93 1.08 12.38.94 6.22-.19 12.3-.38 18.41-4a27.89 27.89 0 0 0 9.76-9.89l4.86 11.9h26.22v-108h-31.08v73.59z"/><path d="m708.39 64.63a44 44 0 0 0 -18.56-14.48 50.31 50.31 0 0 0 -12.36-3 85.85 85.85 0 0 0 -17.17-.43c-3.44.22-7.09.86-12.37 1.75a48.77 48.77 0 0 0 -13.93 4.32v26c3.57-2.29 9.77-4.65 16.71-6.23a43.64 43.64 0 0 1 17.47-.95c4.59.59 11.22 2.52 15.12 8.45a19.67 19.67 0 0 1 2.7 7.94 28 28 0 0 1 0 9.58 53.47 53.47 0 0 0 -4.94-2.65c-4-1.9-15.2-7.16-28.83-5-4.7.73-15.69 2.45-23.13 11.71-6.22 7.76-6.7 16.75-7 21.93a34.37 34.37 0 0 0 1.8 14.86 32.94 32.94 0 0 0 12.76 15.77 35.74 35.74 0 0 0 16.67 5.48 40.59 40.59 0 0 0 13.44-.75 39 39 0 0 0 16-8 37.55 37.55 0 0 0 4.8-4.81l3.43 11.5h26.94v-64a48.07 48.07 0 0 0 -9.55-28.99zm-39 73c-13.82 0-14.78-9.75-14.39-15.82.28-4.24 3.55-11.21 15.22-11.21 15.62 0 16.72 8.51 16.72 11.21-.04 11.66-6.7 15.86-17.58 15.86z"/><path d="m807.74 13.75v46.66a37 37 0 0 0 -5.46-5.41 39.87 39.87 0 0 0 -22-8.4c-2.36-.17-19.12-1.1-31.08 10.94-7.41 7.46-9.35 16.26-11.48 25.93-1.74 7.87-1.75 14-1.76 20.43 0 9.44 0 17 3.17 26.08 1.65 4.68 3.88 11 9.65 16.91 10.35 10.59 20.64 12.76 27.85 12.76 4.69 0 12.83-.14 21.12-4.94a32.06 32.06 0 0 0 10.08-9.3l4.17 12.21h26v-143.87zm-19 119.1c-15.89 0-19.72-14-19.72-30.61s6-29.74 19.56-29.74c16.66 0 17.85 11.83 17.84 30.68-.04 16.63 1.12 29.67-17.71 29.67z"/><path d="m952.7 112.72a73.77 73.77 0 0 0 2.23-27 46.2 46.2 0 0 0 -6.79-20.47c-11-17.71-35.33-18.67-39.25-18.69-5.2 0-22.26.16-36.11 13-15.44 14.31-15.72 34-15.82 41.58-.09 6.55-.39 27.59 15.41 43.21 13.9 13.73 31.66 14.78 39.76 15.26a74.05 74.05 0 0 0 33.87-6.11l-.12-24.66a64.57 64.57 0 0 1 -12.27 4.33c-5.9 1.43-16.44 4-27.84-.08-4.31-1.54-10.61-3.79-13.88-10.11a18.64 18.64 0 0 1 -1.84-10.26zm-63.7-18.15a22.35 22.35 0 0 1 2-11.59 20.14 20.14 0 0 1 7.43-8.8 20.39 20.39 0 0 1 13.91-2.8 18.71 18.71 0 0 1 11.24 5.35 17.74 17.74 0 0 1 4.7 11.54c0 4.84-1.14 5-2.2 6.3z"/><g fill="#903373"><path d="m514.74 3.76-34.51 2.55-4.51 13.69 14.65-1.45-25.5 33.39a57.66 57.66 0 0 0 -50-1.1l-6-9 13.72-10-8.54-11.68-13.22 9.67-9.65-14.46 16.38 2.82-4.32-12.86-32.92-5.33-6.88 34.55 10 8.49 3-16.95 9.65 14.46-13.81 10.13 8.55 11.68 13.34-9.76 5.54 8.29a57.7 57.7 0 0 0 29.16 99.36v15.45h-19.08v16.94h19.08v17.06h16.82v-17.06h19.05v-16.94h-19.05v-15a57.69 57.69 0 0 0 34.18-97.76l27.13-34.34 1.45 17.08 10.34-7.68zm-68.07 138.76v-12.2a45.87 45.87 0 0 0 3.94-3.87c3.89-4 11.55-9.67 12.06-16.79.35-4.82-3.56-13.48-9.47-12.86-8.52.9-9.17.16-14.14 1.11-1.94.37-2.79 5.45-1.26 6.69 4.07 3.31 8 1.69 10.32 2.42.69.22-1.59 1.55-2.68 1.91-4.32 1.44-8 2.93-23.06-4.84-2.72-1.4-5-.64-5.74.76-1.35 2.63-.11 12.3 2.38 15.45 2.87 3.64 4.88 6.78 9.75 9.82v11.93a39.91 39.91 0 1 1 17.9.47z"/><path d="m423.33 83c-1.44-.75-4.73 1.77-6.18 4.76a9.46 9.46 0 0 0 .87 9.66c1.68 2.19 4.81 4 6.1 3.09 1.1-.76 1.21-2.16.48-7.51-.81-5.87-.05-9.33-1.27-10z"/><path d="m432.52 76.53c-2.49-.45-5.63 1.62-6.5 4-.62 1.74-.31 2.32-.15 12.51 0 2.55-.45 7 3.16 8.24a5.61 5.61 0 0 0 2.14.87 13.82 13.82 0 0 0 3.65-.39c1.34-.08.95-13 .87-22.89-.02-1.87-2.17-2.16-3.17-2.34z"/><path d="m441.79 73.67c-2.6 0-4.81 1.54-4.82 2.1-.29 9.26-.53 16.06-.17 17.63.18.79.6 2.51 2.1 2.89a9.66 9.66 0 0 0 5.61.23c.53-.13.35-4 1-8.66.65-5 .91-9.44 1-11.87.08-1.91-3.14-2.29-4.72-2.32z"/><path d="m454.41 75.94c-1.77-.65-4.61-1.45-6.16-.23-1.79 1.4-1.21 3.58-1.37 11.8-.09 5.12-.3 7.89 1.06 8.53.7.33 2.41-.1 3.88-.54a3.3 3.3 0 0 0 2.54-2.39c.93-3.67 1.81-6.21 2.12-10.22.2-2.59 1.39-5.66-2.07-6.95z"/></g></svg>
