<svg viewBox="0 0 481.14 97.23" xmlns="http://www.w3.org/2000/svg"><path d="m454.09 54.18a.8.8 0 1 1 -.8-.79.8.8 0 0 1 .8.79zm1.84-.79a.8.8 0 1 0 .8.79.8.8 0 0 0 -.8-.79zm-2.64 7.91a.8.8 0 1 0 0 1.59.8.8 0 0 0 0-1.59zm2.64 0a.8.8 0 0 0 -.81.8.83.83 0 0 0 .24.56.78.78 0 0 0 .57.23.8.8 0 1 0 0-1.59zm-2.64-2.64a.8.8 0 1 0 .79.79.79.79 0 0 0 -.79-.79zm2.64 0a.8.8 0 1 0 .8.79.8.8 0 0 0 -.8-.79zm-2.64-2.66a.79.79 0 1 0 0 1.58.79.79 0 1 0 0-1.58zm2.64 0a.79.79 0 1 0 0 1.58.79.79 0 1 0 0-1.58zm-2.64 15.81a.8.8 0 0 0 -.8.8.81.81 0 0 0 .8.81.8.8 0 0 0 .79-.81.79.79 0 0 0 -.79-.77zm2.64 0a.8.8 0 0 0 -.81.8.81.81 0 1 0 1.61 0 .8.8 0 0 0 -.8-.77zm-2.64-2.63a.79.79 0 0 0 -.8.79.8.8 0 0 0 .8.8.79.79 0 0 0 .79-.8.79.79 0 0 0 -.79-.76zm2.64 0a.8.8 0 0 0 -.81.79.81.81 0 0 0 1.61 0 .79.79 0 0 0 -.8-.76zm-2.64-2.64a.8.8 0 1 0 0 1.59.8.8 0 0 0 0-1.59zm2.64 0a.8.8 0 1 0 .8.8.8.8 0 0 0 -.8-.77zm-2.64-2.64a.8.8 0 0 0 0 1.6.8.8 0 0 0 0-1.6zm2.64 0a.8.8 0 1 0 .8.8.8.8 0 0 0 -.8-.77zm-2.64 18.46a.8.8 0 0 0 -.8.8.79.79 0 0 0 .8.79.78.78 0 0 0 .79-.79.79.79 0 0 0 -.79-.77zm2.64 0a.8.8 0 0 0 -.81.8.81.81 0 0 0 1.61 0 .8.8 0 0 0 -.8-.77zm-2.64-2.64a.8.8 0 0 0 -.8.81.79.79 0 0 0 .8.79.79.79 0 0 0 .79-.79.8.8 0 0 0 -.79-.78zm2.64 0a.81.81 0 0 0 -.81.81.81.81 0 0 0 1.61 0 .8.8 0 0 0 -.8-.78zm-2.64-2.64a.81.81 0 0 0 -.8.81.79.79 0 0 0 .8.79.79.79 0 0 0 .79-.79.8.8 0 0 0 -.79-.78zm2.64 0a.81.81 0 0 0 -.81.81.81.81 0 0 0 1.61 0 .81.81 0 0 0 -.8-.78zm-2.64-2.63a.8.8 0 0 0 -.8.79.79.79 0 0 0 .8.8.78.78 0 0 0 .79-.8.79.79 0 0 0 -.79-.76zm2.64 0a.8.8 0 0 0 -.81.79.81.81 0 0 0 1.61 0 .8.8 0 0 0 -.8-.76zm-2.64 18.55a.77.77 0 0 0 -.56.23.74.74 0 0 0 -.24.55.8.8 0 1 0 1.59 0 .79.79 0 0 0 -.79-.78zm2.64 0a.79.79 0 0 0 -.81.78.81.81 0 1 0 1.61 0 .79.79 0 0 0 -.8-.78zm-2.64-2.65a.8.8 0 0 0 0 1.6.8.8 0 0 0 0-1.6zm2.64 0a.8.8 0 1 0 0 1.6.8.8 0 1 0 0-1.6zm-2.65 5.28a.79.79 0 0 0 -.79.8.8.8 0 1 0 1.59 0 .8.8 0 0 0 -.8-.85zm2.65 0a.8.8 0 0 0 -.81.8.81.81 0 0 0 .81.8.8.8 0 0 0 .79-.8.79.79 0 0 0 -.79-.85zm-2.64-7.92a.8.8 0 0 0 -.8.81.79.79 0 0 0 .8.79.79.79 0 0 0 .79-.79.8.8 0 0 0 -.79-.86zm2.64 0a.81.81 0 0 0 -.81.81.81.81 0 0 0 1.61 0 .8.8 0 0 0 -.8-.86zm-2.64-2.71a.8.8 0 0 0 0 1.6.8.8 0 0 0 0-1.6zm2.64 0a.8.8 0 1 0 .8.8.8.8 0 0 0 -.8-.8zm-7.93 8a.8.8 0 0 0 -.56.23.73.73 0 0 0 -.23.55.8.8 0 1 0 1.59 0 .79.79 0 0 0 -.8-.78zm2.63 0a.79.79 0 0 0 -.79.78.8.8 0 1 0 1.6 0 .79.79 0 0 0 -.79-.78zm-2.63 2.58a.79.79 0 0 0 -.79.8.8.8 0 1 0 1.59 0 .79.79 0 0 0 -.8-.8zm2.63 0a.79.79 0 0 0 -.79.8.8.8 0 1 0 1.6 0 .8.8 0 0 0 -.79-.8zm-7.88-2.58a.8.8 0 0 0 -.56.23.76.76 0 0 0 -.23.55.8.8 0 0 0 .79.81.8.8 0 0 0 .8-.81.79.79 0 0 0 -.8-.78zm2.63 0a.79.79 0 0 0 -.79.78.8.8 0 1 0 1.59 0 .79.79 0 0 0 -.8-.78zm-2.63 2.63a.79.79 0 0 0 -.79.8.8.8 0 0 0 .79.8.81.81 0 0 0 .8-.8.8.8 0 0 0 -.8-.85zm2.63 0a.79.79 0 0 0 -.79.8.8.8 0 1 0 1.59 0 .79.79 0 0 0 -.8-.85zm-7.9-2.63a.75.75 0 0 0 -.55.23.74.74 0 0 0 -.24.55.8.8 0 0 0 .79.81.8.8 0 0 0 .8-.81.79.79 0 0 0 -.8-.78zm2.64 0a.78.78 0 0 0 -.79.78.8.8 0 0 0 .79.81.8.8 0 0 0 .8-.81.79.79 0 0 0 -.8-.78zm-2.64 2.63a.79.79 0 0 0 -.79.8.8.8 0 0 0 .79.8.81.81 0 0 0 .8-.8.8.8 0 0 0 -.8-.85zm2.64 0a.79.79 0 0 0 -.79.8.8.8 0 0 0 .79.8.81.81 0 0 0 .8-.8.8.8 0 0 0 -.8-.85zm-7.9-2.63a.8.8 0 1 0 .8.78.79.79 0 0 0 -.8-.78zm2.63 0a.8.8 0 0 0 -.8.78.81.81 0 0 0 .8.81.8.8 0 0 0 .79-.81.78.78 0 0 0 -.79-.78zm-2.63 2.63a.8.8 0 0 0 -.8.8.8.8 0 1 0 1.6 0 .8.8 0 0 0 -.8-.85zm2.63 0a.8.8 0 0 0 -.8.8.82.82 0 0 0 .8.8.8.8 0 0 0 .79-.8.79.79 0 0 0 -.79-.85zm-7.85-2.63a.75.75 0 0 0 -.56.23.76.76 0 0 0 -.23.55.79.79 0 1 0 .79-.78zm2.63 0a.79.79 0 0 0 -.8.78.8.8 0 1 0 1.6 0 .79.79 0 0 0 -.85-.78zm-2.63 2.58a.79.79 0 0 0 -.79.8.79.79 0 1 0 .79-.8zm2.63 0a.8.8 0 0 0 -.8.8.8.8 0 0 0 1.6 0 .79.79 0 0 0 -.85-.8zm-7.95-2.58a.83.83 0 0 0 -.57.23.8.8 0 0 0 .57 1.36.8.8 0 0 0 .79-.81.78.78 0 0 0 -.79-.78zm2.63 0a.79.79 0 0 0 -.79.78.8.8 0 1 0 1.59 0 .79.79 0 0 0 -.8-.78zm-2.63 2.63a.8.8 0 0 0 -.8.8.81.81 0 0 0 .8.8.8.8 0 0 0 .79-.8.79.79 0 0 0 -.79-.85zm2.63 0a.79.79 0 0 0 -.79.8.8.8 0 1 0 1.59 0 .79.79 0 0 0 -.8-.85zm-7.9-2.63a.79.79 0 0 0 -.56.23.77.77 0 0 0 -.24.55.8.8 0 1 0 1.6 0 .79.79 0 0 0 -.8-.78zm2.64 0a.79.79 0 0 0 -.8.78.8.8 0 1 0 1.59 0 .79.79 0 0 0 -.79-.78zm-2.64 2.63a.8.8 0 0 0 -.8.8.8.8 0 1 0 1.6 0 .8.8 0 0 0 -.8-.85zm2.64 0a.79.79 0 0 0 -.8.8.8.8 0 1 0 1.59 0 .79.79 0 0 0 -.79-.85zm-7.91-2.63a.8.8 0 1 0 .8.78.79.79 0 0 0 -.8-.78zm2.64 0a.79.79 0 0 0 -.8.78.8.8 0 1 0 1.59 0 .79.79 0 0 0 -.79-.78zm-2.64 2.63a.79.79 0 0 0 -.79.8.8.8 0 0 0 .79.8.81.81 0 0 0 .8-.8.8.8 0 0 0 -.8-.85zm2.64 0a.8.8 0 0 0 -.8.8.8.8 0 1 0 1.59 0 .79.79 0 0 0 -.79-.85zm-7.9-2.63a.77.77 0 0 0 -.56.23.7.7 0 0 0 -.24.55.8.8 0 1 0 1.59 0 .78.78 0 0 0 -.79-.78zm2.63 0a.78.78 0 0 0 -.79.78.8.8 0 0 0 .79.81.8.8 0 0 0 .8-.81.79.79 0 0 0 -.8-.78zm-2.64 2.63a.79.79 0 0 0 -.79.8.8.8 0 1 0 1.59 0 .79.79 0 0 0 -.8-.85zm2.64 0a.79.79 0 0 0 -.79.8.8.8 0 0 0 .79.8.81.81 0 0 0 .8-.8.8.8 0 0 0 -.8-.85zm44.78-52.74a.79.79 0 0 0 -.8.79.8.8 0 1 0 1.6 0 .79.79 0 0 0 -.8-.84zm2.64 0a.8.8 0 0 0 -.81.79.81.81 0 1 0 1.61 0 .79.79 0 0 0 -.8-.84zm-2.64 7.91a.8.8 0 1 0 .79.79.79.79 0 0 0 -.79-.84zm2.64 0a.8.8 0 0 0 -.81.79.82.82 0 0 0 .24.57.78.78 0 0 0 .57.23.8.8 0 1 0 0-1.59zm-2.64-2.64a.8.8 0 1 0 0 1.59.8.8 0 0 0 0-1.59zm2.64 0a.8.8 0 1 0 .8.79.8.8 0 0 0 -.8-.84zm-2.64-2.64a.8.8 0 0 0 0 1.6.8.8 0 0 0 0-1.6zm2.64 0a.8.8 0 1 0 .8.8.8.8 0 0 0 -.8-.85zm-60.59 47.48a.8.8 0 0 0 -.8.78.8.8 0 1 0 .8-.78zm2.66 0a.79.79 0 0 0 -.79.78.8.8 0 1 0 1.59 0 .79.79 0 0 0 -.8-.78zm-2.63 2.63a.8.8 0 0 0 -.8.8.8.8 0 1 0 .8-.8zm2.63 0a.79.79 0 0 0 -.79.8.8.8 0 1 0 1.59 0 .8.8 0 0 0 -.8-.85zm-7.92-2.63a.78.78 0 0 0 -.57.23.76.76 0 0 0 -.23.55.8.8 0 1 0 1.59 0 .79.79 0 0 0 -.79-.78zm2.63 0a.79.79 0 0 0 -.8.78.8.8 0 0 0 .8.81.82.82 0 0 0 .8-.81.8.8 0 0 0 -.8-.78zm-2.63-2.65a.8.8 0 1 0 .79.8.8.8 0 0 0 -.79-.85zm0 5.28a.79.79 0 0 0 -.8.8.8.8 0 1 0 1.59 0 .79.79 0 0 0 -.79-.85zm2.63 0a.8.8 0 0 0 -.8.8.8.8 0 1 0 .8-.8zm7.9-2.63a.75.75 0 0 0 -.56.23.74.74 0 0 0 -.24.55.8.8 0 1 0 1.59 0 .79.79 0 0 0 -.79-.78zm2.63 0a.79.79 0 0 0 -.8.78.8.8 0 1 0 1.6 0 .79.79 0 0 0 -.8-.78zm-2.63 2.63a.79.79 0 0 0 -.8.8.8.8 0 1 0 1.59 0 .79.79 0 0 0 -.79-.85zm2.63 0a.8.8 0 0 0 -.8.8.8.8 0 0 0 1.6 0 .8.8 0 0 0 -.8-.85zm-13.16-7.92a.8.8 0 0 0 -.8.81.8.8 0 0 0 1.59 0 .8.8 0 0 0 -.79-.86zm0-2.63a.8.8 0 1 0 .79.8.8.8 0 0 0 -.79-.88zm-5.27 7.92a.83.83 0 0 0 -.58.23.81.81 0 1 0 .58-.23zm2.63 0a.79.79 0 0 0 -.8.78.8.8 0 0 0 .8.81.8.8 0 0 0 .79-.81.78.78 0 0 0 -.79-.78zm-2.63-2.65a.8.8 0 0 0 0 1.6.8.8 0 0 0 0-1.6zm2.63 0a.8.8 0 0 0 0 1.6.8.8 0 0 0 0-1.6zm-2.63 5.28a.8.8 0 0 0 -.8.8.8.8 0 1 0 1.59 0 .79.79 0 0 0 -.79-.85zm2.63 0a.8.8 0 0 0 -.8.8.81.81 0 0 0 .8.8.8.8 0 0 0 .79-.8.79.79 0 0 0 -.79-.85zm-2.63-7.92a.8.8 0 0 0 -.8.81.8.8 0 0 0 1.59 0 .8.8 0 0 0 -.79-.86zm2.63 0a.8.8 0 0 0 -.8.81.79.79 0 0 0 .8.79.79.79 0 0 0 .79-.79.8.8 0 0 0 -.79-.86zm-2.63-2.71a.8.8 0 1 0 .79.8.8.8 0 0 0 -.79-.8zm2.63 0a.8.8 0 0 0 0 1.6.8.8 0 0 0 0-1.6zm-7.9 8a.79.79 0 0 0 -.57.23.77.77 0 0 0 -.24.55.81.81 0 1 0 1.61 0 .79.79 0 0 0 -.8-.78zm2.64 0a.8.8 0 0 0 -.81.78.81.81 0 0 0 .81.81.8.8 0 0 0 .79-.81.79.79 0 0 0 -.79-.78zm-2.64-2.65a.8.8 0 1 0 0 1.6.8.8 0 0 0 0-1.6zm2.64 0a.8.8 0 1 0 0 1.6.8.8 0 0 0 0-1.6zm-2.64 5.28a.8.8 0 0 0 -.81.8.81.81 0 0 0 1.61 0 .8.8 0 0 0 -.8-.85zm2.64 0a.8.8 0 0 0 -.81.8.82.82 0 0 0 .81.8.81.81 0 0 0 .79-.8.79.79 0 0 0 -.79-.85zm-2.64-7.92a.81.81 0 0 0 -.81.81.81.81 0 0 0 1.61 0 .8.8 0 0 0 -.8-.86zm2.64 0a.81.81 0 0 0 -.81.81.8.8 0 0 0 .81.79.79.79 0 0 0 .79-.79.8.8 0 0 0 -.79-.86zm-2.64-2.71a.8.8 0 1 0 .8.8.8.8 0 0 0 -.8-.8zm2.64 0a.8.8 0 1 0 0 1.6.8.8 0 0 0 0-1.6zm-7.91 8a.8.8 0 1 0 0 1.59.8.8 0 0 0 .79-.81.78.78 0 0 0 -.79-.78zm2.64 0a.79.79 0 0 0 -.8.78.8.8 0 0 0 .8.81.8.8 0 0 0 .79-.81.78.78 0 0 0 -.79-.78zm-2.64-2.65a.8.8 0 1 0 0 1.6.8.8 0 0 0 0-1.6zm2.64 0a.8.8 0 0 0 0 1.6.8.8 0 0 0 0-1.6zm-2.64 5.28a.8.8 0 0 0 -.8.8.82.82 0 0 0 .8.8.8.8 0 0 0 .79-.8.79.79 0 0 0 -.79-.85zm2.64 0a.8.8 0 0 0 -.8.8.81.81 0 0 0 .8.8.8.8 0 0 0 .79-.8.79.79 0 0 0 -.79-.85zm-2.64-7.92a.81.81 0 0 0 -.8.81.8.8 0 0 0 .8.79.79.79 0 0 0 .79-.79.8.8 0 0 0 -.79-.86zm2.64 0a.8.8 0 0 0 -.8.81.79.79 0 0 0 .8.79.79.79 0 0 0 .79-.79.8.8 0 0 0 -.79-.86zm-2.64-2.71a.8.8 0 0 0 0 1.6.8.8 0 0 0 0-1.6zm2.64 0a.8.8 0 0 0 0 1.6.8.8 0 0 0 0-1.6zm-7.91-31.61a.8.8 0 1 0 .8.79.8.8 0 0 0 -.8-.79zm2.64 0a.8.8 0 1 0 .8.79.8.8 0 0 0 -.8-.79zm-2.64 7.91a.8.8 0 0 0 0 1.59.8.8 0 0 0 0-1.59zm2.64 0a.8.8 0 0 0 -.57 1.36.81.81 0 0 0 1.37-.56.8.8 0 0 0 -.8-.8zm-2.64-2.64a.8.8 0 1 0 .79.79.8.8 0 0 0 -.79-.79zm2.64 0a.8.8 0 1 0 .8.79.8.8 0 0 0 -.8-.79zm-2.64-2.66a.79.79 0 0 0 0 1.58.79.79 0 1 0 0-1.58zm2.64 0a.79.79 0 1 0 .8.79.8.8 0 0 0 -.8-.79zm-2.64 15.84a.81.81 0 0 0 -.8.8.82.82 0 0 0 .8.81.8.8 0 0 0 .79-.81.79.79 0 0 0 -.79-.8zm2.64 0a.8.8 0 0 0 -.8.8.8.8 0 1 0 1.6 0 .8.8 0 0 0 -.8-.8zm-2.64-2.63a.79.79 0 0 0 -.79.79.79.79 0 1 0 1.58 0 .79.79 0 0 0 -.79-.79zm2.64 0a.79.79 0 0 0 -.8.79.8.8 0 0 0 1.6 0 .79.79 0 0 0 -.8-.79zm-2.64-2.64a.8.8 0 0 0 0 1.59.8.8 0 0 0 0-1.59zm2.64 0a.8.8 0 1 0 .8.8.8.8 0 0 0 -.8-.8zm-2.64-2.64a.8.8 0 1 0 .79.8.8.8 0 0 0 -.79-.8zm2.64 0a.8.8 0 1 0 .8.8.8.8 0 0 0 -.8-.8zm-2.64 18.46a.81.81 0 0 0 -.8.8.79.79 0 0 0 .8.79.78.78 0 0 0 .79-.79.79.79 0 0 0 -.79-.8zm2.64 0a.8.8 0 0 0 -.8.8.8.8 0 0 0 1.6 0 .81.81 0 0 0 -.8-.8zm-2.64-2.64a.81.81 0 0 0 -.8.81.8.8 0 0 0 .8.79.79.79 0 0 0 .79-.79.8.8 0 0 0 -.79-.81zm2.64 0a.8.8 0 0 0 -.8.81.8.8 0 0 0 1.6 0 .81.81 0 0 0 -.8-.81zm-2.64-2.64a.82.82 0 0 0 -.8.81.8.8 0 0 0 .8.79.79.79 0 0 0 .79-.79.8.8 0 0 0 -.79-.81zm2.64 0a.81.81 0 0 0 -.8.81.8.8 0 0 0 1.6 0 .82.82 0 0 0 -.8-.81zm-2.64-2.63a.81.81 0 0 0 -.8.79.8.8 0 0 0 .8.8.78.78 0 0 0 .79-.8.79.79 0 0 0 -.79-.79zm2.64 0a.8.8 0 0 0 -.8.79.8.8 0 0 0 1.6 0 .8.8 0 0 0 -.8-.79zm-2.64 18.52a.79.79 0 0 0 -.56.23.77.77 0 0 0 -.24.55.8.8 0 0 0 .8.81.8.8 0 0 0 .79-.81.78.78 0 0 0 -.79-.78zm2.64 0a.79.79 0 0 0 -.8.78.8.8 0 0 0 .8.81.82.82 0 0 0 .8-.81.8.8 0 0 0 -.8-.78zm-2.64-2.7a.8.8 0 0 0 0 1.6.8.8 0 0 0 0-1.6zm2.64 0a.8.8 0 1 0 .8.8.8.8 0 0 0 -.8-.8zm-2.64 5.28a.8.8 0 0 0 -.8.8.81.81 0 0 0 .8.8.8.8 0 0 0 .79-.8.79.79 0 0 0 -.79-.8zm2.64 0a.8.8 0 0 0 -.8.8.8.8 0 1 0 1.59 0 .79.79 0 0 0 -.79-.8zm-2.64-7.92a.8.8 0 0 0 -.8.81.79.79 0 0 0 .8.79.79.79 0 0 0 .79-.79.8.8 0 0 0 -.79-.81zm2.64 0a.8.8 0 0 0 -.8.81.8.8 0 0 0 1.6 0 .81.81 0 0 0 -.8-.81zm-2.64-2.66a.8.8 0 0 0 0 1.6.8.8 0 0 0 0-1.6zm2.64 0a.8.8 0 1 0 .8.8.8.8 0 0 0 -.8-.8zm-7.91-31.64a.8.8 0 1 0 .8.79.8.8 0 0 0 -.8-.76zm2.63 0a.8.8 0 1 0 .81.79.81.81 0 0 0 -.81-.76zm-2.63 7.91a.8.8 0 1 0 .8.8.8.8 0 0 0 -.8-.77zm2.63 0a.8.8 0 0 0 -.79.8.82.82 0 0 0 .23.56.8.8 0 1 0 .56-1.36zm-2.63-2.64a.8.8 0 1 0 .8.79.8.8 0 0 0 -.8-.76zm2.63 0a.8.8 0 0 0 0 1.6.8.8 0 1 0 0-1.6zm-2.63-2.63a.79.79 0 1 0 .8.79.8.8 0 0 0 -.8-.79zm2.63 0a.79.79 0 1 0 .81.79.81.81 0 0 0 -.81-.79zm-2.63 15.81a.8.8 0 0 0 -.8.8.8.8 0 1 0 1.6 0 .8.8 0 0 0 -.8-.77zm2.63 0a.8.8 0 0 0 -.79.8.81.81 0 0 0 .79.81.82.82 0 0 0 .81-.81.81.81 0 0 0 -.81-.77zm-2.63-2.63a.79.79 0 0 0 -.8.79.8.8 0 1 0 1.6 0 .79.79 0 0 0 -.8-.76zm2.63 0a.79.79 0 0 0 -.79.79.8.8 0 0 0 .79.8.81.81 0 0 0 .81-.8.8.8 0 0 0 -.81-.76zm-2.63-2.64a.8.8 0 1 0 .8.8.8.8 0 0 0 -.8-.77zm2.63 0a.8.8 0 0 0 0 1.59.8.8 0 1 0 0-1.59zm-2.63-2.64a.8.8 0 1 0 .8.8.8.8 0 0 0 -.8-.77zm2.63 0a.8.8 0 0 0 0 1.6.8.8 0 1 0 0-1.6zm-2.63 18.46a.8.8 0 0 0 -.8.8.8.8 0 0 0 1.6 0 .8.8 0 0 0 -.8-.77zm2.63 0a.8.8 0 0 0 -.79.8.79.79 0 0 0 .79.79.8.8 0 0 0 .81-.79.81.81 0 0 0 -.81-.77zm-2.63-2.64a.8.8 0 0 0 -.8.81.8.8 0 0 0 1.6 0 .8.8 0 0 0 -.8-.78zm2.63 0a.8.8 0 0 0 -.79.81.79.79 0 0 0 .79.79.8.8 0 0 0 .81-.79.81.81 0 0 0 -.81-.78zm-2.63-2.64a.81.81 0 0 0 -.8.81.8.8 0 0 0 1.6 0 .81.81 0 0 0 -.8-.78zm2.63 0a.81.81 0 0 0 -.79.81.79.79 0 0 0 .79.79.8.8 0 0 0 .81-.79.82.82 0 0 0 -.81-.78zm-2.63-2.63a.8.8 0 0 0 -.8.79.8.8 0 1 0 1.6 0 .8.8 0 0 0 -.8-.76zm2.63 0a.8.8 0 0 0 -.79.79.79.79 0 0 0 .79.8.8.8 0 0 0 .81-.8.81.81 0 0 0 -.81-.76zm-2.63 18.55a.79.79 0 0 0 -.56.23.77.77 0 0 0 -.24.55.8.8 0 1 0 1.6 0 .79.79 0 0 0 -.8-.78zm2.63 0a.79.79 0 0 0 -.79.78.8.8 0 0 0 .79.81.81.81 0 0 0 .81-.81.8.8 0 0 0 -.81-.78zm-2.63-2.65a.8.8 0 1 0 .8.8.8.8 0 0 0 -.8-.85zm2.63 0a.8.8 0 1 0 .81.8.81.81 0 0 0 -.81-.85zm-2.63 5.28a.8.8 0 0 0 -.8.8.8.8 0 1 0 1.6 0 .8.8 0 0 0 -.8-.85zm2.63 0a.79.79 0 0 0 -.79.8.81.81 0 0 0 .79.8.82.82 0 0 0 .81-.8.8.8 0 0 0 -.81-.85zm-2.63-7.92a.8.8 0 0 0 -.8.81.8.8 0 0 0 1.6 0 .8.8 0 0 0 -.8-.86zm2.63 0a.8.8 0 0 0 -.79.81.79.79 0 0 0 .79.79.8.8 0 0 0 .81-.79.81.81 0 0 0 -.81-.86zm-2.63-2.71a.8.8 0 1 0 .8.8.8.8 0 0 0 -.8-.8zm2.63 0a.8.8 0 0 0 0 1.6.8.8 0 1 0 0-1.6zm-7.9-31.64a.8.8 0 1 0 0 1.59.8.8 0 1 0 0-1.59zm2.64 0a.8.8 0 1 0 0 1.59.8.8 0 0 0 0-1.59zm-2.64 7.91a.8.8 0 1 0 0 1.59.8.8 0 1 0 0-1.59zm2.64 0a.8.8 0 0 0 -.8.8.79.79 0 0 0 .8.79.8.8 0 0 0 0-1.59zm-2.64-2.64a.8.8 0 1 0 0 1.6.8.8 0 1 0 0-1.6zm2.64 0a.8.8 0 1 0 .79.79.79.79 0 0 0 -.79-.76zm-2.64-2.63a.79.79 0 1 0 0 1.58.79.79 0 1 0 0-1.58zm2.64 0a.79.79 0 1 0 0 1.58.79.79 0 1 0 0-1.58zm-2.64 15.81a.81.81 0 0 0 -.8.8.82.82 0 0 0 .8.81.8.8 0 0 0 .8-.81.8.8 0 0 0 -.8-.77zm2.64 0a.8.8 0 0 0 -.8.8.8.8 0 1 0 1.59 0 .8.8 0 0 0 -.79-.77zm-2.64-2.63a.8.8 0 0 0 -.8.79.81.81 0 0 0 .8.8.8.8 0 0 0 .8-.8.79.79 0 0 0 -.8-.76zm2.64 0a.79.79 0 0 0 -.8.79.8.8 0 1 0 1.59 0 .79.79 0 0 0 -.79-.76zm-2.64-2.64a.8.8 0 1 0 0 1.59.8.8 0 1 0 0-1.59zm2.64 0a.8.8 0 1 0 .79.8.8.8 0 0 0 -.79-.77zm-2.64-2.64a.8.8 0 1 0 0 1.6.8.8 0 1 0 0-1.6zm2.64 0a.8.8 0 1 0 .79.8.8.8 0 0 0 -.79-.77zm-2.64 18.46a.81.81 0 0 0 -.8.8.79.79 0 0 0 .8.79.78.78 0 0 0 .8-.79.8.8 0 0 0 -.8-.77zm2.64 0a.8.8 0 0 0 -.8.8.8.8 0 0 0 1.59 0 .8.8 0 0 0 -.79-.77zm-2.64-2.64a.81.81 0 0 0 -.8.81.8.8 0 0 0 .8.79.79.79 0 0 0 .8-.79.8.8 0 0 0 -.8-.78zm2.64 0a.8.8 0 0 0 -.8.81.8.8 0 0 0 1.59 0 .8.8 0 0 0 -.79-.78zm-2.64-2.64a.82.82 0 0 0 -.8.81.8.8 0 0 0 .8.79.79.79 0 0 0 .8-.79.8.8 0 0 0 -.8-.78zm2.64 0a.81.81 0 0 0 -.8.81.8.8 0 0 0 1.59 0 .81.81 0 0 0 -.79-.78zm-2.64-2.63a.81.81 0 0 0 -.8.79.8.8 0 0 0 .8.8.78.78 0 0 0 .8-.8.79.79 0 0 0 -.8-.76zm2.64 0a.8.8 0 0 0 -.8.79.8.8 0 1 0 1.59 0 .8.8 0 0 0 -.79-.76zm-2.64 18.55a.79.79 0 0 0 -.56.23.77.77 0 0 0 -.24.55.81.81 0 0 0 .8.81.8.8 0 0 0 .8-.81.79.79 0 0 0 -.8-.78zm2.64 0a.79.79 0 0 0 -.8.78.8.8 0 1 0 1.59 0 .79.79 0 0 0 -.79-.78zm-2.64-2.65a.8.8 0 1 0 0 1.6.8.8 0 1 0 0-1.6zm2.64 0a.8.8 0 0 0 0 1.6.8.8 0 0 0 0-1.6zm-2.64 5.28a.8.8 0 0 0 -.8.8.82.82 0 0 0 .8.8.8.8 0 0 0 .8-.8.79.79 0 0 0 -.8-.85zm2.64 0a.8.8 0 0 0 -.8.8.8.8 0 1 0 1.59 0 .79.79 0 0 0 -.79-.85zm-2.64-7.92a.81.81 0 0 0 -.8.81.8.8 0 0 0 .8.79.79.79 0 0 0 .8-.79.8.8 0 0 0 -.8-.86zm2.64 0a.8.8 0 0 0 -.8.81.8.8 0 0 0 1.59 0 .8.8 0 0 0 -.79-.86zm-2.64-2.71a.8.8 0 0 0 0 1.6.8.8 0 1 0 0-1.6zm2.64 0a.8.8 0 1 0 .79.8.8.8 0 0 0 -.79-.8zm-5.26-31.64a.8.8 0 1 0 .79.79.79.79 0 0 0 -.79-.76zm0 7.91a.8.8 0 1 0 .79.8.8.8 0 0 0 -.79-.77zm0-2.64a.8.8 0 1 0 0 1.6.8.8 0 0 0 0-1.6zm0-2.63a.79.79 0 1 0 .79.79.79.79 0 0 0 -.79-.79zm0 15.81a.8.8 0 0 0 -.8.8.8.8 0 1 0 .8-.8zm0-2.63a.79.79 0 0 0 -.8.79.8.8 0 1 0 .8-.79zm0-2.64a.8.8 0 1 0 .79.8.8.8 0 0 0 -.79-.77zm0-2.64a.8.8 0 1 0 .79.8.8.8 0 0 0 -.79-.77zm0 18.46a.8.8 0 0 0 -.8.8.8.8 0 0 0 1.59 0 .8.8 0 0 0 -.79-.77zm0-2.64a.8.8 0 0 0 -.8.81.8.8 0 0 0 1.59 0 .8.8 0 0 0 -.79-.78zm0-2.64a.8.8 0 0 0 -.8.81.8.8 0 0 0 1.59 0 .81.81 0 0 0 -.79-.78zm0-2.63a.79.79 0 0 0 -.8.79.8.8 0 1 0 1.59 0 .8.8 0 0 0 -.79-.76zm0 18.47a.79.79 0 0 0 -.8.78.8.8 0 0 0 .8.81.81.81 0 0 0 .79-.81.79.79 0 0 0 -.79-.7zm0-2.65a.8.8 0 1 0 .79.8.8.8 0 0 0 -.79-.77zm0 5.28a.79.79 0 0 0 -.8.8.79.79 0 1 0 1.58 0 .79.79 0 0 0 -.78-.77zm0-7.92a.8.8 0 0 0 -.8.81.8.8 0 0 0 1.59 0 .8.8 0 0 0 -.79-.78zm0-2.63a.8.8 0 1 0 .79.8.8.8 0 0 0 -.79-.8zm13.16-42.16a.79.79 0 0 0 -.79.79.8.8 0 1 0 1.59 0 .79.79 0 0 0 -.8-.79zm2.64 0a.79.79 0 0 0 -.8.79.8.8 0 1 0 1.6 0 .79.79 0 0 0 -.8-.79zm-2.64 7.91a.8.8 0 1 0 .79.79.79.79 0 0 0 -.79-.79zm2.64 0a.79.79 0 0 0 -.8.79.81.81 0 0 0 .23.57.8.8 0 1 0 .57-1.36zm-2.64-2.64a.8.8 0 0 0 0 1.59.8.8 0 0 0 0-1.59zm2.64 0a.8.8 0 1 0 .8.79.8.8 0 0 0 -.8-.79zm-2.64-2.64a.8.8 0 1 0 .79.8.8.8 0 0 0 -.79-.8zm2.64 0a.8.8 0 1 0 .8.8.8.8 0 0 0 -.8-.8zm-7.91-2.63a.79.79 0 0 0 -.8.79.8.8 0 1 0 1.6 0 .79.79 0 0 0 -.8-.79zm2.63 0a.79.79 0 0 0 -.79.79.81.81 0 0 0 .79.81.82.82 0 0 0 .81-.81.8.8 0 0 0 -.81-.79zm-2.63 7.91a.8.8 0 1 0 .8.79.79.79 0 0 0 -.8-.79zm2.63 0a.79.79 0 0 0 -.79.79.8.8 0 1 0 .79-.79zm-2.63-2.64a.8.8 0 1 0 .8.79.8.8 0 0 0 -.8-.79zm2.63 0a.8.8 0 1 0 .81.79.81.81 0 0 0 -.81-.79zm-2.63-2.64a.8.8 0 1 0 .8.8.8.8 0 0 0 -.8-.8zm2.63 0a.8.8 0 0 0 0 1.6.8.8 0 1 0 0-1.6zm-7.9-2.63a.8.8 0 0 0 -.8.79.82.82 0 0 0 .8.81.8.8 0 0 0 .8-.81.79.79 0 0 0 -.8-.79zm2.64 0a.79.79 0 0 0 -.8.79.81.81 0 0 0 .8.81.8.8 0 0 0 .79-.81.79.79 0 0 0 -.79-.79zm-2.64 7.91a.8.8 0 1 0 0 1.59.8.8 0 1 0 0-1.59zm2.64 1.59a.8.8 0 1 0 -.8-.8.81.81 0 0 0 .23.57.83.83 0 0 0 .57.23zm-2.64-4.23a.8.8 0 1 0 0 1.59.8.8 0 1 0 0-1.59zm2.64 0a.8.8 0 1 0 0 1.59.8.8 0 0 0 0-1.59zm-2.64-2.64a.8.8 0 1 0 0 1.6.8.8 0 1 0 0-1.6zm2.64 0a.8.8 0 0 0 0 1.6.8.8 0 0 0 0-1.6zm-5.26-2.63a.79.79 0 0 0 -.8.79.8.8 0 1 0 1.59 0 .79.79 0 0 0 -.79-.79zm.79 8.7a.8.8 0 1 0 -.79.8.79.79 0 0 0 .79-.8zm-.79-3.43a.8.8 0 1 0 .79.79.79.79 0 0 0 -.79-.79zm0-2.64a.8.8 0 1 0 .79.8.8.8 0 0 0 -.79-.8zm100.09-6.31a.8.8 0 0 0 0-1.6.8.8 0 1 0 0 1.6zm0-10.55a.8.8 0 0 0 0-1.6.8.8 0 1 0 0 1.6zm-2.65-5.28a.8.8 0 1 0 -.79-.79.8.8 0 0 0 .79.79zm0 2.64a.8.8 0 1 0 -.79-.79.8.8 0 0 0 .79.82zm2.65 0a.8.8 0 0 0 0-1.6.8.8 0 1 0 0 1.6zm-2.65 2.64a.8.8 0 1 0 -.79-.79.77.77 0 0 0 .24.56.76.76 0 0 0 .55.23zm0 2.63a.79.79 0 0 0 .8-.79.8.8 0 1 0 -1.59 0 .79.79 0 0 0 .79.79zm0 7.92a.8.8 0 1 0 -.79-.8.8.8 0 0 0 .79.8zm0-2.64a.8.8 0 1 0 -.79-.8.8.8 0 0 0 .79.8zm0 5.28a.8.8 0 1 0 -.79-.81.8.8 0 0 0 .79.81zm2.65 0a.8.8 0 1 0 -.81-.81.81.81 0 0 0 .81.81zm0-10.56a.8.8 0 0 0 0-1.59.8.8 0 1 0 0 1.59zm-2.65 2.64a.8.8 0 0 0 .8-.8.8.8 0 1 0 -.8.8zm2.65 0a.79.79 0 0 0 .79-.8.79.79 0 0 0 -.79-.79.8.8 0 0 0 -.81.79.8.8 0 0 0 .81.8zm0 2.64a.8.8 0 0 0 0-1.6.8.8 0 1 0 0 1.6zm0-13.19a.8.8 0 0 0 0-1.59.8.8 0 1 0 0 1.59zm-52.69 5.28a.8.8 0 1 0 0-1.6.8.8 0 0 0 0 1.6zm-2.63-5.28a.8.8 0 1 0 -.8-.79.8.8 0 0 0 .8.79zm0 2.64a.8.8 0 1 0 -.8-.79.8.8 0 0 0 .8.82zm2.63 0a.8.8 0 1 0 -.79-.79.79.79 0 0 0 .79.82zm-2.63 2.64a.8.8 0 1 0 -.8-.79.8.8 0 0 0 .8.79zm0 2.63a.79.79 0 0 0 .79-.79.8.8 0 1 0 -.79.79zm2.63 0a.8.8 0 0 0 0-1.59.8.8 0 1 0 0 1.59zm-2.63 2.64a.8.8 0 0 0 .79-.8.8.8 0 0 0 -1.59 0 .8.8 0 0 0 .8.8zm2.63 0a.79.79 0 0 0 .79-.8.79.79 0 0 0 -.79-.79.79.79 0 0 0 -.8.79.8.8 0 0 0 .8.8zm0-10.55a.8.8 0 1 0 -.79-.79.79.79 0 0 0 .79.79zm-5.24 5.28a.8.8 0 1 0 -.79-.79.79.79 0 0 0 .79.79zm-2.63-6.87a.8.8 0 1 0 .8.8.8.8 0 0 0 -.83-.8zm0 2.63a.8.8 0 1 0 .8.81.8.8 0 0 0 -.83-.81zm2.63 1.63a.8.8 0 1 0 -.79-.79.79.79 0 0 0 .79.79zm-2.63 1a.8.8 0 1 0 .8.81.8.8 0 0 0 -.83-.81zm0 2.64a.8.8 0 0 0 -.8.8.8.8 0 0 0 1.6 0 .81.81 0 0 0 -.83-.79zm2.63 1.6a.8.8 0 1 0 -.79-.79.79.79 0 0 0 .79.79zm0 2.64a.8.8 0 0 0 .8-.8.79.79 0 0 0 -.8-.79.79.79 0 0 0 -.79.79.79.79 0 0 0 .79.8zm0-10.55a.8.8 0 1 0 -.79-.79.8.8 0 0 0 .79.79zm-5.26 5.28a.8.8 0 1 0 -.8-.79.81.81 0 0 0 .77.79zm-2.63-5.28a.8.8 0 1 0 -.8-.79.8.8 0 0 0 .77.79zm0 2.64a.8.8 0 1 0 -.8-.79.8.8 0 0 0 .77.82zm2.63 0a.8.8 0 1 0 -.8-.79.81.81 0 0 0 .77.82zm0 5.27a.8.8 0 1 0 -.8-.79.81.81 0 0 0 .77.79zm-2.63-2.63a.8.8 0 1 0 -.8-.79.73.73 0 0 0 .23.55.75.75 0 0 0 .54.24zm0 2.63a.79.79 0 0 0 .79-.79.8.8 0 1 0 -1.59 0 .79.79 0 0 0 .77.79zm5.26 1.05a.8.8 0 1 0 .8.8.8.8 0 0 0 -.83-.8zm-2.63 1.6a.8.8 0 1 0 -.8-.8.81.81 0 0 0 .77.8zm-2.63 0a.8.8 0 1 0 -.8-.8.8.8 0 0 0 .77.8zm2.63-10.56a.8.8 0 1 0 -.8-.79.81.81 0 0 0 .77.79zm-5.27 5.28a.8.8 0 1 0 -.8-.79.79.79 0 0 0 .77.79zm-2.63-5.28a.8.8 0 1 0 -.8-.79.8.8 0 0 0 .77.79zm0 2.64a.8.8 0 1 0 -.8-.79.8.8 0 0 0 .77.82zm2.63 0a.8.8 0 1 0 -.8-.79.79.79 0 0 0 .77.82zm-2.63 2.64a.8.8 0 1 0 -.8-.79.8.8 0 0 0 .77.79zm0 2.63a.79.79 0 0 0 .79-.79.8.8 0 1 0 -.79.79zm2.63 0a.8.8 0 1 0 -.8-.79.79.79 0 0 0 .77.79zm-2.63 2.64a.8.8 0 0 0 .79-.8.8.8 0 0 0 -1.59 0 .8.8 0 0 0 .77.8zm2.63 0a.79.79 0 0 0 .79-.8.8.8 0 0 0 -1.59 0 .8.8 0 0 0 .77.8zm0-10.55a.8.8 0 0 0 0-1.59.8.8 0 1 0 0 1.59zm-5.26 5.28a.8.8 0 0 0 0-1.6.8.8 0 1 0 0 1.6zm-2.64-5.28a.8.8 0 1 0 -.81-.79.8.8 0 0 0 .78.79zm0 2.64a.8.8 0 1 0 -.81-.79.8.8 0 0 0 .78.82zm2.64 0a.8.8 0 0 0 0-1.6.8.8 0 1 0 0 1.6zm-2.64 2.64a.8.8 0 1 0 -.81-.79.77.77 0 0 0 .24.55.76.76 0 0 0 .54.24zm0 2.63a.79.79 0 0 0 .8-.79.81.81 0 1 0 -.8.79zm2.63 0a.8.8 0 1 0 0-1.59.8.8 0 1 0 0 1.59zm-2.63 2.64a.79.79 0 0 0 .56-1.36.79.79 0 0 0 -.56-.23.8.8 0 0 0 -.81.79.8.8 0 0 0 .78.8zm2.63 0a.8.8 0 0 0 .8-.8.8.8 0 0 0 -1.6 0 .81.81 0 0 0 .77.8zm0-10.55a.8.8 0 0 0 0-1.59.8.8 0 1 0 0 1.59zm-5.27 5.28a.8.8 0 0 0 0-1.6.8.8 0 1 0 0 1.6zm-2.64-5.28a.8.8 0 0 0 0-1.59.8.8 0 1 0 0 1.59zm0 2.64a.8.8 0 0 0 0-1.6.8.8 0 1 0 0 1.6zm2.64 0a.8.8 0 0 0 0-1.6.8.8 0 1 0 0 1.6zm-2.64 2.64a.8.8 0 0 0 0-1.6.8.8 0 0 0 -.57 1.36.78.78 0 0 0 .55.24zm0 2.63a.79.79 0 0 0 .79-.79.79.79 0 0 0 -.79-.8.81.81 0 0 0 -.8.8.8.8 0 0 0 .78.79zm2.64 0a.8.8 0 0 0 0-1.59.8.8 0 1 0 0 1.59zm-2.64 2.64a.79.79 0 0 0 .79-.8.78.78 0 0 0 -.22-.56.83.83 0 0 0 -.57-.23.8.8 0 0 0 -.8.79.81.81 0 0 0 .78.8zm2.64 0a.79.79 0 0 0 .79-.8.79.79 0 0 0 -.79-.79.79.79 0 0 0 -.8.79.8.8 0 0 0 .78.8zm0-10.55a.8.8 0 0 0 0-1.59.8.8 0 1 0 0 1.59zm-5.27 15.83a.8.8 0 1 0 -.8-.8.8.8 0 0 0 .78.8zm0-10.55a.8.8 0 1 0 -.8-.79.8.8 0 0 0 .78.79zm-2.66-5.28a.8.8 0 0 0 0-1.59.8.8 0 1 0 0 1.59zm0 2.67a.8.8 0 0 0 0-1.6.8.8 0 1 0 0 1.6zm2.64 0a.8.8 0 1 0 -.8-.79.8.8 0 0 0 .8.79zm-2.64 2.61a.8.8 0 0 0 0-1.6.8.8 0 0 0 -.8.81.82.82 0 0 0 .8.79zm0 2.63a.79.79 0 0 0 .79-.79.79.79 0 0 0 -.79-.8.8.8 0 0 0 -.8.8.79.79 0 0 0 .8.79zm0 7.92a.8.8 0 0 0 0-1.6.8.8 0 0 0 0 1.6zm0-2.64a.8.8 0 0 0 0-1.6.8.8 0 0 0 0 1.6zm0 5.28a.8.8 0 0 0 .79-.81.74.74 0 0 0 -.23-.55.78.78 0 0 0 -.56-.24.8.8 0 1 0 0 1.6zm2.64 0a.8.8 0 1 0 -.8-.81.8.8 0 0 0 .8.81zm0-10.56a.8.8 0 1 0 -.8-.79.8.8 0 0 0 .8.79zm-2.64 2.64a.79.79 0 0 0 .79-.8.75.75 0 0 0 -.23-.56.77.77 0 0 0 -.56-.23.79.79 0 0 0 -.8.79.8.8 0 0 0 .8.8zm2.64 0a.8.8 0 0 0 .79-.8.8.8 0 0 0 -1.59 0 .8.8 0 0 0 .8.8zm0 2.64a.8.8 0 0 0 0-1.6.8.8 0 0 0 0 1.6zm0-13.19a.8.8 0 1 0 -.8-.79.8.8 0 0 0 .8.79zm-5.28 15.83a.8.8 0 1 0 0-1.6.8.8 0 0 0 0 1.6zm0-10.55a.8.8 0 1 0 -.79-.79.8.8 0 0 0 .79.79zm-2.63-5.28a.8.8 0 1 0 -.8-.79.8.8 0 0 0 .8.79zm0 2.64a.8.8 0 1 0 -.8-.79.8.8 0 0 0 .8.82zm2.63 0a.8.8 0 1 0 -.79-.79.8.8 0 0 0 .79.82zm-2.63 2.64a.8.8 0 1 0 -.8-.79.77.77 0 0 0 .24.55.76.76 0 0 0 .56.24zm0 2.63a.79.79 0 0 0 .8-.79.8.8 0 1 0 -1.6 0 .79.79 0 0 0 .8.79zm0 7.92a.8.8 0 1 0 -.8-.8.8.8 0 0 0 .8.8zm0-2.64a.8.8 0 1 0 -.8-.8.8.8 0 0 0 .8.8zm0 5.28a.8.8 0 0 0 .8-.81.83.83 0 0 0 -.24-.56.81.81 0 0 0 -.56-.23.8.8 0 1 0 0 1.6zm2.63 0a.8.8 0 1 0 0-1.6.8.8 0 0 0 0 1.6zm0-10.56a.8.8 0 1 0 0-1.59.8.8 0 0 0 0 1.59zm-2.63 2.64a.79.79 0 0 0 .56-1.36.77.77 0 0 0 -.56-.23.79.79 0 0 0 -.8.79.8.8 0 0 0 .8.8zm2.63 0a.81.81 0 0 0 .81-.8.8.8 0 0 0 -.81-.79.79.79 0 0 0 -.79.79.8.8 0 0 0 .79.8zm0 2.64a.8.8 0 1 0 -.79-.8.79.79 0 0 0 .79.8zm0-13.19a.8.8 0 1 0 0-1.59.8.8 0 0 0 0 1.59zm-5.26 15.83a.8.8 0 1 0 -.8-.8.8.8 0 0 0 .8.8zm0-10.55a.8.8 0 1 0 -.8-.79.8.8 0 0 0 .8.79zm-2.64-5.28a.8.8 0 1 0 0-1.59.8.8 0 1 0 0 1.59zm0 2.64a.8.8 0 1 0 0-1.6.8.8 0 1 0 0 1.6zm2.64 0a.8.8 0 1 0 -.8-.79.8.8 0 0 0 .8.82zm-2.64 2.64a.8.8 0 1 0 0-1.6.81.81 0 0 0 -.8.81.77.77 0 0 0 .24.55.74.74 0 0 0 .56.24zm0 2.63a.79.79 0 0 0 .8-.79.8.8 0 0 0 -.8-.8.81.81 0 0 0 -.8.8.8.8 0 0 0 .8.79zm0 7.92a.8.8 0 1 0 0-1.6.8.8 0 0 0 0 1.6zm0-2.64a.8.8 0 1 0 0-1.6.8.8 0 1 0 0 1.6zm0 5.28a.8.8 0 1 0 0-1.6.8.8 0 1 0 0 1.6zm2.64 0a.8.8 0 1 0 -.8-.81.8.8 0 0 0 .8.81zm0-10.56a.8.8 0 1 0 -.8-.79.8.8 0 0 0 .8.79zm-2.64 2.64a.8.8 0 0 0 .8-.8.79.79 0 0 0 -.8-.79.8.8 0 0 0 -.8.79.81.81 0 0 0 .8.8zm2.64 0a.8.8 0 0 0 .79-.8.8.8 0 0 0 -1.59 0 .8.8 0 0 0 .8.8zm0 2.64a.8.8 0 0 0 0-1.6.8.8 0 0 0 0 1.6zm0-13.19a.8.8 0 1 0 -.8-.79.8.8 0 0 0 .8.79zm-5.27 15.83a.8.8 0 0 0 0-1.6.8.8 0 0 0 0 1.6zm0-10.55a.8.8 0 1 0 -.79-.79.79.79 0 0 0 .79.79zm0-2.64a.8.8 0 1 0 -.79-.79.79.79 0 0 0 .79.82zm0 15.83a.8.8 0 1 0 -.83-.8.8.8 0 0 0 .83.8zm0-10.56a.8.8 0 0 0 0-1.59.8.8 0 1 0 0 1.59zm0 2.64a.79.79 0 0 0 .79-.8.79.79 0 0 0 -.79-.79.79.79 0 0 0 -.8.79.8.8 0 0 0 .8.8zm0 2.64a.8.8 0 0 0 0-1.6.8.8 0 0 0 0 1.6zm31.61 16.87a.8.8 0 1 0 0 1.59.8.8 0 0 0 0-1.59zm2.64 0a.8.8 0 1 0 .79.79.8.8 0 0 0 -.79-.79zm-2.64 7.91a.8.8 0 1 0 0 1.59.8.8 0 0 0 0-1.59zm2.64 0a.8.8 0 0 0 -.8.8.77.77 0 0 0 .24.56.74.74 0 0 0 .56.23.8.8 0 0 0 0-1.59zm-2.64-2.64a.8.8 0 1 0 0 1.6.8.8 0 0 0 0-1.6zm2.64 0a.8.8 0 1 0 .79.79.8.8 0 0 0 -.79-.79zm-2.64-2.66a.79.79 0 1 0 0 1.58.79.79 0 1 0 0-1.58zm2.64 0a.79.79 0 1 0 0 1.58.79.79 0 1 0 0-1.58zm-2.64 15.81a.81.81 0 0 0 -.8.8.82.82 0 0 0 .8.81.8.8 0 0 0 .79-.81.79.79 0 0 0 -.79-.77zm2.64 0a.8.8 0 0 0 -.8.8.8.8 0 1 0 1.59 0 .8.8 0 0 0 -.79-.77zm-2.64-2.63a.8.8 0 0 0 -.8.79.81.81 0 0 0 .8.8.79.79 0 0 0 .79-.8.79.79 0 0 0 -.79-.76zm2.64 0a.79.79 0 0 0 -.8.79.8.8 0 1 0 1.59 0 .79.79 0 0 0 -.79-.76zm-2.64-2.64a.8.8 0 1 0 0 1.59.8.8 0 0 0 0-1.59zm2.64 0a.8.8 0 1 0 .79.8.8.8 0 0 0 -.79-.77zm-2.64-2.64a.8.8 0 0 0 0 1.6.8.8 0 0 0 0-1.6zm2.64 0a.8.8 0 1 0 .79.8.8.8 0 0 0 -.79-.77zm-2.64 18.46a.81.81 0 0 0 -.8.8.79.79 0 0 0 .8.79.78.78 0 0 0 .79-.79.79.79 0 0 0 -.79-.77zm2.64 0a.8.8 0 0 0 -.8.8.8.8 0 0 0 1.59 0 .8.8 0 0 0 -.79-.77zm-2.64-2.64a.81.81 0 0 0 -.8.81.8.8 0 0 0 .8.79.79.79 0 0 0 .79-.79.8.8 0 0 0 -.79-.78zm2.64 0a.8.8 0 0 0 -.8.81.8.8 0 0 0 1.59 0 .8.8 0 0 0 -.79-.78zm-2.64-2.64a.82.82 0 0 0 -.8.81.8.8 0 0 0 .8.79.79.79 0 0 0 .79-.79.8.8 0 0 0 -.79-.78zm2.64 0a.81.81 0 0 0 -.8.81.8.8 0 0 0 1.59 0 .81.81 0 0 0 -.79-.78zm-2.64-2.63a.81.81 0 0 0 -.8.79.8.8 0 0 0 .8.8.78.78 0 0 0 .79-.8.79.79 0 0 0 -.79-.76zm2.64 0a.8.8 0 0 0 -.8.79.8.8 0 1 0 1.59 0 .8.8 0 0 0 -.79-.76zm-7.9-21.09a.8.8 0 1 0 .79.79.8.8 0 0 0 -.79-.76zm2.63 0a.8.8 0 1 0 .79.79.8.8 0 0 0 -.79-.76zm-2.63 7.91a.8.8 0 1 0 .79.8.8.8 0 0 0 -.79-.77zm2.63 0a.8.8 0 0 0 -.8.8.86.86 0 0 0 .22.56.83.83 0 0 0 .58.23.8.8 0 0 0 0-1.59zm-2.63-2.64a.8.8 0 1 0 .79.79.8.8 0 0 0 -.79-.76zm2.63 0a.8.8 0 1 0 .79.79.8.8 0 0 0 -.79-.76zm-2.63-2.63a.79.79 0 1 0 0 1.58.79.79 0 1 0 0-1.58zm2.63 0a.79.79 0 1 0 0 1.58.79.79 0 1 0 0-1.58zm-2.63 15.81a.8.8 0 0 0 -.8.8.8.8 0 1 0 1.59 0 .8.8 0 0 0 -.79-.77zm2.63 0a.8.8 0 0 0 -.8.8.8.8 0 1 0 1.59 0 .8.8 0 0 0 -.79-.77zm-2.63-2.63a.79.79 0 0 0 -.8.79.8.8 0 1 0 1.62.03.79.79 0 0 0 -.82-.79zm2.63 0a.79.79 0 0 0 -.8.79.8.8 0 1 0 1.59 0 .79.79 0 0 0 -.79-.76zm-2.63-2.64a.8.8 0 1 0 .79.8.8.8 0 0 0 -.79-.77zm2.63 0a.8.8 0 1 0 .79.8.8.8 0 0 0 -.79-.77zm-2.63-2.64a.8.8 0 1 0 .79.8.8.8 0 0 0 -.79-.77zm2.63 0a.8.8 0 1 0 .79.8.8.8 0 0 0 -.79-.77zm-2.63 18.46a.8.8 0 0 0 -.8.8.8.8 0 0 0 1.59 0 .8.8 0 0 0 -.79-.77zm2.63 0a.8.8 0 0 0 -.8.8.8.8 0 0 0 1.59 0 .8.8 0 0 0 -.79-.77zm-2.63-2.64a.8.8 0 0 0 -.8.81.8.8 0 0 0 1.59 0 .8.8 0 0 0 -.79-.78zm2.63 0a.8.8 0 0 0 -.8.81.8.8 0 0 0 1.59 0 .8.8 0 0 0 -.79-.78zm-2.63-2.64a.81.81 0 0 0 -.8.81.8.8 0 0 0 1.59 0 .81.81 0 0 0 -.79-.78zm2.63 0a.81.81 0 0 0 -.8.81.8.8 0 0 0 1.59 0 .81.81 0 0 0 -.79-.78zm-2.63-2.63a.8.8 0 0 0 -.8.79.8.8 0 1 0 1.59 0 .8.8 0 0 0 -.79-.76zm2.63 0a.8.8 0 0 0 -.8.79.8.8 0 1 0 1.59 0 .8.8 0 0 0 -.79-.76zm-7.9-21.09a.8.8 0 1 0 0 1.59.8.8 0 0 0 0-1.59zm2.63 0a.8.8 0 1 0 0 1.59.8.8 0 1 0 0-1.59zm-2.63 7.91a.8.8 0 1 0 0 1.59.8.8 0 0 0 0-1.59zm2.63 0a.81.81 0 0 0 -.8.8.82.82 0 0 0 .23.56.81.81 0 0 0 1.37-.56.8.8 0 0 0 -.8-.77zm-2.63-2.64a.8.8 0 1 0 0 1.6.8.8 0 0 0 0-1.6zm2.63 0a.8.8 0 1 0 .8.79.81.81 0 0 0 -.8-.76zm-2.63-2.63a.79.79 0 1 0 0 1.58.79.79 0 1 0 0-1.58zm2.63 0a.79.79 0 1 0 0 1.58.79.79 0 1 0 0-1.58zm-2.63 15.81a.81.81 0 0 0 -.81.8.82.82 0 0 0 .81.81.8.8 0 0 0 .79-.81.79.79 0 0 0 -.79-.77zm2.63 0a.81.81 0 0 0 -.8.8.8.8 0 1 0 1.6 0 .8.8 0 0 0 -.8-.77zm-2.63-2.63a.8.8 0 0 0 -.81.79.81.81 0 0 0 .81.8.79.79 0 0 0 .79-.8.79.79 0 0 0 -.79-.76zm2.63 0a.8.8 0 0 0 -.8.79.8.8 0 1 0 1.6 0 .79.79 0 0 0 -.8-.76zm-2.63-2.64a.8.8 0 1 0 0 1.59.8.8 0 0 0 0-1.59zm2.63 0a.8.8 0 1 0 0 1.59.8.8 0 1 0 0-1.59zm-2.63-2.64a.8.8 0 1 0 0 1.6.8.8 0 0 0 0-1.6zm2.63 0a.8.8 0 1 0 .8.8.81.81 0 0 0 -.8-.77zm-2.63 18.46a.81.81 0 0 0 -.81.8.8.8 0 0 0 .81.79.78.78 0 0 0 .79-.79.79.79 0 0 0 -.79-.77zm2.63 0a.81.81 0 0 0 -.8.8.8.8 0 0 0 1.6 0 .8.8 0 0 0 -.8-.77zm-2.63-2.64a.81.81 0 0 0 -.81.81.8.8 0 0 0 .81.79.79.79 0 0 0 .79-.79.8.8 0 0 0 -.79-.78zm2.63 0a.81.81 0 0 0 -.8.81.8.8 0 1 0 .8-.81zm-2.63-2.64a.82.82 0 0 0 -.81.81.8.8 0 0 0 .81.79.79.79 0 0 0 .79-.79.8.8 0 0 0 -.79-.78zm2.63 0a.82.82 0 0 0 -.8.81.8.8 0 0 0 1.6 0 .81.81 0 0 0 -.8-.78zm-2.63-2.63a.81.81 0 0 0 -.81.79.8.8 0 0 0 .81.8.78.78 0 0 0 .79-.8.79.79 0 0 0 -.79-.76zm2.63 0a.81.81 0 0 0 -.8.79.8.8 0 1 0 .8-.79zm-5.27-21.09a.8.8 0 1 0 .8.79.8.8 0 0 0 -.8-.76zm0 7.91a.8.8 0 1 0 .8.8.8.8 0 0 0 -.8-.77zm0-2.64a.8.8 0 1 0 .8.79.8.8 0 0 0 -.8-.76zm0-2.63a.79.79 0 1 0 .8.79.8.8 0 0 0 -.8-.79zm0 15.81a.8.8 0 0 0 -.79.8.8.8 0 1 0 .79-.8zm0-2.63a.79.79 0 0 0 -.79.79.8.8 0 1 0 .79-.79zm0-2.64a.8.8 0 1 0 .8.8.8.8 0 0 0 -.8-.77zm0-2.64a.8.8 0 1 0 .8.8.8.8 0 0 0 -.8-.77zm0 18.46a.8.8 0 0 0 -.79.8.8.8 0 0 0 1.59 0 .8.8 0 0 0 -.8-.77zm0-2.64a.8.8 0 0 0 -.79.81.8.8 0 0 0 1.59 0 .8.8 0 0 0 -.8-.78zm0-2.64a.81.81 0 0 0 -.79.81.8.8 0 0 0 1.59 0 .81.81 0 0 0 -.8-.78zm0-2.63a.8.8 0 0 0 -.79.79.8.8 0 1 0 1.59 0 .8.8 0 0 0 -.8-.76zm13.17-31.64a.8.8 0 0 0 -.8.79.82.82 0 0 0 .8.81.8.8 0 0 0 .79-.81.79.79 0 0 0 -.79-.76zm2.64 0a.79.79 0 0 0 -.8.79.8.8 0 1 0 1.59 0 .79.79 0 0 0 -.79-.76zm-2.64 7.91a.8.8 0 1 0 0 1.59.8.8 0 0 0 0-1.59zm2.64 0a.79.79 0 0 0 -.8.79.78.78 0 0 0 .24.57.74.74 0 0 0 .56.23.8.8 0 0 0 0-1.59zm-2.64-2.64a.8.8 0 1 0 0 1.59.8.8 0 0 0 0-1.59zm2.64 0a.8.8 0 1 0 .79.79.8.8 0 0 0 -.79-.76zm-2.64-2.64a.8.8 0 0 0 0 1.6.8.8 0 0 0 0-1.6zm2.64 0a.8.8 0 1 0 .79.8.8.8 0 0 0 -.79-.77zm-7.9-2.63a.79.79 0 0 0 -.8.79.8.8 0 1 0 1.59 0 .79.79 0 0 0 -.79-.76zm2.63 0a.79.79 0 0 0 -.8.79.8.8 0 1 0 1.59 0 .79.79 0 0 0 -.79-.76zm-2.63 7.91a.8.8 0 1 0 .79.79.79.79 0 0 0 -.79-.76zm2.63 0a.79.79 0 0 0 -.8.79.85.85 0 0 0 .22.57.83.83 0 0 0 .58.23.8.8 0 0 0 0-1.59zm-2.63-2.64a.8.8 0 1 0 .79.79.8.8 0 0 0 -.79-.76zm2.63 0a.8.8 0 1 0 .79.79.8.8 0 0 0 -.79-.76zm-2.63-2.64a.8.8 0 1 0 .79.8.8.8 0 0 0 -.79-.77zm2.63 0a.8.8 0 1 0 .79.8.8.8 0 0 0 -.79-.77zm-7.9-2.63a.8.8 0 0 0 -.81.79.82.82 0 0 0 .81.81.8.8 0 0 0 .79-.81.79.79 0 0 0 -.79-.76zm2.63 0a.8.8 0 0 0 -.8.79.8.8 0 1 0 1.6 0 .79.79 0 0 0 -.8-.76zm-2.63 7.91a.8.8 0 1 0 0 1.59.8.8 0 0 0 0-1.59zm2.63 1.59a.8.8 0 1 0 -.8-.8.81.81 0 0 0 .23.57.79.79 0 0 0 .57.26zm-2.63-4.23a.8.8 0 1 0 0 1.59.8.8 0 0 0 0-1.59zm2.63 0a.8.8 0 1 0 0 1.59.8.8 0 1 0 0-1.59zm-2.63-2.64a.8.8 0 1 0 0 1.6.8.8 0 0 0 0-1.6zm2.63 0a.8.8 0 1 0 .8.8.81.81 0 0 0 -.8-.77zm-5.27-2.63a.79.79 0 0 0 -.79.79.8.8 0 1 0 1.59 0 .79.79 0 0 0 -.8-.76zm.8 8.7a.8.8 0 1 0 -.8.8.79.79 0 0 0 .8-.77zm-.8-3.43a.8.8 0 1 0 .8.79.8.8 0 0 0 -.8-.76zm0-2.64a.8.8 0 1 0 .8.8.8.8 0 0 0 -.8-.77zm15.81-6.31a.8.8 0 1 0 -.8-.8.8.8 0 0 0 .8.83zm-2.64 0a.8.8 0 0 0 0-1.6.8.8 0 0 0 0 1.6zm0-2.64a.8.8 0 0 0 0-1.6.8.8 0 0 0 0 1.6zm0 5.28a.8.8 0 0 0 .79-.81.74.74 0 0 0 -.23-.55.78.78 0 0 0 -.56-.24.8.8 0 1 0 0 1.6zm2.64 0a.8.8 0 1 0 -.8-.81.8.8 0 0 0 .8.84zm0-5.28a.8.8 0 0 0 0-1.6.8.8 0 0 0 0 1.6zm-5.27 2.64a.8.8 0 1 0 -.8-.8.8.8 0 0 0 .8.83zm-2.63 0a.8.8 0 1 0 -.8-.8.8.8 0 0 0 .8.83zm0-2.64a.8.8 0 0 0 0-1.6.8.8 0 0 0 0 1.6zm0 5.28a.8.8 0 0 0 .82-.77.87.87 0 0 0 -.23-.56.85.85 0 0 0 -.56-.23.8.8 0 1 0 0 1.6zm2.63 0a.8.8 0 1 0 -.81-.77.8.8 0 0 0 .81.8zm0-5.28a.8.8 0 0 0 0-1.6.8.8 0 0 0 0 1.6zm-5.27 2.64a.8.8 0 1 0 -.8-.8.8.8 0 0 0 .8.83zm-2.63 0a.8.8 0 0 0 0-1.6.8.8 0 1 0 0 1.6zm0-2.64a.8.8 0 0 0 0-1.6.8.8 0 1 0 0 1.6zm0 5.28a.8.8 0 0 0 0-1.6.8.8 0 1 0 0 1.6zm2.63 0a.8.8 0 1 0 -.8-.81.8.8 0 0 0 .8.84zm0-5.28a.8.8 0 0 0 0-1.6.8.8 0 0 0 0 1.6zm-5.27 2.64a.8.8 0 0 0 0-1.6.8.8 0 0 0 0 1.6zm0 2.64a.8.8 0 0 0 0-1.6.8.8 0 1 0 0 1.6zm0-5.28a.8.8 0 0 0 0-1.6.8.8 0 1 0 0 1.6zm26.34 16.87a.8.8 0 1 0 .8.79.8.8 0 0 0 -.8-.76zm2.63 0a.8.8 0 1 0 .81.79.81.81 0 0 0 -.81-.76zm-2.63 7.91a.8.8 0 1 0 .79.8.79.79 0 0 0 -.79-.77zm2.63 0a.8.8 0 0 0 -.79.8.79.79 0 0 0 .79.79.8.8 0 1 0 0-1.59zm-2.63-2.64a.8.8 0 1 0 .79.79.79.79 0 0 0 -.79-.76zm2.63 0a.8.8 0 0 0 0 1.6.8.8 0 1 0 0-1.6zm-2.63-2.63a.79.79 0 1 0 .79.79.79.79 0 0 0 -.79-.79zm2.63 0a.79.79 0 1 0 .81.79.81.81 0 0 0 -.81-.79zm-2.63 15.81a.79.79 0 0 0 -.79.8.79.79 0 1 0 1.58 0 .79.79 0 0 0 -.79-.77zm2.63 0a.8.8 0 0 0 -.79.8.81.81 0 0 0 .79.81.82.82 0 0 0 .81-.81.81.81 0 0 0 -.81-.77zm-2.63-2.63a.79.79 0 0 0 -.79.79.79.79 0 1 0 1.58 0 .79.79 0 0 0 -.79-.76zm2.63 0a.79.79 0 0 0 -.79.79.8.8 0 0 0 .79.8.81.81 0 0 0 .81-.8.8.8 0 0 0 -.81-.76zm-2.63-2.64a.8.8 0 1 0 .79.8.79.79 0 0 0 -.79-.77zm2.63 0a.8.8 0 0 0 0 1.59.8.8 0 1 0 0-1.59zm-2.63-2.64a.8.8 0 1 0 .79.8.79.79 0 0 0 -.79-.77zm2.63 0a.8.8 0 0 0 0 1.6.8.8 0 1 0 0-1.6zm-2.63 18.46a.79.79 0 0 0 -.79.8.79.79 0 1 0 1.58 0 .79.79 0 0 0 -.79-.77zm2.63 0a.8.8 0 0 0 -.79.8.79.79 0 0 0 .79.79.8.8 0 0 0 .81-.79.81.81 0 0 0 -.81-.77zm-2.63-2.64a.8.8 0 0 0 -.79.81.79.79 0 0 0 1.58 0 .8.8 0 0 0 -.79-.78zm2.63 0a.8.8 0 0 0 -.79.81.79.79 0 0 0 .79.79.8.8 0 0 0 .81-.79.81.81 0 0 0 -.81-.78zm-2.63-2.64a.8.8 0 0 0 -.79.81.79.79 0 0 0 1.58 0 .8.8 0 0 0 -.79-.78zm2.63 0a.81.81 0 0 0 -.79.81.79.79 0 0 0 .79.79.8.8 0 0 0 .81-.79.82.82 0 0 0 -.81-.78zm-2.63-2.63a.79.79 0 0 0 -.79.79.79.79 0 1 0 1.58 0 .79.79 0 0 0 -.79-.76zm2.63 0a.8.8 0 0 0 -.79.79.79.79 0 0 0 .79.8.8.8 0 0 0 .81-.8.81.81 0 0 0 -.81-.76zm-7.9-21.09a.8.8 0 1 0 0 1.59.8.8 0 1 0 0-1.59zm2.64 0a.8.8 0 1 0 .02 1.64.8.8 0 0 0 0-1.59zm-2.64 7.91a.8.8 0 1 0 0 1.59.8.8 0 1 0 0-1.59zm2.64 0a.8.8 0 0 0 -.8.8.79.79 0 0 0 .24.56.75.75 0 0 0 .56.23.8.8 0 0 0 0-1.59zm-2.64-2.64a.8.8 0 1 0 0 1.6.8.8 0 1 0 0-1.6zm2.64 0a.8.8 0 1 0 .79.79.79.79 0 0 0 -.77-.76zm-2.64-2.63a.79.79 0 1 0 0 1.58.79.79 0 1 0 0-1.58zm2.66 0a.79.79 0 1 0 0 1.58.79.79 0 1 0 0-1.58zm-2.64 15.81a.81.81 0 0 0 -.8.8.82.82 0 0 0 .8.81.8.8 0 0 0 .8-.81.8.8 0 0 0 -.82-.77zm2.64 0a.8.8 0 0 0 -.8.8.8.8 0 1 0 1.59 0 .8.8 0 0 0 -.79-.77zm-2.64-2.63a.8.8 0 0 0 -.8.79.81.81 0 0 0 .8.8.8.8 0 0 0 .8-.8.79.79 0 0 0 -.82-.76zm2.64 0a.79.79 0 0 0 -.8.79.8.8 0 1 0 1.59 0 .79.79 0 0 0 -.79-.76zm-2.64-2.64a.8.8 0 1 0 0 1.59.8.8 0 1 0 0-1.59zm2.64 0a.8.8 0 1 0 .79.8.8.8 0 0 0 -.79-.77zm-2.64-2.64a.8.8 0 1 0 0 1.6.8.8 0 1 0 0-1.6zm2.64 0a.8.8 0 1 0 .79.8.8.8 0 0 0 -.79-.77zm-2.64 18.46a.81.81 0 0 0 -.8.8.79.79 0 0 0 .8.79.78.78 0 0 0 .8-.79.8.8 0 0 0 -.82-.77zm2.64 0a.8.8 0 0 0 -.8.8.8.8 0 0 0 1.59 0 .8.8 0 0 0 -.79-.77zm-2.64-2.64a.81.81 0 0 0 -.8.81.8.8 0 0 0 .8.79.79.79 0 0 0 .8-.79.8.8 0 0 0 -.82-.78zm2.64 0a.8.8 0 0 0 -.8.81.8.8 0 0 0 1.59 0 .8.8 0 0 0 -.79-.78zm-2.64-2.64a.82.82 0 0 0 -.8.81.8.8 0 0 0 .8.79.79.79 0 0 0 .8-.79.8.8 0 0 0 -.82-.78zm2.64 0a.81.81 0 0 0 -.8.81.8.8 0 0 0 1.59 0 .81.81 0 0 0 -.79-.78zm-2.64-2.63a.81.81 0 0 0 -.8.79.8.8 0 0 0 .8.8.78.78 0 0 0 .8-.8.79.79 0 0 0 -.82-.76zm2.64 0a.8.8 0 0 0 -.8.79.8.8 0 1 0 1.59 0 .8.8 0 0 0 -.79-.76zm-5.26-21.09a.8.8 0 1 0 .79.79.8.8 0 0 0 -.81-.76zm0 7.91a.8.8 0 1 0 0 1.59.8.8 0 0 0 0-1.59zm0-2.64a.8.8 0 1 0 0 1.6.8.8 0 0 0 0-1.6zm0-2.63a.79.79 0 1 0 .79.79.8.8 0 0 0 -.81-.79zm0 15.81a.8.8 0 0 0 -.8.8.8.8 0 0 0 .8.81.82.82 0 0 0 .79-.81.81.81 0 0 0 -.81-.77zm0-2.63a.79.79 0 0 0 -.8.79.8.8 0 0 0 .8.8.81.81 0 0 0 .79-.8.8.8 0 0 0 -.81-.76zm0-2.64a.8.8 0 1 0 0 1.59.8.8 0 0 0 0-1.59zm0-2.64a.8.8 0 0 0 0 1.6.8.8 0 0 0 0-1.6zm0 18.46a.8.8 0 0 0 -.8.8.78.78 0 0 0 .8.79.79.79 0 0 0 .79-.79.81.81 0 0 0 -.81-.77zm0-2.64a.8.8 0 0 0 -.8.81.79.79 0 0 0 .8.79.8.8 0 0 0 .79-.79.81.81 0 0 0 -.81-.78zm0-2.64a.8.8 0 0 0 -.8.81.79.79 0 0 0 .8.79.8.8 0 0 0 .79-.79.82.82 0 0 0 -.81-.78zm0-2.63a.79.79 0 0 0 -.8.79.78.78 0 0 0 .8.8.79.79 0 0 0 .79-.8.8.8 0 0 0 -.81-.76zm7.89 15.82a.81.81 0 1 0 .79.8.79.79 0 0 0 -.81-.77zm2.63 0a.81.81 0 0 0 0 1.61.81.81 0 1 0 0-1.61zm-2.63-2.63a.8.8 0 1 0 .79.79.79.79 0 0 0 -.81-.76zm2.63 0a.8.8 0 0 0 0 1.6.8.8 0 1 0 0-1.6zm-2.65-2.64a.81.81 0 1 0 .79.81.8.8 0 0 0 -.79-.81zm2.63 0a.81.81 0 0 0 0 1.61.81.81 0 1 0 0-1.61zm-7.9 5.27a.81.81 0 0 0 0 1.61.81.81 0 0 0 0-1.61zm2.64 0a.81.81 0 1 0 .79.8.8.8 0 0 0 -.77-.77zm-2.64-2.63a.8.8 0 1 0 0 1.6.8.8 0 1 0 0-1.6zm2.64 0a.8.8 0 1 0 .79.79.8.8 0 0 0 -.77-.76zm-2.64-2.64a.81.81 0 0 0 0 1.61.81.81 0 0 0 0-1.61zm2.66 0a.81.81 0 1 0 .79.81.8.8 0 0 0 -.79-.81zm-5.26 5.27a.81.81 0 0 0 0 1.61.81.81 0 0 0 0-1.61zm0-2.63a.8.8 0 1 0 0 1.6.8.8 0 0 0 0-1.6zm0-2.64a.81.81 0 0 0 0 1.61.81.81 0 0 0 0-1.61zm7.89-42.19a.79.79 0 0 0 -.79.79.8.8 0 0 0 .79.81.81.81 0 0 0 .8-.81.79.79 0 0 0 -.82-.76zm2.63 0a.79.79 0 0 0 -.79.79.81.81 0 0 0 .79.81.82.82 0 0 0 .81-.81.8.8 0 0 0 -.83-.76zm-2.63 7.91a.8.8 0 1 0 .79.79.79.79 0 0 0 -.81-.76zm2.63 0a.79.79 0 0 0 -.79.79.81.81 0 0 0 .23.57.82.82 0 0 0 .56.23.8.8 0 1 0 0-1.59zm-2.63-2.64a.8.8 0 1 0 .79.79.79.79 0 0 0 -.81-.76zm2.63 0a.8.8 0 1 0 .81.79.81.81 0 0 0 -.83-.76zm-2.63-2.64a.8.8 0 1 0 .79.8.79.79 0 0 0 -.81-.77zm2.63 0a.8.8 0 0 0 0 1.6.8.8 0 1 0 0-1.6zm-7.9-2.63a.8.8 0 0 0 -.8.79.82.82 0 0 0 .8.81.8.8 0 0 0 .8-.81.79.79 0 0 0 -.82-.76zm2.64 0a.79.79 0 0 0 -.8.79.81.81 0 0 0 .8.81.8.8 0 0 0 .79-.81.79.79 0 0 0 -.79-.76zm-2.64 7.91a.8.8 0 1 0 0 1.59.8.8 0 1 0 0-1.59zm2.64 1.59a.8.8 0 1 0 -.8-.8.78.78 0 0 0 .24.57.75.75 0 0 0 .56.26zm-2.64-4.23a.8.8 0 1 0 0 1.59.8.8 0 1 0 0-1.59zm2.64 0a.8.8 0 1 0 0 1.59.8.8 0 0 0 0-1.59zm-2.64-2.64a.8.8 0 1 0 0 1.6.8.8 0 1 0 0-1.6zm2.64 0a.8.8 0 0 0 0 1.6.8.8 0 0 0 0-1.6zm-5.26-2.63a.79.79 0 0 0 -.8.79.8.8 0 0 0 .8.81.82.82 0 0 0 .79-.81.8.8 0 0 0 -.81-.76zm.79 8.7a.8.8 0 0 0 -.79-.79.8.8 0 1 0 0 1.59.8.8 0 0 0 .77-.77zm-.79-3.43a.8.8 0 1 0 .79.79.8.8 0 0 0 -.81-.76zm0-2.64a.8.8 0 0 0 0 1.6.8.8 0 0 0 0-1.6zm10.52-6.31a.8.8 0 1 0 0-1.6.8.8 0 0 0 0 1.6zm-2.63 0a.8.8 0 1 0 -.79-.8.8.8 0 0 0 .77.83zm0-2.64a.8.8 0 1 0 -.79-.8.79.79 0 0 0 .77.83zm0 5.28a.8.8 0 0 0 .79-.81.86.86 0 0 0 -.22-.56.84.84 0 0 0 -.57-.23.8.8 0 0 0 0 1.6zm2.63 0a.8.8 0 1 0 0-1.6.8.8 0 0 0 0 1.6zm0-5.28a.8.8 0 1 0 -.79-.8.79.79 0 0 0 .77.83zm-5.26 2.67a.8.8 0 1 0 -.8-.8.8.8 0 0 0 .8.8zm-2.64 0a.8.8 0 1 0 -.8-.8.81.81 0 0 0 .78.8zm0-2.64a.8.8 0 1 0 -.8-.8.8.8 0 0 0 .78.8zm0 5.28a.8.8 0 1 0 -.8-.81.81.81 0 0 0 .78.81zm2.64 0a.8.8 0 1 0 -.8-.81.8.8 0 0 0 .8.81zm0-5.28a.8.8 0 0 0 0-1.6.8.8 0 0 0 0 1.6zm-5.27 2.64a.8.8 0 1 0 -.8-.8.81.81 0 0 0 .78.8zm0 2.64a.8.8 0 1 0 0-1.6.8.8 0 1 0 0 1.6zm0-5.28a.8.8 0 1 0 -.8-.8.8.8 0 0 0 .78.8zm-36.89-13.19a.8.8 0 1 0 -.8-.79.79.79 0 0 0 .8.79z" fill="#ffd100"/><path d="m404.64 14.7h47.13v77.53h-47.13z" fill="#f5333f"/><g fill="#fff"><path d="m442.56 35.8a.92.92 0 0 0 .92.93.94.94 0 0 0 .94-.93 1 1 0 0 0 -.94-.94.93.93 0 0 0 -.92.94z"/><path d="m434.55 35.8a.94.94 0 0 0 1.87 0 .94.94 0 1 0 -1.87 0z"/><path d="m436.55 35.8a.92.92 0 0 0 .93.93.94.94 0 0 0 .95-.93 1 1 0 0 0 -.95-.94.94.94 0 0 0 -.93.94z"/><path d="m438.56 35.8a.93.93 0 0 0 1.86 0 .93.93 0 1 0 -1.86 0z"/><path d="m440.56 35.8a.92.92 0 0 0 .92.93.93.93 0 0 0 .95-.93 1 1 0 0 0 -.95-.94.93.93 0 0 0 -.92.94z"/><path d="m446.56 39.81a.93.93 0 0 0 .92.93.94.94 0 1 0 0-1.87.93.93 0 0 0 -.92.94z"/><path d="m435.49 40.87a.94.94 0 1 0 .93.94.94.94 0 0 0 -.93-.94z"/><path d="m437.48 40.87a.94.94 0 0 0 0 1.88 1 1 0 0 0 .95-.94 1 1 0 0 0 -.95-.94z"/><path d="m434.55 39.81a.94.94 0 1 0 .94-.94.94.94 0 0 0 -.94.94z"/><path d="m436.55 39.81a.93.93 0 0 0 .93.93.94.94 0 1 0 0-1.87.93.93 0 0 0 -.93.94z"/><path d="m434.55 37.8a.94.94 0 1 0 .94-.93.94.94 0 0 0 -.94.93z"/><path d="m436.55 37.8a.93.93 0 0 0 .93.94.94.94 0 1 0 0-1.87.93.93 0 0 0 -.93.93z"/><path d="m435.49 66.91a.93.93 0 1 0 .93.93.93.93 0 0 0 -.93-.93z"/><path d="m437.48 66.91a.93.93 0 0 0 0 1.86.93.93 0 1 0 0-1.86z"/><path d="m435.49 64.9a.94.94 0 1 0 0 1.87.94.94 0 0 0 0-1.87z"/><path d="m437.48 64.9a.94.94 0 1 0 .95.94 1 1 0 0 0 -.95-.94z"/><path d="m435.49 70.91a.94.94 0 1 0 .93.93.94.94 0 0 0 -.93-.93z"/><path d="m433.49 72.91a.94.94 0 1 0 .93.94.94.94 0 0 0 -.93-.94z"/><path d="m435.49 72.91a.94.94 0 1 0 .93.94.95.95 0 0 0 -.93-.94z"/><path d="m437.48 72.91a.94.94 0 0 0 0 1.88.94.94 0 1 0 0-1.88z"/><path d="m439.49 72.91a.94.94 0 1 0 .93.94.95.95 0 0 0 -.93-.94z"/><path d="m441.48 72.91a.94.94 0 1 0 .94.94.94.94 0 0 0 -.94-.94z"/><path d="m433.49 74.92a.94.94 0 1 0 0 1.87.94.94 0 0 0 0-1.87z"/><path d="m431.49 74.92a.94.94 0 1 0 .93.93.94.94 0 0 0 -.93-.93z"/><path d="m433.49 76.93a.92.92 0 0 0 -.94.92.94.94 0 1 0 1.87 0 .93.93 0 0 0 -.93-.92z"/><path d="m431.49 76.93a.93.93 0 0 0 -.94.92.94.94 0 1 0 1.87 0 .93.93 0 0 0 -.93-.92z"/><path d="m429.48 76.93a.93.93 0 1 0 0 1.86.94.94 0 0 0 .93-.94.93.93 0 0 0 -.93-.92z"/><path d="m435.49 76.93a.93.93 0 0 0 -.94.92.94.94 0 1 0 1.87 0 .93.93 0 0 0 -.93-.92z"/><path d="m435.49 74.93a.93.93 0 0 0 -.94.92.94.94 0 1 0 1.87 0 .93.93 0 0 0 -.93-.92z"/><path d="m445.48 76.93a.93.93 0 0 0 -.93.92.94.94 0 1 0 1.87 0 .93.93 0 0 0 -.94-.92z"/><path d="m441.48 76.93a.93.93 0 0 0 -.93.92.94.94 0 1 0 1.87 0 .92.92 0 0 0 -.94-.92z"/><path d="m439.49 76.93a.93.93 0 0 0 -.94.92.94.94 0 1 0 1.87 0 .93.93 0 0 0 -.93-.92z"/><path d="m443.48 76.93a.92.92 0 0 0 -.92.92.93.93 0 0 0 .92.94 1 1 0 0 0 .94-.94.93.93 0 0 0 -.94-.92z"/><path d="m431.49 78.92a.94.94 0 1 0 .93.93.94.94 0 0 0 -.93-.93z"/><path d="m429.48 78.92a.92.92 0 0 0 -.93.93.93.93 0 1 0 .93-.93z"/><path d="m427.49 78.92a.93.93 0 0 0 -.94.93.94.94 0 1 0 1.87 0 .93.93 0 0 0 -.93-.93z"/><path d="m431.49 80.93a.94.94 0 0 0 -.94.92.94.94 0 1 0 1.87 0 .93.93 0 0 0 -.93-.92z"/><path d="m429.48 80.93a.93.93 0 0 0 -.93.92.93.93 0 1 0 1.86 0 .93.93 0 0 0 -.93-.92z"/><path d="m433.49 80.93a.93.93 0 0 0 -.94.92.94.94 0 1 0 .94-.92z"/><path d="m433.49 82.93a.93.93 0 1 0 .93.93.93.93 0 0 0 -.93-.93z"/><path d="m431.49 82.93a.93.93 0 1 0 .93.93.94.94 0 0 0 -.93-.93z"/><path d="m435.49 82.93a.93.93 0 1 0 .93.93.94.94 0 0 0 -.93-.93z"/><path d="m435.49 80.93a.93.93 0 0 0 -.94.92.94.94 0 1 0 1.87 0 .93.93 0 0 0 -.93-.92z"/><path d="m439.49 80.93a.93.93 0 0 0 -.94.92.94.94 0 1 0 1.87 0 .93.93 0 0 0 -.93-.92z"/><path d="m439.49 82.93a.92.92 0 0 0 -.94.93.94.94 0 1 0 .94-.93z"/><path d="m441.48 82.93a.93.93 0 1 0 .94.93.93.93 0 0 0 -.94-.93z"/><path d="m443.48 82.93a.93.93 0 0 0 0 1.86.93.93 0 1 0 0-1.86z"/><path d="m435.49 84.93a.93.93 0 1 0 .93.93.94.94 0 0 0 -.93-.93z"/><path d="m433.49 84.93a.93.93 0 1 0 .93.93.93.93 0 0 0 -.93-.93z"/><path d="m437.48 84.93a.93.93 0 0 0 0 1.86.93.93 0 1 0 0-1.86z"/><path d="m441.48 84.93a.93.93 0 0 0 0 1.86.93.93 0 1 0 0-1.86z"/><path d="m439.49 84.93a.93.93 0 1 0 .93.93.94.94 0 0 0 -.93-.93z"/><path d="m437.48 86.94a.93.93 0 0 0 0 1.86.93.93 0 1 0 0-1.86z"/><path d="m437.48 88.93a.94.94 0 0 0 0 1.87.94.94 0 1 0 0-1.87z"/><path d="m435.49 86.94a.93.93 0 1 0 .93.93.93.93 0 0 0 -.93-.93z"/><path d="m439.49 86.94a.92.92 0 0 0 -.94.93.94.94 0 1 0 .94-.93z"/><path d="m443.48 78.92a.94.94 0 0 0 0 1.87.94.94 0 1 0 0-1.87z"/><path d="m445.48 78.92a.94.94 0 1 0 .94.93.93.93 0 0 0 -.94-.93z"/><path d="m447.48 78.92a.94.94 0 1 0 .94.93.93.93 0 0 0 -.94-.93z"/><path d="m443.48 80.93a.92.92 0 0 0 -.92.92.94.94 0 0 0 .92 1 1 1 0 0 0 .94-1 .94.94 0 0 0 -.94-.92z"/><path d="m441.48 80.93a.93.93 0 0 0 -.93.92.94.94 0 1 0 1.87 0 .93.93 0 0 0 -.94-.92z"/><path d="m445.48 80.93a.93.93 0 0 0 -.93.92.94.94 0 1 0 1.87 0 .93.93 0 0 0 -.94-.92z"/><path d="m439.49 74.92a.94.94 0 1 0 .93.93.94.94 0 0 0 -.93-.93z"/><path d="m441.48 74.92a.94.94 0 1 0 .94.93.93.93 0 0 0 -.94-.93z"/><path d="m443.48 74.92a.94.94 0 0 0 0 1.87.94.94 0 1 0 0-1.87z"/><path d="m437.48 70.91a.94.94 0 0 0 0 1.87.94.94 0 1 0 0-1.87z"/><path d="m435.49 68.91a.94.94 0 1 0 .93.93.94.94 0 0 0 -.93-.93z"/><path d="m437.48 68.91a.94.94 0 0 0 0 1.87.94.94 0 1 0 0-1.87z"/><path d="m435.49 62.9a.93.93 0 1 0 .93.94.93.93 0 0 0 -.93-.94z"/><path d="m437.48 62.9a.93.93 0 1 0 0 1.86.93.93 0 1 0 0-1.86z"/><path d="m439.49 66.91a.93.93 0 1 0 .93.93.93.93 0 0 0 -.93-.93z"/><path d="m439.49 64.9a.94.94 0 1 0 0 1.87.94.94 0 0 0 0-1.87z"/><path d="m439.49 70.91a.94.94 0 1 0 .93.93.94.94 0 0 0 -.93-.93z"/><path d="m439.49 68.91a.94.94 0 1 0 .93.93.94.94 0 0 0 -.93-.93z"/><path d="m439.49 62.9a.93.93 0 1 0 .93.94.93.93 0 0 0 -.93-.94z"/><path d="m435.49 48.88a.94.94 0 1 0 .93.94.94.94 0 0 0 -.93-.94z"/><path d="m437.48 48.88a.94.94 0 0 0 0 1.87.94.94 0 1 0 0-1.87z"/><path d="m435.49 58.89a.94.94 0 1 0 .93.94.95.95 0 0 0 -.93-.94z"/><path d="m437.48 58.89a.94.94 0 0 0 0 1.88.94.94 0 1 0 0-1.88z"/><path d="m435.49 54.89a.94.94 0 1 0 .93.93.94.94 0 0 0 -.93-.93z"/><path d="m437.48 54.89a.94.94 0 0 0 0 1.87.94.94 0 1 0 0-1.87z"/><path d="m435.49 52.89a.94.94 0 1 0 .93.93.94.94 0 0 0 -.93-.93z"/><path d="m437.48 52.89a.94.94 0 0 0 0 1.87.94.94 0 1 0 0-1.87z"/><path d="m435.49 50.89a.93.93 0 1 0 .93.93.94.94 0 0 0 -.93-.93z"/><path d="m437.48 50.89a.93.93 0 0 0 0 1.86.93.93 0 1 0 0-1.86z"/><path d="m435.49 60.91a.93.93 0 0 0 -.94.92.94.94 0 1 0 1.87 0 .93.93 0 0 0 -.93-.92z"/><path d="m437.48 60.91a.92.92 0 0 0 -.93.92.94.94 0 0 0 .93.94 1 1 0 0 0 .95-.94.94.94 0 0 0 -.95-.92z"/><path d="m439.49 50.75a.94.94 0 1 0 -.94-.93.93.93 0 0 0 .94.93z"/><path d="m439.49 58.89a.94.94 0 1 0 .93.94.95.95 0 0 0 -.93-.94z"/><path d="m439.49 54.89a.94.94 0 1 0 .93.93.94.94 0 0 0 -.93-.93z"/><path d="m439.49 52.89a.94.94 0 1 0 .93.93.94.94 0 0 0 -.93-.93z"/><path d="m439.49 50.89a.93.93 0 1 0 .93.93.94.94 0 0 0 -.93-.93z"/><path d="m439.49 60.91a.93.93 0 0 0 -.94.92.94.94 0 1 0 1.87 0 .93.93 0 0 0 -.93-.92z"/><path d="m435.49 56.9a.93.93 0 0 0 -.94.92.92.92 0 0 0 .94.93.93.93 0 1 0 0-1.85z"/><path d="m437.48 56.9a.93.93 0 1 0 0 1.85.93.93 0 1 0 0-1.85z"/><path d="m439.49 56.9a.93.93 0 1 0 .93.92.93.93 0 0 0 -.93-.92z"/><path d="m438.56 37.8a.93.93 0 1 0 .93-.93.93.93 0 0 0 -.93.93z"/><path d="m440.56 37.8a.93.93 0 0 0 .92.94.94.94 0 1 0 0-1.87.93.93 0 0 0 -.92.93z"/><path d="m438.56 39.81a.93.93 0 1 0 .93-.94.93.93 0 0 0 -.93.94z"/><path d="m440.56 39.81a.93.93 0 0 0 .92.93.94.94 0 1 0 0-1.87.93.93 0 0 0 -.92.94z"/><path d="m435.49 42.88a.93.93 0 1 0 .93.93.93.93 0 0 0 -.93-.93z"/><path d="m437.48 42.88a.93.93 0 0 0 0 1.86.93.93 0 1 0 0-1.86z"/><path d="m439.49 42.88a.93.93 0 1 0 .93.93.92.92 0 0 0 -.93-.93z"/><path d="m441.48 42.88a.93.93 0 0 0 0 1.86.93.93 0 1 0 0-1.86z"/><path d="m435.49 44.88a.93.93 0 1 0 .93.93.93.93 0 0 0 -.93-.93z"/><path d="m437.48 44.88a.93.93 0 0 0 0 1.86.93.93 0 1 0 0-1.86z"/><path d="m439.49 44.88a.93.93 0 1 0 .93.93.92.92 0 0 0 -.93-.93z"/><path d="m441.48 44.88a.93.93 0 0 0 0 1.86.93.93 0 1 0 0-1.86z"/><path d="m444.55 39.81a.94.94 0 1 0 .93-.94.93.93 0 0 0 -.93.94z"/><path d="m444.55 37.8a.94.94 0 1 0 .93-.93.94.94 0 0 0 -.93.93z"/><path d="m446.56 37.8a.93.93 0 0 0 .92.94.94.94 0 1 0 0-1.87.93.93 0 0 0 -.92.93z"/><path d="m444.55 35.8a.94.94 0 0 0 1.87 0 .94.94 0 1 0 -1.87 0z"/><path d="m446.56 35.8a.92.92 0 0 0 .92.93.94.94 0 0 0 .95-.93 1 1 0 0 0 -.95-.94.93.93 0 0 0 -.92.94z"/><path d="m447.48 44.88a.93.93 0 0 0 0 1.86.93.93 0 1 0 0-1.86z"/><path d="m447.48 42.88a.93.93 0 0 0 0 1.86.93.93 0 1 0 0-1.86z"/><path d="m445.48 44.88a.93.93 0 1 0 .94.93.93.93 0 0 0 -.94-.93z"/><path d="m445.48 42.88a.93.93 0 1 0 .94.93.93.93 0 0 0 -.94-.93z"/><path d="m449.49 44.88a.93.93 0 1 0 .93.93.94.94 0 0 0 -.93-.93z"/><path d="m449.49 44.74a.93.93 0 1 0 -.94-.93.93.93 0 0 0 .94.93z"/><path d="m448.55 39.81a.94.94 0 1 0 .94-.94.94.94 0 0 0 -.94.94z"/><path d="m448.55 37.8a.94.94 0 1 0 1.87 0 .94.94 0 0 0 -1.87 0z"/><path d="m448.55 35.8a.94.94 0 1 0 .94-.94 1 1 0 0 0 -.94.94z"/><path d="m443.48 46.88a.94.94 0 0 0 0 1.87.94.94 0 1 0 0-1.87z"/><path d="m435.49 46.88a.94.94 0 1 0 .93.94.94.94 0 0 0 -.93-.94z"/><path d="m437.48 46.88a.94.94 0 0 0 0 1.87.94.94 0 1 0 0-1.87z"/><path d="m439.49 46.88a.94.94 0 1 0 .93.94.94.94 0 0 0 -.93-.94z"/><path d="m441.48 46.88a.94.94 0 0 0 0 1.87.94.94 0 1 0 0-1.87z"/><path d="m445.48 46.88a.94.94 0 1 0 .94.94.94.94 0 0 0 -.94-.94z"/><path d="m447.48 46.88a.94.94 0 0 0 0 1.87.94.94 0 1 0 0-1.87z"/><path d="m449.49 46.88a.94.94 0 1 0 0 1.87.94.94 0 0 0 0-1.87z"/><path d="m401 91 2.15 1-.11.35a4.18 4.18 0 0 0 -.16 1.19 3.6 3.6 0 0 0 1.4 2.88c0-.08.41.2.41.2v-12.42l-.41.57a11.91 11.91 0 0 1 -3.28 6.23z"/><path d="m404.24 44.4-.79-1v-.07a25.84 25.84 0 0 0 -2.31-2.28l-.21-.18.09-.26a6 6 0 0 0 .37-1.55 1.76 1.76 0 0 1 -1.12.48 1.55 1.55 0 0 1 -1.2-.72l-.14-.22.14-.22a2.84 2.84 0 0 0 .41-1.1c-.07.1-.09.22-.19.29a1.34 1.34 0 0 1 -1.37 0l-1.58-1.09a3.76 3.76 0 0 0 -2.17-1.13l-.46-.09.15-.44s.71-2.14.69-2.11c0-.79-.92-1.46-2.15-1.55h-.36-.3c-1.23.11-2.11.76-2.14 1.52l.73 2.17.22.43-.43.09c-1.61.37-1.87 1.11-1.87 1.12l-.1.29h-.29a1.86 1.86 0 0 0 -1.55.75 1.46 1.46 0 0 0 -.22.79 2.49 2.49 0 0 0 .18.83v.11c0-.19 0-.35.05-.39a2.29 2.29 0 0 1 2.68.36l.37.3-.37.32a2.77 2.77 0 0 1 -2.19.49.18.18 0 0 1 -.1-.06l-.91-.28a6.15 6.15 0 0 1 -1-.77 2.19 2.19 0 0 0 .53.91 2.79 2.79 0 0 0 2.08.74l2-.38 1.38-.29h.76l-.42.77a.92.92 0 0 1 -.67.42l-.37.06a7.72 7.72 0 0 0 -1.09.26 3.22 3.22 0 0 0 2.95-.13h.08.09a4.94 4.94 0 0 1 4 2.2 1.63 1.63 0 0 1 .23.83 2.53 2.53 0 0 1 -.42 1.27 1.86 1.86 0 0 0 .79-.36.63.63 0 0 1 .65-.21l.26.14v.27c0 .4-.72 1.28-1.7 1.92a4.32 4.32 0 0 0 2.32-.12l.58-.34v.66a1.77 1.77 0 0 1 -.86 1.61 3.46 3.46 0 0 1 -2.34 0l-1.49.27-1.9.84a1.44 1.44 0 0 1 -1.47.07 1.21 1.21 0 0 1 -.39-1 3.23 3.23 0 0 1 .07-.66v-1.21a.71.71 0 0 0 -.18-.47 10 10 0 0 1 -2.52-2.45l-.74.43-.2-.13c-2.78-1.72-4.31-4.84-4.31-8.58a15.07 15.07 0 0 1 .14-1.76 5.76 5.76 0 0 0 -2.06 4.42 9.53 9.53 0 0 0 1.82 5.19v.62l-.56-.07a7.83 7.83 0 0 1 -1.36-1.41c.37.57.71 1.12 1.21 1.77v.57h-.51a10.87 10.87 0 0 1 -4.59-6 5.7 5.7 0 0 0 -.47 2.29c0 1.79.82 4.24 4 6.92l.26.68h-.7a20.65 20.65 0 0 1 -2.64-1.74 13.58 13.58 0 0 0 4.21 2.79l.48.57-.66.21a14.54 14.54 0 0 1 -6.08-2.18c.2 1 1.09 3 5 4.64l.42.47a3.88 3.88 0 0 0 -.54.27c.19 0 .3.07.51.11l1.47.24-1.39.55c-.08 0-1.9.58-5.25-.6.48 1.09 2.06 3.11 7 3l.32.3s-.2.23-.19.31l1.3-.45-.94 1.13c-.07.08-1.68 1.76-6.31 1.24 1.06 1.19 3.72 3.29 8.5 1.1l1.46-.68-1 1.3a7.07 7.07 0 0 1 -1.72 1.45 10.78 10.78 0 0 0 2.3-1.53h.52v.58a30 30 0 0 1 -5.14 3.9c1.53.44 5.06.73 9.32-4.08 0 0 .28-.18.42-.08s.08.44.13.49c.27-.44.52-.87.76-1.32l.46-.18.29.47v.22c-.28 1.09-.63 2.49-.9 3.33.64-.15 2-1 4.05-4.74l.48-.25.28.49s-.1.48-.22 1a10 10 0 0 0 .73-2.63l.41-.4.4.42.18 1.86v.07h.11c.16-.05.66-.21.89.16a.41.41 0 0 1 .09.27 1.44 1.44 0 0 1 -.48.89l-.11.11h-.15s-1.72.28-4.32 3.8c-.11.36-.64 1-2.58 1.58l1.1 1v2.14l-2.83 3c-.18.2-.74.8-1.34.58s-.71-1.17-.72-1.35c0 0-.12-1.75-.12-1.76a2.93 2.93 0 0 0 -2.73-2.4 1.24 1.24 0 0 0 -1.11.7 1 1 0 0 1 .93.28 1.05 1.05 0 0 1 .26.61.3.3 0 0 1 0 .1l.8.73a2.62 2.62 0 0 1 .3 1.47v.72a1.09 1.09 0 0 0 .32.69l-.54.6a10.6 10.6 0 0 0 -3.06-1.58 2.82 2.82 0 0 0 -3 1 2.44 2.44 0 0 0 -.42 1.37 1.53 1.53 0 0 0 .08.37 1.63 1.63 0 0 1 .07-.3.56.56 0 0 1 .44-.36 1.21 1.21 0 0 1 .9.34l2.94.13c.63 0 1.15.07 1.29.47a.52.52 0 0 1 0 .18c0 .3-.28.53-.5.72l-.38.32c-.62.5-1.19.95-1.19 1.76a3.09 3.09 0 0 0 .44 1.41l.07.14v.15a.41.41 0 0 0 0 .14.72.72 0 0 0 .13.41 1.24 1.24 0 0 0 .89.36c-.06 0-.14 0-.19-.06a.92.92 0 0 1 -.29-.7 1.18 1.18 0 0 1 0-.3 1.08 1.08 0 0 1 1-.83 6.82 6.82 0 0 1 2.64-2.94 2.65 2.65 0 0 1 3.06.61l.12.12v.17a1.18 1.18 0 0 0 1.09 1.15l.36-.11s-.09.81-.13 1.15a2 2 0 0 0 .32-.56v-.13l.11-.07c.26-.18 1-.77 1-1.32a2.89 2.89 0 0 0 -1.81-1.86l-.77-.14 5-5.22v1a2.48 2.48 0 0 0 .93 1.76 2.61 2.61 0 0 0 .1-.7 3.39 3.39 0 0 0 -.09-.74l-.22-.88 1.74.92a11.85 11.85 0 0 1 -.11-1.54 4 4 0 0 1 .18-1.32 13.64 13.64 0 0 1 1.39-2.49l.51-.77.23.89a11 11 0 0 1 .25 2.43 10.73 10.73 0 0 1 -.39 2.78 4.11 4.11 0 0 0 1.07-.62l1-.76-.4 1.22c0 .12-1 3.11-3.17 3.73a3.36 3.36 0 0 1 -2.69-.57 2.43 2.43 0 0 0 .91 1.93c.77.45 2.1.11 3.83-1l.63-.41v.79c0 .15-.11 1.61-3.71 2.61-1.07.3-1.82 1.55-2.3 2.55a12.6 12.6 0 0 1 2-1.17l.8-.31a15.3 15.3 0 0 0 3.12-1.39l.51-.1.18.51c0 .08-.77 2-5.12 3.58-2.51.89-3.85 2.85-3.85 4.41a2.15 2.15 0 0 0 .07.58 1.77 1.77 0 0 0 1.79 1.35 3.62 3.62 0 0 1 -.44-1.62 2.13 2.13 0 0 1 .24-1 16.61 16.61 0 0 1 2.93-2.27l2.7-1.37.47.13v.53a18.08 18.08 0 0 0 -2.84 3.79 7 7 0 0 0 -.48 2.22 2.33 2.33 0 0 0 .26 1.13 1.65 1.65 0 0 0 .85.67c0-.16 0-.29 0-.5a5.45 5.45 0 0 1 1.38-3.76c.11-.11 2.53-2.79 3.33-3.45l.62-.52c.29-.17.38-.11.38-.11v-38.48zm-12.43-10.23h-1.3l-.51-1.44v-.1c.08-.43.58-.8 1.29-1l.49-.11zm.43 0v-2.6l.49.1c.72.14 1.24.51 1.33.95v.12l-.5 1.43z"/></g><path d="m403.77 43.15a25.72 25.72 0 0 0 -2.4-2.4c.67-1.89.35-2.66.35-2.66-1.43 2-2.35.51-2.35.51 1.28-2.05.06-2.56.06-2.56s.1 1.83-1.38 1.18c-1.68-.73-1.63-1.82-3.84-2.24l.71-2.14v-.1c0-1-1.09-1.85-2.52-2a.72.72 0 0 0 .35-.62.73.73 0 0 0 -.72-.74.74.74 0 0 0 -.74.74.73.73 0 0 0 .36.62c-1.42.13-2.47.94-2.47 2v.1l.72 2.16h.1c-1.92.43-2.16 1.39-2.16 1.39-1.28 0-2.87 1-1.85 3.26a6.09 6.09 0 0 1 -1.79-1.37 3 3 0 0 0 3.22 3c1.19 0 2.62-.67 3.33-.67 0 0 .1.26-.41.36s-1.73.2-2.14.66c0 0 1.22 1.48 3.88.31a4.59 4.59 0 0 1 3.69 2c.64 1.1-.77 2.46-.77 2.46a3.48 3.48 0 0 0 2-.62c.66-.61-.18 1.06-1.91 1.85-.55.25 2.36.81 3.38.2a1.4 1.4 0 0 1 -.66 1.23 3.57 3.57 0 0 1 -2.15-.05 6.33 6.33 0 0 0 -1.64.31s-1.68.76-1.83.81-1.7 1-1.28-1.17l.05-1.23a1.17 1.17 0 0 0 -.35-.82s-2.31-1.54-2.61-2.65l-.88.5c-3.22-2-4.6-6-3.94-10.38a.29.29 0 0 0 -.51-.11c-.36.31-4.91 3.64-.51 10.34 0 0-3.57-2.66-4-8.88 0 0-2.05 2.93 3.24 9.81a10.35 10.35 0 0 1 -4.67-6.66s-3.73 4.78 3.18 10.56a15.62 15.62 0 0 1 -5.16-4.3s.7 3.55 6.39 6.09a13.88 13.88 0 0 1 -6.57-2.5s-.44 3.37 5.3 5.74c0 0-1.92.17-5.17-1.79 0 0-.16 1.7 5.65 2.66 0 0-1.92.75-5.73-.83 0 0 .52 4.16 7.65 4.07 0 0-2.27 1-7 .35 0 0 2.32 1.93 7.22.26 0 0-1.62 1.92-6.91 1 0 0 2.93 5 9.58 2 0 0-2 2.62-6.87 2.89 0 0 3.81 1.27 8.05-2.41 0 0-3.44 3.28-5.9 4.25 0 0 4.76 2.8 10.68-3.85a27.56 27.56 0 0 1 -2.6 3.63c1.53 0 3.67-4.1 3.94-4.64 0 .07-.79 3.29-1.13 4.07 0 0 1.83.92 5-5a8 8 0 0 1 -.4 1.75c-.3.83.4.14.4.14s.75-.14 1.31-3.46l.17 1.75-.35.83 1-.35c1-.31.08.65.08.65s-1.84.18-4.64 4c0 0 0 .83-2.57 1.49 0 0-.66 0 0 .56l1 .93v1.79l-2.71 2.89c-1.27 1.35-1.36-.53-1.36-.53l-.13-1.79c-.4-2.76-4.55-4-5-1 0 0 1-.53 1.32-.09s.05.53.05.53a12.07 12.07 0 0 1 1 .92c.31.35.17 1.89.17 1.89a1.44 1.44 0 0 0 .44 1 10.81 10.81 0 0 0 -3.11-1.63c-4.42-.76-4.63 4.29-2.88 4.11 0 0-.45-.33-.09-1.13.17-.39.83.21.83.21l3.07.14c1.22 0 1 .25.56.65-1 .84-2.5 1.62-1.23 4 0 0-.31 1.29 1.4 1.42s1.49-.72 1.49-.72-1.78.54-1.52-.66c.13-.61.87-.57.87-.57a7 7 0 0 1 2.5-2.93 2.26 2.26 0 0 1 2.58.51 1.6 1.6 0 0 0 1.42 1.57.91.91 0 0 1 -.79 1.19s1.23.69 1.79-1c0 0 1.24-.83 1.14-1.75a3.22 3.22 0 0 0 -2.14-2.19l3.76-3.94a2.69 2.69 0 0 0 1.58 2.41 3.51 3.51 0 0 0 .17-2.19l1.66.87a9.13 9.13 0 0 1 -.09-3.45 14.91 14.91 0 0 1 1.27-2.36 10.63 10.63 0 0 1 -.26 5.5s.35.4 1.83-.69c0 0-1.92 5.86-5.9 2.54 0 0-.44 5.77 5.39 2 0 0 0 1.28-3.42 2.23-2.06.57-3.1 4.12-3.1 4.12a19.85 19.85 0 0 1 3.06-2c1-.39 3.58-1.26 4.07-1.79 0 0-.66 1.84-4.86 3.33-5.2 1.83-5.38 7.7-1.13 7.13 0 0-1.23-1.62-.62-2.76a14.84 14.84 0 0 1 2.8-2.14s2.23-1.19 2.67-1.35a18.24 18.24 0 0 0 -2.93 3.93c-.52 1.4-1.27 4.25 1.49 4.77a5.47 5.47 0 0 1 1.18-4.59s2.49-2.76 3.28-3.42a11.35 11.35 0 0 1 -3.64 6.74 25.9 25.9 0 0 0 2.37 1 4.28 4.28 0 0 0 2 5v-53l-.88-1.1m-11.1-10.97c.59.12 1 .4 1 .63s-.23.65-.36 1h-.65v-1.63m-1.25 0v1.67h-.6c-.15-.4-.29-.87-.37-1s.4-.5 1-.62m-5.42 7.55a1.93 1.93 0 0 1 2.76-.1 2.55 2.55 0 0 1 -2.76.1z" fill="#231f20"/><path d="m472.24 44.66a.89.89 0 0 0 -.8.46.76.76 0 0 0 -.68-.37.89.89 0 0 0 -.6.24 1.39 1.39 0 0 0 -.33 1.09v1.78h3.38v-1.74a2.35 2.35 0 0 0 -.1-.79.92.92 0 0 0 -.87-.67m-1.4 1.1c.21 0 .28.16.28.35v.73h-.58v-.76c0-.2.08-.32.3-.32m1.31-.08c.3 0 .33.24.33.47v.69h-.66v-.66c0-.18.04-.5.33-.5z" fill="#231f20"/><path d="m473.21 36.66-1.47.84a1 1 0 0 0 -.9-.58 1 1 0 0 0 -1 1.07 2.55 2.55 0 0 0 0 .39v1.7h3.39v-1h-1.29v-.54l1.29-.73v-1.15m-2.35 1.28c.3 0 .32.27.32.49v.64h-.63v-.64c-.02-.25.01-.49.29-.49z" fill="#231f20"/><path d="m481.11 39.7h-3.39v-1h2.58l-.02-1.68h.83z" fill="#231f20"/><path d="m473.21 28.26-3.39 1.6v1.14l3.39 1.63v-1.08l-.71-.31v-1.56l.71-.32zm-1.45 1.74v.93l-1-.46z" fill="#231f20"/><path d="m479.6 28.8h-1.93v1h1.76a2.61 2.61 0 0 1 .39 0 .61.61 0 0 1 .52.63.64.64 0 0 1 -.22.5 1 1 0 0 1 -.69.15h-1.76v1h1.93a1.45 1.45 0 0 0 1.54-1.65 1.46 1.46 0 0 0 -1.54-1.63z" fill="#231f20"/><path d="m473.28 22.52a2.53 2.53 0 0 1 -.61 1.65l-.58-.66a1.59 1.59 0 0 0 .4-1.08c0-.17 0-.5-.25-.5s-.3.62-.34.8c-.1.54-.38 1.26-1 1.26s-1.11-.88-1.11-1.54a2.33 2.33 0 0 1 .3-1.28l.7.54a1.48 1.48 0 0 0 -.22.77c0 .17 0 .49.24.49s.26-.43.29-.59c.12-.6.35-1.48 1.12-1.48s1.06.92 1.06 1.62z" fill="#231f20"/><path d="m477.72 20.7v1.14l.91.64-.91.63v1.15l1.65-1.15 1.73 1.26v-1.14l-.99-.68.99-.68v-1.17l-1.71 1.22z" fill="#231f20"/><path d="m473.2 68.58h-.82l.01 1.86h-.53v-1.5h-.81l.02 1.5h-.43v-1.84h-.81v2.86h3.37z" fill="#231f20"/><path d="m470.64 77.42h2.56v1h-2.56v1.14h-.81v-3.28h.81z" fill="#231f20"/><path d="m473.21 60.38h-3.39v1l1.94-.01-1.94 1.46v.99h3.39v-1.01l-1.92.02 1.92-1.48z" fill="#231f20"/><path d="m473.2 55.62h-3.37v-2.85h.81v1.84h.43l-.02-1.5h.81v1.5h.53l-.01-1.85h.82z" fill="#231f20"/><path d="m399.44 2.87-1.69-1.08-1.69 1.08v-2.85h.8l.02 1.24.88-.57.86.57v-1.26h.82z" fill="#231f20"/><path d="m399.45 8.66-1.34-.01v1.38h1.34v1.01h-3.4v-1.01h1.21v-1.38l-1.21.01v-1.01h3.4z" fill="#231f20"/><path d="m390.15 8.2h-.26c-.72 0-1.3.34-1.3 1.17a1.06 1.06 0 0 0 1 1.14h.61v1.16h1v-1.86h-1.2a.42.42 0 0 1 -.43-.45.43.43 0 0 1 .43-.43h1.19v-1.88h-1z" fill="#231f20"/><path d="m462.73 22.04h2.57v1.01h-2.57l.01 1.14h-.82v-3.28h.82z" fill="#231f20"/><path d="m465.38 30.45a2.54 2.54 0 0 1 -.62 1.65l-.57-.66a1.61 1.61 0 0 0 .4-1.08c0-.18 0-.5-.25-.5s-.3.62-.33.79c-.12.54-.4 1.27-1.05 1.27s-1.11-.88-1.11-1.54a2.24 2.24 0 0 1 .3-1.29l.69.55a1.52 1.52 0 0 0 -.22.77c0 .17 0 .48.25.48s.26-.43.29-.58c.12-.6.33-1.48 1.12-1.48s1.1.92 1.1 1.62z" fill="#231f20"/><path d="m463.61 37.53c.53 0 1 .24 1 .84s-.45.84-1 .84-1-.24-1-.84.45-.84 1-.84m0-1.05a1.89 1.89 0 0 0 0 3.78 1.9 1.9 0 0 0 0-3.78z" fill="#231f20"/><path d="m463 45.73a.38.38 0 0 1 .37.42v.69h-.77v-.69a.37.37 0 0 1 .4-.42m0-1a1 1 0 0 0 -1.08 1 1.8 1.8 0 0 0 0 .4v1.7h3.38v-1h-1.16v-.76c0-.7-.29-1.35-1.14-1.35z" fill="#231f20"/><path d="m399.44 18.4h-.81v-.65h-1.76l.01.61h-.82v-2.18h.82l-.01.61h1.76v-.65h.81z" fill="#231f20"/><path d="m189.57 83.46a1.84 1.84 0 1 0 1.84 1.85 1.86 1.86 0 0 0 -1.84-1.85zm92.12-27.66a1.84 1.84 0 1 0 1.86 1.82 1.83 1.83 0 0 0 -1.86-1.82zm-276.5 0a1.84 1.84 0 1 0 0 3.67 1.84 1.84 0 0 0 0-3.67zm23 0a1.84 1.84 0 1 0 1.81 1.82 1.83 1.83 0 0 0 -1.82-1.82zm23 0a1.82 1.82 0 0 0 -1.82 1.82 1.86 1.86 0 0 0 1.82 1.85 1.84 1.84 0 0 0 0-3.67zm23.06 0a1.81 1.81 0 0 0 -1.84 1.82 1.84 1.84 0 1 0 1.84-1.82zm23 0a1.84 1.84 0 0 0 0 3.67 1.84 1.84 0 0 0 0-3.67zm23.05 0a1.84 1.84 0 1 0 1.83 1.82 1.8 1.8 0 0 0 -1.76-1.82zm23.09 0a1.84 1.84 0 0 0 -1.86 1.82 1.88 1.88 0 0 0 1.86 1.85 1.84 1.84 0 0 0 0-3.67zm-22.64 27.66a1.84 1.84 0 1 0 0 3.67 1.79 1.79 0 0 0 1.8-1.82 1.81 1.81 0 0 0 -1.8-1.85zm45.75-27.66a1.84 1.84 0 0 0 0 3.67 1.84 1.84 0 0 0 0-3.67zm23.07 0a1.84 1.84 0 1 0 1.82 1.82 1.83 1.83 0 0 0 -1.82-1.82z" fill="#231f20"/><path d="m5.19 29.21a1.83 1.83 0 1 0 0 3.66 1.83 1.83 0 0 0 0-3.66zm23 0a1.83 1.83 0 1 0 1.81 1.79 1.83 1.83 0 0 0 -1.82-1.79zm23 0a1.82 1.82 0 0 0 -1.8 1.79 1.85 1.85 0 0 0 1.82 1.84 1.83 1.83 0 0 0 0-3.66z" fill="#231f20"/><path d="m5.21 92.23-5.21-13.13h3.19l3.7 9.71 3.57-9.71h3.12l-5.22 13.13z" fill="#231f20"/><path d="m27.22 92.23v-13.13h3v13.13z" fill="#231f20"/><path d="m45.28 92.23v-13h2.95v10.77h7.32v2.21z" fill="#231f20"/><path d="m70 92.23v-13h2.9v10.77h7.33v2.21z" fill="#231f20"/><path d="m94.55 92.23v-13.13h10.82v2.22h-7.87v2.91h7.32v2.21h-7.32v3.56h8.15v2.21z" fill="#231f20"/><path d="m139.27 79.1h5.39a11.47 11.47 0 0 1 2.77.25 5 5 0 0 1 2.2 1.21 5.71 5.71 0 0 1 1.37 2.12 8.8 8.8 0 0 1 .48 3.11 7.77 7.77 0 0 1 -.45 2.79 5.6 5.6 0 0 1 -1.56 2.32 5.3 5.3 0 0 1 -2.07 1 10.07 10.07 0 0 1 -2.61.28h-5.54zm2.95 2.22v8.68h2.2a9.13 9.13 0 0 0 1.78-.13 2.85 2.85 0 0 0 1.19-.55 2.75 2.75 0 0 0 .77-1.26 7.74 7.74 0 0 0 .3-2.41 7.14 7.14 0 0 0 -.3-2.34 2.74 2.74 0 0 0 -2.2-1.89 15.5 15.5 0 0 0 -2.42-.12z" fill="#231f20"/><path d="m163.17 92.23v-13.13h10.83v2.22h-7.88v2.91h7.33v2.21h-7.33v3.56h8.15v2.21z" fill="#231f20"/><path d="m213.67 87.4v-2.21h6.33v5.23a8.11 8.11 0 0 1 -2.68 1.42 10.66 10.66 0 0 1 -3.56.61 8.82 8.82 0 0 1 -4-.86 5.77 5.77 0 0 1 -2.55-2.48 7.3 7.3 0 0 1 -.86-3.49 6.93 6.93 0 0 1 1-3.65 6.13 6.13 0 0 1 2.79-2.44 8.22 8.22 0 0 1 3.5-.66 7.57 7.57 0 0 1 4.24 1 4.58 4.58 0 0 1 2 2.83l-2.92.5a2.78 2.78 0 0 0 -1.16-1.53 3.82 3.82 0 0 0 -2.12-.56 4.24 4.24 0 0 0 -3.07 1.1 4.35 4.35 0 0 0 -1.14 3.27 4.8 4.8 0 0 0 1.09 3.52 4.11 4.11 0 0 0 3 1.17 5.52 5.52 0 0 0 1.85-.33 6.46 6.46 0 0 0 1.6-.8v-1.64z" fill="#231f20"/><path d="m231.9 92.23v-13.13h10.82v2.22h-7.87v2.91h7.32v2.21h-7.32v3.56h8.15v2.21z" fill="#231f20"/><path d="m254.69 92.23v-13.13h2.87l6 8.77v-8.77h2.74v13.13h-3l-5.88-8.56v8.56z" fill="#231f20"/><path d="m278.55 92.23v-13.13h10.82v2.22h-7.87v2.91h7.32v2.21h-7.32v3.56h8.15v2.21zm7.1-13.88h-1.76l-2.75-2.68h3.13z" fill="#231f20"/><path d="m305 92.23-5.18-13.13h3.18l3.69 9.71 3.57-9.71h3.12l-5.22 13.13z" fill="#231f20"/><path d="m324.08 92.23v-13.13h10.81v2.22h-7.89v2.91h7.33v2.21h-7.33v3.56h8.15v2.21z" fill="#231f20"/><path d="m68.45 32.75 3.19-.25a3 3 0 0 0 1.16 1.91 4.16 4.16 0 0 0 2.37.6 4.28 4.28 0 0 0 2.38-.54 1.54 1.54 0 0 0 .8-1.26 1.07 1.07 0 0 0 -.34-.8 3 3 0 0 0 -1.17-.57c-.39-.1-1.26-.29-2.62-.57a9.87 9.87 0 0 1 -3.69-1.27 3.19 3.19 0 0 1 -1.53-2.67 3 3 0 0 1 .7-1.88 4.39 4.39 0 0 1 2-1.33 9.93 9.93 0 0 1 3.3-.45 8 8 0 0 1 4.59 1.08 3.56 3.56 0 0 1 1.62 2.89l-3.27.12a2.14 2.14 0 0 0 -.9-1.45 3.83 3.83 0 0 0 -2.07-.45 4.41 4.41 0 0 0 -2.24.48.91.91 0 0 0 -.51.81 1 1 0 0 0 .48.8 10.1 10.1 0 0 0 3 .88 18.49 18.49 0 0 1 3.52.94 4.28 4.28 0 0 1 1.78 1.34 3.34 3.34 0 0 1 .65 2.09 3.39 3.39 0 0 1 -.77 2.11 4.56 4.56 0 0 1 -2.19 1.46 11.08 11.08 0 0 1 -3.52.48 8.17 8.17 0 0 1 -4.72-1.15 4.71 4.71 0 0 1 -2-3.35z" fill="#231f20"/><path d="m92.52 23.89h3.26v7.11a11.92 11.92 0 0 0 .13 2.2 2.14 2.14 0 0 0 1 1.29 4 4 0 0 0 2.15.49 3.94 3.94 0 0 0 2.1-.46 1.8 1.8 0 0 0 .85-1.14 11.45 11.45 0 0 0 .15-2.23v-7.26h3.27v6.9a14.21 14.21 0 0 1 -.27 3.34 3.4 3.4 0 0 1 -1 1.65 5.23 5.23 0 0 1 -1.9 1.07 10.28 10.28 0 0 1 -3.12.39 10.86 10.86 0 0 1 -3.51-.43 5.21 5.21 0 0 1 -1.9-1.13 3.39 3.39 0 0 1 -.91-1.45 12.8 12.8 0 0 1 -.32-3.33z" fill="#231f20"/><path d="m117.05 23.89h6.47a24.47 24.47 0 0 1 2.87.13 5 5 0 0 1 1.69.54 3.75 3.75 0 0 1 1.24 1.1 2.58 2.58 0 0 1 .5 1.54 2.7 2.7 0 0 1 -.61 1.69 3.69 3.69 0 0 1 -1.67 1.11 4.44 4.44 0 0 1 2.28 1.2 2.77 2.77 0 0 1 .79 2 3.37 3.37 0 0 1 -.51 1.8 3.86 3.86 0 0 1 -1.4 1.35 5.42 5.42 0 0 1 -2.19.62c-.55 0-1.86.08-4 .09h-5.51zm3.27 2.19v3h2.14 2.38a2.47 2.47 0 0 0 1.32-.47 1.26 1.26 0 0 0 .48-1 1.29 1.29 0 0 0 -.42-1 2.11 2.11 0 0 0 -1.23-.46c-.32 0-1.25 0-2.79 0zm0 5.22v3.51h3a19.19 19.19 0 0 0 2.24-.08 2.21 2.21 0 0 0 1.19-.53 1.43 1.43 0 0 0 .45-1.11 1.45 1.45 0 0 0 -.35-1 2 2 0 0 0 -1-.6 13.28 13.28 0 0 0 -2.9-.19z" fill="#231f20"/><path d="m145.67 37-5.79-13.13h3.55l4.1 9.72 4-9.72h3.47l-5.84 13.13z" fill="#231f20"/><path d="m164.8 37v-13.11h12v2.22h-8.74v2.89h8.13v2.22h-8.13v3.57h9.05v2.21z" fill="#231f20"/><path d="m188.08 37v-13.11h3.18l6.63 8.77v-8.77h3v13.11h-3.28l-6.53-8.56v8.56z" fill="#231f20"/><path d="m216.2 37v-10.89h-4.81v-2.22h12.87v2.22h-4.79v10.89z" fill="#231f20"/><path d="m234.43 37v-13.11h3.27v13.11z" fill="#231f20"/><path d="m248.32 30.54a7 7 0 0 1 .74-3.37 6.25 6.25 0 0 1 1.51-1.8 6.4 6.4 0 0 1 2.09-1.18 10.68 10.68 0 0 1 3.49-.52 8.62 8.62 0 0 1 5.73 1.8 6.18 6.18 0 0 1 2.15 5 6.17 6.17 0 0 1 -2.13 5 8.54 8.54 0 0 1 -5.7 1.79 8.63 8.63 0 0 1 -5.74-1.78 6.05 6.05 0 0 1 -2.14-4.94zm3.37-.09a4.37 4.37 0 0 0 1.31 3.38 5.1 5.1 0 0 0 6.44 0 4.44 4.44 0 0 0 1.25-3.43 4.36 4.36 0 0 0 -1.26-3.4 5.28 5.28 0 0 0 -6.5 0 4.34 4.34 0 0 0 -1.24 3.45z" fill="#231f20"/><path d="m274.78 37v-13.11h3.22l6.63 8.77v-8.77h3v13.11h-3.27l-6.53-8.56v8.56z" fill="#231f20"/><path d="m299.28 37v-13.11h3.18l6.63 8.77v-8.77h3v13.11h-3.28l-6.53-8.56v8.56z" fill="#231f20"/><path d="m323.75 37v-13.11h12v2.22h-8.75v2.89h8.13v2.22h-8.13v3.57h9.05v2.21zm4.15-13.88 1.53-2.68h3.48l-3 2.68z" fill="#231f20"/><path d="m207.81 63.83v-13.13h4.72a19 19 0 0 1 3.5.2 3.75 3.75 0 0 1 2.97 3.84 3.86 3.86 0 0 1 -.49 2 3.78 3.78 0 0 1 -1.24 1.3 4.56 4.56 0 0 1 -1.52.62 19.39 19.39 0 0 1 -3.06.19h-1.92v4.95zm2.94-10.91v3.73h1.61a8.28 8.28 0 0 0 2.33-.21 1.94 1.94 0 0 0 .92-.64 1.69 1.69 0 0 0 .33-1 1.61 1.61 0 0 0 -.46-1.18 2.16 2.16 0 0 0 -1.19-.58 15.64 15.64 0 0 0 -2.12-.09z" fill="#231f20"/><path d="m241.84 63.83h-3.2l-1.27-3h-5.84l-1.2 3h-3.12l5.68-13.13h3.11zm-5.42-5.19-2-4.88-2 4.88z" fill="#231f20"/><path d="m252.22 63.83v-13.13h6.2a12 12 0 0 1 3.4.35 3.33 3.33 0 0 1 1.69 1.26 3.48 3.48 0 0 1 .64 2.07 3.3 3.3 0 0 1 -1 2.44 4.86 4.86 0 0 1 -2.85 1.18 7.09 7.09 0 0 1 1.58 1.11 15.31 15.31 0 0 1 1.67 2.13l1.79 2.56h-3.53l-2.13-2.8a18.41 18.41 0 0 0 -1.55-2 2.2 2.2 0 0 0 -.89-.54 5.24 5.24 0 0 0 -1.48-.15h-.59v5.48zm2.95-7.58h2.18a12.25 12.25 0 0 0 2.64-.16 1.63 1.63 0 0 0 .83-.55 1.6 1.6 0 0 0 .3-1 1.49 1.49 0 0 0 -.4-1.07 1.86 1.86 0 0 0 -1.11-.51c-.24 0-.95 0-2.15 0h-2.29z" fill="#231f20"/><path d="m301.42 63.83v-13h2.94v10.79h7.33v2.21z" fill="#231f20"/><path d="m335.71 63.83h-3.21l-1.27-3h-5.83l-1.21 3h-3.12l5.68-13.13h3.11zm-5.43-5.19-2-4.88-2 4.88z" fill="#231f20"/></svg>