<svg id="Calque_1" data-name="Calque 1" xmlns="http://www.w3.org/2000/svg" viewBox="0 0 481.14 96.98"><defs><style>.cls-1,.cls-2{fill:#1d1d1b;}.cls-1,.cls-3{isolation:isolate;}.cls-3{fill:#fff;}</style></defs><title>subventionne-par-la-ville-de-geneve</title><path class="cls-1" d="M189.54,83.37a1.84,1.84,0,1,0,1.84,1.85A1.86,1.86,0,0,0,189.54,83.37Zm92.1-27.65a1.83,1.83,0,1,0,1.86,1.82A1.83,1.83,0,0,0,281.64,55.72Zm-276.46,0a1.83,1.83,0,1,0,0,3.66,1.83,1.83,0,0,0,0-3.66Zm23,0A1.83,1.83,0,1,0,30,57.54,1.83,1.83,0,0,0,28.18,55.72Zm23,0a1.83,1.83,0,0,0-1.82,1.82,1.85,1.85,0,0,0,1.82,1.84,1.83,1.83,0,0,0,0-3.66Zm23,0a1.81,1.81,0,0,0-1.84,1.82,1.84,1.84,0,1,0,1.84-1.82Zm23.06,0a1.83,1.83,0,1,0,1.81,1.82A1.84,1.84,0,0,0,97.31,55.72Zm23,0a1.83,1.83,0,1,0,0,3.66,1.83,1.83,0,1,0,0-3.66Zm23.08,0a1.85,1.85,0,0,0-1.86,1.82,1.88,1.88,0,0,0,1.86,1.84,1.83,1.83,0,0,0,0-3.66Zm-22.7,27.65a1.84,1.84,0,1,0,0,3.68,1.84,1.84,0,0,0,0-3.68Zm45.74-27.65a1.83,1.83,0,0,0,0,3.66,1.83,1.83,0,1,0,0-3.66Zm23.07,0a1.83,1.83,0,1,0,1.82,1.82A1.83,1.83,0,0,0,189.54,55.72Z"/><path class="cls-1" d="M5.18,29.13a1.84,1.84,0,1,0,0,3.67,1.84,1.84,0,0,0,0-3.67Zm23,0A1.84,1.84,0,1,0,30,31,1.83,1.83,0,0,0,28.18,29.13Zm23,0A1.83,1.83,0,0,0,49.38,31,1.86,1.86,0,0,0,51.2,32.8a1.84,1.84,0,0,0,0-3.67Z"/><path class="cls-2" d="M5.21,92.14,0,79H3.19l3.69,9.72L10.46,79h3.12L8.36,92.14Z"/><path class="cls-2" d="M27.22,92.14V79h2.94V92.14Z"/><path class="cls-2" d="M45.27,92.14v-13h2.95V89.93h7.32v2.21Z"/><path class="cls-2" d="M70,92.14v-13h2.94V89.93h7.32v2.21Z"/><path class="cls-2" d="M94.54,92.14V79h10.81v2.22H97.48v2.91h7.33v2.21H97.48v3.58h8.15v2.21Z"/><path class="cls-2" d="M139.25,79h5.38a12,12,0,0,1,2.78.25,5.05,5.05,0,0,1,2.2,1.21A5.67,5.67,0,0,1,151,82.6a8.74,8.74,0,0,1,.48,3.1,7.87,7.87,0,0,1-.45,2.8,5.83,5.83,0,0,1-1.56,2.31,5.3,5.3,0,0,1-2.07,1,9.65,9.65,0,0,1-2.61.28h-5.54Zm2.94,2.22v8.7h2.2a8.26,8.26,0,0,0,1.78-.13,2.91,2.91,0,0,0,1.19-.54,2.71,2.71,0,0,0,.77-1.27,7.74,7.74,0,0,0,.3-2.41,7,7,0,0,0-.3-2.33,2.7,2.7,0,0,0-2.2-1.89,13.82,13.82,0,0,0-2.41-.13Z"/><path class="cls-2" d="M163.14,92.14V79H174v2.22h-7.87v2.91h7.32v2.21h-7.32v3.58h8.15v2.21Z"/><path class="cls-2" d="M213.63,87.31V85.1H220v5.23a8.21,8.21,0,0,1-2.68,1.42,10.7,10.7,0,0,1-3.56.61,8.76,8.76,0,0,1-4-.86A5.83,5.83,0,0,1,207.19,89a7.33,7.33,0,0,1-.85-3.5,7,7,0,0,1,.95-3.64,6.17,6.17,0,0,1,2.8-2.45,8.33,8.33,0,0,1,3.49-.65,7.55,7.55,0,0,1,4.24,1,4.61,4.61,0,0,1,2,2.84l-2.93.49a2.8,2.8,0,0,0-1.16-1.53,3.78,3.78,0,0,0-2.12-.56,4.24,4.24,0,0,0-3.07,1.1,4.36,4.36,0,0,0-1.14,3.27,4.81,4.81,0,0,0,1.16,3.51,4,4,0,0,0,3,1.17,5.53,5.53,0,0,0,1.86-.33A6.55,6.55,0,0,0,217,89V87.31Z"/><path class="cls-2" d="M231.86,92.14V79h10.82v2.22h-7.87v2.91h7.32v2.21h-7.32v3.58H243v2.21Z"/><path class="cls-2" d="M254.65,92.14V79h2.87l6,8.77V79h2.73V92.14h-3l-5.88-8.56v8.56Z"/><path class="cls-2" d="M278.51,92.14V79h10.81v2.22h-7.87v2.91h7.32v2.21h-7.32v3.58h8.15v2.21Zm7.09-13.88h-1.76l-2.75-2.68h3.14Z"/><path class="cls-2" d="M305,92.14,299.77,79H303l3.69,9.72L310.23,79h3.12l-5.22,13.13Z"/><path class="cls-2" d="M324,92.14V79h10.82v2.22H327v2.91h7.32v2.21H327v3.58h8.15v2.21Z"/><path class="cls-2" d="M68.44,32.67l3.18-.25a3,3,0,0,0,1.17,1.91,4.12,4.12,0,0,0,2.37.61,4.21,4.21,0,0,0,2.38-.55,1.54,1.54,0,0,0,.8-1.26,1,1,0,0,0-.34-.79,2.81,2.81,0,0,0-1.17-.57c-.39-.11-1.26-.3-2.62-.58a10.08,10.08,0,0,1-3.69-1.29A3.22,3.22,0,0,1,69,27.25a2.9,2.9,0,0,1,.7-1.87,4.32,4.32,0,0,1,2-1.33,9.64,9.64,0,0,1,3.19-.46,8,8,0,0,1,4.59,1.08,3.59,3.59,0,0,1,1.61,2.9l-3.27.11a2.14,2.14,0,0,0-.9-1.45,3.84,3.84,0,0,0-2.07-.44,4.38,4.38,0,0,0-2.23.47.92.92,0,0,0-.52.81,1,1,0,0,0,.49.8,10,10,0,0,0,3,.88,18.63,18.63,0,0,1,3.53.94A4.34,4.34,0,0,1,81,31a3.45,3.45,0,0,1-.13,4.2,4.5,4.5,0,0,1-2.18,1.47,11.47,11.47,0,0,1-3.53.47A8.15,8.15,0,0,1,70.41,36,4.71,4.71,0,0,1,68.44,32.67Z"/><path class="cls-2" d="M92.5,23.81h3.27v7.11a12.25,12.25,0,0,0,.12,2.2,2.09,2.09,0,0,0,1,1.29,4.07,4.07,0,0,0,2.16.49,3.85,3.85,0,0,0,2.1-.46,1.85,1.85,0,0,0,.85-1.13,12.65,12.65,0,0,0,.14-2.23V23.81h3.27v6.9a14.15,14.15,0,0,1-.27,3.34,3.46,3.46,0,0,1-1,1.65,5.13,5.13,0,0,1-1.91,1.07,10.17,10.17,0,0,1-3.11.4,10.84,10.84,0,0,1-3.52-.44,5,5,0,0,1-1.89-1.13,3.36,3.36,0,0,1-.92-1.45,13.15,13.15,0,0,1-.32-3.33Z"/><path class="cls-2" d="M117,23.81h6.47a22,22,0,0,1,2.87.14,4.6,4.6,0,0,1,1.69.54,3.72,3.72,0,0,1,1.24,1.09,2.58,2.58,0,0,1,.5,1.54,2.65,2.65,0,0,1-.62,1.69A3.62,3.62,0,0,1,127.52,30a4.43,4.43,0,0,1,2.28,1.19,2.78,2.78,0,0,1,.79,2,3.36,3.36,0,0,1-.51,1.74,3.86,3.86,0,0,1-1.4,1.35,5.42,5.42,0,0,1-2.2.62c-.54,0-1.86.08-3.94.09H117ZM120.3,26v3h2.14c1.28,0,2.07,0,2.38-.05a2.39,2.39,0,0,0,1.32-.47,1.35,1.35,0,0,0,.06-2A2,2,0,0,0,125,26c-.32,0-1.25,0-2.79,0Zm0,5.22v3.51h3a19.19,19.19,0,0,0,2.24-.08,2.21,2.21,0,0,0,1.18-.52,1.43,1.43,0,0,0,.46-1.12,1.45,1.45,0,0,0-.35-1,2,2,0,0,0-1-.6,13.28,13.28,0,0,0-2.9-.19Z"/><path class="cls-2" d="M145.65,36.94l-5.79-13.13h3.55l4.09,9.72,4-9.72h3.47l-5.8,13.13Z"/><path class="cls-2" d="M164.77,36.94V23.81h12V26H168V29h8.12v2.21H168v3.57h9v2.21Z"/><path class="cls-2" d="M188.05,36.94V23.81h3.18l6.63,8.77V23.81h3V36.94h-3.28l-6.52-8.56v8.56Z"/><path class="cls-2" d="M216.16,36.94V26h-4.8V23.81h12.86V26h-4.79v10.9Z"/><path class="cls-2" d="M234.4,36.94V23.81h3.26V36.94Z"/><path class="cls-2" d="M248.28,30.46a7,7,0,0,1,.74-3.37,6.25,6.25,0,0,1,1.51-1.8,6.58,6.58,0,0,1,2.09-1.18,10.63,10.63,0,0,1,3.49-.52,8.62,8.62,0,0,1,5.73,1.8,6.19,6.19,0,0,1,2.15,5,6.13,6.13,0,0,1-2.14,5,8.53,8.53,0,0,1-5.69,1.8,8.68,8.68,0,0,1-5.75-1.79A6.07,6.07,0,0,1,248.28,30.46Zm3.37-.09a4.32,4.32,0,0,0,1.27,3.38,5.09,5.09,0,0,0,6.43,0,4.39,4.39,0,0,0,1.26-3.43A4.33,4.33,0,0,0,259.39,27a5.29,5.29,0,0,0-6.5,0A4.34,4.34,0,0,0,251.65,30.37Z"/><path class="cls-2" d="M274.73,36.94V23.81h3.19l6.62,8.77V23.81h3V36.94H284.3l-6.53-8.56v8.56Z"/><path class="cls-2" d="M299.23,36.94V23.81h3.18L309,32.58V23.81h3V36.94H308.8l-6.53-8.56v8.56Z"/><path class="cls-2" d="M323.7,36.94V23.81h12V26H327V29h8.13v2.21H327v3.57h9v2.21Zm4.15-13.88,1.52-2.67h3.48l-3,2.67Z"/><path class="cls-2" d="M207.77,63.75V50.62h4.73a18.16,18.16,0,0,1,3.5.2,3.86,3.86,0,0,1,2.1,1.28,3.81,3.81,0,0,1,.84,2.56,4,4,0,0,1-.48,2A3.75,3.75,0,0,1,217.22,58a4.36,4.36,0,0,1-1.53.63,19.4,19.4,0,0,1-3.05.18h-1.92v5Zm2.95-10.91v3.72h1.61a8.45,8.45,0,0,0,2.33-.2,1.94,1.94,0,0,0,.92-.65,1.64,1.64,0,0,0,.33-1,1.61,1.61,0,0,0-.47-1.18,2.1,2.1,0,0,0-1.18-.58,15.64,15.64,0,0,0-2.12-.09Z"/><path class="cls-2" d="M241.8,63.75h-3.2l-1.27-3H231.5l-1.21,3h-3.12l5.68-13.13H236Zm-5.42-5.2-2-4.87-2,4.87Z"/><path class="cls-2" d="M252.18,63.75V50.62h6.2a11.91,11.91,0,0,1,3.39.35,3.32,3.32,0,0,1,1.7,1.26,3.53,3.53,0,0,1,.64,2.07,3.32,3.32,0,0,1-1,2.44A4.8,4.8,0,0,1,260.26,58a7,7,0,0,1,1.57,1.1,14.16,14.16,0,0,1,1.68,2.14l1.78,2.56h-3.52l-2.13-2.86A19.89,19.89,0,0,0,258.09,59a2.3,2.3,0,0,0-.89-.55,5.75,5.75,0,0,0-1.48-.14h-.6v5.48Zm2.94-7.58h2.18A12.37,12.37,0,0,0,260,56a1.52,1.52,0,0,0,.82-.56,1.57,1.57,0,0,0,.3-1,1.48,1.48,0,0,0-.39-1.07,1.93,1.93,0,0,0-1.11-.52c-.24,0-.95,0-2.15,0h-2.3Z"/><path class="cls-2" d="M301.37,63.75v-13h2.94v10.8h7.33v2.22Z"/><path class="cls-2" d="M335.65,63.75h-3.2l-1.28-3h-5.83l-1.2,3H321l5.69-13.13h3.11Zm-5.42-5.2-2-4.87-2,4.87Z"/><path class="cls-1" d="M404,27.75a.63.63,0,0,1-1.26,0,.63.63,0,1,1,1.26,0Z"/><path class="cls-1" d="M400.71,21.85a.63.63,0,1,0,0,1.26.63.63,0,0,0,0-1.26Z"/><path class="cls-1" d="M400.71,24.48a.63.63,0,0,0-.63.63.63.63,0,1,0,1.26,0A.63.63,0,0,0,400.71,24.48Z"/><path class="cls-1" d="M403.35,24.48a.63.63,0,1,0,.62.63A.62.62,0,0,0,403.35,24.48Z"/><path class="cls-1" d="M400.71,27.11a.63.63,0,1,0,.63.64A.64.64,0,0,0,400.71,27.11Z"/><path class="cls-1" d="M400.71,29.74a.63.63,0,0,0-.63.64.64.64,0,0,0,.63.62.63.63,0,1,0,0-1.26Z"/><path class="cls-1" d="M403.35,29.75a.62.62,0,1,0,.62.62A.62.62,0,0,0,403.35,29.75Z"/><path class="cls-1" d="M400.71,32.37a.63.63,0,1,0,0,1.26.63.63,0,0,0,0-1.26Z"/><path class="cls-1" d="M403.35,32.37A.63.63,0,1,0,404,33,.63.63,0,0,0,403.35,32.37Z"/><path class="cls-1" d="M403.35,21.85a.63.63,0,1,0,.62.63A.64.64,0,0,0,403.35,21.85Z"/><path class="cls-1" d="M398.08,27.11a.64.64,0,0,0-.63.64.63.63,0,0,0,.63.62.63.63,0,1,0,0-1.26Z"/><path class="cls-1" d="M395.46,21.85a.63.63,0,1,0,.62.63A.64.64,0,0,0,395.46,21.85Z"/><path class="cls-1" d="M395.46,24.48a.63.63,0,1,0,0,1.26.64.64,0,0,0,.62-.63A.63.63,0,0,0,395.46,24.48Z"/><path class="cls-1" d="M398.08,24.48a.63.63,0,0,0-.63.63.63.63,0,1,0,1.26,0A.62.62,0,0,0,398.08,24.48Z"/><path class="cls-1" d="M395.46,27.11a.64.64,0,0,0-.64.64.63.63,0,0,0,.64.62.63.63,0,0,0,0-1.26Z"/><path class="cls-1" d="M395.46,29.75a.62.62,0,1,0,.62.62A.62.62,0,0,0,395.46,29.75Z"/><path class="cls-1" d="M398.08,29.75a.62.62,0,0,0-.63.62.63.63,0,0,0,.63.62.62.62,0,1,0,0-1.24Z"/><circle class="cls-1" cx="398.08" cy="33" r="0.63"/><path class="cls-1" d="M398.08,21.85a.63.63,0,1,0,0,1.26.63.63,0,0,0,0-1.26Z"/><path class="cls-1" d="M392.82,27.11a.64.64,0,0,0-.63.64.63.63,0,0,0,.63.62.63.63,0,1,0,0-1.26Z"/><path class="cls-1" d="M390.19,21.85a.63.63,0,1,0,.64.63A.64.64,0,0,0,390.19,21.85Z"/><path class="cls-1" d="M390.19,24.48a.63.63,0,0,0-.63.63.64.64,0,1,0,.63-.63Z"/><path class="cls-1" d="M392.82,24.48a.63.63,0,0,0-.63.63.63.63,0,1,0,1.26,0A.63.63,0,0,0,392.82,24.48Z"/><path class="cls-1" d="M390.19,29.75a.63.63,0,0,0-.63.62.64.64,0,1,0,.63-.62Z"/><path class="cls-1" d="M395.46,32.38a.63.63,0,0,0-.64.62.63.63,0,1,0,1.26,0A.62.62,0,0,0,395.46,32.38Z"/><path class="cls-1" d="M392.82,21.85a.63.63,0,1,0,0,1.26.63.63,0,0,0,0-1.26Z"/><path class="cls-1" d="M387.56,27.11a.63.63,0,1,0,.63.64A.64.64,0,0,0,387.56,27.11Z"/><path class="cls-1" d="M384.93,21.85a.63.63,0,1,0,.63.63A.63.63,0,0,0,384.93,21.85Z"/><path class="cls-1" d="M384.93,24.48a.63.63,0,0,0-.63.63.63.63,0,1,0,1.26,0A.62.62,0,0,0,384.93,24.48Z"/><path class="cls-1" d="M387.56,24.48a.63.63,0,0,0-.63.63.63.63,0,1,0,1.26,0A.63.63,0,0,0,387.56,24.48Z"/><path class="cls-1" d="M384.93,27.11a.63.63,0,1,0,0,1.26.63.63,0,0,0,.63-.62A.64.64,0,0,0,384.93,27.11Z"/><path class="cls-1" d="M384.93,29.75a.62.62,0,0,0-.63.62.63.63,0,0,0,1.26,0A.62.62,0,0,0,384.93,29.75Z"/><path class="cls-1" d="M387.56,29.75a.62.62,0,1,0,.62.62A.61.61,0,0,0,387.56,29.75Z"/><path class="cls-1" d="M387.56,32.37a.63.63,0,1,0,0,1.26.63.63,0,0,0,0-1.26Z"/><path class="cls-1" d="M387.56,21.85a.63.63,0,1,0,0,1.26.63.63,0,0,0,0-1.26Z"/><path class="cls-1" d="M382.3,27.11a.63.63,0,1,0,.62.64A.63.63,0,0,0,382.3,27.11Z"/><path class="cls-1" d="M379.67,21.85a.63.63,0,1,0,.63.63A.64.64,0,0,0,379.67,21.85Z"/><path class="cls-1" d="M379.67,24.48a.64.64,0,0,0-.64.63.64.64,0,0,0,1.27,0A.63.63,0,0,0,379.67,24.48Z"/><path class="cls-1" d="M382.3,24.48a.63.63,0,0,0-.63.63.64.64,0,0,0,.63.63.63.63,0,0,0,.62-.63A.62.62,0,0,0,382.3,24.48Z"/><path class="cls-1" d="M379.67,29.75a.63.63,0,0,0-.64.62.64.64,0,0,0,1.27,0A.63.63,0,0,0,379.67,29.75Z"/><path class="cls-1" d="M382.3,29.75a.62.62,0,0,0-.63.62.63.63,0,0,0,1.25,0A.62.62,0,0,0,382.3,29.75Z"/><path class="cls-1" d="M382.3,32.37a.63.63,0,1,0,.62.63A.63.63,0,0,0,382.3,32.37Z"/><path class="cls-1" d="M382.3,21.85a.63.63,0,1,0,0,1.26.63.63,0,0,0,0-1.26Z"/><path class="cls-1" d="M377,27.11a.63.63,0,1,0,.63.64A.64.64,0,0,0,377,27.11Z"/><path class="cls-1" d="M374.4,21.85a.63.63,0,1,0,0,1.26.63.63,0,0,0,0-1.26Z"/><path class="cls-1" d="M374.4,24.48a.63.63,0,0,0-.63.63.64.64,0,0,0,.63.63.63.63,0,0,0,.63-.63A.62.62,0,0,0,374.4,24.48Z"/><path class="cls-1" d="M377,24.48a.62.62,0,0,0-.63.63.63.63,0,0,0,.63.63.64.64,0,0,0,.63-.63A.63.63,0,0,0,377,24.48Z"/><path class="cls-1" d="M374.4,29.75a.63.63,0,0,0-.63.62.63.63,0,0,0,.63.62.62.62,0,1,0,0-1.24Z"/><path class="cls-1" d="M377,29.75a.62.62,0,0,0-.63.62.63.63,0,0,0,1.25,0A.62.62,0,0,0,377,29.75Z"/><path class="cls-1" d="M377,32.37a.63.63,0,1,0,.62.63A.63.63,0,0,0,377,32.37Z"/><path class="cls-1" d="M377,21.85a.63.63,0,1,0,0,1.26.63.63,0,0,0,0-1.26Z"/><path class="cls-1" d="M371.78,37.64a.63.63,0,1,0,0,1.25.63.63,0,0,0,0-1.25Z"/><path class="cls-1" d="M371.78,27.11a.63.63,0,1,0,.62.64A.64.64,0,0,0,371.78,27.11Z"/><path class="cls-1" d="M369.15,21.85a.63.63,0,1,0,.62.63A.63.63,0,0,0,369.15,21.85Z"/><path class="cls-1" d="M369.15,24.48a.62.62,0,0,0-.63.63.63.63,0,1,0,1.25,0A.62.62,0,0,0,369.15,24.48Z"/><path class="cls-1" d="M371.78,24.48a.63.63,0,0,0-.63.63.64.64,0,0,0,.63.63.63.63,0,0,0,.62-.63A.62.62,0,0,0,371.78,24.48Z"/><path class="cls-1" d="M369.15,29.75a.62.62,0,0,0-.63.62.63.63,0,0,0,1.25,0A.62.62,0,0,0,369.15,29.75Z"/><path class="cls-1" d="M369.15,37.64a.63.63,0,1,0,.62.62A.63.63,0,0,0,369.15,37.64Z"/><path class="cls-1" d="M369.15,35a.63.63,0,0,0-.63.62.63.63,0,1,0,.63-.62Z"/><path class="cls-1" d="M371.78,40.27a.63.63,0,1,0,0,1.25.63.63,0,0,0,0-1.25Z"/><path class="cls-1" d="M371.78,29.75a.62.62,0,0,0-.63.62.63.63,0,0,0,1.25,0A.61.61,0,0,0,371.78,29.75Z"/><path class="cls-1" d="M371.78,32.37a.63.63,0,1,0,0,1.26.63.63,0,0,0,0-1.26Z"/><path class="cls-1" d="M371.78,35a.63.63,0,0,0-.63.62.62.62,0,0,0,.63.62.61.61,0,0,0,.62-.62A.62.62,0,0,0,371.78,35Z"/><path class="cls-1" d="M371.78,21.85a.63.63,0,1,0,.62.63A.63.63,0,0,0,371.78,21.85Z"/><path class="cls-1" d="M366.51,37.64a.63.63,0,1,0,0,1.25.63.63,0,1,0,0-1.25Z"/><path class="cls-1" d="M366.51,27.11a.63.63,0,1,0,.64.64A.64.64,0,0,0,366.51,27.11Z"/><path class="cls-1" d="M363.89,21.85a.63.63,0,1,0,.62.63A.64.64,0,0,0,363.89,21.85Z"/><path class="cls-1" d="M363.89,24.48a.63.63,0,0,0-.64.63.63.63,0,1,0,1.26,0A.63.63,0,0,0,363.89,24.48Z"/><path class="cls-1" d="M366.51,24.48a.63.63,0,0,0-.63.63.64.64,0,1,0,.63-.63Z"/><path class="cls-1" d="M363.89,29.75a.62.62,0,1,0,.62.62A.62.62,0,0,0,363.89,29.75Z"/><path class="cls-1" d="M363.89,37.64a.63.63,0,1,0,.62.62A.63.63,0,0,0,363.89,37.64Z"/><path class="cls-1" d="M363.89,35a.62.62,0,1,0,0,1.24.62.62,0,0,0,.62-.62A.62.62,0,0,0,363.89,35Z"/><path class="cls-1" d="M366.51,40.27a.63.63,0,1,0,.64.62A.63.63,0,0,0,366.51,40.27Z"/><path class="cls-1" d="M366.51,29.75a.62.62,0,0,0-.63.62.63.63,0,0,0,.63.62.63.63,0,0,0,.64-.62A.63.63,0,0,0,366.51,29.75Z"/><path class="cls-1" d="M366.51,32.37a.63.63,0,1,0,0,1.26.63.63,0,1,0,0-1.26Z"/><path class="cls-1" d="M366.51,35a.63.63,0,0,0-.63.62.62.62,0,0,0,.63.62.63.63,0,0,0,.64-.62A.63.63,0,0,0,366.51,35Z"/><path class="cls-1" d="M366.51,21.85a.63.63,0,1,0,0,1.26.63.63,0,1,0,0-1.26Z"/><path class="cls-1" d="M361.25,37.64a.63.63,0,1,0,.63.62A.63.63,0,0,0,361.25,37.64Z"/><path class="cls-1" d="M361.25,27.11a.63.63,0,1,0,0,1.26.63.63,0,1,0,0-1.26Z"/><path class="cls-1" d="M358.62,21.85a.63.63,0,1,0,.63.63A.63.63,0,0,0,358.62,21.85Z"/><path class="cls-1" d="M358.62,24.48a.63.63,0,0,0-.63.63.64.64,0,0,0,.63.63.63.63,0,0,0,.63-.63A.63.63,0,0,0,358.62,24.48Z"/><path class="cls-1" d="M390.19,27.11a.64.64,0,0,0,0,1.27.64.64,0,1,0,0-1.27Z"/><path class="cls-1" d="M379.67,27.11a.64.64,0,1,0,.63.64A.64.64,0,0,0,379.67,27.11Z"/><path class="cls-1" d="M374.4,27.11a.64.64,0,0,0,0,1.27.64.64,0,0,0,0-1.27Z"/><path class="cls-1" d="M369.15,27.11a.64.64,0,1,0,.62.64A.63.63,0,0,0,369.15,27.11Z"/><path class="cls-1" d="M363.89,27.11a.64.64,0,1,0,.62.64A.64.64,0,0,0,363.89,27.11Z"/><path class="cls-1" d="M384.93,32.37a.63.63,0,1,0,.63.63A.63.63,0,0,0,384.93,32.37Z"/><path class="cls-1" d="M379.67,32.37a.63.63,0,1,0,.63.63A.64.64,0,0,0,379.67,32.37Z"/><path class="cls-1" d="M374.4,32.37a.63.63,0,1,0,0,1.26.63.63,0,0,0,0-1.26Z"/><path class="cls-1" d="M369.15,32.37a.63.63,0,1,0,.62.63A.63.63,0,0,0,369.15,32.37Z"/><path class="cls-1" d="M363.89,32.37a.63.63,0,1,0,.62.63A.63.63,0,0,0,363.89,32.37Z"/><path class="cls-1" d="M358.62,27.11a.64.64,0,1,0,.63.64A.64.64,0,0,0,358.62,27.11Z"/><path class="cls-1" d="M361.25,24.48a.63.63,0,0,0-.63.63.64.64,0,0,0,.63.63.63.63,0,0,0,.63-.63A.63.63,0,0,0,361.25,24.48Z"/><path class="cls-1" d="M358.62,29.75a.62.62,0,0,0-.63.62.63.63,0,0,0,1.26,0A.62.62,0,0,0,358.62,29.75Z"/><path class="cls-1" d="M358.62,37.64a.63.63,0,1,0,.63.62A.63.63,0,0,0,358.62,37.64Z"/><path class="cls-1" d="M358.62,35a.63.63,0,0,0-.63.62.63.63,0,0,0,1.26,0A.63.63,0,0,0,358.62,35Z"/><path class="cls-1" d="M358.62,40.27a.63.63,0,1,0,.63.62A.63.63,0,0,0,358.62,40.27Z"/><path class="cls-1" d="M361.25,40.27a.63.63,0,1,0,.63.62A.63.63,0,0,0,361.25,40.27Z"/><path class="cls-1" d="M361.25,29.75a.63.63,0,0,0-.63.62.63.63,0,0,0,.63.62.63.63,0,0,0,.63-.62A.62.62,0,0,0,361.25,29.75Z"/><path class="cls-1" d="M358.62,32.37a.63.63,0,1,0,.63.63A.63.63,0,0,0,358.62,32.37Z"/><circle class="cls-1" cx="361.25" cy="33" r="0.63"/><path class="cls-1" d="M361.25,35a.63.63,0,0,0-.63.62.63.63,0,0,0,.63.62.62.62,0,0,0,.63-.62A.63.63,0,0,0,361.25,35Z"/><path class="cls-1" d="M361.25,21.85a.63.63,0,1,0,0,1.26.63.63,0,0,0,0-1.26Z"/><path class="cls-1" d="M356,37.64a.63.63,0,1,0,.63.62A.63.63,0,0,0,356,37.64Z"/><path class="cls-1" d="M356,27.11a.64.64,0,0,0-.63.64.63.63,0,0,0,.63.62.63.63,0,0,0,.63-.62A.64.64,0,0,0,356,27.11Z"/><path class="cls-1" d="M356,24.48a.63.63,0,0,0-.63.63.64.64,0,0,0,.63.63.63.63,0,0,0,.63-.63A.63.63,0,0,0,356,24.48Z"/><path class="cls-1" d="M356,40.27a.63.63,0,1,0,.63.62A.63.63,0,0,0,356,40.27Z"/><path class="cls-1" d="M356,29.75a.63.63,0,0,0-.63.62A.63.63,0,0,0,356,31a.63.63,0,0,0,.63-.62A.62.62,0,0,0,356,29.75Z"/><path class="cls-1" d="M356,32.37a.63.63,0,1,0,0,1.26.63.63,0,0,0,0-1.26Z"/><path class="cls-1" d="M356,35a.63.63,0,0,0-.63.62.63.63,0,0,0,.63.62.62.62,0,0,0,.63-.62A.63.63,0,0,0,356,35Z"/><path class="cls-1" d="M387.56,35a.63.63,0,0,0-.63.62.62.62,0,0,0,.63.62.61.61,0,0,0,.62-.62A.62.62,0,0,0,387.56,35Z"/><path class="cls-1" d="M384.93,37.64a.63.63,0,1,0,.63.62A.63.63,0,0,0,384.93,37.64Z"/><path class="cls-1" d="M384.93,40.27a.63.63,0,1,0,.63.62A.63.63,0,0,0,384.93,40.27Z"/><path class="cls-1" d="M384.93,35a.63.63,0,0,0-.63.62.63.63,0,0,0,1.26,0A.63.63,0,0,0,384.93,35Z"/><path class="cls-1" d="M379.67,37.64a.63.63,0,1,0,.63.62A.63.63,0,0,0,379.67,37.64Z"/><path class="cls-1" d="M377,37.64a.63.63,0,1,0,0,1.25.63.63,0,1,0,0-1.25Z"/><path class="cls-1" d="M377,35a.63.63,0,0,0-.63.62.62.62,0,0,0,.63.62.63.63,0,0,0,.63-.62A.63.63,0,0,0,377,35Z"/><path class="cls-1" d="M379.67,40.27a.63.63,0,1,0,.63.62A.63.63,0,0,0,379.67,40.27Z"/><path class="cls-1" d="M379.67,35a.63.63,0,0,0-.63.62.63.63,0,0,0,1.26,0A.63.63,0,0,0,379.67,35Z"/><path class="cls-1" d="M374.4,37.64a.63.63,0,1,0,.63.62A.63.63,0,0,0,374.4,37.64Z"/><path class="cls-1" d="M374.4,40.27a.63.63,0,1,0,.63.62A.63.63,0,0,0,374.4,40.27Z"/><path class="cls-1" d="M374.4,35a.63.63,0,0,0-.63.62.63.63,0,0,0,.63.62.62.62,0,0,0,.63-.62A.63.63,0,0,0,374.4,35Z"/><path class="cls-1" d="M403.35,37.64a.63.63,0,1,0,.63.62A.63.63,0,0,0,403.35,37.64Z"/><path class="cls-1" d="M400.72,37.64a.63.63,0,1,0,.62.62A.63.63,0,0,0,400.72,37.64Z"/><path class="cls-1" d="M400.72,35a.63.63,0,0,0-.63.62.63.63,0,0,0,1.25,0A.63.63,0,0,0,400.72,35Z"/><path class="cls-1" d="M369.15,40.27a.63.63,0,1,0,.62.62A.63.63,0,0,0,369.15,40.27Z"/><path class="cls-1" d="M363.89,40.27a.63.63,0,1,0,.62.62A.64.64,0,0,0,363.89,40.27Z"/><path class="cls-1" d="M403.35,40.27a.63.63,0,1,0,0,1.25.63.63,0,1,0,0-1.25Z"/><path class="cls-1" d="M403.35,35a.62.62,0,1,0,0,1.24.62.62,0,0,0,.63-.62A.63.63,0,0,0,403.35,35Z"/><path class="cls-1" d="M398.09,35a.63.63,0,0,0-.63.62.62.62,0,0,0,.63.62.61.61,0,0,0,.62-.62A.62.62,0,0,0,398.09,35Z"/><path class="cls-1" d="M356,21.85a.63.63,0,1,0,0,1.26.63.63,0,0,0,0-1.26Z"/><path class="cls-1" d="M398.08,48.15a.63.63,0,1,0,.63.64A.63.63,0,0,0,398.08,48.15Z"/><path class="cls-1" d="M395.46,42.89a.63.63,0,1,0,0,1.25.63.63,0,0,0,0-1.25Z"/><path class="cls-1" d="M395.46,45.52a.63.63,0,1,0,0,1.26.64.64,0,0,0,.62-.63A.63.63,0,0,0,395.46,45.52Z"/><path class="cls-1" d="M395.46,48.15a.63.63,0,1,0,.62.64A.63.63,0,0,0,395.46,48.15Z"/><path class="cls-1" d="M392.82,48.15a.63.63,0,1,0,.63.64A.64.64,0,0,0,392.82,48.15Z"/><path class="cls-1" d="M390.19,42.89a.63.63,0,1,0,.64.63A.63.63,0,0,0,390.19,42.89Z"/><path class="cls-1" d="M390.19,45.52a.63.63,0,0,0-.63.63.64.64,0,1,0,.63-.63Z"/><path class="cls-1" d="M392.82,45.52a.63.63,0,0,0-.63.63.63.63,0,0,0,.63.63.64.64,0,0,0,.63-.63A.63.63,0,0,0,392.82,45.52Z"/><path class="cls-1" d="M392.82,42.89a.63.63,0,1,0,0,1.25.63.63,0,1,0,0-1.25Z"/><path class="cls-1" d="M387.56,42.89a.63.63,0,1,0,0,1.25.63.63,0,1,0,0-1.25Z"/><path class="cls-1" d="M379.67,42.89a.63.63,0,1,0,.63.63A.64.64,0,0,0,379.67,42.89Z"/><path class="cls-1" d="M377,48.15a.63.63,0,0,0-.63.64.63.63,0,1,0,.63-.64Z"/><path class="cls-1" d="M374.4,42.89a.64.64,0,0,0-.63.63.63.63,0,0,0,.63.62.63.63,0,1,0,0-1.25Z"/><path class="cls-1" d="M374.4,45.52a.63.63,0,0,0-.63.63.64.64,0,0,0,.63.63.63.63,0,0,0,0-1.26Z"/><path class="cls-1" d="M377,45.52a.63.63,0,1,0,0,1.26.64.64,0,0,0,.63-.63A.63.63,0,0,0,377,45.52Z"/><path class="cls-1" d="M374.4,50.78a.63.63,0,1,0,0,1.25.61.61,0,0,0,.63-.62A.63.63,0,0,0,374.4,50.78Z"/><path class="cls-1" d="M377,53.41a.63.63,0,1,0,.62.62A.63.63,0,0,0,377,53.41Z"/><path class="cls-1" d="M371.78,58.68a.63.63,0,0,0-.63.62.63.63,0,0,0,.63.63.63.63,0,0,0,0-1.25Z"/><path class="cls-1" d="M371.78,48.15a.63.63,0,0,0-.63.64.64.64,0,0,0,.63.62.63.63,0,0,0,0-1.26Z"/><path class="cls-1" d="M369.15,42.89a.63.63,0,1,0,.62.63A.63.63,0,0,0,369.15,42.89Z"/><path class="cls-1" d="M369.15,45.52a.63.63,0,1,0,.62.63A.62.62,0,0,0,369.15,45.52Z"/><path class="cls-1" d="M371.78,45.52a.63.63,0,0,0-.63.63.64.64,0,0,0,.63.63.63.63,0,0,0,.62-.63A.62.62,0,0,0,371.78,45.52Z"/><path class="cls-1" d="M369.15,50.78a.63.63,0,1,0,.62.63A.63.63,0,0,0,369.15,50.78Z"/><path class="cls-1" d="M369.15,58.68a.63.63,0,0,0-.63.62.63.63,0,1,0,1.25,0A.62.62,0,0,0,369.15,58.68Z"/><path class="cls-1" d="M369.15,56.05a.62.62,0,0,0-.63.62.63.63,0,1,0,1.25,0A.62.62,0,0,0,369.15,56.05Z"/><path class="cls-1" d="M371.78,61.3a.63.63,0,0,0-.63.63.63.63,0,0,0,.63.63.62.62,0,0,0,.62-.63A.63.63,0,0,0,371.78,61.3Z"/><path class="cls-1" d="M371.78,50.78a.63.63,0,1,0,.62.63A.62.62,0,0,0,371.78,50.78Z"/><path class="cls-1" d="M371.78,53.41a.63.63,0,1,0,.62.62A.62.62,0,0,0,371.78,53.41Z"/><path class="cls-1" d="M371.78,56.05a.62.62,0,0,0-.63.62.63.63,0,0,0,.63.63.63.63,0,0,0,0-1.25Z"/><path class="cls-1" d="M371.78,42.89a.63.63,0,1,0,.62.63A.63.63,0,0,0,371.78,42.89Z"/><path class="cls-1" d="M366.51,58.68a.63.63,0,0,0-.63.62.63.63,0,0,0,.63.63.64.64,0,0,0,.64-.63A.63.63,0,0,0,366.51,58.68Z"/><path class="cls-1" d="M366.51,48.15a.63.63,0,0,0-.63.64.64.64,0,1,0,.63-.64Z"/><path class="cls-1" d="M363.89,42.89a.63.63,0,1,0,0,1.25.63.63,0,0,0,0-1.25Z"/><path class="cls-1" d="M363.89,45.52a.63.63,0,0,0-.64.63.63.63,0,1,0,1.26,0A.63.63,0,0,0,363.89,45.52Z"/><path class="cls-1" d="M366.51,45.52a.63.63,0,0,0-.63.63.64.64,0,1,0,.63-.63Z"/><path class="cls-1" d="M363.89,50.78a.63.63,0,1,0,0,1.25.63.63,0,0,0,0-1.25Z"/><path class="cls-1" d="M363.89,58.68a.63.63,0,0,0-.64.62.63.63,0,1,0,.64-.62Z"/><path class="cls-1" d="M363.89,56.05a.62.62,0,0,0-.64.62.63.63,0,1,0,1.26,0A.62.62,0,0,0,363.89,56.05Z"/><path class="cls-1" d="M366.51,61.3a.63.63,0,0,0-.63.63.63.63,0,0,0,.63.63.63.63,0,1,0,0-1.26Z"/><path class="cls-1" d="M366.51,50.78a.63.63,0,1,0,0,1.25.63.63,0,1,0,0-1.25Z"/><path class="cls-1" d="M366.51,53.41a.63.63,0,1,0,0,1.26.63.63,0,1,0,0-1.26Z"/><path class="cls-1" d="M366.51,56.05a.62.62,0,0,0-.63.62.63.63,0,0,0,.63.63.64.64,0,0,0,.64-.63A.63.63,0,0,0,366.51,56.05Z"/><path class="cls-1" d="M366.51,42.89a.63.63,0,1,0,0,1.25.63.63,0,1,0,0-1.25Z"/><path class="cls-1" d="M361.25,58.68a.63.63,0,0,0-.63.62.64.64,0,0,0,.63.63.63.63,0,0,0,.63-.63A.63.63,0,0,0,361.25,58.68Z"/><path class="cls-1" d="M361.25,48.15a.63.63,0,1,0,.63.64A.64.64,0,0,0,361.25,48.15Z"/><path class="cls-1" d="M358.62,42.89a.63.63,0,1,0,.63.63A.63.63,0,0,0,358.62,42.89Z"/><path class="cls-1" d="M358.62,45.52a.63.63,0,0,0-.63.63.64.64,0,0,0,.63.63.63.63,0,0,0,0-1.26Z"/><path class="cls-1" d="M374.4,48.16a.63.63,0,1,0,.63.63A.62.62,0,0,0,374.4,48.16Z"/><path class="cls-1" d="M369.15,48.16a.62.62,0,0,0-.63.63.63.63,0,0,0,1.25,0A.61.61,0,0,0,369.15,48.16Z"/><path class="cls-1" d="M363.89,48.16a.62.62,0,0,0-.64.63.63.63,0,0,0,1.26,0A.62.62,0,0,0,363.89,48.16Z"/><path class="cls-1" d="M374.4,53.41a.63.63,0,1,0,0,1.26.63.63,0,1,0,0-1.26Z"/><path class="cls-1" d="M369.15,53.41a.63.63,0,1,0,.62.62A.63.63,0,0,0,369.15,53.41Z"/><path class="cls-1" d="M363.89,53.41a.63.63,0,1,0,.62.62A.63.63,0,0,0,363.89,53.41Z"/><path class="cls-1" d="M358.62,48.16a.62.62,0,0,0-.63.63.63.63,0,0,0,.63.62.63.63,0,1,0,0-1.25Z"/><path class="cls-1" d="M361.25,45.52a.63.63,0,0,0-.63.63.64.64,0,0,0,.63.63.63.63,0,0,0,.63-.63A.63.63,0,0,0,361.25,45.52Z"/><path class="cls-1" d="M358.62,50.78a.63.63,0,1,0,.63.63A.63.63,0,0,0,358.62,50.78Z"/><path class="cls-1" d="M358.62,58.68a.63.63,0,0,0-.63.62.63.63,0,1,0,1.26,0A.63.63,0,0,0,358.62,58.68Z"/><path class="cls-1" d="M358.62,56.05a.62.62,0,0,0-.63.62.63.63,0,1,0,1.26,0A.62.62,0,0,0,358.62,56.05Z"/><path class="cls-1" d="M358.62,61.3a.63.63,0,0,0-.63.63.63.63,0,1,0,.63-.63Z"/><path class="cls-1" d="M361.25,61.3a.63.63,0,1,0,0,1.26.63.63,0,0,0,0-1.26Z"/><path class="cls-1" d="M361.25,50.78a.63.63,0,1,0,0,1.25.63.63,0,1,0,0-1.25Z"/><path class="cls-1" d="M358.62,53.41a.63.63,0,1,0,.63.62A.63.63,0,0,0,358.62,53.41Z"/><path class="cls-1" d="M361.25,53.41a.63.63,0,1,0,.63.62A.63.63,0,0,0,361.25,53.41Z"/><path class="cls-1" d="M361.25,56.05a.63.63,0,0,0-.63.62.63.63,0,0,0,.63.63.63.63,0,0,0,.63-.63A.62.62,0,0,0,361.25,56.05Z"/><path class="cls-1" d="M361.25,42.89a.63.63,0,1,0,0,1.25.63.63,0,1,0,0-1.25Z"/><path class="cls-1" d="M356,58.68a.63.63,0,0,0-.63.62.64.64,0,0,0,.63.63.63.63,0,0,0,.63-.63A.63.63,0,0,0,356,58.68Z"/><path class="cls-1" d="M356,48.15a.63.63,0,1,0,0,1.26.63.63,0,1,0,0-1.26Z"/><path class="cls-1" d="M356,45.52a.63.63,0,1,0,0,1.26.63.63,0,0,0,0-1.26Z"/><path class="cls-1" d="M356,61.3a.63.63,0,1,0,0,1.26.63.63,0,0,0,0-1.26Z"/><path class="cls-1" d="M356,50.78A.63.63,0,1,0,356,52a.63.63,0,1,0,0-1.25Z"/><path class="cls-1" d="M356,53.41a.63.63,0,1,0,.63.62A.63.63,0,0,0,356,53.41Z"/><path class="cls-1" d="M356,56.05a.63.63,0,0,0-.63.62.63.63,0,0,0,.63.63.63.63,0,0,0,.63-.63A.62.62,0,0,0,356,56.05Z"/><path class="cls-1" d="M379.67,58.68a.63.63,0,0,0-.63.62.63.63,0,1,0,.63-.62Z"/><path class="cls-1" d="M377,58.68a.63.63,0,0,0-.63.62.63.63,0,0,0,.63.63.64.64,0,0,0,.63-.63A.63.63,0,0,0,377,58.68Z"/><path class="cls-1" d="M377,61.3a.63.63,0,0,0-.63.63.63.63,0,0,0,.63.63.63.63,0,0,0,0-1.26Z"/><path class="cls-1" d="M374.4,58.68a.63.63,0,0,0-.63.62.64.64,0,0,0,.63.63.63.63,0,0,0,.63-.63A.63.63,0,0,0,374.4,58.68Z"/><path class="cls-1" d="M374.4,61.3a.63.63,0,1,0,0,1.26.63.63,0,0,0,0-1.26Z"/><path class="cls-1" d="M374.4,56.05a.63.63,0,0,0-.63.62.63.63,0,0,0,.63.63.63.63,0,0,0,.63-.63A.62.62,0,0,0,374.4,56.05Z"/><path class="cls-1" d="M369.15,61.3a.63.63,0,1,0,.62.63A.63.63,0,0,0,369.15,61.3Z"/><path class="cls-1" d="M363.89,61.3a.63.63,0,1,0,.62.63A.64.64,0,0,0,363.89,61.3Z"/><path class="cls-1" d="M356,42.89a.63.63,0,1,0,0,1.25.63.63,0,0,0,0-1.25Z"/><path class="cls-1" d="M400.7,69.19a.62.62,0,0,0-.62.63.63.63,0,1,0,.62-.63Z"/><path class="cls-1" d="M395.45,63.93a.63.63,0,1,0,.63.63A.63.63,0,0,0,395.45,63.93Z"/><path class="cls-1" d="M398.07,74.45a.63.63,0,1,0,.63.62A.63.63,0,0,0,398.07,74.45Z"/><path class="cls-1" d="M390.18,63.93a.63.63,0,1,0,.63.63A.63.63,0,0,0,390.18,63.93Z"/><path class="cls-1" d="M390.18,66.55a.64.64,0,1,0,.63.64A.63.63,0,0,0,390.18,66.55Z"/><path class="cls-1" d="M392.81,66.55a.64.64,0,0,0,0,1.27.64.64,0,0,0,0-1.27Z"/><path class="cls-1" d="M390.18,71.82a.63.63,0,1,0,.63.63A.63.63,0,0,0,390.18,71.82Z"/><path class="cls-1" d="M395.45,74.45a.63.63,0,1,0,.63.63A.63.63,0,0,0,395.45,74.45Z"/><path class="cls-1" d="M392.81,63.93a.63.63,0,1,0,.63.63A.63.63,0,0,0,392.81,63.93Z"/><path class="cls-1" d="M387.56,69.19a.63.63,0,1,0,0,1.26.63.63,0,0,0,.62-.63A.63.63,0,0,0,387.56,69.19Z"/><path class="cls-1" d="M384.92,66.55a.64.64,0,0,0-.63.64.63.63,0,0,0,.63.63.64.64,0,0,0,0-1.27Z"/><path class="cls-1" d="M387.56,66.55a.64.64,0,0,0,0,1.27.64.64,0,0,0,0-1.27Z"/><path class="cls-1" d="M384.92,71.82a.63.63,0,1,0,.62.63A.62.62,0,0,0,384.92,71.82Z"/><path class="cls-1" d="M382.29,69.19a.63.63,0,0,0-.63.63.63.63,0,1,0,1.26,0A.63.63,0,0,0,382.29,69.19Z"/><path class="cls-1" d="M379.66,63.93a.63.63,0,1,0,.63.63A.64.64,0,0,0,379.66,63.93Z"/><path class="cls-1" d="M379.66,66.55a.64.64,0,0,0-.64.64.64.64,0,0,0,1.27,0A.64.64,0,0,0,379.66,66.55Z"/><path class="cls-1" d="M382.29,66.55a.64.64,0,1,0,.63.64A.64.64,0,0,0,382.29,66.55Z"/><path class="cls-1" d="M379.66,71.82a.63.63,0,1,0,.63.63A.64.64,0,0,0,379.66,71.82Z"/><path class="cls-1" d="M382.29,71.82a.63.63,0,1,0,0,1.25.63.63,0,1,0,0-1.25Z"/><path class="cls-1" d="M382.29,63.93a.63.63,0,1,0,.63.63A.63.63,0,0,0,382.29,63.93Z"/><path class="cls-1" d="M377,69.19a.63.63,0,0,0-.63.63.64.64,0,0,0,.63.63.63.63,0,0,0,.63-.63A.63.63,0,0,0,377,69.19Z"/><path class="cls-1" d="M374.39,63.93a.63.63,0,0,0,0,1.25.63.63,0,1,0,0-1.25Z"/><path class="cls-1" d="M374.39,66.55a.64.64,0,0,0,0,1.27.64.64,0,0,0,0-1.27Z"/><path class="cls-1" d="M377,66.55a.64.64,0,0,0,0,1.27.64.64,0,0,0,0-1.27Z"/><path class="cls-1" d="M374.39,71.82a.63.63,0,0,0,0,1.25.62.62,0,0,0,.63-.62A.63.63,0,0,0,374.39,71.82Z"/><path class="cls-1" d="M377,71.82a.63.63,0,1,0,.62.63A.62.62,0,0,0,377,71.82Z"/><path class="cls-1" d="M377,74.45a.63.63,0,1,0,0,1.25.63.63,0,0,0,0-1.25Z"/><path class="cls-1" d="M377,63.93a.63.63,0,1,0,.63.63A.63.63,0,0,0,377,63.93Z"/><path class="cls-1" d="M371.77,79.71a.63.63,0,1,0,.62.63A.63.63,0,0,0,371.77,79.71Z"/><path class="cls-1" d="M371.77,69.19a.63.63,0,0,0-.63.63.64.64,0,0,0,.63.63.63.63,0,0,0,0-1.26Z"/><path class="cls-1" d="M369.14,63.93a.63.63,0,1,0,.62.63A.63.63,0,0,0,369.14,63.93Z"/><path class="cls-1" d="M369.14,66.55a.64.64,0,1,0,.62.64A.62.62,0,0,0,369.14,66.55Z"/><path class="cls-1" d="M371.77,66.55a.64.64,0,1,0,.62.64A.64.64,0,0,0,371.77,66.55Z"/><path class="cls-1" d="M369.14,71.82a.63.63,0,1,0,.62.63A.63.63,0,0,0,369.14,71.82Z"/><path class="cls-1" d="M369.14,79.71a.63.63,0,1,0,.62.63A.63.63,0,0,0,369.14,79.71Z"/><path class="cls-1" d="M369.14,77.08a.63.63,0,1,0,.62.63A.63.63,0,0,0,369.14,77.08Z"/><path class="cls-1" d="M371.77,82.34a.64.64,0,0,0-.63.62.63.63,0,1,0,.63-.62Z"/><path class="cls-1" d="M371.77,71.82a.63.63,0,1,0,.62.63A.63.63,0,0,0,371.77,71.82Z"/><path class="cls-1" d="M371.77,74.45a.63.63,0,1,0,.62.62A.63.63,0,0,0,371.77,74.45Z"/><path class="cls-1" d="M371.77,77.08a.63.63,0,1,0,.62.63A.63.63,0,0,0,371.77,77.08Z"/><path class="cls-1" d="M371.77,63.93a.63.63,0,1,0,.62.63A.63.63,0,0,0,371.77,63.93Z"/><path class="cls-1" d="M366.5,79.71a.63.63,0,1,0,.63.63A.63.63,0,0,0,366.5,79.71Z"/><path class="cls-1" d="M366.5,69.19a.63.63,0,0,0-.63.63.63.63,0,0,0,1.26,0A.63.63,0,0,0,366.5,69.19Z"/><path class="cls-1" d="M363.87,63.93a.63.63,0,0,0,0,1.25.63.63,0,1,0,0-1.25Z"/><path class="cls-1" d="M363.87,66.55a.64.64,0,0,0,0,1.27.64.64,0,1,0,0-1.27Z"/><path class="cls-1" d="M366.5,66.55a.64.64,0,0,0,0,1.27.63.63,0,0,0,.63-.63A.64.64,0,0,0,366.5,66.55Z"/><path class="cls-1" d="M363.87,71.82a.63.63,0,0,0,0,1.25.63.63,0,1,0,0-1.25Z"/><path class="cls-1" d="M363.87,79.71a.63.63,0,0,0,0,1.26.64.64,0,0,0,.64-.63A.64.64,0,0,0,363.87,79.71Z"/><path class="cls-1" d="M363.87,77.08a.63.63,0,0,0,0,1.25.63.63,0,1,0,0-1.25Z"/><path class="cls-1" d="M366.5,82.34a.64.64,0,0,0-.63.62.63.63,0,1,0,.63-.62Z"/><path class="cls-1" d="M366.5,71.82a.63.63,0,1,0,.63.63A.63.63,0,0,0,366.5,71.82Z"/><path class="cls-1" d="M366.5,74.45a.63.63,0,1,0,.63.62A.63.63,0,0,0,366.5,74.45Z"/><path class="cls-1" d="M366.5,77.08a.63.63,0,1,0,.63.63A.63.63,0,0,0,366.5,77.08Z"/><path class="cls-1" d="M366.5,63.93a.63.63,0,1,0,.63.63A.63.63,0,0,0,366.5,63.93Z"/><path class="cls-1" d="M361.25,79.71a.63.63,0,1,0,0,1.26.63.63,0,0,0,0-1.26Z"/><path class="cls-1" d="M361.25,69.19a.64.64,0,0,0-.64.63.64.64,0,0,0,.64.63.63.63,0,0,0,.62-.63A.63.63,0,0,0,361.25,69.19Z"/><path class="cls-1" d="M358.61,63.93a.63.63,0,1,0,.64.63A.63.63,0,0,0,358.61,63.93Z"/><path class="cls-1" d="M358.61,66.55a.64.64,0,0,0,0,1.27.64.64,0,0,0,.64-.63A.64.64,0,0,0,358.61,66.55Z"/><path class="cls-1" d="M390.18,69.19a.63.63,0,1,0,.63.63A.63.63,0,0,0,390.18,69.19Z"/><path class="cls-1" d="M379.66,69.19a.64.64,0,0,0-.64.63.64.64,0,1,0,.64-.63Z"/><path class="cls-1" d="M374.39,69.19a.63.63,0,1,0,.63.63A.62.62,0,0,0,374.39,69.19Z"/><path class="cls-1" d="M369.14,69.19a.63.63,0,1,0,.62.63A.62.62,0,0,0,369.14,69.19Z"/><path class="cls-1" d="M363.87,69.19a.63.63,0,0,0-.62.63.63.63,0,0,0,.62.63.63.63,0,1,0,0-1.26Z"/><path class="cls-1" d="M374.39,74.45a.63.63,0,0,0,0,1.25.62.62,0,0,0,.63-.63A.63.63,0,0,0,374.39,74.45Z"/><path class="cls-1" d="M369.14,74.45a.63.63,0,1,0,.62.62A.63.63,0,0,0,369.14,74.45Z"/><path class="cls-1" d="M363.87,74.45a.63.63,0,0,0,0,1.25.63.63,0,1,0,0-1.25Z"/><path class="cls-1" d="M358.61,69.19a.64.64,0,0,0-.63.63.64.64,0,0,0,1.27,0A.64.64,0,0,0,358.61,69.19Z"/><path class="cls-1" d="M361.25,66.55a.64.64,0,1,0,0,1.27.64.64,0,0,0,0-1.27Z"/><path class="cls-1" d="M358.61,71.82a.63.63,0,1,0,0,1.25.63.63,0,1,0,0-1.25Z"/><path class="cls-1" d="M358.61,79.71a.63.63,0,1,0,.64.63A.63.63,0,0,0,358.61,79.71Z"/><path class="cls-1" d="M358.61,77.08a.63.63,0,1,0,.64.63A.63.63,0,0,0,358.61,77.08Z"/><path class="cls-1" d="M358.61,82.34a.63.63,0,1,0,.64.62A.64.64,0,0,0,358.61,82.34Z"/><path class="cls-1" d="M361.25,82.34a.63.63,0,1,0,0,1.26.63.63,0,0,0,0-1.26Z"/><path class="cls-1" d="M361.25,71.82a.63.63,0,1,0,.62.63A.63.63,0,0,0,361.25,71.82Z"/><path class="cls-1" d="M358.61,74.45a.63.63,0,1,0,.64.62A.63.63,0,0,0,358.61,74.45Z"/><path class="cls-1" d="M361.25,74.45a.63.63,0,1,0,0,1.25.63.63,0,0,0,0-1.25Z"/><path class="cls-1" d="M361.25,77.08a.63.63,0,1,0,0,1.25.63.63,0,0,0,0-1.25Z"/><path class="cls-1" d="M361.25,63.93a.63.63,0,1,0,0,1.25.63.63,0,0,0,0-1.25Z"/><path class="cls-1" d="M356,79.71A.63.63,0,1,0,356,81a.63.63,0,0,0,0-1.26Z"/><path class="cls-1" d="M356,69.19a.63.63,0,0,0,0,1.26.63.63,0,0,0,0-1.26Z"/><path class="cls-1" d="M356,66.55a.64.64,0,1,0,.62.64A.62.62,0,0,0,356,66.55Z"/><path class="cls-1" d="M356,82.34a.63.63,0,1,0,0,1.26.63.63,0,0,0,0-1.26Z"/><path class="cls-1" d="M356,71.82a.63.63,0,1,0,0,1.25.63.63,0,0,0,0-1.25Z"/><path class="cls-1" d="M356,74.45a.63.63,0,1,0,0,1.25.63.63,0,0,0,0-1.25Z"/><path class="cls-1" d="M356,77.08a.63.63,0,1,0,0,1.25.63.63,0,0,0,0-1.25Z"/><path class="cls-1" d="M390.19,79.71a.63.63,0,1,0,0,1.26.63.63,0,0,0,0-1.26Z"/><path class="cls-1" d="M387.56,79.71a.63.63,0,1,0,0,1.26.63.63,0,0,0,0-1.26Z"/><path class="cls-1" d="M390.19,82.34a.63.63,0,1,0,0,1.26.63.63,0,0,0,0-1.26Z"/><path class="cls-1" d="M382.29,79.71a.63.63,0,1,0,0,1.26.63.63,0,0,0,0-1.26Z"/><path class="cls-1" d="M382.29,77.08a.63.63,0,1,0,.63.63A.64.64,0,0,0,382.29,77.08Z"/><path class="cls-1" d="M384.92,82.34a.63.63,0,1,0,.63.62A.63.63,0,0,0,384.92,82.34Z"/><path class="cls-1" d="M379.66,79.71a.63.63,0,1,0,0,1.26.63.63,0,0,0,.63-.63A.63.63,0,0,0,379.66,79.71Z"/><path class="cls-1" d="M377,79.71a.63.63,0,1,0,.63.63A.63.63,0,0,0,377,79.71Z"/><path class="cls-1" d="M377,77.08a.63.63,0,1,0,.63.63A.63.63,0,0,0,377,77.08Z"/><path class="cls-1" d="M377,82.34a.63.63,0,1,0,.63.62A.64.64,0,0,0,377,82.34Z"/><path class="cls-1" d="M379.66,82.34a.63.63,0,1,0,0,1.26.63.63,0,0,0,.63-.64A.64.64,0,0,0,379.66,82.34Z"/><path class="cls-1" d="M379.66,77.08a.63.63,0,1,0,0,1.25.63.63,0,0,0,.63-.62A.64.64,0,0,0,379.66,77.08Z"/><path class="cls-1" d="M374.4,79.71a.63.63,0,1,0,0,1.26.63.63,0,0,0,0-1.26Z"/><path class="cls-1" d="M374.4,82.34a.64.64,0,0,0-.63.62.63.63,0,0,0,.63.64.63.63,0,0,0,0-1.26Z"/><path class="cls-1" d="M374.4,77.08a.63.63,0,1,0,0,1.25.63.63,0,0,0,0-1.25Z"/><path class="cls-1" d="M369.14,82.34a.63.63,0,1,0,0,1.25.63.63,0,0,0,0-1.25Z"/><path class="cls-1" d="M363.87,82.34a.63.63,0,1,0,.64.62A.65.65,0,0,0,363.87,82.34Z"/><path class="cls-1" d="M387.56,82.34a.63.63,0,1,0,0,1.25.63.63,0,0,0,0-1.25Z"/><path class="cls-1" d="M382.29,82.34a.63.63,0,1,0,.63.62A.65.65,0,0,0,382.29,82.34Z"/><path class="cls-1" d="M395.45,79.71a.63.63,0,1,0,.63.63A.64.64,0,0,0,395.45,79.71Z"/><path class="cls-1" d="M395.45,77.08a.63.63,0,1,0,.63.63A.64.64,0,0,0,395.45,77.08Z"/><path class="cls-1" d="M395.45,82.34a.63.63,0,1,0,.63.62A.64.64,0,0,0,395.45,82.34Z"/><path class="cls-1" d="M392.81,82.34a.64.64,0,0,0-.62.62.63.63,0,1,0,.62-.62Z"/><path class="cls-1" d="M356,63.93a.63.63,0,0,0,0,1.25.63.63,0,0,0,0-1.25Z"/><path class="cls-1" d="M400.7,87.6a.64.64,0,1,0,.63.64A.64.64,0,0,0,400.7,87.6Z"/><path class="cls-1" d="M400.7,92.87a.62.62,0,0,0-.62.63.63.63,0,1,0,.62-.63Z"/><path class="cls-1" d="M400.7,95.51a.61.61,0,0,0-.62.62.63.63,0,0,0,.62.63.63.63,0,0,0,.63-.63A.62.62,0,0,0,400.7,95.51Z"/><path class="cls-1" d="M403.34,95.51a.62.62,0,0,0-.64.62.63.63,0,1,0,1.26,0A.62.62,0,0,0,403.34,95.51Z"/><path class="cls-1" d="M403.34,85a.63.63,0,1,0,.62.63A.63.63,0,0,0,403.34,85Z"/><path class="cls-1" d="M395.45,87.6a.64.64,0,0,0-.64.64.63.63,0,0,0,.64.63.64.64,0,0,0,0-1.27Z"/><path class="cls-1" d="M395.45,90.24a.63.63,0,1,0,0,1.26.65.65,0,0,0,.63-.62A.64.64,0,0,0,395.45,90.24Z"/><path class="cls-1" d="M395.45,92.87a.63.63,0,1,0,.63.63A.63.63,0,0,0,395.45,92.87Z"/><path class="cls-1" d="M398.07,92.87a.63.63,0,0,0,0,1.26.63.63,0,0,0,0-1.26Z"/><path class="cls-1" d="M398.07,95.51a.63.63,0,0,0-.63.62.64.64,0,0,0,.63.63.63.63,0,0,0,.63-.63A.62.62,0,0,0,398.07,95.51Z"/><path class="cls-1" d="M398.07,85a.63.63,0,0,0-.63.63.64.64,0,0,0,.63.63.63.63,0,0,0,.63-.63A.63.63,0,0,0,398.07,85Z"/><path class="cls-1" d="M392.81,90.24a.63.63,0,0,0,0,1.26.64.64,0,0,0,.63-.62A.63.63,0,0,0,392.81,90.24Z"/><path class="cls-1" d="M390.18,85a.63.63,0,0,0-.63.63.63.63,0,1,0,1.26,0A.63.63,0,0,0,390.18,85Z"/><path class="cls-1" d="M390.18,87.6a.64.64,0,0,0-.63.64.63.63,0,1,0,1.26,0A.64.64,0,0,0,390.18,87.6Z"/><path class="cls-1" d="M392.81,87.6a.64.64,0,0,0,0,1.27.64.64,0,0,0,0-1.27Z"/><path class="cls-1" d="M392.81,92.87a.63.63,0,0,0,0,1.26.63.63,0,0,0,.63-.63A.63.63,0,0,0,392.81,92.87Z"/><path class="cls-1" d="M390.18,92.87a.63.63,0,1,0,.63.63A.63.63,0,0,0,390.18,92.87Z"/><path class="cls-1" d="M395.45,95.51a.63.63,0,0,0-.64.62.64.64,0,1,0,.64-.62Z"/><path class="cls-1" d="M392.81,95.51a.63.63,0,0,0,0,1.25.63.63,0,1,0,0-1.25Z"/><path class="cls-1" d="M390.18,95.51a.63.63,0,0,0-.63.62.63.63,0,0,0,1.26,0A.63.63,0,0,0,390.18,95.51Z"/><path class="cls-1" d="M392.81,85a.63.63,0,0,0-.62.63.63.63,0,1,0,.62-.63Z"/><path class="cls-1" d="M387.56,90.24a.63.63,0,1,0,.62.64A.62.62,0,0,0,387.56,90.24Z"/><path class="cls-1" d="M384.92,85a.63.63,0,0,0-.63.63.63.63,0,0,0,.63.63.63.63,0,0,0,.62-.63A.62.62,0,0,0,384.92,85Z"/><path class="cls-1" d="M384.92,87.6a.64.64,0,0,0-.63.64.63.63,0,0,0,.63.63.64.64,0,0,0,0-1.27Z"/><path class="cls-1" d="M387.56,87.6a.64.64,0,0,0,0,1.27.64.64,0,0,0,0-1.27Z"/><path class="cls-1" d="M384.92,90.24a.63.63,0,0,0-.63.64.64.64,0,0,0,.63.62.63.63,0,0,0,0-1.26Z"/><path class="cls-1" d="M384.92,92.87a.63.63,0,0,0,0,1.26.63.63,0,0,0,0-1.26Z"/><path class="cls-1" d="M387.56,92.87a.63.63,0,1,0,.61.63A.62.62,0,0,0,387.56,92.87Z"/><path class="cls-1" d="M387.56,95.51a.61.61,0,0,0-.63.62.62.62,0,1,0,1.24,0A.61.61,0,0,0,387.56,95.51Z"/><path class="cls-1" d="M387.56,85a.63.63,0,0,0-.63.63.63.63,0,1,0,1.25,0A.63.63,0,0,0,387.56,85Z"/><path class="cls-1" d="M382.29,90.24a.63.63,0,0,0-.63.64.63.63,0,1,0,.63-.64Z"/><path class="cls-1" d="M379.66,85a.64.64,0,0,0-.64.63.64.64,0,0,0,1.27,0A.63.63,0,0,0,379.66,85Z"/><path class="cls-1" d="M379.66,87.6a.64.64,0,0,0-.64.64.64.64,0,0,0,1.27,0A.64.64,0,0,0,379.66,87.6Z"/><path class="cls-1" d="M382.29,87.6a.64.64,0,1,0,.63.64A.64.64,0,0,0,382.29,87.6Z"/><path class="cls-1" d="M379.66,92.87a.63.63,0,1,0,.63.63A.64.64,0,0,0,379.66,92.87Z"/><path class="cls-1" d="M382.29,92.87a.63.63,0,0,0-.63.63.63.63,0,1,0,.63-.63Z"/><path class="cls-1" d="M382.29,95.51a.62.62,0,0,0-.63.62.63.63,0,0,0,.63.63.64.64,0,0,0,.63-.63A.63.63,0,0,0,382.29,95.51Z"/><path class="cls-1" d="M382.29,85a.63.63,0,0,0-.63.63.63.63,0,0,0,.63.63.64.64,0,0,0,.63-.63A.63.63,0,0,0,382.29,85Z"/><path class="cls-1" d="M377,90.24a.63.63,0,0,0-.63.64.64.64,0,0,0,.63.62.63.63,0,1,0,0-1.26Z"/><path class="cls-1" d="M374.39,85a.64.64,0,0,0-.62.63.65.65,0,0,0,.62.63.63.63,0,0,0,.63-.63A.63.63,0,0,0,374.39,85Z"/><path class="cls-1" d="M374.39,87.6a.64.64,0,0,0,0,1.27.64.64,0,0,0,0-1.27Z"/><path class="cls-1" d="M377,87.6a.64.64,0,0,0-.63.64.63.63,0,0,0,.63.63.64.64,0,0,0,0-1.27Z"/><path class="cls-1" d="M374.39,92.87a.63.63,0,0,0,0,1.26.62.62,0,0,0,.63-.63A.63.63,0,0,0,374.39,92.87Z"/><path class="cls-1" d="M377,92.87a.63.63,0,0,0,0,1.26.63.63,0,0,0,0-1.26Z"/><path class="cls-1" d="M377,95.51a.62.62,0,0,0-.63.62.63.63,0,0,0,.63.63.63.63,0,0,0,.62-.63A.61.61,0,0,0,377,95.51Z"/><path class="cls-1" d="M377,85a.63.63,0,0,0-.63.63.63.63,0,1,0,1.26,0A.63.63,0,0,0,377,85Z"/><path class="cls-1" d="M371.77,90.24a.63.63,0,0,0-.63.64.64.64,0,0,0,.63.62.63.63,0,0,0,0-1.26Z"/><path class="cls-1" d="M369.14,85a.63.63,0,0,0-.63.63.63.63,0,1,0,1.25,0A.63.63,0,0,0,369.14,85Z"/><path class="cls-1" d="M369.14,87.6a.64.64,0,1,0,.62.64A.63.63,0,0,0,369.14,87.6Z"/><path class="cls-1" d="M371.77,87.6a.64.64,0,1,0,.62.64A.64.64,0,0,0,371.77,87.6Z"/><path class="cls-1" d="M369.14,92.87a.63.63,0,1,0,.62.63A.63.63,0,0,0,369.14,92.87Z"/><path class="cls-1" d="M371.77,92.87a.63.63,0,1,0,.62.63A.63.63,0,0,0,371.77,92.87Z"/><path class="cls-1" d="M371.77,95.51a.62.62,0,0,0-.63.62.63.63,0,1,0,1.25,0A.62.62,0,0,0,371.77,95.51Z"/><path class="cls-1" d="M371.77,85a.63.63,0,0,0-.63.63.63.63,0,1,0,.63-.63Z"/><path class="cls-1" d="M366.5,90.24a.63.63,0,0,0-.63.64.63.63,0,0,0,1.26,0A.63.63,0,0,0,366.5,90.24Z"/><path class="cls-1" d="M363.87,85a.63.63,0,0,0-.62.63.63.63,0,0,0,.62.63.64.64,0,0,0,.64-.63A.64.64,0,0,0,363.87,85Z"/><path class="cls-1" d="M363.87,87.6a.64.64,0,0,0,0,1.27.64.64,0,1,0,0-1.27Z"/><path class="cls-1" d="M366.5,87.6a.64.64,0,0,0,0,1.27.63.63,0,0,0,.63-.63A.64.64,0,0,0,366.5,87.6Z"/><path class="cls-1" d="M363.87,92.87a.63.63,0,0,0,0,1.26.63.63,0,1,0,0-1.26Z"/><path class="cls-1" d="M366.5,92.87a.63.63,0,1,0,.63.63A.63.63,0,0,0,366.5,92.87Z"/><path class="cls-1" d="M366.5,95.51a.62.62,0,0,0-.63.62.63.63,0,0,0,1.26,0A.62.62,0,0,0,366.5,95.51Z"/><path class="cls-1" d="M366.5,85a.63.63,0,0,0-.63.63.63.63,0,1,0,1.26,0A.63.63,0,0,0,366.5,85Z"/><path class="cls-1" d="M361.25,90.24a.63.63,0,1,0,0,1.26.63.63,0,0,0,0-1.26Z"/><path class="cls-1" d="M358.61,85a.63.63,0,0,0-.63.63.64.64,0,1,0,.63-.63Z"/><path class="cls-1" d="M358.61,87.6a.64.64,0,0,0,0,1.27.64.64,0,0,0,.64-.63A.64.64,0,0,0,358.61,87.6Z"/><path class="cls-1" d="M390.18,90.25a.63.63,0,1,0,.63.63A.62.62,0,0,0,390.18,90.25Z"/><path class="cls-1" d="M379.66,90.25a.63.63,0,1,0,.63.63A.64.64,0,0,0,379.66,90.25Z"/><path class="cls-1" d="M374.39,90.25a.63.63,0,1,0,.63.63A.62.62,0,0,0,374.39,90.25Z"/><path class="cls-1" d="M369.14,90.25a.62.62,0,0,0-.63.63.63.63,0,0,0,1.25,0A.61.61,0,0,0,369.14,90.25Z"/><path class="cls-1" d="M363.87,90.25a.63.63,0,0,0,0,1.25.63.63,0,1,0,0-1.25Z"/><path class="cls-1" d="M384.92,95.51a.62.62,0,0,0-.63.62.63.63,0,0,0,.63.62.62.62,0,0,0,.62-.62A.61.61,0,0,0,384.92,95.51Z"/><path class="cls-1" d="M379.66,95.51a.63.63,0,0,0-.64.62.64.64,0,0,0,1.27,0A.63.63,0,0,0,379.66,95.51Z"/><path class="cls-1" d="M374.39,95.51a.62.62,0,0,0-.62.62.63.63,0,1,0,.62-.62Z"/><path class="cls-1" d="M369.14,95.51a.62.62,0,0,0-.63.62.63.63,0,0,0,1.25,0A.62.62,0,0,0,369.14,95.51Z"/><path class="cls-1" d="M363.87,95.51a.62.62,0,0,0-.62.62.62.62,0,0,0,.62.62.63.63,0,0,0,.64-.62A.63.63,0,0,0,363.87,95.51Z"/><path class="cls-1" d="M358.61,90.25a.63.63,0,1,0,.64.63A.63.63,0,0,0,358.61,90.25Z"/><path class="cls-1" d="M361.25,87.6a.64.64,0,1,0,0,1.27.64.64,0,0,0,0-1.27Z"/><path class="cls-1" d="M358.61,92.87a.63.63,0,1,0,.64.63A.63.63,0,0,0,358.61,92.87Z"/><path class="cls-1" d="M361.25,92.87a.63.63,0,1,0,0,1.26.63.63,0,0,0,0-1.26Z"/><path class="cls-1" d="M358.61,95.51a.63.63,0,0,0-.63.62.64.64,0,0,0,1.27,0A.63.63,0,0,0,358.61,95.51Z"/><path class="cls-1" d="M361.25,95.51a.63.63,0,0,0-.64.62.64.64,0,0,0,.64.63.63.63,0,0,0,.62-.63A.62.62,0,0,0,361.25,95.51Z"/><path class="cls-1" d="M361.25,85a.64.64,0,0,0-.64.63.64.64,0,0,0,.64.63.63.63,0,0,0,.62-.63A.63.63,0,0,0,361.25,85Z"/><path class="cls-1" d="M356,90.24a.63.63,0,0,0,0,1.26.63.63,0,0,0,0-1.26Z"/><path class="cls-1" d="M356,87.6a.64.64,0,0,0,0,1.27.64.64,0,0,0,0-1.27Z"/><path class="cls-1" d="M356,92.87a.63.63,0,0,0,0,1.26.63.63,0,0,0,0-1.26Z"/><path class="cls-1" d="M356,95.51a.63.63,0,0,0-.63.62.64.64,0,0,0,.63.63.63.63,0,0,0,.62-.63A.61.61,0,0,0,356,95.51Z"/><path class="cls-1" d="M450.69,92.87a.63.63,0,1,0,.62.63A.63.63,0,0,0,450.69,92.87Z"/><path class="cls-1" d="M453.32,92.87a.63.63,0,1,0,0,1.26.63.63,0,0,0,0-1.26Z"/><path class="cls-1" d="M450.69,95.51a.62.62,0,0,0-.63.62.63.63,0,1,0,1.25,0A.62.62,0,0,0,450.69,95.51Z"/><path class="cls-1" d="M453.32,95.51a.63.63,0,0,0-.64.62.64.64,0,0,0,.64.63.63.63,0,0,0,.62-.63A.62.62,0,0,0,453.32,95.51Z"/><path class="cls-1" d="M445.43,92.87a.63.63,0,1,0,.63.63A.64.64,0,0,0,445.43,92.87Z"/><path class="cls-1" d="M448.06,92.87a.63.63,0,1,0,0,1.26.63.63,0,0,0,0-1.26Z"/><path class="cls-1" d="M448.06,95.51a.63.63,0,0,0-.64.62.63.63,0,1,0,1.26,0A.62.62,0,0,0,448.06,95.51Z"/><path class="cls-1" d="M442.79,92.87a.63.63,0,0,0,0,1.26.63.63,0,0,0,.63-.63A.63.63,0,0,0,442.79,92.87Z"/><path class="cls-1" d="M440.16,92.87a.63.63,0,0,0,0,1.26.63.63,0,1,0,0-1.26Z"/><path class="cls-1" d="M445.43,95.51a.63.63,0,0,0-.64.62.64.64,0,0,0,1.27,0A.63.63,0,0,0,445.43,95.51Z"/><path class="cls-1" d="M442.79,95.51a.63.63,0,0,0,0,1.25.63.63,0,1,0,0-1.25Z"/><path class="cls-1" d="M440.16,95.51a.62.62,0,0,0-.62.62.63.63,0,0,0,.62.63.63.63,0,0,0,.63-.63A.63.63,0,0,0,440.16,95.51Z"/><path class="cls-1" d="M434.9,92.87a.63.63,0,0,0,0,1.26.63.63,0,0,0,0-1.26Z"/><path class="cls-1" d="M437.53,92.87a.63.63,0,0,0-.62.63.62.62,0,0,0,.62.63.63.63,0,0,0,0-1.26Z"/><path class="cls-1" d="M437.53,95.51a.62.62,0,0,0-.62.62.63.63,0,1,0,1.25,0A.62.62,0,0,0,437.53,95.51Z"/><path class="cls-1" d="M429.64,92.87a.63.63,0,1,0,.63.63A.63.63,0,0,0,429.64,92.87Z"/><path class="cls-1" d="M432.27,92.87a.63.63,0,0,0-.63.63.64.64,0,0,0,.63.63.63.63,0,0,0,0-1.26Z"/><path class="cls-1" d="M432.27,95.51a.62.62,0,0,0-.63.62.63.63,0,0,0,.63.63.64.64,0,0,0,.63-.63A.63.63,0,0,0,432.27,95.51Z"/><path class="cls-1" d="M424.37,92.87a.63.63,0,1,0,.63.63A.63.63,0,0,0,424.37,92.87Z"/><path class="cls-1" d="M427,92.87a.63.63,0,0,0,0,1.26.63.63,0,0,0,0-1.26Z"/><path class="cls-1" d="M427,95.51a.62.62,0,0,0-.62.62.63.63,0,0,0,.62.63.64.64,0,0,0,.63-.63A.63.63,0,0,0,427,95.51Z"/><path class="cls-1" d="M419.13,92.87a.63.63,0,1,0,0,1.26.63.63,0,0,0,0-1.26Z"/><path class="cls-1" d="M421.75,92.87a.63.63,0,1,0,.62.63A.62.62,0,0,0,421.75,92.87Z"/><path class="cls-1" d="M421.75,95.51a.62.62,0,0,0-.63.62.63.63,0,0,0,.63.63.63.63,0,0,0,.62-.63A.61.61,0,0,0,421.75,95.51Z"/><path class="cls-1" d="M413.86,92.87a.63.63,0,1,0,.62.63A.63.63,0,0,0,413.86,92.87Z"/><path class="cls-1" d="M416.49,92.87a.63.63,0,1,0,0,1.26.63.63,0,0,0,0-1.26Z"/><path class="cls-1" d="M416.49,95.51a.63.63,0,0,0-.64.62.64.64,0,0,0,.64.63.63.63,0,0,0,.62-.63A.62.62,0,0,0,416.49,95.51Z"/><path class="cls-1" d="M434.9,95.51a.63.63,0,0,0-.63.62.63.63,0,0,0,.63.62.63.63,0,0,0,.63-.62A.62.62,0,0,0,434.9,95.51Z"/><path class="cls-1" d="M429.64,95.51a.62.62,0,0,0-.63.62.63.63,0,0,0,1.26,0A.62.62,0,0,0,429.64,95.51Z"/><path class="cls-1" d="M424.37,95.51a.62.62,0,0,0-.62.62.63.63,0,1,0,.62-.62Z"/><path class="cls-1" d="M419.13,95.51a.63.63,0,0,0-.65.62.64.64,0,0,0,.65.62.62.62,0,0,0,.61-.62A.61.61,0,0,0,419.13,95.51Z"/><path class="cls-1" d="M413.86,95.51a.62.62,0,0,0-.63.62.63.63,0,0,0,1.25,0A.62.62,0,0,0,413.86,95.51Z"/><path class="cls-1" d="M408.59,92.87a.63.63,0,1,0,.64.63A.63.63,0,0,0,408.59,92.87Z"/><path class="cls-1" d="M411.23,92.87a.63.63,0,1,0,.62.63A.63.63,0,0,0,411.23,92.87Z"/><path class="cls-1" d="M408.59,95.51a.63.63,0,0,0-.63.62.64.64,0,0,0,1.27,0A.63.63,0,0,0,408.59,95.51Z"/><path class="cls-1" d="M411.23,95.51a.62.62,0,0,0-.63.62.63.63,0,1,0,1.25,0A.62.62,0,0,0,411.23,95.51Z"/><path class="cls-1" d="M406,92.87a.63.63,0,1,0,.62.63A.63.63,0,0,0,406,92.87Z"/><path class="cls-1" d="M406,95.51a.62.62,0,0,0-.63.62.63.63,0,1,0,1.25,0A.62.62,0,0,0,406,95.51Z"/><path class="cls-1" d="M356,85a.63.63,0,0,0-.62.63.63.63,0,0,0,.62.63.63.63,0,0,0,.62-.63A.62.62,0,0,0,356,85Z"/><path class="cls-1" d="M456,21.85a.63.63,0,1,0,.64.63A.63.63,0,0,0,456,21.85Z"/><path class="cls-1" d="M456,24.48a.63.63,0,0,0-.62.63.63.63,0,1,0,1.26,0A.63.63,0,0,0,456,24.48Z"/><path class="cls-1" d="M456,27.11a.64.64,0,1,0,.64.64A.63.63,0,0,0,456,27.11Z"/><path class="cls-1" d="M456,29.75a.62.62,0,0,0-.62.62.63.63,0,1,0,.62-.62Z"/><path class="cls-1" d="M456,37.64a.63.63,0,0,0,0,1.25.63.63,0,1,0,0-1.25Z"/><path class="cls-1" d="M456,35a.62.62,0,0,0-.62.62.63.63,0,0,0,1.26,0A.63.63,0,0,0,456,35Z"/><path class="cls-1" d="M456,40.27a.63.63,0,1,0,.64.62A.63.63,0,0,0,456,40.27Z"/><path class="cls-1" d="M456,32.37a.63.63,0,1,0,.64.63A.63.63,0,0,0,456,32.37Z"/><path class="cls-1" d="M453.33,37.64a.63.63,0,1,0,0,1.25.63.63,0,0,0,0-1.25Z"/><path class="cls-1" d="M453.33,27.11a.64.64,0,0,0-.63.64.63.63,0,0,0,1.25,0A.63.63,0,0,0,453.33,27.11Z"/><path class="cls-1" d="M453.33,24.48a.62.62,0,0,0-.63.63.63.63,0,1,0,1.25,0A.62.62,0,0,0,453.33,24.48Z"/><path class="cls-1" d="M453.33,40.27a.63.63,0,1,0,0,1.25.63.63,0,0,0,0-1.25Z"/><path class="cls-1" d="M453.33,29.75a.63.63,0,0,0-.64.62.63.63,0,0,0,.64.62.62.62,0,0,0,.62-.62A.62.62,0,0,0,453.33,29.75Z"/><path class="cls-1" d="M453.33,32.37a.63.63,0,1,0,0,1.26.63.63,0,0,0,0-1.26Z"/><path class="cls-1" d="M453.33,35a.63.63,0,0,0-.64.62.63.63,0,0,0,.64.62.62.62,0,0,0,.62-.62A.62.62,0,0,0,453.33,35Z"/><path class="cls-1" d="M453.33,21.85a.63.63,0,1,0,0,1.26.63.63,0,0,0,0-1.26Z"/><path class="cls-1" d="M456,42.89a.63.63,0,1,0,.64.63A.63.63,0,0,0,456,42.89Z"/><path class="cls-1" d="M456,45.52a.63.63,0,0,0-.62.63.64.64,0,0,0,.62.63.63.63,0,1,0,0-1.26Z"/><path class="cls-1" d="M456,48.16a.62.62,0,0,0-.62.63.63.63,0,1,0,.62-.63Z"/><path class="cls-1" d="M456,50.78a.63.63,0,1,0,.64.63A.63.63,0,0,0,456,50.78Z"/><path class="cls-1" d="M456,58.68a.62.62,0,0,0-.62.62.63.63,0,1,0,.62-.62Z"/><path class="cls-1" d="M456,56.05a.62.62,0,0,0-.62.62.63.63,0,1,0,.62-.62Z"/><path class="cls-1" d="M456,61.3a.63.63,0,0,0-.62.63.63.63,0,1,0,.62-.63Z"/><path class="cls-1" d="M456,53.41a.63.63,0,0,0,0,1.26.63.63,0,1,0,0-1.26Z"/><path class="cls-1" d="M453.33,58.68a.63.63,0,0,0-.64.62.64.64,0,0,0,.64.63.63.63,0,0,0,.62-.63A.62.62,0,0,0,453.33,58.68Z"/><path class="cls-1" d="M453.33,48.15a.63.63,0,1,0,0,1.26.63.63,0,0,0,0-1.26Z"/><path class="cls-1" d="M453.33,45.52a.63.63,0,1,0,.62.63A.62.62,0,0,0,453.33,45.52Z"/><path class="cls-1" d="M453.33,61.3a.63.63,0,1,0,0,1.26.63.63,0,0,0,0-1.26Z"/><path class="cls-1" d="M453.33,50.78a.63.63,0,1,0,0,1.25.63.63,0,0,0,0-1.25Z"/><path class="cls-1" d="M453.33,53.41a.63.63,0,1,0,0,1.26.63.63,0,0,0,0-1.26Z"/><path class="cls-1" d="M453.33,56.05a.63.63,0,0,0-.64.62.64.64,0,0,0,.64.63.63.63,0,0,0,.62-.63A.62.62,0,0,0,453.33,56.05Z"/><path class="cls-1" d="M453.33,42.89a.63.63,0,1,0,0,1.25.63.63,0,0,0,0-1.25Z"/><path class="cls-1" d="M455.94,63.93a.63.63,0,0,0,0,1.25.63.63,0,1,0,0-1.25Z"/><path class="cls-1" d="M455.94,66.55a.64.64,0,1,0,.64.64A.64.64,0,0,0,455.94,66.55Z"/><path class="cls-1" d="M455.94,69.19a.63.63,0,0,0-.62.63.63.63,0,0,0,.62.63.64.64,0,0,0,.64-.63A.64.64,0,0,0,455.94,69.19Z"/><path class="cls-1" d="M455.94,71.82a.63.63,0,0,0,0,1.25.63.63,0,1,0,0-1.25Z"/><path class="cls-1" d="M455.94,79.71a.63.63,0,0,0,0,1.26.63.63,0,1,0,0-1.26Z"/><path class="cls-1" d="M455.94,77.08a.63.63,0,0,0,0,1.25.63.63,0,1,0,0-1.25Z"/><path class="cls-1" d="M455.94,82.34a.63.63,0,0,0,0,1.26.63.63,0,1,0,0-1.26Z"/><path class="cls-1" d="M455.94,74.45a.63.63,0,0,0,0,1.25.63.63,0,1,0,0-1.25Z"/><path class="cls-1" d="M453.32,79.71a.63.63,0,1,0,0,1.26.63.63,0,0,0,0-1.26Z"/><path class="cls-1" d="M453.32,69.19a.63.63,0,1,0,.62.63A.63.63,0,0,0,453.32,69.19Z"/><path class="cls-1" d="M453.32,66.55a.64.64,0,1,0,.62.64A.62.62,0,0,0,453.32,66.55Z"/><path class="cls-1" d="M453.32,82.34a.63.63,0,1,0,0,1.26.63.63,0,0,0,0-1.26Z"/><path class="cls-1" d="M453.32,71.82a.63.63,0,1,0,.62.63A.63.63,0,0,0,453.32,71.82Z"/><path class="cls-1" d="M453.32,74.45a.63.63,0,1,0,0,1.25.63.63,0,0,0,0-1.25Z"/><path class="cls-1" d="M453.32,77.08a.63.63,0,1,0,0,1.25.63.63,0,0,0,0-1.25Z"/><path class="cls-1" d="M453.32,63.93a.63.63,0,1,0,0,1.25.63.63,0,0,0,0-1.25Z"/><path class="cls-1" d="M455.94,85a.63.63,0,0,0-.62.63.63.63,0,0,0,.62.63.64.64,0,0,0,.64-.63A.64.64,0,0,0,455.94,85Z"/><path class="cls-1" d="M455.94,87.6a.64.64,0,1,0,.64.64A.64.64,0,0,0,455.94,87.6Z"/><path class="cls-1" d="M455.94,90.25a.63.63,0,0,0,0,1.25.63.63,0,1,0,0-1.25Z"/><path class="cls-1" d="M455.94,92.87a.63.63,0,0,0,0,1.26.63.63,0,1,0,0-1.26Z"/><path class="cls-1" d="M455.94,95.51a.62.62,0,0,0-.62.62.63.63,0,0,0,.62.63.64.64,0,0,0,.64-.63A.63.63,0,0,0,455.94,95.51Z"/><path class="cls-1" d="M453.32,90.24a.63.63,0,1,0,0,1.26.63.63,0,0,0,0-1.26Z"/><path class="cls-1" d="M453.32,87.6a.64.64,0,0,0-.63.64.63.63,0,1,0,.63-.64Z"/><path class="cls-1" d="M453.32,85a.63.63,0,0,0-.63.63.63.63,0,0,0,.63.63.63.63,0,0,0,.62-.63A.62.62,0,0,0,453.32,85Z"/><path class="cls-1" d="M404.74,14.66V44.13L403.87,43a27,27,0,0,0-2.4-2.4,4.13,4.13,0,0,0,.35-2.65c-1.42,2-2.34.51-2.34.51,1.28-2,0-2.55,0-2.55s.11,1.82-1.38,1.18c-1.67-.74-1.35-1.82-3.56-2.24l.71-2.13v-.11c0-1-1.08-1.84-2.51-1.95a.75.75,0,0,0,.35-.62.73.73,0,1,0-1.1.62c-1.42.13-2.47.94-2.47,1.95v.11l.71,2.16h.1a3.59,3.59,0,0,0-2.45,1.39c-1.27,0-2.85,1-1.84,3.26a6.39,6.39,0,0,1-1.78-1.37,3,3,0,0,0,3.22,3c1.18,0,2.6-.68,3.32-.68,0,0,.1.26-.41.36s-1.73.2-2.14.66c0,0,1.22,1.48,3.87.31a4.58,4.58,0,0,1,3.69,2c.65,1.1-.77,2.45-.77,2.45a3.48,3.48,0,0,0,2-.62c.66-.6-.18,1.07-1.9,1.84-.57.26,2.36.82,3.37.21A1.38,1.38,0,0,1,397.9,49a3.53,3.53,0,0,1-2.14-.05,6.33,6.33,0,0,0-1.64.31s-1.69.77-1.84.82-1.68,1-1.28-1.17l.05-1.23a1.17,1.17,0,0,0-.35-.82s-2.31-1.53-2.61-2.65l-.87.51c-3.21-2-4.6-6-3.94-10.36a.28.28,0,0,0-.5-.1c-.35.3-4.91,3.63-.51,10.3,0,0-3.56-2.65-4-8.85,0,0-2.05,2.93,3.24,9.78a10.38,10.38,0,0,1-4.67-6.64s-3.73,4.77,3.18,10.53a15.73,15.73,0,0,1-5.15-4.28s.69,3.54,6.37,6.07a13.89,13.89,0,0,1-6.55-2.49S374.29,52,380,54.36c0,0-1.92.17-5.16-1.78,0,0-.17,1.69,5.65,2.65,0,0-1.93.75-5.73-.83,0,0,.52,4.15,7.65,4.06,0,0-2.28,1-7,.35,0,0,2.31,1.93,7.21.26,0,0-1.62,1.92-6.9,1,0,0,2.93,5,9.56,2,0,0-2,2.63-6.84,2.88,0,0,3.78,1.27,8-2.4,0,0-3.44,3.28-5.89,4.24,0,0,4.76,2.79,10.66-3.85a25.87,25.87,0,0,1-2.59,3.63c1.54-.05,3.66-4.09,3.94-4.63,0,.08-.79,3.28-1.13,4.06,0,0,1.83.92,5-4.94a8,8,0,0,1-.4,1.75c-.3.83.4.13.4.13s.74-.13,1.31-3.45l.17,1.75-.34.83.95-.34c1-.31.09.64.09.64s-1.84.18-4.63,4c0,0,0,.83-2.57,1.49,0,0-.67,0,0,.57l1,.91.05,1.79L389.77,74c-1.27,1.36-1.36-.52-1.36-.52l-.13-1.79c-.39-2.75-4.55-4-4.93-1,0,0,.95-.53,1.31-.09s0,.53,0,.53a12.07,12.07,0,0,1,1,.92c.31.34.18,1.88.18,1.88a1.39,1.39,0,0,0,.44,1,11.32,11.32,0,0,0-3.24-1.65c-5-1-4.68,4.31-2.94,4.12,0,0-.38-.37,0-1.16.18-.4.83.21.83.21l3.06.13c1.22,0,1,.26.57.66-1,.83-2.5,1.6-1.22,4,0,0-.32,1.28,1.38,1.41s1.5-.72,1.5-.72-1.78.54-1.53-.65c.14-.61.87-.57.87-.57a6.73,6.73,0,0,1,2.49-2.5,2.6,2.6,0,0,1,2.72.39s0,.94,1.41,1.2a.9.9,0,0,1-.79,1.18s1.32.58,1.89-1.07c0,0,1-.64.93-1.56a3,3,0,0,0-2-2.2l3.64-3.77a2.47,2.47,0,0,0,1.56,2.22,3.41,3.41,0,0,0,.17-2.19l1.66.89a9.24,9.24,0,0,1-.08-3.46,14.54,14.54,0,0,1,1.27-2.36,11.72,11.72,0,0,1-.32,5.63s.41.26,1.89-.83c0,0-2.4,5.77-5.78,2.66,0,0-.56,5.89,5.26,1.88,0,0,0,1.29-3.41,2.22-2.05.57-3.1,4.12-3.1,4.12a19.52,19.52,0,0,1,3-2c1-.4,3.59-1.27,4.08-1.8,0,0-.66,1.85-4.86,3.33-5.2,1.83-5.37,7.68-1.13,7.12,0,0-1.23-1.62-.62-2.76a15.11,15.11,0,0,1,2.8-2.13s2.23-1.18,2.66-1.35A22.11,22.11,0,0,0,398,87.44c-1,2.33-1.26,4.24,1.5,4.77a5.45,5.45,0,0,1,1.18-4.58s2.48-2.75,3.27-3.41a11.32,11.32,0,0,1-3.63,6.72,24.89,24.89,0,0,0,2.36,1,4.25,4.25,0,0,0,2,5V92H451.8V14.66Z"/><path class="cls-1" d="M386.1,39.58a1.92,1.92,0,0,1,2.76-.11A2.57,2.57,0,0,1,386.1,39.58Z"/><path class="cls-1" d="M391.79,33.68h-.61c-.14-.41-.29-.89-.35-1.06s.39-.5,1-.62Z"/><path class="cls-1" d="M393.68,33.68H393V32c.6.12,1,.4,1,.63S393.82,33.27,393.68,33.68Z"/><path class="cls-3" d="M427.55,80.58a.93.93,0,0,1-.93-.93.92.92,0,0,1,.93-.93.93.93,0,1,1,0,1.86Z"/><path class="cls-3" d="M429.55,82.59a.94.94,0,1,1,.94-.94A.94.94,0,0,1,429.55,82.59Z"/><path class="cls-3" d="M429.55,80.58a.93.93,0,0,1-.93-.93.92.92,0,0,1,.93-.93.93.93,0,1,1,0,1.86Z"/><path class="cls-3" d="M429.55,78.59a.93.93,0,1,1,.94-.93A.94.94,0,0,1,429.55,78.59Z"/><path class="cls-3" d="M431.55,84.59a1,1,0,0,1-.93-.94.93.93,0,0,1,1.86,0A1,1,0,0,1,431.55,84.59Z"/><path class="cls-3" d="M431.55,82.59a.94.94,0,1,1,.93-.94A.94.94,0,0,1,431.55,82.59Z"/><path class="cls-3" d="M431.55,80.58a.93.93,0,1,1,.93-.93A.93.93,0,0,1,431.55,80.58Z"/><path class="cls-3" d="M431.55,78.59a.93.93,0,1,1,.93-.93A.93.93,0,0,1,431.55,78.59Z"/><path class="cls-3" d="M431.55,76.59a.93.93,0,1,1,.93-.93A.93.93,0,0,1,431.55,76.59Z"/><path class="cls-3" d="M433.55,86.57a.93.93,0,1,1,0-1.85.93.93,0,1,1,0,1.85Z"/><path class="cls-3" d="M433.55,84.59a1,1,0,0,1-.94-.94.94.94,0,0,1,.94-.93.92.92,0,0,1,.93.93A.94.94,0,0,1,433.55,84.59Z"/><path class="cls-3" d="M433.55,82.59a.94.94,0,1,1,0-1.87.94.94,0,0,1,0,1.87Z"/><path class="cls-3" d="M433.55,78.59a.93.93,0,1,1,0-1.86.93.93,0,1,1,0,1.86Z"/><path class="cls-3" d="M433.55,76.59a.93.93,0,1,1,.93-.93A.92.92,0,0,1,433.55,76.59Z"/><path class="cls-3" d="M433.55,74.59a.93.93,0,1,1,0-1.86.93.93,0,1,1,0,1.86Z"/><path class="cls-3" d="M435.54,88.57a.93.93,0,0,1,0-1.86.93.93,0,1,1,0,1.86Z"/><path class="cls-3" d="M435.54,86.57a.93.93,0,1,1,.94-.93A.93.93,0,0,1,435.54,86.57Z"/><path class="cls-3" d="M435.54,84.59a1,1,0,0,1-.93-.94.94.94,0,0,1,1.87,0A1,1,0,0,1,435.54,84.59Z"/><path class="cls-3" d="M435.54,82.59a.94.94,0,1,1,.94-.94A.94.94,0,0,1,435.54,82.59Z"/><path class="cls-3" d="M435.54,78.59a.93.93,0,1,1,.94-.93A.93.93,0,0,1,435.54,78.59Z"/><path class="cls-3" d="M435.54,76.59a.93.93,0,0,1,0-1.86.93.93,0,1,1,0,1.86Z"/><path class="cls-3" d="M435.54,74.59a.93.93,0,1,1,0-1.86.93.93,0,1,1,0,1.86Z"/><path class="cls-3" d="M435.54,72.6a.94.94,0,1,1,.94-.94A.94.94,0,0,1,435.54,72.6Z"/><path class="cls-3" d="M435.54,70.6a.94.94,0,0,1,0-1.87.94.94,0,1,1,0,1.87Z"/><path class="cls-3" d="M435.54,68.6a.93.93,0,1,1,.94-.93A.93.93,0,0,1,435.54,68.6Z"/><path class="cls-3" d="M435.54,66.61a.94.94,0,1,1,.94-.94A.94.94,0,0,1,435.54,66.61Z"/><path class="cls-3" d="M435.54,64.6a.93.93,0,0,1,0-1.86.93.93,0,1,1,0,1.86Z"/><path class="cls-3" d="M435.54,62.61a.94.94,0,0,1-.93-.94.94.94,0,0,1,1.87,0A1,1,0,0,1,435.54,62.61Z"/><path class="cls-3" d="M435.54,60.61a.93.93,0,1,1,.94-.93A.93.93,0,0,1,435.54,60.61Z"/><path class="cls-3" d="M435.54,58.6a.92.92,0,1,1,0-1.84.92.92,0,1,1,0,1.84Z"/><path class="cls-3" d="M435.54,56.62a.94.94,0,1,1,.94-.94A.94.94,0,0,1,435.54,56.62Z"/><path class="cls-3" d="M435.54,54.62a.93.93,0,1,1,.94-.93A.93.93,0,0,1,435.54,54.62Z"/><path class="cls-3" d="M435.54,52.61a.93.93,0,1,1,0-1.85.93.93,0,1,1,0,1.85Z"/><path class="cls-3" d="M435.54,50.62a.93.93,0,1,1,.94-.93A.93.93,0,0,1,435.54,50.62Z"/><path class="cls-3" d="M435.54,48.64a1,1,0,0,1-.93-1,.94.94,0,0,1,1.87,0A1,1,0,0,1,435.54,48.64Z"/><path class="cls-3" d="M435.54,46.62a.93.93,0,0,1,0-1.86.93.93,0,1,1,0,1.86Z"/><path class="cls-3" d="M435.54,44.63a.93.93,0,1,1,.94-.93A.93.93,0,0,1,435.54,44.63Z"/><path class="cls-3" d="M435.54,42.64a.94.94,0,1,1,.94-.94A.94.94,0,0,1,435.54,42.64Z"/><path class="cls-3" d="M435.54,40.64a.94.94,0,1,1,.94-.94A.94.94,0,0,1,435.54,40.64Z"/><path class="cls-3" d="M435.54,38.64a.93.93,0,1,1,.94-.93A.93.93,0,0,1,435.54,38.64Z"/><path class="cls-3" d="M435.54,36.64a.93.93,0,1,1,.94-.93A.93.93,0,0,1,435.54,36.64Z"/><path class="cls-3" d="M437.53,90.58a.94.94,0,0,1-.93-.94.93.93,0,0,1,.93-.93.94.94,0,0,1,1,.93A1,1,0,0,1,437.53,90.58Z"/><path class="cls-3" d="M437.53,88.57a.93.93,0,1,1,0-1.86.93.93,0,1,1,0,1.86Z"/><path class="cls-3" d="M437.53,86.57a.93.93,0,1,1,1-.93A1,1,0,0,1,437.53,86.57Z"/><path class="cls-3" d="M437.53,74.59a.93.93,0,1,1,0-1.86.93.93,0,1,1,0,1.86Z"/><path class="cls-3" d="M437.53,72.6a.94.94,0,1,1,1-.94A1,1,0,0,1,437.53,72.6Z"/><path class="cls-3" d="M437.53,70.6a.94.94,0,0,1,0-1.87.94.94,0,1,1,0,1.87Z"/><path class="cls-3" d="M437.53,68.6a.93.93,0,0,1,0-1.86.93.93,0,1,1,0,1.86Z"/><path class="cls-3" d="M437.53,66.61a.94.94,0,0,1,0-1.88.94.94,0,1,1,0,1.88Z"/><path class="cls-3" d="M437.53,64.6a.93.93,0,0,1,0-1.86.93.93,0,1,1,0,1.86Z"/><path class="cls-3" d="M437.53,62.61a.94.94,0,0,1-.93-.94.93.93,0,0,1,.93-.92.94.94,0,0,1,1,.92A1,1,0,0,1,437.53,62.61Z"/><path class="cls-3" d="M437.53,60.61a.93.93,0,1,1,1-.93A1,1,0,0,1,437.53,60.61Z"/><path class="cls-3" d="M437.53,58.6a.92.92,0,1,1,1-.93A.94.94,0,0,1,437.53,58.6Z"/><path class="cls-3" d="M437.53,56.62a.94.94,0,1,1,1-.94A1,1,0,0,1,437.53,56.62Z"/><path class="cls-3" d="M437.53,54.62a.93.93,0,0,1,0-1.86.93.93,0,1,1,0,1.86Z"/><path class="cls-3" d="M437.53,52.61a.93.93,0,1,1,0-1.85.93.93,0,1,1,0,1.85Z"/><path class="cls-3" d="M437.53,50.62a.93.93,0,0,1,0-1.86.93.93,0,1,1,0,1.86Z"/><path class="cls-3" d="M437.53,48.64a1,1,0,0,1-.93-1,.93.93,0,0,1,.93-.92.94.94,0,0,1,1,.92A1,1,0,0,1,437.53,48.64Z"/><path class="cls-3" d="M437.53,46.62a.93.93,0,0,1,0-1.86.93.93,0,1,1,0,1.86Z"/><path class="cls-3" d="M437.53,44.63a.93.93,0,0,1,0-1.86.93.93,0,1,1,0,1.86Z"/><path class="cls-3" d="M437.53,42.64a.94.94,0,1,1,1-.94A1,1,0,0,1,437.53,42.64Z"/><path class="cls-3" d="M437.53,40.64a.94.94,0,1,1,1-.94A1,1,0,0,1,437.53,40.64Z"/><path class="cls-3" d="M437.53,38.64a.93.93,0,1,1,1-.93A1,1,0,0,1,437.53,38.64Z"/><path class="cls-3" d="M437.53,36.64a.93.93,0,0,1,0-1.86.93.93,0,1,1,0,1.86Z"/><path class="cls-3" d="M439.54,88.57a.93.93,0,1,1,.94-.93A.94.94,0,0,1,439.54,88.57Z"/><path class="cls-3" d="M439.54,86.57a.93.93,0,1,1,0-1.85.93.93,0,1,1,0,1.85Z"/><path class="cls-3" d="M439.54,84.59a1,1,0,0,1-.94-.94.94.94,0,0,1,1.88,0A1,1,0,0,1,439.54,84.59Z"/><path class="cls-3" d="M439.54,82.59a.94.94,0,1,1,.94-.94A.95.95,0,0,1,439.54,82.59Z"/><path class="cls-3" d="M439.54,78.59a.93.93,0,1,1,0-1.86.93.93,0,1,1,0,1.86Z"/><path class="cls-3" d="M439.54,76.59a.93.93,0,1,1,.94-.93A.94.94,0,0,1,439.54,76.59Z"/><path class="cls-3" d="M439.54,74.59a.93.93,0,1,1,.94-.92A.94.94,0,0,1,439.54,74.59Z"/><path class="cls-3" d="M439.54,72.6a.93.93,0,0,1-.94-.94.94.94,0,1,1,.94.94Z"/><path class="cls-3" d="M439.54,70.6a.94.94,0,1,1,.94-.94A.94.94,0,0,1,439.54,70.6Z"/><path class="cls-3" d="M439.54,68.6a.93.93,0,1,1,.94-.93A.94.94,0,0,1,439.54,68.6Z"/><path class="cls-3" d="M439.54,66.61a.94.94,0,1,1,.94-.94A.95.95,0,0,1,439.54,66.61Z"/><path class="cls-3" d="M439.54,64.6a.93.93,0,1,1,.94-.93A.94.94,0,0,1,439.54,64.6Z"/><path class="cls-3" d="M439.54,62.61a1,1,0,0,1-.94-.94.94.94,0,1,1,.94.94Z"/><path class="cls-3" d="M439.54,60.61a.93.93,0,1,1,0-1.86.93.93,0,1,1,0,1.86Z"/><path class="cls-3" d="M439.54,58.6a.92.92,0,1,1,0-1.84.92.92,0,1,1,0,1.84Z"/><path class="cls-3" d="M439.54,56.62a.94.94,0,1,1,0-1.87.94.94,0,1,1,0,1.87Z"/><path class="cls-3" d="M439.54,54.62a.93.93,0,1,1,.94-.93A.94.94,0,0,1,439.54,54.62Z"/><path class="cls-3" d="M439.54,52.61a.93.93,0,1,1,.94-.92A.93.93,0,0,1,439.54,52.61Z"/><path class="cls-3" d="M439.54,50.62a.93.93,0,1,1,.94-.93A.94.94,0,0,1,439.54,50.62Z"/><path class="cls-3" d="M439.54,48.64a1,1,0,0,1-.94-1,.94.94,0,0,1,1.88,0A1,1,0,0,1,439.54,48.64Z"/><path class="cls-3" d="M439.54,46.62a.93.93,0,1,1,.94-.93A.93.93,0,0,1,439.54,46.62Z"/><path class="cls-3" d="M439.54,44.63a.93.93,0,1,1,.94-.93A.93.93,0,0,1,439.54,44.63Z"/><path class="cls-3" d="M439.54,40.64a.94.94,0,1,1,.94-.94A.94.94,0,0,1,439.54,40.64Z"/><path class="cls-3" d="M439.54,38.64a.93.93,0,1,1,.94-.93A.93.93,0,0,1,439.54,38.64Z"/><path class="cls-3" d="M439.54,36.64a.93.93,0,1,1,.94-.93A.93.93,0,0,1,439.54,36.64Z"/><path class="cls-3" d="M441.54,86.57a.93.93,0,1,1,0-1.85.93.93,0,1,1,0,1.85Z"/><path class="cls-3" d="M441.54,84.59a1,1,0,0,1-.94-.94.94.94,0,0,1,1.87,0A1,1,0,0,1,441.54,84.59Z"/><path class="cls-3" d="M441.54,82.59a.94.94,0,1,1,.93-.94A.94.94,0,0,1,441.54,82.59Z"/><path class="cls-3" d="M441.54,78.59a.93.93,0,1,1,.93-.93A.94.94,0,0,1,441.54,78.59Z"/><path class="cls-3" d="M441.54,76.59a.93.93,0,1,1,.93-.93A.93.93,0,0,1,441.54,76.59Z"/><path class="cls-3" d="M441.54,74.59a.93.93,0,1,1,.93-.92A.93.93,0,0,1,441.54,74.59Z"/><path class="cls-3" d="M441.54,48.64a.94.94,0,0,1-.93-1,.92.92,0,0,1,.93-.92.93.93,0,0,1,.94.92A1,1,0,0,1,441.54,48.64Z"/><path class="cls-3" d="M441.54,46.62a.93.93,0,0,1,0-1.86.93.93,0,1,1,0,1.86Z"/><path class="cls-3" d="M441.54,44.63a.93.93,0,0,1,0-1.86.93.93,0,1,1,0,1.86Z"/><path class="cls-3" d="M441.54,40.64a.94.94,0,0,1,0-1.87.94.94,0,1,1,0,1.87Z"/><path class="cls-3" d="M441.54,38.64a.93.93,0,1,1,.94-.93A.94.94,0,0,1,441.54,38.64Z"/><path class="cls-3" d="M441.54,36.64a.93.93,0,0,1,0-1.86.93.93,0,1,1,0,1.86Z"/><path class="cls-3" d="M443.53,84.59a.94.94,0,0,1-.92-.94.92.92,0,0,1,.92-.93.93.93,0,0,1,.94.93A1,1,0,0,1,443.53,84.59Z"/><path class="cls-3" d="M443.53,82.59a.94.94,0,1,1,.94-.94A.94.94,0,0,1,443.53,82.59Z"/><path class="cls-3" d="M443.53,80.58a.93.93,0,0,1,0-1.86.93.93,0,1,1,0,1.86Z"/><path class="cls-3" d="M443.53,78.59a.93.93,0,1,1,.94-.93A.94.94,0,0,1,443.53,78.59Z"/><path class="cls-3" d="M443.53,76.59a.93.93,0,0,1,0-1.86.93.93,0,1,1,0,1.86Z"/><path class="cls-3" d="M443.53,48.64a.94.94,0,0,1-.92-1,.92.92,0,0,1,.92-.92.93.93,0,0,1,.94.92A1,1,0,0,1,443.53,48.64Z"/><path class="cls-3" d="M443.53,36.64a.93.93,0,0,1,0-1.86.93.93,0,1,1,0,1.86Z"/><path class="cls-3" d="M445.53,82.59a.94.94,0,1,1,0-1.87.94.94,0,0,1,0,1.87Z"/><path class="cls-3" d="M445.53,80.58a.93.93,0,1,1,.93-.93A.94.94,0,0,1,445.53,80.58Z"/><path class="cls-3" d="M445.53,78.59a.93.93,0,1,1,0-1.86.93.93,0,1,1,0,1.86Z"/><path class="cls-3" d="M445.53,48.64a1,1,0,0,1-.94-1,.94.94,0,0,1,1.87,0A1,1,0,0,1,445.53,48.64Z"/><path class="cls-3" d="M445.53,46.62a.93.93,0,1,1,.93-.93A.94.94,0,0,1,445.53,46.62Z"/><path class="cls-3" d="M445.53,44.63a.93.93,0,1,1,0-1.86.93.93,0,1,1,0,1.86Z"/><path class="cls-3" d="M445.53,40.64a.94.94,0,1,1,.93-.94A.94.94,0,0,1,445.53,40.64Z"/><path class="cls-3" d="M445.53,38.64a.93.93,0,1,1,.93-.93A.93.93,0,0,1,445.53,38.64Z"/><path class="cls-3" d="M445.53,36.64a.93.93,0,1,1,.93-.93A.93.93,0,0,1,445.53,36.64Z"/><path class="cls-3" d="M447.53,80.58a.93.93,0,1,1,.93-.93A.94.94,0,0,1,447.53,80.58Z"/><path class="cls-3" d="M447.53,48.64a1,1,0,0,1-.93-1,.93.93,0,0,1,1.86,0A.94.94,0,0,1,447.53,48.64Z"/><path class="cls-3" d="M447.53,46.62a.93.93,0,1,1,.93-.93A.93.93,0,0,1,447.53,46.62Z"/><path class="cls-3" d="M447.53,44.63a.93.93,0,1,1,.93-.93A.93.93,0,0,1,447.53,44.63Z"/><path class="cls-3" d="M447.53,40.64a.94.94,0,1,1,.93-.94A.94.94,0,0,1,447.53,40.64Z"/><path class="cls-3" d="M447.53,38.64a.93.93,0,0,1,0-1.86.93.93,0,1,1,0,1.86Z"/><path class="cls-3" d="M447.53,36.64a.93.93,0,1,1,.93-.93A.93.93,0,0,1,447.53,36.64Z"/><path class="cls-3" d="M449.53,48.64a.94.94,0,0,1-.93-1,.93.93,0,0,1,1.86,0A1,1,0,0,1,449.53,48.64Z"/><circle class="cls-3" cx="449.53" cy="45.69" r="0.93"/><path class="cls-3" d="M449.53,44.63a.93.93,0,0,1,0-1.86.93.93,0,1,1,0,1.86Z"/><path class="cls-3" d="M449.53,40.64a.94.94,0,1,1,.93-.94A.93.93,0,0,1,449.53,40.64Z"/><path class="cls-3" d="M449.53,38.64a.93.93,0,1,1,.93-.93A.93.93,0,0,1,449.53,38.64Z"/><path class="cls-3" d="M449.53,36.64a.93.93,0,1,1,.93-.93A.93.93,0,0,1,449.53,36.64Z"/><path class="cls-1" d="M472.25,44.55a.87.87,0,0,0-.79.45.8.8,0,0,0-.69-.36.88.88,0,0,0-.6.24,1.42,1.42,0,0,0-.32,1.09v1.77h3.36V46a2.32,2.32,0,0,0-.09-.79.91.91,0,0,0-.87-.67"/><path class="cls-3" d="M470.85,45.64c.21,0,.28.16.28.36v.73h-.57V46c0-.2.07-.32.29-.32"/><path class="cls-3" d="M472.16,45.57c.3,0,.32.23.32.46v.7h-.65v-.67C471.83,45.84,471.87,45.57,472.16,45.57Z"/><path class="cls-1" d="M473.22,36.57l-1.47.84a1,1,0,0,0-.89-.58c-.65,0-1,.47-1,1.06,0,.13,0,.27,0,.39V40h3.38V39h-1.28v-.54l1.28-.72V36.57"/><path class="cls-3" d="M470.88,37.85c.29,0,.31.27.31.49V39h-.62v-.64C470.57,38.09,470.59,37.85,470.88,37.85Z"/><polygon class="cls-1" points="481.11 36.93 480.29 36.93 480.3 38.6 477.72 38.6 477.72 39.6 481.11 39.6 481.11 36.93"/><polyline class="cls-1" points="473.22 28.19 469.84 29.79 469.84 30.95 473.22 32.58 473.22 31.47 472.51 31.16 472.51 29.61 473.22 29.29 473.22 28.19"/><polygon class="cls-3" points="471.78 29.91 471.78 30.84 470.77 30.38 471.78 29.91"/><path class="cls-1" d="M479.6,28.74h-1.92v1h1.75a2.36,2.36,0,0,1,.38,0,.59.59,0,0,1,.53.63.63.63,0,0,1-.22.49,1,1,0,0,1-.69.15h-1.75v1h1.92a1.45,1.45,0,0,0,1.54-1.64A1.44,1.44,0,0,0,479.6,28.74Z"/><path class="cls-1" d="M472.19,20.85c-.77,0-1,.88-1.12,1.48,0,.15-.09.57-.29.57s-.24-.3-.24-.47a1.36,1.36,0,0,1,.23-.77l-.7-.55a2.31,2.31,0,0,0-.31,1.29c0,.66.32,1.53,1.11,1.53s.94-.73,1.05-1.26c0-.17.11-.8.34-.8s.25.33.25.51a1.57,1.57,0,0,1-.41,1.07l.58.66a2.48,2.48,0,0,0,.61-1.65C473.29,21.77,473,20.85,472.19,20.85Z"/><polygon class="cls-1" points="477.73 20.65 477.73 21.79 478.63 22.42 477.73 23.05 477.73 24.2 479.36 23.05 481.1 24.31 481.1 23.17 480.11 22.49 481.1 21.81 481.1 20.65 479.39 21.86 477.73 20.65"/><polygon class="cls-1" points="473.21 68.41 472.39 68.41 472.39 70.25 471.87 70.25 471.87 68.77 471.06 68.77 471.09 70.25 470.65 70.25 470.65 68.42 469.85 68.42 469.85 71.28 473.21 71.28 473.21 68.41"/><polygon class="cls-1" points="470.65 76.09 469.85 76.09 469.85 79.36 470.65 79.36 470.65 78.23 473.21 78.23 473.21 77.22 470.65 77.22 470.65 76.09"/><polygon class="cls-1" points="473.22 60.22 469.84 60.22 469.84 61.23 471.77 61.22 469.84 62.67 469.84 63.66 473.22 63.66 473.22 62.66 471.29 62.67 473.22 61.19 473.22 60.22"/><polygon class="cls-1" points="473.21 52.62 472.39 52.62 472.39 54.47 471.87 54.47 471.87 52.98 471.06 52.98 471.09 54.47 470.65 54.47 470.65 52.63 469.85 52.63 469.85 55.47 473.21 55.47 473.21 52.62"/><polygon class="cls-1" points="399.54 0 398.73 0 398.73 1.26 397.87 0.69 396.99 1.26 396.98 0.01 396.17 0.01 396.17 2.86 397.86 1.79 399.54 2.86 399.54 0"/><polygon class="cls-1" points="399.56 7.63 396.16 7.63 396.16 8.64 397.37 8.63 397.37 10.01 396.16 10 396.16 11.01 399.56 11.01 399.56 10 398.21 10.01 398.21 8.63 399.56 8.64 399.56 7.63"/><path class="cls-1" d="M390.26,8.18H390c-.72,0-1.3.34-1.3,1.17a1,1,0,0,0,1,1.13,2.68,2.68,0,0,0,.4,0h.2v1.15h1V9.79h-1.19a.42.42,0,0,1-.43-.46.42.42,0,0,1,.43-.42h1.19V7h-1Z"/><polygon class="cls-1" points="462.76 20.85 461.94 20.85 461.94 24.13 462.76 24.13 462.76 22.99 465.32 22.99 465.32 21.99 462.76 21.99 462.76 20.85"/><path class="cls-1" d="M464.3,28.75c-.78,0-1,.89-1.12,1.48,0,.16-.09.59-.29.59s-.24-.31-.24-.49a1.48,1.48,0,0,1,.21-.76l-.68-.55a2.2,2.2,0,0,0-.31,1.28c0,.67.31,1.54,1.11,1.54.65,0,.93-.72,1-1.27,0-.17.13-.78.34-.78s.26.31.26.49a1.56,1.56,0,0,1-.42,1.08l.58.66a2.47,2.47,0,0,0,.62-1.65C465.4,29.68,465.14,28.75,464.3,28.75Z"/><path class="cls-1" d="M463.66,36.39a1.89,1.89,0,0,0,0,3.77,1.89,1.89,0,0,0,0-3.77Z"/><path class="cls-3" d="M463.63,37.44c.54,0,1,.23,1,.83s-.45.84-1,.84-1-.24-1-.84.44-.83,1-.83"/><path class="cls-1" d="M463.06,44.61a1.05,1.05,0,0,0-1.09,1,2.75,2.75,0,0,0,0,.4v1.7h3.37v-1h-1.15V46C464.16,45.25,463.88,44.61,463.06,44.61Z"/><path class="cls-3" d="M463.06,45.62a.37.37,0,0,1,.37.41v.69h-.76V46a.36.36,0,0,1,.39-.41"/><polygon class="cls-1" points="399.54 16.09 398.73 16.09 398.74 16.74 396.98 16.74 396.99 16.14 396.17 16.14 396.17 18.31 396.99 18.31 396.98 17.71 398.74 17.71 398.73 18.35 399.54 18.35 399.54 16.09"/></svg>